<svg width="32" height="32" viewBox="0 0 32 32" fill="none" xmlns="http://www.w3.org/2000/svg">
<path d="M12.8697 8.14542C12.8974 8.12442 12.9199 8.0973 12.9355 8.06618C14.235 5.46443 16.4882 3.47781 19.2151 2.52807C21.9725 1.58165 25.6991 1.62562 28.0357 3.54849C29.1853 4.49457 29.7513 5.90892 29.8618 7.441C29.9724 8.97377 29.6247 10.6046 28.9694 11.9486C28.0991 13.7336 26.7304 15.3975 25.3387 17.0876L25.3365 17.0904C24.6181 17.9627 23.8946 18.8413 23.2408 19.7392C23.1345 19.8799 23.0989 20.0422 23.1436 20.1968C23.186 20.3436 23.2916 20.4522 23.4067 20.5176C23.632 20.6457 23.987 20.6528 24.2048 20.3634L24.2071 20.3604C24.7908 19.5571 25.462 18.7383 26.1559 17.8918L26.1649 17.8807C27.5838 16.1497 29.0965 14.3044 30.0733 12.3045C31.056 10.2926 31.5046 8.10857 30.7744 5.70949C29.9603 3.03094 27.7787 1.57544 25.2968 1.03018C22.82 0.486063 20.0146 0.838518 17.8736 1.7968C15.2712 2.95203 13.1498 4.98714 11.8741 7.55112C11.7014 7.88044 11.8772 8.19193 12.1027 8.32696C12.2174 8.39563 12.3629 8.43274 12.5107 8.40236C12.6489 8.37393 12.7685 8.29033 12.8504 8.16003L12.8697 8.14542ZM2.06849 18.2075C0.793264 20.6735 0.187426 23.3951 1.17213 26.2622C1.55612 27.3935 2.21003 28.4123 3.07633 29.2285C3.94275 30.0448 4.995 30.6335 6.14036 30.9423L6.14034 30.9424L6.14568 30.9437C8.67192 31.5594 11.3362 31.1603 13.5762 29.8307L13.5763 29.8308L13.5829 29.8265C16.3313 28.0639 18.7248 25.7926 20.6373 23.1323C20.8598 22.8466 20.7645 22.5091 20.5804 22.3233C20.4867 22.2287 20.3559 22.1561 20.2062 22.1486C20.0485 22.1406 19.8972 22.2063 19.7817 22.3396C19.7768 22.3452 19.7722 22.3511 19.7679 22.3572C17.9115 24.9834 15.5557 27.2099 12.8382 28.9067C11.5617 29.6877 10.0979 30.1005 8.60572 30.1005C7.1161 30.1005 5.65479 29.6891 4.37989 28.9107C1.8513 27.0812 1.40896 23.5753 2.30198 20.6899L2.30229 20.6889C3.27457 17.4949 5.57275 14.9815 7.82456 12.5243L7.84799 12.4987C7.96948 12.3696 8.01706 12.2124 8.00194 12.0602C7.98737 11.9134 7.91618 11.7828 7.82101 11.688C7.72603 11.5934 7.59395 11.5217 7.44389 11.5128C7.36367 11.508 7.28419 11.5217 7.20958 11.5538C7.14196 11.5488 7.07379 11.5743 7.02586 11.6266C5.29123 13.5193 3.34129 15.7463 2.06849 18.2075ZM21.4244 10.9111L21.425 10.9104C21.6679 10.6301 21.5739 10.2851 21.3925 10.0967C21.3003 10.001 21.1703 9.92621 21.0205 9.91661C20.8625 9.90648 20.71 9.97107 20.5938 10.1048C17.4571 13.6969 14.0069 16.9969 10.2847 19.9649C10.145 20.0739 10.0694 20.2223 10.0724 20.383C10.0752 20.5355 10.1481 20.6682 10.2424 20.7621C10.4106 20.9296 10.7087 21.0251 10.9759 20.8689C11.0044 20.8609 11.0315 20.8472 11.0555 20.8281C14.7995 17.8432 18.2698 14.5241 21.4244 10.9111Z" fill="#FFEDE4" stroke="#FFEDE4" stroke-width="0.452541" stroke-linejoin="round"/>
</svg>
