<svg width="38" height="34" viewBox="0 0 38 34" fill="none" xmlns="http://www.w3.org/2000/svg">
<path d="M13.4062 11.4703H1.51446C1.41852 11.4703 1.32506 11.4942 1.242 11.5386C1.05615 11.5861 0.896384 11.7189 0.820521 11.8877C0.77825 11.9818 0.759664 12.0931 0.785659 12.2079C0.811994 12.3243 0.879971 12.426 0.97954 12.5057C4.40536 15.2463 7.74645 18.0582 11.0028 20.9415L7.76247 32.5654C7.76021 32.5735 7.75841 32.5817 7.75706 32.59C7.73855 32.7044 7.75497 32.8211 7.8032 32.9252C7.77871 33.0631 7.80499 33.2057 7.87789 33.3262C7.95741 33.4577 8.08593 33.5523 8.23512 33.589C8.38365 33.6256 8.54061 33.602 8.67178 33.5233C12.1633 31.4825 15.5254 29.2282 18.739 26.7732C22.1526 29.1754 25.6646 31.4165 29.2749 33.4966C29.2781 33.4984 29.2812 33.5001 29.2845 33.5018C29.2878 33.5035 29.2913 33.5052 29.2947 33.5067C29.3116 33.5143 29.3287 33.5211 29.3461 33.5271C29.4528 33.6261 29.5931 33.6814 29.7392 33.6814C29.8924 33.6814 30.0393 33.6205 30.1477 33.5122C30.256 33.4039 30.3169 33.257 30.3169 33.1037L30.3169 33.103C30.3026 28.9999 29.6236 24.9267 28.3067 21.0419L36.6457 12.7709L36.6464 12.7702C36.752 12.6646 36.8092 12.5364 36.8158 12.4025C36.8211 12.2949 36.7934 12.1941 36.7467 12.1083C36.7272 11.9901 36.6712 11.88 36.5853 11.7942C36.4769 11.6858 36.33 11.625 36.1768 11.625L36.1763 11.625C32.299 11.6339 28.4246 11.4198 24.5722 10.9836C24.468 10.884 24.3302 10.827 24.186 10.8238L24.1015 10.8153C23.5157 7.39874 22.347 4.10742 20.6455 1.08543C20.6412 1.07781 20.6364 1.07044 20.6313 1.06337C20.6227 1.05158 20.6137 1.04015 20.6043 1.0291C20.5012 0.883338 20.33 0.792251 20.1548 0.776287C19.9648 0.758965 19.7586 0.82943 19.6188 1.02084L19.6168 1.02361C17.2724 4.33541 15.1957 7.82871 13.4062 11.4703ZM14.5126 11.8548C16.1295 8.57612 17.9811 5.4189 20.0528 2.40772C21.416 5.01095 22.3798 7.80474 22.9116 10.6952L21.1317 10.5156C21.1213 10.5145 21.1108 10.5142 21.1004 10.5146C20.9513 10.5202 20.8099 10.582 20.7044 10.6875C20.5989 10.7929 20.5371 10.9344 20.5314 11.0836L20.5313 11.0835V11.0921C20.5313 11.2454 20.5922 11.3923 20.7005 11.5006L20.8605 11.3406L20.7005 11.5006C20.8058 11.6059 20.9476 11.6663 21.0962 11.6696L23.4296 11.9051C23.5185 11.983 23.6338 12.0348 23.7689 12.0481C27.4952 12.4981 31.2432 12.7412 34.9957 12.7762L27.2076 20.5008C27.207 20.5014 27.2065 20.5019 27.2059 20.5024C27.0825 20.6213 27.0265 20.7706 27.0347 20.9211C27.0415 21.0462 27.0917 21.1595 27.1625 21.2493C28.364 24.7434 29.0317 28.397 29.1445 32.0868C25.7158 30.072 22.369 27.9179 19.104 25.6246C19.041 25.5789 18.9725 25.5464 18.9005 25.5296C18.7399 25.4588 18.5511 25.4744 18.3853 25.6003L18.3846 25.6009C15.4258 27.8678 12.3431 29.9677 9.15092 31.8909L12.0099 21.8185L14.5593 23.979C14.6113 24.0307 14.6728 24.0719 14.7403 24.1006C14.8117 24.131 14.8885 24.1467 14.9662 24.1467C15.0438 24.1467 15.1207 24.131 15.1922 24.1006C15.2637 24.0702 15.3283 24.0258 15.3821 23.9699L15.3822 23.9699L15.3866 23.9651C15.4857 23.8562 15.5407 23.7142 15.5407 23.5669C15.5407 23.4195 15.4857 23.2775 15.3866 23.1686C15.3799 23.1612 15.3727 23.1544 15.3651 23.148L12.105 20.3968C12.0856 20.3729 12.0641 20.3502 12.0408 20.3288L12.0392 20.3273C9.08951 17.6759 6.07034 15.1087 2.98164 12.6257H13.9682C14.1214 12.6257 14.2683 12.5648 14.3767 12.4565C14.485 12.3482 14.5459 12.2013 14.5459 12.048C14.5459 11.9815 14.5344 11.9162 14.5126 11.8548Z" fill="#FFEDE4" stroke="#FFEDE4" stroke-width="0.452541" stroke-linejoin="round"/>
</svg>
