<svg width="65" height="40" viewBox="0 0 65 40" fill="none" xmlns="http://www.w3.org/2000/svg">
<mask id="path-1-inside-1_170_956" fill="white">
<path d="M13.585 20.6343C12.9814 21.1209 12.5505 21.7186 12.3337 22.3702C11.8732 21.8835 11.2895 21.4734 10.6177 21.1647C10.9196 21.0654 11.1762 20.899 11.3546 20.6869L11.3752 20.6188L11.334 20.5565L11.2503 20.5292L11.1635 20.5498C10.7529 20.776 10.2894 20.939 9.79847 21.0298C9.48998 21.0316 9.19105 21.0775 8.86676 21.0858C8.33461 21.0993 7.34323 21.0258 7.44951 20.4348C7.46901 20.3298 7.2664 20.3184 7.2391 20.4186C7.20063 20.5687 7.21389 20.724 7.27754 20.869C7.3412 21.014 7.45305 21.1437 7.602 21.2452C7.80167 21.3624 8.02941 21.4481 8.27219 21.4975C8.51497 21.547 8.76804 21.5591 9.01691 21.5332C9.61349 21.5021 10.2072 21.6195 10.7103 21.8682C11.2018 22.1567 11.6667 22.4712 12.1016 22.8093L12.1543 22.8393L12.0006 23.265C11.5716 24.4446 11.1607 25.6279 10.7111 26.803C9.81856 29.1354 9.05475 31.4955 8.20279 33.8368C8.02437 34.4658 7.78316 35.0832 7.48129 35.6836C7.28246 35.9304 7.00878 36.1365 6.68373 36.2841C6.35868 36.4318 5.99194 36.5166 5.61494 36.5313C5.55102 36.5409 5.49442 36.5692 5.45705 36.6102C5.41968 36.6513 5.40445 36.7018 5.41454 36.7513C5.42464 36.8008 5.45929 36.8454 5.5112 36.8757C5.56312 36.9059 5.62826 36.9195 5.69294 36.9136C6.3111 36.8981 6.9147 36.7654 7.45009 36.5272C7.9316 36.2104 8.25599 35.7753 8.36834 35.2956C8.82991 34.0806 9.26749 32.8594 9.69707 31.6372C10.551 29.208 11.3134 26.7631 12.1242 24.3256C12.3584 23.0642 12.908 21.8495 13.7427 20.7489C13.8166 20.6739 13.6757 20.5677 13.585 20.6343Z"/>
</mask>
<path d="M13.585 20.6343C12.9814 21.1209 12.5505 21.7186 12.3337 22.3702C11.8732 21.8835 11.2895 21.4734 10.6177 21.1647C10.9196 21.0654 11.1762 20.899 11.3546 20.6869L11.3752 20.6188L11.334 20.5565L11.2503 20.5292L11.1635 20.5498C10.7529 20.776 10.2894 20.939 9.79847 21.0298C9.48998 21.0316 9.19105 21.0775 8.86676 21.0858C8.33461 21.0993 7.34323 21.0258 7.44951 20.4348C7.46901 20.3298 7.2664 20.3184 7.2391 20.4186C7.20063 20.5687 7.21389 20.724 7.27754 20.869C7.3412 21.014 7.45305 21.1437 7.602 21.2452C7.80167 21.3624 8.02941 21.4481 8.27219 21.4975C8.51497 21.547 8.76804 21.5591 9.01691 21.5332C9.61349 21.5021 10.2072 21.6195 10.7103 21.8682C11.2018 22.1567 11.6667 22.4712 12.1016 22.8093L12.1543 22.8393L12.0006 23.265C11.5716 24.4446 11.1607 25.6279 10.7111 26.803C9.81856 29.1354 9.05475 31.4955 8.20279 33.8368C8.02437 34.4658 7.78316 35.0832 7.48129 35.6836C7.28246 35.9304 7.00878 36.1365 6.68373 36.2841C6.35868 36.4318 5.99194 36.5166 5.61494 36.5313C5.55102 36.5409 5.49442 36.5692 5.45705 36.6102C5.41968 36.6513 5.40445 36.7018 5.41454 36.7513C5.42464 36.8008 5.45929 36.8454 5.5112 36.8757C5.56312 36.9059 5.62826 36.9195 5.69294 36.9136C6.3111 36.8981 6.9147 36.7654 7.45009 36.5272C7.9316 36.2104 8.25599 35.7753 8.36834 35.2956C8.82991 34.0806 9.26749 32.8594 9.69707 31.6372C10.551 29.208 11.3134 26.7631 12.1242 24.3256C12.3584 23.0642 12.908 21.8495 13.7427 20.7489C13.8166 20.6739 13.6757 20.5677 13.585 20.6343Z" fill="#FFEDE4"/>
<path d="M13.585 20.6343L12.993 19.8283L12.9749 19.8416L12.9574 19.8557L13.585 20.6343ZM12.3337 22.3702L11.6073 23.0575L12.7552 24.2708L13.2825 22.6859L12.3337 22.3702ZM10.6177 21.1647L10.3052 20.2147L7.88685 21.0101L10.2001 22.0733L10.6177 21.1647ZM11.3546 20.6869L12.1199 21.3306L12.2519 21.1736L12.3115 20.9773L11.3546 20.6869ZM11.3752 20.6188L12.3321 20.9092L12.4686 20.4595L12.2095 20.0674L11.3752 20.6188ZM11.334 20.5565L12.1683 20.0051L11.9758 19.7139L11.6439 19.6057L11.334 20.5565ZM11.2503 20.5292L11.5602 19.5784L11.293 19.4914L11.0196 19.5562L11.2503 20.5292ZM11.1635 20.5498L10.9328 19.5768L10.8002 19.6082L10.681 19.6739L11.1635 20.5498ZM9.79847 21.0298L9.80431 22.0298L9.8931 22.0293L9.98042 22.0131L9.79847 21.0298ZM8.86676 21.0858L8.89213 22.0854L8.8922 22.0854L8.86676 21.0858ZM7.44951 20.4348L6.4663 20.2522L6.46529 20.2578L7.44951 20.4348ZM7.2391 20.4186L6.27427 20.1557L6.27227 20.163L6.27038 20.1704L7.2391 20.4186ZM7.602 21.2452L7.03891 22.0716L7.06679 22.0906L7.0959 22.1077L7.602 21.2452ZM9.01691 21.5332L8.9648 20.5346L8.93912 20.5359L8.91354 20.5386L9.01691 21.5332ZM10.7103 21.8682L11.2166 21.0058L11.1856 20.9876L11.1534 20.9717L10.7103 21.8682ZM12.1016 22.8093L11.4879 23.5988L11.5444 23.6427L11.6065 23.6781L12.1016 22.8093ZM12.1543 22.8393L13.0949 23.1788L13.3806 22.3871L12.6494 21.9704L12.1543 22.8393ZM12.0006 23.265L12.9404 23.6067L12.9412 23.6045L12.0006 23.265ZM10.7111 26.803L11.645 27.1604L11.645 27.1604L10.7111 26.803ZM8.20279 33.8368L7.26307 33.4949L7.25066 33.529L7.24075 33.5639L8.20279 33.8368ZM7.48129 35.6836L8.26004 36.3109L8.32687 36.228L8.37473 36.1328L7.48129 35.6836ZM5.61494 36.5313L5.57596 35.532L5.52081 35.5342L5.46624 35.5424L5.61494 36.5313ZM5.69294 36.9136L5.6679 35.9139L5.63485 35.9148L5.60194 35.9178L5.69294 36.9136ZM7.45009 36.5272L7.85655 37.4409L7.93137 37.4076L7.99978 37.3626L7.45009 36.5272ZM8.36834 35.2956L7.43353 34.9404L7.40988 35.0027L7.39469 35.0675L8.36834 35.2956ZM9.69707 31.6372L8.75366 31.3056L8.75365 31.3056L9.69707 31.6372ZM12.1242 24.3256L13.0731 24.6412L13.0949 24.5759L13.1074 24.5081L12.1242 24.3256ZM13.7427 20.7489L13.0305 20.047L12.985 20.0931L12.9459 20.1446L13.7427 20.7489ZM12.9574 19.8557C12.2244 20.4466 11.6697 21.1983 11.3848 22.0545L13.2825 22.6859C13.4312 22.239 13.7384 21.7951 14.2126 21.4128L12.9574 19.8557ZM13.0601 21.6829C12.5031 21.0942 11.8112 20.6126 11.0353 20.256L10.2001 22.0733C10.7678 22.3342 11.2433 22.6728 11.6073 23.0575L13.0601 21.6829ZM10.9301 22.1146C11.3821 21.966 11.8052 21.7048 12.1199 21.3306L10.5893 20.0433C10.5472 20.0932 10.4572 20.1647 10.3052 20.2147L10.9301 22.1146ZM12.3115 20.9773L12.3321 20.9092L10.4183 20.3284L10.3977 20.3965L12.3115 20.9773ZM12.2095 20.0674L12.1683 20.0051L10.4998 21.1079L10.541 21.1702L12.2095 20.0674ZM11.6439 19.6057L11.5602 19.5784L10.9405 21.48L11.0242 21.5073L11.6439 19.6057ZM11.0196 19.5562L10.9328 19.5768L11.3942 21.5228L11.481 21.5022L11.0196 19.5562ZM10.681 19.6739C10.3702 19.8451 10.0091 19.9739 9.61653 20.0465L9.98042 22.0131C10.5698 21.9041 11.1357 21.7068 11.646 21.4257L10.681 19.6739ZM9.79264 20.0298C9.59516 20.031 9.40781 20.0462 9.25606 20.0588C9.09423 20.0722 8.96914 20.0828 8.84133 20.0861L8.8922 22.0854C9.08867 22.0804 9.27519 22.064 9.42102 22.052C9.57694 22.0391 9.69329 22.0304 9.80431 22.0298L9.79264 20.0298ZM8.8414 20.0861C8.73687 20.0887 8.61297 20.0869 8.4912 20.0765C8.36501 20.0657 8.26837 20.0479 8.20677 20.0293C8.12916 20.006 8.18707 20.0061 8.27221 20.0947C8.32329 20.1478 8.38031 20.2297 8.41401 20.3394C8.4479 20.4498 8.44541 20.5468 8.43372 20.6117L6.46529 20.2578C6.38093 20.7269 6.52616 21.1643 6.83035 21.4807C7.08812 21.7489 7.40721 21.8773 7.63068 21.9446C8.08606 22.0815 8.59445 22.093 8.89213 22.0854L8.8414 20.0861ZM8.43269 20.6174C8.50603 20.2225 8.35298 19.8486 8.07877 19.614C7.85164 19.4197 7.59868 19.3633 7.42853 19.3519C7.24899 19.3399 7.0389 19.3686 6.83532 19.4715C6.62192 19.5793 6.37198 19.7971 6.27427 20.1557L8.20393 20.6814C8.11987 20.99 7.90549 21.1716 7.73715 21.2566C7.57863 21.3367 7.42309 21.356 7.29517 21.3475C7.17665 21.3396 6.97239 21.2995 6.77862 21.1337C6.53777 20.9277 6.40273 20.5945 6.46632 20.2522L8.43269 20.6174ZM6.27038 20.1704C6.17516 20.5421 6.21048 20.9261 6.36189 21.271L8.1932 20.4671C8.21729 20.522 8.22611 20.5953 8.20782 20.6667L6.27038 20.1704ZM6.36189 21.271C6.51094 21.6105 6.75689 21.8795 7.03891 22.0716L8.16508 20.4188C8.14921 20.408 8.17146 20.4176 8.1932 20.4671L6.36189 21.271ZM7.0959 22.1077C7.39709 22.2844 7.72957 22.4076 8.07274 22.4774L8.47165 20.5176C8.32925 20.4886 8.20625 20.4403 8.10809 20.3827L7.0959 22.1077ZM8.07274 22.4774C8.41612 22.5473 8.77132 22.5641 9.12029 22.5279L8.91354 20.5386C8.76475 20.554 8.61383 20.5466 8.47165 20.5176L8.07274 22.4774ZM9.06903 22.5319C9.50593 22.5091 9.92768 22.5968 10.2672 22.7646L11.1534 20.9717C10.4868 20.6422 9.72104 20.4951 8.9648 20.5346L9.06903 22.5319ZM10.204 22.7305C10.6594 22.9979 11.0883 23.2882 11.4879 23.5988L12.7153 22.0197C12.2451 21.6542 11.7442 21.3156 11.2166 21.0058L10.204 22.7305ZM11.6065 23.6781L11.6592 23.7081L12.6494 21.9704L12.5967 21.9404L11.6065 23.6781ZM11.2137 22.4997L11.06 22.9254L12.9412 23.6045L13.0949 23.1788L11.2137 22.4997ZM11.0608 22.9232C10.6249 24.1218 10.2231 25.2802 9.77712 26.4456L11.645 27.1604C12.0984 25.9757 12.5183 24.7673 12.9404 23.6067L11.0608 22.9232ZM9.77712 26.4456C8.88618 28.7739 8.09341 31.2129 7.26307 33.4949L9.14251 34.1788C10.0161 31.778 10.7509 29.4969 11.645 27.1604L9.77712 26.4456ZM7.24075 33.5639C7.08005 34.1304 6.86213 34.6889 6.58785 35.2344L8.37473 36.1328C8.70419 35.4775 8.96869 34.8011 9.16483 34.1097L7.24075 33.5639ZM6.70254 35.0563C6.61345 35.1669 6.47122 35.2823 6.27021 35.3736L7.09726 37.1946C7.54635 36.9906 7.95147 36.694 8.26004 36.3109L6.70254 35.0563ZM6.27021 35.3736C6.06968 35.4647 5.83099 35.5221 5.57596 35.532L5.65392 37.5305C6.15289 37.511 6.64768 37.3988 7.09726 37.1946L6.27021 35.3736ZM5.46624 35.5424C5.21426 35.5803 4.93458 35.6987 4.71767 35.9369L6.19643 37.2835C6.05426 37.4396 5.88777 37.5015 5.76365 37.5201L5.46624 35.5424ZM4.71767 35.9369C4.49 36.187 4.35386 36.5548 4.43472 36.9512L6.39436 36.5515C6.45503 36.8489 6.34937 37.1156 6.19643 37.2835L4.71767 35.9369ZM4.43472 36.9512C4.51257 37.3328 4.76061 37.5956 5.00762 37.7396L6.01479 36.0117C6.15797 36.0952 6.33671 36.2689 6.39436 36.5515L4.43472 36.9512ZM5.00762 37.7396C5.25396 37.8832 5.52987 37.9327 5.78395 37.9095L5.60194 35.9178C5.72666 35.9064 5.87228 35.9286 6.01479 36.0117L5.00762 37.7396ZM5.71799 37.9133C6.46032 37.8947 7.19435 37.7355 7.85655 37.4409L7.04363 35.6135C6.63504 35.7953 6.16187 35.9015 5.6679 35.9139L5.71799 37.9133ZM7.99978 37.3626C8.65625 36.9306 9.16145 36.2945 9.342 35.5236L7.39469 35.0675C7.35053 35.2561 7.20695 35.4901 6.9004 35.6918L7.99978 37.3626ZM9.30316 35.6507C9.76902 34.4244 10.2097 33.1943 10.6405 31.9688L8.75365 31.3056C8.32524 32.5245 7.8908 33.7367 7.43353 34.9404L9.30316 35.6507ZM10.6405 31.9688C11.4974 29.5309 12.2709 27.053 13.0731 24.6412L11.1754 24.01C10.356 26.4732 9.60453 28.885 8.75366 31.3056L10.6405 31.9688ZM13.1074 24.5081C13.311 23.4114 13.7916 22.3394 14.5395 21.3531L12.9459 20.1446C12.0245 21.3597 11.4058 22.7169 11.141 24.1431L13.1074 24.5081ZM14.455 21.4508C14.6947 21.2076 14.82 20.8482 14.7391 20.477C14.6697 20.1587 14.4759 19.9495 14.32 19.8343C14.027 19.6177 13.4797 19.4708 12.993 19.8283L14.177 21.4402C13.7809 21.7311 13.3495 21.604 13.1312 21.4426C13.0126 21.355 12.8458 21.1823 12.785 20.9029C12.7125 20.5706 12.8278 20.2527 13.0305 20.047L14.455 21.4508Z" fill="#FFEDE4" mask="url(#path-1-inside-1_170_956)"/>
<mask id="path-3-inside-2_170_956" fill="white">
<path d="M4.78091 36.6857C4.32207 36.7526 3.88644 36.8865 3.43306 36.9707C3.0207 37.0134 2.6265 37.1282 2.28062 37.3061C2.12462 37.4013 2.19072 37.6484 2.4138 37.6454C2.82704 37.6197 3.22682 37.5203 3.58146 37.3551C4.0048 37.1978 4.45623 37.0887 4.87021 36.9162C5.019 36.8546 4.96694 36.6584 4.78091 36.6857Z"/>
</mask>
<path d="M4.78091 36.6857C4.32207 36.7526 3.88644 36.8865 3.43306 36.9707C3.0207 37.0134 2.6265 37.1282 2.28062 37.3061C2.12462 37.4013 2.19072 37.6484 2.4138 37.6454C2.82704 37.6197 3.22682 37.5203 3.58146 37.3551C4.0048 37.1978 4.45623 37.0887 4.87021 36.9162C5.019 36.8546 4.96694 36.6584 4.78091 36.6857Z" fill="#FFEDE4"/>
<path d="M4.78091 36.6857L4.92518 37.6752L4.9261 37.6751L4.78091 36.6857ZM3.43306 36.9707L3.53618 37.9654L3.5761 37.9612L3.61556 37.9539L3.43306 36.9707ZM2.28062 37.3061L1.82318 36.4169L1.79069 36.4336L1.7595 36.4526L2.28062 37.3061ZM2.4138 37.6454L2.42725 38.6453L2.45156 38.645L2.47584 38.6435L2.4138 37.6454ZM3.58146 37.3551L3.23306 36.4178L3.19552 36.4318L3.15922 36.4487L3.58146 37.3551ZM4.87021 36.9162L4.48742 35.9924L4.48559 35.9932L4.87021 36.9162ZM4.63663 35.6962C4.36134 35.7363 4.10172 35.7953 3.87625 35.8482C3.63938 35.9039 3.44765 35.9509 3.25057 35.9875L3.61556 37.9539C3.87185 37.9063 4.12462 37.8443 4.33362 37.7952C4.55402 37.7435 4.74164 37.702 4.92518 37.6752L4.63663 35.6962ZM3.32995 35.976C2.80217 36.0307 2.28671 36.1784 1.82318 36.4169L2.73805 38.1953C2.96629 38.0779 3.23922 37.9962 3.53618 37.9654L3.32995 35.976ZM1.7595 36.4526C1.24809 36.7649 1.09593 37.3568 1.25824 37.8344C1.42841 38.3351 1.90099 38.6524 2.42725 38.6453L2.40035 36.6455C2.70353 36.6414 3.03151 36.8367 3.15186 37.1908C3.26436 37.5218 3.15714 37.9426 2.80173 38.1596L1.7595 36.4526ZM2.47584 38.6435C3.00645 38.6105 3.52927 38.4826 4.0037 38.2616L3.15922 36.4487C2.92437 36.5581 2.64763 36.6289 2.35176 36.6473L2.47584 38.6435ZM3.92986 38.2925C4.11129 38.2251 4.29829 38.1681 4.52969 38.0952C4.74835 38.0264 5.00254 37.9444 5.25484 37.8393L4.48559 35.9932C4.3239 36.0605 4.14539 36.1194 3.929 36.1875C3.72536 36.2517 3.47497 36.3279 3.23306 36.4178L3.92986 38.2925ZM5.25301 37.8401C5.76181 37.6293 6.09924 37.0534 5.90038 36.4531C5.69985 35.8478 5.10724 35.6271 4.63571 35.6963L4.9261 37.6751C4.6406 37.717 4.16704 37.5807 4.00185 37.0821C3.83834 36.5885 4.1274 36.1416 4.48742 35.9924L5.25301 37.8401Z" fill="#FFEDE4" mask="url(#path-3-inside-2_170_956)"/>
<mask id="path-5-inside-3_170_956" fill="white">
<path d="M8.73592 36.3613C8.7269 36.325 8.70439 36.2915 8.67112 36.2648C8.63785 36.2382 8.59524 36.2195 8.54846 36.2111C8.50167 36.2027 8.45272 36.2049 8.40753 36.2174C8.36234 36.23 8.32286 36.2523 8.29385 36.2818C8.12479 36.4841 8.0893 36.6997 7.83658 36.8651C7.5574 37.0303 7.25065 37.1658 6.92456 37.268C6.25812 37.4797 5.55694 37.6197 4.84079 37.6841C4.69376 37.7017 4.73569 37.8586 4.87589 37.8548C5.75309 37.8806 6.62998 37.7979 7.4731 37.6099C8.13473 37.4189 8.95588 36.9862 8.73592 36.3613Z"/>
</mask>
<path d="M8.73592 36.3613C8.7269 36.325 8.70439 36.2915 8.67112 36.2648C8.63785 36.2382 8.59524 36.2195 8.54846 36.2111C8.50167 36.2027 8.45272 36.2049 8.40753 36.2174C8.36234 36.23 8.32286 36.2523 8.29385 36.2818C8.12479 36.4841 8.0893 36.6997 7.83658 36.8651C7.5574 37.0303 7.25065 37.1658 6.92456 37.268C6.25812 37.4797 5.55694 37.6197 4.84079 37.6841C4.69376 37.7017 4.73569 37.8586 4.87589 37.8548C5.75309 37.8806 6.62998 37.7979 7.4731 37.6099C8.13473 37.4189 8.95588 36.9862 8.73592 36.3613Z" fill="#FFEDE4"/>
<path d="M8.73592 36.3613L7.76541 36.6024L7.77687 36.6485L7.79265 36.6933L8.73592 36.3613ZM8.29385 36.2818L7.58123 35.5802L7.55261 35.6093L7.52645 35.6406L8.29385 36.2818ZM7.83658 36.8651L8.34565 37.7259L8.36526 37.7143L8.38431 37.7018L7.83658 36.8651ZM6.92456 37.268L6.62531 36.3139L6.62183 36.315L6.92456 37.268ZM4.84079 37.6841L4.75123 36.6882L4.73673 36.6895L4.72227 36.6912L4.84079 37.6841ZM4.87589 37.8548L4.90529 36.8553L4.87722 36.8544L4.84915 36.8552L4.87589 37.8548ZM7.4731 37.6099L7.69079 38.5859L7.72082 38.5792L7.75038 38.5707L7.4731 37.6099ZM9.70642 36.1202C9.6373 35.842 9.4757 35.6281 9.29644 35.4844L8.0458 37.0452C7.93308 36.9549 7.8165 36.808 7.76541 36.6024L9.70642 36.1202ZM9.29644 35.4844C9.11867 35.342 8.91718 35.2613 8.72546 35.2269L8.37146 37.1953C8.2733 37.1776 8.15702 37.1343 8.0458 37.0452L9.29644 35.4844ZM8.72546 35.2269C8.53285 35.1922 8.33188 35.2006 8.13992 35.2539L8.67514 37.1809C8.57357 37.2092 8.4705 37.2131 8.37146 37.1953L8.72546 35.2269ZM8.13992 35.2539C7.94913 35.3069 7.74887 35.4099 7.58123 35.5802L9.00647 36.9833C8.89684 37.0947 8.77556 37.153 8.67514 37.1809L8.13992 35.2539ZM7.52645 35.6406C7.43916 35.7451 7.37578 35.8435 7.33135 35.9168C7.31006 35.952 7.29008 35.9865 7.27698 36.0091C7.26204 36.0348 7.25323 36.0497 7.24546 36.0623C7.23118 36.0855 7.23221 36.0809 7.24388 36.0678C7.25796 36.052 7.27468 36.0378 7.28884 36.0285L8.38431 37.7018C8.67933 37.5086 8.84427 37.28 8.9477 37.1123C8.97074 37.0749 8.99141 37.0394 9.00603 37.0142C9.02249 36.9859 9.03212 36.9693 9.04188 36.9532C9.05955 36.9241 9.06401 36.9197 9.06125 36.923L7.52645 35.6406ZM7.3275 36.0044C7.11789 36.1284 6.88202 36.2334 6.62531 36.3139L7.22381 38.2222C7.61928 38.0982 7.99691 37.9321 8.34565 37.7259L7.3275 36.0044ZM6.62183 36.315C6.02661 36.504 5.39702 36.6301 4.75123 36.6882L4.93035 38.6801C5.71685 38.6094 6.48963 38.4554 7.22729 38.2211L6.62183 36.315ZM4.72227 36.6912C4.51413 36.716 4.22557 36.8088 4.00268 37.071C3.7686 37.3463 3.70466 37.6979 3.77717 38.0063C3.91854 38.6076 4.46793 38.8661 4.90263 38.8545L4.84915 36.8552C5.14365 36.8473 5.60198 37.0292 5.72408 37.5486C5.78697 37.8161 5.73135 38.1254 5.52638 38.3665C5.3326 38.5944 5.09394 38.661 4.95931 38.6771L4.72227 36.6912ZM4.84649 38.8544C5.80538 38.8826 6.76532 38.7923 7.69079 38.5859L7.2554 36.6339C6.49465 36.8036 5.7008 36.8787 4.90529 36.8553L4.84649 38.8544ZM7.75038 38.5707C8.14206 38.4576 8.65581 38.2551 9.06302 37.9266C9.27066 37.7591 9.50166 37.5179 9.64343 37.1874C9.79645 36.8308 9.81933 36.4274 9.67919 36.0293L7.79265 36.6933C7.78095 36.6601 7.77036 36.6101 7.77264 36.5491C7.77491 36.4886 7.78913 36.4369 7.80545 36.3989C7.83444 36.3313 7.86004 36.3274 7.80719 36.37C7.75849 36.4093 7.67676 36.4607 7.56007 36.5148C7.44632 36.5675 7.31971 36.6133 7.19581 36.6491L7.75038 38.5707Z" fill="#FFEDE4" mask="url(#path-5-inside-3_170_956)"/>
<path d="M8.905 35.7531C8.88987 35.7881 8.89137 35.8261 8.90924 35.8604C8.9271 35.8946 8.96017 35.9228 9.00256 35.9401C9.04495 35.9573 9.09392 35.9624 9.14076 35.9545C9.17724 35.9483 9.21059 35.9346 9.23729 35.9149L9.1248 35.8602L9.0499 35.8237L9.01349 35.806L8.905 35.7531ZM8.905 35.7531L9.01971 35.8027L9.05264 35.8169L9.12261 35.8472L9.25184 35.903C9.25407 35.901 9.25624 35.8989 9.25834 35.8968M8.905 35.7531C8.92551 35.711 8.94621 35.669 8.9671 35.627L9.08535 35.7365L9.10734 35.7569L9.10735 35.7569L9.10739 35.757L9.25834 35.8968M9.25834 35.8968C9.30296 35.8487 9.34728 35.8004 9.39129 35.7519C9.38553 35.709 9.37246 35.6673 9.35251 35.629C9.30578 35.5395 9.23698 35.4957 9.19092 35.4769C9.14389 35.4578 9.09848 35.4546 9.0574 35.4615C9.05494 35.4619 9.05242 35.4624 9.04983 35.4629C9.02408 35.5133 8.99861 35.5637 8.97342 35.6143L9.08861 35.7285L9.10534 35.7451L9.10535 35.7451L9.11389 35.7536L9.25834 35.8968ZM9.56139 35.5621C10.3326 34.6902 11.0067 33.7695 11.5765 32.8098C11.9336 32.3375 12.2235 31.837 12.4413 31.3169C12.5875 30.9255 12.6806 30.5246 12.7737 30.124C12.8013 30.0056 12.8288 29.8872 12.8577 29.769L9.56139 35.5621ZM9.56139 35.5621C10.0502 34.6266 10.6384 33.7215 11.3209 32.8561L11.328 32.8471L11.3347 32.8377C11.3635 32.7976 11.3918 32.7572 11.4196 32.7167C11.4234 32.7111 11.4273 32.7055 11.4311 32.6999C11.7381 32.2495 11.9862 31.7737 12.1701 31.2797L12.1728 31.2723L12.1753 31.2649C12.1801 31.2509 12.1847 31.2368 12.1893 31.2228L9.56139 35.5621ZM15.7041 23.348L15.7093 23.3647L15.7041 23.348ZM15.7041 23.348L15.7196 23.3578L15.728 23.3631L15.8292 23.427C15.8102 23.4758 15.7916 23.5247 15.7734 23.5737C15.7563 23.6197 15.7395 23.6658 15.7229 23.7119C15.692 23.7123 15.661 23.7081 15.6308 23.6994C15.5761 23.6836 15.5009 23.6454 15.4415 23.5641C15.4474 23.553 15.4534 23.5419 15.4593 23.5308C15.4593 23.5308 15.4593 23.5308 15.4593 23.5308L15.7041 23.348ZM10.9283 32.5464C10.2406 33.4184 9.64492 34.3312 9.14696 35.2758L10.9283 32.5464Z" fill="#FFEDE4" stroke="#FFEDE4"/>
<path d="M10.9785 36.6462L10.9832 36.6396L10.9785 36.6462ZM10.9548 36.6233L10.951 36.6115L10.9548 36.6233Z" fill="#FFEDE4" stroke="#FFEDE4"/>
<path d="M11.5447 35.898V35.898Z" fill="#FFEDE4" stroke="#FFEDE4"/>
<mask id="path-10-inside-4_170_956" fill="white">
<path d="M20.7957 26.9801C20.4367 27.3635 19.9263 27.6476 19.3406 27.7901C19.0441 27.8426 18.7365 27.846 18.4381 27.8001C18.1398 27.7542 17.8575 27.6599 17.6102 27.5237C16.4987 26.9211 16.2674 25.7334 15.8624 24.8151C15.816 24.7101 15.6024 24.7638 15.6239 24.8693C15.8752 26.1072 15.8791 27.588 17.5511 28.2312C17.8857 28.3667 18.253 28.4477 18.6301 28.4692C19.0073 28.4907 19.3861 28.4522 19.743 28.3561C20.0999 28.26 20.4273 28.1084 20.7047 27.9107C20.9821 27.713 21.2036 27.4735 21.3553 27.207C21.3794 27.1516 21.377 27.0913 21.3487 27.0371C21.3204 26.9828 21.268 26.9381 21.2007 26.9108C21.1335 26.8835 21.0559 26.8755 20.9817 26.8882C20.9075 26.9009 20.8416 26.9335 20.7957 26.9801Z"/>
</mask>
<path d="M20.7957 26.9801C20.4367 27.3635 19.9263 27.6476 19.3406 27.7901C19.0441 27.8426 18.7365 27.846 18.4381 27.8001C18.1398 27.7542 17.8575 27.6599 17.6102 27.5237C16.4987 26.9211 16.2674 25.7334 15.8624 24.8151C15.816 24.7101 15.6024 24.7638 15.6239 24.8693C15.8752 26.1072 15.8791 27.588 17.5511 28.2312C17.8857 28.3667 18.253 28.4477 18.6301 28.4692C19.0073 28.4907 19.3861 28.4522 19.743 28.3561C20.0999 28.26 20.4273 28.1084 20.7047 27.9107C20.9821 27.713 21.2036 27.4735 21.3553 27.207C21.3794 27.1516 21.377 27.0913 21.3487 27.0371C21.3204 26.9828 21.268 26.9381 21.2007 26.9108C21.1335 26.8835 21.0559 26.8755 20.9817 26.8882C20.9075 26.9009 20.8416 26.9335 20.7957 26.9801Z" fill="#FFEDE4"/>
<path d="M20.7957 26.9801L20.0831 26.2785L20.0743 26.2874L20.0657 26.2966L20.7957 26.9801ZM19.3406 27.7901L19.5151 28.7747L19.5462 28.7692L19.5769 28.7618L19.3406 27.7901ZM17.6102 27.5237L18.0927 26.6478L18.0867 26.6445L17.6102 27.5237ZM15.8624 24.8151L16.7773 24.4116L16.777 24.4108L15.8624 24.8151ZM15.6239 24.8693L16.6039 24.6703L16.6038 24.6699L15.6239 24.8693ZM17.5511 28.2312L17.9264 27.3043L17.9183 27.301L17.9101 27.2979L17.5511 28.2312ZM21.3553 27.207L22.2243 27.7019L22.2511 27.6548L22.2727 27.605L21.3553 27.207ZM20.0657 26.2966C19.8585 26.5179 19.5296 26.715 19.1043 26.8184L19.5769 28.7618C20.3231 28.5803 21.0149 28.2092 21.5257 27.6635L20.0657 26.2966ZM19.1661 26.8054C18.9778 26.8388 18.7805 26.841 18.5903 26.8117L18.2859 28.7885C18.6924 28.851 19.1104 28.8464 19.5151 28.7747L19.1661 26.8054ZM18.5903 26.8117C18.3998 26.7824 18.2305 26.7237 18.0927 26.6478L17.1276 28.3996C17.4846 28.5962 17.8798 28.7259 18.2859 28.7885L18.5903 26.8117ZM18.0867 26.6445C17.7685 26.472 17.5545 26.2122 17.3629 25.8349C17.2639 25.64 17.1775 25.4271 17.0835 25.1824C16.9954 24.9531 16.8915 24.6704 16.7773 24.4116L14.9474 25.2187C15.0358 25.419 15.1126 25.6291 15.2165 25.8996C15.3145 26.1547 15.4314 26.4485 15.5798 26.7407C15.8829 27.3375 16.3403 27.9728 17.1336 28.4028L18.0867 26.6445ZM16.777 24.4108C16.625 24.0669 16.3397 23.8837 16.0972 23.8089C15.8702 23.7389 15.6546 23.7503 15.4856 23.7906C15.3201 23.8301 15.1089 23.9191 14.9288 24.1043C14.7281 24.3105 14.5601 24.6566 14.644 25.0686L16.6038 24.6699C16.6769 25.0292 16.5276 25.329 16.3624 25.4988C16.2177 25.6475 16.0587 25.71 15.9498 25.736C15.8372 25.7628 15.6824 25.7739 15.5078 25.72C15.3177 25.6614 15.0765 25.5108 14.9477 25.2194L16.777 24.4108ZM14.6439 25.0683C14.7396 25.5399 14.8405 26.428 15.1259 27.1437C15.4567 27.9732 16.063 28.7302 17.192 29.1645L17.9101 27.2979C17.3672 27.089 17.1356 26.7841 16.9836 26.4029C16.7863 25.9079 16.7595 25.4366 16.6039 24.6703L14.6439 25.0683ZM17.1758 29.1581C17.6165 29.3366 18.0919 29.4402 18.5733 29.4676L18.687 27.4708C18.4141 27.4553 18.1549 27.3968 17.9264 27.3043L17.1758 29.1581ZM18.5733 29.4676C19.0547 29.495 19.5406 29.4462 20.003 29.3217L19.4831 27.3905C19.2316 27.4582 18.9598 27.4864 18.687 27.4708L18.5733 29.4676ZM20.003 29.3217C20.4651 29.1973 20.9028 28.9975 21.2851 28.725L20.1243 27.0964C19.9518 27.2193 19.7348 27.3227 19.4831 27.3905L20.003 29.3217ZM21.2851 28.725C21.6675 28.4525 21.993 28.1079 22.2243 27.7019L20.4864 26.7121C20.4141 26.839 20.2967 26.9735 20.1243 27.0964L21.2851 28.725ZM22.2727 27.605C22.4186 27.2687 22.4012 26.8923 22.2353 26.5744L20.4622 27.4998C20.3529 27.2903 20.3402 27.0344 20.4379 26.809L22.2727 27.605ZM22.2353 26.5744C22.0775 26.2722 21.8209 26.0832 21.5765 25.9841L20.8249 27.8375C20.715 27.7929 20.5633 27.6935 20.4622 27.4998L22.2353 26.5744ZM21.5765 25.9841C21.3302 25.8842 21.0635 25.8597 20.8131 25.9025L21.1502 27.8739C21.0482 27.8914 20.9368 27.8829 20.8249 27.8375L21.5765 25.9841ZM20.8131 25.9025C20.5646 25.945 20.2975 26.0607 20.0831 26.2785L21.5083 27.6817C21.3856 27.8062 21.2504 27.8568 21.1502 27.8739L20.8131 25.9025Z" fill="#FFEDE4" mask="url(#path-10-inside-4_170_956)"/>
<path d="M30.6162 24.6397L30.7046 24.7999L30.9889 25.3369C31.1809 25.7207 31.3395 26.1138 31.4638 26.5137L30.6162 24.6397ZM30.6162 24.6397L30.6131 24.6178M34.5675 27.7308C34.8912 27.6405 35.2092 27.5521 35.5324 27.4706L34.6013 27.7781L34.5675 27.7308ZM34.0898 27.8634C34.1918 27.8354 34.2927 27.8074 34.393 27.7795L34.0983 28.1069L34.0923 27.9944L34.0854 27.8646C34.0868 27.8642 34.0883 27.8638 34.0898 27.8634ZM33.7823 27.5566L33.4555 27.6546C33.2009 27.7309 32.9438 27.8019 32.6845 27.8677C32.5348 27.9056 32.3844 27.9418 32.2332 27.9762L32.2225 27.8863L32.2072 27.7571L32.189 27.6045C32.1448 27.1893 32.0626 26.7776 31.9434 26.3725L31.9435 26.3725L31.9412 26.3653C31.8797 26.1674 31.8104 25.9711 31.7333 25.777C31.733 25.7762 31.7327 25.7754 31.7324 25.7746C31.6438 25.5514 31.5449 25.3308 31.4361 25.1133L31.4362 25.1132L31.4308 25.103L33.7823 27.5566ZM30.8842 24.1975C30.8772 24.1929 30.8702 24.1883 30.8631 24.1839L30.6057 24.2234L30.6435 24.3653L30.6435 24.3653L30.6645 24.4441L30.7038 24.4224L30.7038 24.4224L30.8691 24.3312C30.8809 24.2901 30.8868 24.2451 30.8842 24.1975Z" fill="#FFEDE4" stroke="#FFEDE4"/>
<mask id="path-13-inside-5_170_956" fill="white">
<path d="M54.075 1.38592C52.4606 1.68232 51.914 3.03487 51.3998 4.08592C51.2597 4.39698 51.0638 4.69147 50.8179 4.96087C50.573 5.21587 50.2403 5.41087 50.0022 5.67007C49.7874 5.93191 49.7048 6.24519 49.7698 6.55072C49.8349 6.85626 50.0432 7.13288 50.3554 7.32832C50.6697 7.60462 51.2485 7.24147 50.9302 6.96652C50.6935 6.76207 50.3472 6.49747 50.4926 6.20047C50.6516 5.97988 50.8646 5.78508 51.12 5.62687C51.588 5.22928 51.9425 4.76059 52.1605 4.25107C52.609 3.29932 52.7905 2.04787 54.1565 1.59712C54.3037 1.55017 54.2378 1.35607 54.075 1.38592Z"/>
</mask>
<path d="M54.075 1.38592C52.4606 1.68232 51.914 3.03487 51.3998 4.08592C51.2597 4.39698 51.0638 4.69147 50.8179 4.96087C50.573 5.21587 50.2403 5.41087 50.0022 5.67007C49.7874 5.93191 49.7048 6.24519 49.7698 6.55072C49.8349 6.85626 50.0432 7.13288 50.3554 7.32832C50.6697 7.60462 51.2485 7.24147 50.9302 6.96652C50.6935 6.76207 50.3472 6.49747 50.4926 6.20047C50.6516 5.97988 50.8646 5.78508 51.12 5.62687C51.588 5.22928 51.9425 4.76059 52.1605 4.25107C52.609 3.29932 52.7905 2.04787 54.1565 1.59712C54.3037 1.55017 54.2378 1.35607 54.075 1.38592Z" fill="#FFEDE4"/>
<path d="M54.075 1.38592L53.8947 0.402309L53.8944 0.402356L54.075 1.38592ZM51.3998 4.08592L50.5015 3.64645L50.4945 3.66077L50.488 3.6753L51.3998 4.08592ZM50.8179 4.96087L51.5391 5.65358L51.5479 5.64445L51.5564 5.6351L50.8179 4.96087ZM50.0022 5.67007L49.2658 4.99358L49.2468 5.0142L49.2291 5.03586L50.0022 5.67007ZM50.3554 7.32832L51.0156 6.57723L50.9547 6.52373L50.886 6.48073L50.3554 7.32832ZM50.9302 6.96652L51.584 6.20982L51.5838 6.2097L50.9302 6.96652ZM50.4926 6.20047L49.6813 5.61586L49.6318 5.68456L49.5946 5.7606L50.4926 6.20047ZM51.12 5.62687L51.6467 6.4769L51.7103 6.43749L51.7673 6.38904L51.12 5.62687ZM52.1605 4.25107L51.2559 3.82479L51.2482 3.84115L51.2411 3.85778L52.1605 4.25107ZM54.1565 1.59712L53.8527 0.644341L53.8431 0.647484L54.1565 1.59712ZM53.8944 0.402356C51.6949 0.806182 50.9519 2.72585 50.5015 3.64645L52.298 4.52538C52.8761 3.34388 53.2263 2.55845 54.2556 2.36948L53.8944 0.402356ZM50.488 3.6753C50.3943 3.8834 50.2589 4.08996 50.0794 4.28663L51.5564 5.6351C51.8688 5.29297 52.1251 4.91055 52.3116 4.49654L50.488 3.6753ZM50.0967 4.26816C50.0318 4.33568 49.9472 4.40356 49.7889 4.52821C49.6537 4.63465 49.4477 4.7955 49.2658 4.99358L50.7387 6.34655C50.7948 6.28544 50.8742 6.21918 51.0261 6.09957C51.1549 5.99818 51.359 5.84106 51.5391 5.65358L50.0967 4.26816ZM49.2291 5.03586C48.84 5.51012 48.6575 6.12857 48.7918 6.75902L50.7479 6.34243C50.7479 6.34241 50.748 6.34286 50.7481 6.34373C50.7481 6.34459 50.7482 6.34559 50.7482 6.34663C50.7481 6.34895 50.7478 6.34997 50.748 6.34915C50.7482 6.34833 50.7525 6.33217 50.7754 6.30427L49.2291 5.03586ZM48.7918 6.75902C48.9233 7.37669 49.3274 7.86458 49.8247 8.17591L50.886 6.48073C50.8243 6.44212 50.7881 6.40493 50.7688 6.37928C50.7592 6.36659 50.7539 6.35694 50.7512 6.35099C50.7498 6.348 50.749 6.34582 50.7485 6.34447C50.748 6.34313 50.7479 6.34247 50.7479 6.34243L48.7918 6.75902ZM49.6952 8.07941C50.2732 8.58748 51.0032 8.45777 51.4121 8.20083C51.6259 8.06649 51.9088 7.80437 51.9974 7.38417C52.1018 6.88868 51.8794 6.46504 51.584 6.20982L50.2765 7.72322C50.1402 7.60547 49.9647 7.33033 50.0404 6.97162C50.1001 6.68821 50.2783 6.55116 50.3479 6.50744C50.4684 6.43174 50.7519 6.34545 51.0156 6.57723L49.6952 8.07941ZM51.5838 6.2097C51.5053 6.14185 51.4663 6.11019 51.4173 6.0652C51.3729 6.02455 51.3611 6.00901 51.364 6.01282C51.365 6.01413 51.415 6.07762 51.4419 6.19703C51.4563 6.26082 51.4631 6.33694 51.4539 6.42025C51.4446 6.50405 51.4209 6.57865 51.3907 6.64034L49.5946 5.7606C49.2788 6.4054 49.5744 6.96356 49.7722 7.22358C49.9511 7.45878 50.2081 7.66417 50.2766 7.72334L51.5838 6.2097ZM51.304 6.78507C51.3787 6.68136 51.491 6.57338 51.6467 6.4769L50.5932 4.77683C50.2383 4.99679 49.9245 5.27839 49.6813 5.61586L51.304 6.78507ZM51.7673 6.38904C52.3405 5.90221 52.7947 5.31108 53.0799 4.64436L51.2411 3.85778C51.0903 4.21011 50.8356 4.55636 50.4726 4.86469L51.7673 6.38904ZM53.0651 4.67734C53.1956 4.40039 53.3087 4.09697 53.4002 3.86389C53.4996 3.61105 53.5867 3.40466 53.6878 3.22321C53.8712 2.89437 54.0827 2.67451 54.4699 2.54675L53.8431 0.647484C52.8643 0.970473 52.3021 1.60172 51.941 2.24922C51.77 2.55595 51.6423 2.86904 51.5387 3.13262C51.4274 3.41595 51.3496 3.62587 51.2559 3.82479L53.0651 4.67734ZM54.4603 2.54985C54.7165 2.46815 54.9766 2.28505 55.1259 1.98183C55.2701 1.6889 55.2645 1.37587 55.1718 1.1209C54.9763 0.583606 54.426 0.304899 53.8947 0.402309L54.2553 2.36952C53.8868 2.43708 53.4508 2.2405 53.2922 1.80453C53.2179 1.60022 53.2113 1.34266 53.3316 1.09839C53.4569 0.843839 53.6701 0.702606 53.8527 0.644389L54.4603 2.54985Z" fill="#FFEDE4" mask="url(#path-13-inside-5_170_956)"/>
<path d="M49.4458 17.1568L49.2906 17.2582L49.287 17.2605L49.0272 17.4302L48.9496 17.3113C49.0616 17.289 49.1733 17.2652 49.2795 17.2345L49.4458 17.1568ZM49.4458 17.1568L49.3013 16.8474L49.3007 16.8461L49.2342 16.7038L49.1651 16.736L49.261 16.8737L49.4458 17.1568ZM50.4923 7.88155L50.5124 7.94016L50.4923 7.88155Z" fill="#FFEDE4" stroke="#FFEDE4"/>
<mask id="path-16-inside-6_170_956" fill="white">
<path d="M30.5849 22.7231C28.6764 23.5613 26.2208 22.4409 24.5732 21.6909C22.6641 20.6509 20.5105 19.906 18.2322 19.4975C17.0132 19.331 15.7569 19.4731 14.6518 19.9025C14.5559 19.9475 14.5814 20.091 14.7136 20.0636C15.2663 19.9313 15.8361 19.8458 16.4129 19.8086C17.0151 19.805 17.6153 19.8623 18.1981 19.979C18.6989 20.0667 19.1903 20.1837 19.668 20.3291C19.8054 20.3975 19.931 20.4788 20.042 20.5713C20.2955 20.7792 20.5243 21.0041 20.7705 21.2163C21.0149 21.4526 21.1724 21.7351 21.2264 22.0342C21.2804 22.3333 21.229 22.6381 21.0777 22.9167C20.8345 23.4987 20.3468 24.0019 19.6913 24.3475C19.0358 24.693 18.2496 24.8611 17.4563 24.8255L17.3736 24.8455L17.3329 24.9044L17.3576 24.9684L17.4335 25.0007C18.3607 25.1304 19.3175 24.9973 20.127 24.6262C20.9364 24.255 21.5437 23.6709 21.8364 22.9818C21.9887 22.6748 22.052 22.3458 22.0217 22.018C21.9913 21.6902 21.8682 21.3714 21.6609 21.084C22.6634 21.5331 23.6246 22.0343 24.6323 22.4769C25.5852 22.9375 26.6235 23.2843 27.7116 23.5053C28.2414 23.6232 28.8009 23.6388 29.3404 23.5507C29.88 23.4627 30.383 23.2737 30.805 23.0006C30.9636 22.8801 30.8082 22.6251 30.5849 22.7231Z"/>
</mask>
<path d="M30.5849 22.7231C28.6764 23.5613 26.2208 22.4409 24.5732 21.6909C22.6641 20.6509 20.5105 19.906 18.2322 19.4975C17.0132 19.331 15.7569 19.4731 14.6518 19.9025C14.5559 19.9475 14.5814 20.091 14.7136 20.0636C15.2663 19.9313 15.8361 19.8458 16.4129 19.8086C17.0151 19.805 17.6153 19.8623 18.1981 19.979C18.6989 20.0667 19.1903 20.1837 19.668 20.3291C19.8054 20.3975 19.931 20.4788 20.042 20.5713C20.2955 20.7792 20.5243 21.0041 20.7705 21.2163C21.0149 21.4526 21.1724 21.7351 21.2264 22.0342C21.2804 22.3333 21.229 22.6381 21.0777 22.9167C20.8345 23.4987 20.3468 24.0019 19.6913 24.3475C19.0358 24.693 18.2496 24.8611 17.4563 24.8255L17.3736 24.8455L17.3329 24.9044L17.3576 24.9684L17.4335 25.0007C18.3607 25.1304 19.3175 24.9973 20.127 24.6262C20.9364 24.255 21.5437 23.6709 21.8364 22.9818C21.9887 22.6748 22.052 22.3458 22.0217 22.018C21.9913 21.6902 21.8682 21.3714 21.6609 21.084C22.6634 21.5331 23.6246 22.0343 24.6323 22.4769C25.5852 22.9375 26.6235 23.2843 27.7116 23.5053C28.2414 23.6232 28.8009 23.6388 29.3404 23.5507C29.88 23.4627 30.383 23.2737 30.805 23.0006C30.9636 22.8801 30.8082 22.6251 30.5849 22.7231Z" fill="#FFEDE4"/>
<path d="M30.5849 22.7231L30.1831 21.8073L30.1828 21.8075L30.5849 22.7231ZM24.5732 21.6909L24.0949 22.5691L24.1263 22.5862L24.1589 22.6011L24.5732 21.6909ZM18.2322 19.4975L18.4087 18.5132L18.3882 18.5095L18.3675 18.5067L18.2322 19.4975ZM14.6518 19.9025L14.2897 18.9704L14.258 18.9827L14.2272 18.9971L14.6518 19.9025ZM14.7136 20.0636L14.9169 21.0427L14.9317 21.0396L14.9464 21.0361L14.7136 20.0636ZM16.4129 19.8086L16.407 18.8086L16.3777 18.8088L16.3485 18.8106L16.4129 19.8086ZM18.1981 19.979L18.0018 20.9595L18.0137 20.9619L18.0256 20.964L18.1981 19.979ZM19.668 20.3291L20.1136 19.4339L20.0389 19.3967L19.9591 19.3724L19.668 20.3291ZM20.042 20.5713L19.4018 21.3396L19.4079 21.3445L20.042 20.5713ZM20.7705 21.2163L21.4657 20.4974L21.4451 20.4775L21.4234 20.4588L20.7705 21.2163ZM21.0777 22.9167L20.199 22.4393L20.1746 22.4841L20.155 22.5312L21.0777 22.9167ZM17.4563 24.8255L17.5012 23.8265L17.3592 23.8201L17.221 23.8536L17.4563 24.8255ZM17.3736 24.8455L17.1382 23.8736L16.7676 23.9634L16.5508 24.2771L17.3736 24.8455ZM17.3329 24.9044L16.5101 24.336L16.2094 24.7713L16.4 25.2648L17.3329 24.9044ZM17.3576 24.9684L16.4247 25.3287L16.5772 25.7233L16.9665 25.8887L17.3576 24.9684ZM17.4335 25.0007L17.0424 25.921L17.164 25.9727L17.295 25.991L17.4335 25.0007ZM21.8364 22.9818L20.9406 22.5374L20.9275 22.5637L20.916 22.5908L21.8364 22.9818ZM21.6609 21.084L22.0697 20.1714L18.6712 18.6489L20.8499 21.6691L21.6609 21.084ZM24.6323 22.4769L25.0675 21.5766L25.0511 21.5687L25.0345 21.5614L24.6323 22.4769ZM27.7116 23.5053L27.9287 22.5292L27.9197 22.5272L27.9107 22.5253L27.7116 23.5053ZM30.805 23.0006L31.3484 23.8401L31.38 23.8196L31.41 23.7968L30.805 23.0006ZM30.1828 21.8075C29.5242 22.0968 28.6923 22.0787 27.7276 21.8334C26.7696 21.5899 25.8234 21.1613 24.9875 20.7808L24.1589 22.6011C24.9706 22.9705 26.076 23.4772 27.2348 23.7717C28.3869 24.0646 29.7372 24.1876 30.987 23.6387L30.1828 21.8075ZM25.0516 20.8128C23.0422 19.7182 20.7858 18.9394 18.4087 18.5132L18.0557 20.4818C20.2352 20.8726 22.2859 21.5837 24.0949 22.5691L25.0516 20.8128ZM18.3675 18.5067C16.987 18.3181 15.559 18.4772 14.2897 18.9704L15.014 20.8346C15.9548 20.469 17.0394 20.3439 18.0969 20.4883L18.3675 18.5067ZM14.2272 18.9971C13.7507 19.2206 13.4848 19.7589 13.6359 20.2858C13.7128 20.5538 13.8959 20.7969 14.1674 20.9404C14.4352 21.082 14.7083 21.086 14.9169 21.0427L14.5104 19.0845C14.6529 19.0549 14.8732 19.0512 15.102 19.1722C15.3345 19.2951 15.4925 19.5047 15.5584 19.7345C15.6877 20.1853 15.4571 20.6293 15.0765 20.8078L14.2272 18.9971ZM14.9464 21.0361C15.4428 20.9173 15.9562 20.8401 16.4772 20.8065L16.3485 18.8106C15.7159 18.8514 15.0898 18.9453 14.4808 19.0911L14.9464 21.0361ZM16.4188 20.8086C16.954 20.8054 17.4864 20.8564 18.0018 20.9595L18.3944 18.9984C17.7441 18.8683 17.0762 18.8046 16.407 18.8086L16.4188 20.8086ZM18.0256 20.964C18.4871 21.0448 18.9389 21.1525 19.3769 21.2858L19.9591 19.3724C19.4418 19.215 18.9108 19.0886 18.3706 18.994L18.0256 20.964ZM19.2224 21.2243C19.2945 21.2602 19.3541 21.2998 19.4019 21.3396L20.6822 19.8031C20.5079 19.6579 20.3163 19.5347 20.1136 19.4339L19.2224 21.2243ZM19.4079 21.3445C19.5136 21.4313 19.6183 21.5249 19.7365 21.6323C19.8496 21.7351 19.9818 21.8567 20.1177 21.9738L21.4234 20.4588C21.313 20.3637 21.2077 20.2668 21.0815 20.1521C20.9604 20.0421 20.8239 19.9193 20.6762 19.7981L19.4079 21.3445ZM20.0754 21.9352C20.1878 22.0439 20.2299 22.1432 20.2423 22.212L22.2105 21.8565C22.1148 21.327 21.842 20.8614 21.4657 20.4974L20.0754 21.9352ZM20.2423 22.212C20.254 22.2768 20.2468 22.3514 20.199 22.4393L21.9563 23.3941C22.2113 22.9248 22.3068 22.3898 22.2105 21.8565L20.2423 22.212ZM20.155 22.5312C20.0165 22.8626 19.7127 23.2058 19.225 23.4628L20.1576 25.2321C20.9809 24.7981 21.6525 24.1348 22.0003 23.3023L20.155 22.5312ZM19.225 23.4628C18.738 23.7195 18.1301 23.8547 17.5012 23.8265L17.4114 25.8245C18.3691 25.8675 19.3336 25.6664 20.1576 25.2321L19.225 23.4628ZM17.221 23.8536L17.1382 23.8736L17.6089 25.8174L17.6917 25.7974L17.221 23.8536ZM16.5508 24.2771L16.5101 24.336L18.1556 25.4729L18.1963 25.4139L16.5508 24.2771ZM16.4 25.2648L16.4247 25.3287L18.2904 24.6081L18.2657 24.5441L16.4 25.2648ZM16.9665 25.8887L17.0424 25.921L17.8246 24.0803L17.7487 24.0481L16.9665 25.8887ZM17.295 25.991C18.401 26.1458 19.5516 25.9901 20.5438 25.5352L19.7102 23.7172C19.0834 24.0046 18.3203 24.115 17.572 24.0103L17.295 25.991ZM20.5438 25.5352C21.5343 25.081 22.3487 24.3334 22.7568 23.3728L20.916 22.5908C20.7387 23.0083 20.3385 23.4291 19.7102 23.7172L20.5438 25.5352ZM22.7322 23.4263C22.9634 22.9603 23.0655 22.4462 23.0174 21.9259L21.0259 22.1101C21.0384 22.2454 21.0141 22.3893 20.9406 22.5374L22.7322 23.4263ZM23.0174 21.9259C22.9694 21.4067 22.7755 20.9198 22.4719 20.499L20.8499 21.6691C20.961 21.823 21.0133 21.9737 21.0259 22.1101L23.0174 21.9259ZM21.2521 21.9966C21.7381 22.2144 22.2154 22.4453 22.7107 22.6838C23.2014 22.9202 23.7082 23.1632 24.2302 23.3925L25.0345 21.5614C24.5486 21.348 24.071 21.1191 23.5786 20.8819C23.0907 20.647 22.5862 20.4028 22.0697 20.1714L21.2521 21.9966ZM24.1971 23.3773C25.2287 23.8759 26.3467 24.2485 27.5125 24.4853L27.9107 22.5253C26.9003 22.3201 25.9417 21.9991 25.0675 21.5766L24.1971 23.3773ZM27.4944 24.4815C28.1494 24.6272 28.8372 24.6461 29.5015 24.5377L29.1794 22.5638C28.7645 22.6315 28.3334 22.6192 27.9287 22.5292L27.4944 24.4815ZM29.5015 24.5377C30.1652 24.4294 30.8007 24.1946 31.3484 23.8401L30.2617 22.1611C29.9654 22.3529 29.5947 22.496 29.1794 22.5638L29.5015 24.5377ZM31.41 23.7968C31.9844 23.3604 31.9623 22.6387 31.6553 22.2036C31.3324 21.7457 30.7269 21.5688 30.1831 21.8073L30.9866 23.6388C30.6661 23.7794 30.25 23.6811 30.0209 23.3563C29.9183 23.2107 29.8504 23.0111 29.8747 22.7855C29.9008 22.5428 30.0276 22.3353 30.2001 22.2043L31.41 23.7968Z" fill="#FFEDE4" mask="url(#path-16-inside-6_170_956)"/>
<mask id="path-18-inside-7_170_956" fill="white">
<path d="M40.284 19.3562C39.2386 19.3151 38.2391 19.0192 37.1921 18.9812C36.3453 18.9547 35.4998 19.0543 34.702 19.2743C33.9302 19.5012 33.224 19.8428 32.6238 20.2796C32.0236 20.7164 31.5412 21.2399 31.2041 21.8201C31.1571 21.8915 31.3135 21.9559 31.3665 21.8861C32.2588 20.8688 33.6011 20.1353 35.1436 19.8221C35.8735 19.6559 36.6383 19.6003 37.3957 19.6583C38.3471 19.8326 39.3264 19.8994 40.3028 19.8565C40.6581 19.8065 40.6672 19.3712 40.284 19.3562Z"/>
</mask>
<path d="M40.284 19.3562C39.2386 19.3151 38.2391 19.0192 37.1921 18.9812C36.3453 18.9547 35.4998 19.0543 34.702 19.2743C33.9302 19.5012 33.224 19.8428 32.6238 20.2796C32.0236 20.7164 31.5412 21.2399 31.2041 21.8201C31.1571 21.8915 31.3135 21.9559 31.3665 21.8861C32.2588 20.8688 33.6011 20.1353 35.1436 19.8221C35.8735 19.6559 36.6383 19.6003 37.3957 19.6583C38.3471 19.8326 39.3264 19.8994 40.3028 19.8565C40.6581 19.8065 40.6672 19.3712 40.284 19.3562Z" fill="#FFEDE4"/>
<path d="M40.284 19.3562L40.2448 20.3555L40.2449 20.3555L40.284 19.3562ZM37.1921 18.9812L37.2283 17.9819L37.2234 17.9817L37.1921 18.9812ZM34.702 19.2743L34.4361 18.3103L34.428 18.3126L34.42 18.3149L34.702 19.2743ZM31.2041 21.8201L32.0394 22.3699L32.0547 22.3466L32.0687 22.3225L31.2041 21.8201ZM31.3665 21.8861L30.6147 21.2267L30.5917 21.253L30.5705 21.2808L31.3665 21.8861ZM35.1436 19.8221L35.3426 20.8021L35.3542 20.7998L35.3657 20.7972L35.1436 19.8221ZM37.3957 19.6583L37.5759 18.6747L37.5244 18.6653L37.4722 18.6613L37.3957 19.6583ZM40.3028 19.8565L40.3466 20.8555L40.3945 20.8534L40.442 20.8467L40.3028 19.8565ZM40.3233 18.357C39.8727 18.3393 39.4226 18.2663 38.9005 18.1807C38.3983 18.0984 37.8251 18.0035 37.2283 17.9819L37.1559 19.9806C37.6061 19.9969 38.0562 20.069 38.5768 20.1544C39.0777 20.2365 39.65 20.3321 40.2448 20.3555L40.3233 18.357ZM37.2234 17.9817C36.2787 17.9522 35.3329 18.063 34.4361 18.3103L34.9679 20.2383C35.6667 20.0456 36.4119 19.9573 37.1609 19.9807L37.2234 17.9817ZM34.42 18.3149C33.5473 18.5714 32.7358 18.9613 32.0354 19.4711L33.2123 21.0881C33.7122 20.7242 34.313 20.431 34.984 20.2337L34.42 18.3149ZM32.0354 19.4711C31.3349 19.9809 30.7534 20.6052 30.3394 21.3177L32.0687 22.3225C32.329 21.8746 32.7124 21.4519 33.2123 21.0881L32.0354 19.4711ZM30.3688 21.2703C30.1385 21.6201 30.1458 22.0494 30.3419 22.3803C30.4973 22.6425 30.7235 22.772 30.8693 22.8317C31.0284 22.8967 31.224 22.934 31.4356 22.9076C31.6544 22.8804 31.9482 22.7732 32.1625 22.4914L30.5705 21.2808C30.7583 21.0339 31.0126 20.9448 31.1887 20.9229C31.3575 20.9019 31.507 20.9317 31.6262 20.9804C31.7322 21.0238 31.9248 21.1283 32.0624 21.3605C32.1376 21.4874 32.1981 21.6585 32.1953 21.8603C32.1924 22.0646 32.1255 22.2391 32.0394 22.3699L30.3688 21.2703ZM32.1183 22.5455C32.8436 21.7185 33.978 21.0792 35.3426 20.8021L34.9447 18.8421C33.2241 19.1915 31.674 20.019 30.6147 21.2267L32.1183 22.5455ZM35.3657 20.7972C35.9963 20.6535 36.6604 20.6049 37.3193 20.6554L37.4722 18.6613C36.6162 18.5956 35.7507 18.6582 34.9215 18.8471L35.3657 20.7972ZM37.2155 20.642C38.2415 20.8299 39.296 20.9017 40.3466 20.8555L40.2589 18.8574C39.3567 18.8971 38.4526 18.8353 37.5759 18.6747L37.2155 20.642ZM40.442 20.8467C41.045 20.762 41.5773 20.2719 41.5703 19.583C41.5669 19.2545 41.4308 18.9326 41.1758 18.698C40.9218 18.4641 40.609 18.3682 40.3232 18.357L40.2449 20.3555C40.1507 20.3518 39.9804 20.3159 39.8213 20.1694C39.6613 20.0222 39.5725 19.815 39.5704 19.6035C39.5657 19.1485 39.9159 18.901 40.1635 18.8662L40.442 20.8467Z" fill="#FFEDE4" mask="url(#path-18-inside-7_170_956)"/>
<mask id="path-20-inside-8_170_956" fill="white">
<path d="M54.0655 17.8468C54.0157 17.6574 53.6127 17.6452 53.6055 17.8569C53.5739 18.781 52.3939 19.4664 51.5613 20.014C50.6183 20.634 49.6418 21.2222 48.632 21.7786C46.6302 22.9004 44.5128 23.8949 42.3009 24.7521C41.683 24.9865 41.0648 25.2238 40.4383 25.4442C39.7924 25.6713 39.1138 25.8577 38.4986 26.1304C38.4076 26.1708 38.4354 26.2926 38.5542 26.2756C39.1714 26.168 39.7743 26.0169 40.3554 25.8241C40.9777 25.6398 41.5987 25.4539 42.2044 25.2391C43.391 24.8181 44.56 24.3613 45.706 23.8783C47.9991 22.8869 50.1521 21.7149 52.1301 20.3811C53.1043 19.737 54.3576 18.957 54.0655 17.8468Z"/>
</mask>
<path d="M54.0655 17.8468C54.0157 17.6574 53.6127 17.6452 53.6055 17.8569C53.5739 18.781 52.3939 19.4664 51.5613 20.014C50.6183 20.634 49.6418 21.2222 48.632 21.7786C46.6302 22.9004 44.5128 23.8949 42.3009 24.7521C41.683 24.9865 41.0648 25.2238 40.4383 25.4442C39.7924 25.6713 39.1138 25.8577 38.4986 26.1304C38.4076 26.1708 38.4354 26.2926 38.5542 26.2756C39.1714 26.168 39.7743 26.0169 40.3554 25.8241C40.9777 25.6398 41.5987 25.4539 42.2044 25.2391C43.391 24.8181 44.56 24.3613 45.706 23.8783C47.9991 22.8869 50.1521 21.7149 52.1301 20.3811C53.1043 19.737 54.3576 18.957 54.0655 17.8468Z" fill="#FFEDE4"/>
<path d="M54.0655 17.8468L53.0982 18.1007L53.0984 18.1013L54.0655 17.8468ZM53.6055 17.8569L54.6049 17.891L54.6049 17.8909L53.6055 17.8569ZM51.5613 20.014L52.1106 20.8496L52.1108 20.8495L51.5613 20.014ZM48.632 21.7786L48.1494 20.9027L48.1431 20.9062L48.632 21.7786ZM42.3009 24.7521L42.6557 25.687L42.6623 25.6845L42.3009 24.7521ZM40.4383 25.4442L40.77 26.3875L40.7701 26.3875L40.4383 25.4442ZM38.4986 26.1304L38.9037 27.0447L38.9038 27.0446L38.4986 26.1304ZM38.5542 26.2756L38.6955 27.2656L38.7108 27.2634L38.726 27.2607L38.5542 26.2756ZM40.3554 25.8241L40.0713 24.8653L40.0559 24.8699L40.0406 24.875L40.3554 25.8241ZM42.2044 25.2391L42.5386 26.1816L42.5388 26.1815L42.2044 25.2391ZM45.706 23.8783L46.0944 24.7998L46.1028 24.7962L45.706 23.8783ZM52.1301 20.3811L51.5786 19.5468L51.571 19.5519L52.1301 20.3811ZM55.0327 17.5929C54.9315 17.2072 54.665 16.9766 54.4523 16.8607C54.2418 16.746 54.0187 16.7019 53.822 16.7014C53.6309 16.701 53.3735 16.742 53.1293 16.9003C52.8525 17.0798 52.6204 17.4016 52.606 17.8228L54.6049 17.8909C54.5941 18.2063 54.4151 18.4502 54.2174 18.5784C54.0525 18.6854 53.9003 18.7016 53.8171 18.7014C53.7283 18.7012 53.6157 18.6825 53.495 18.6167C53.3721 18.5497 53.1746 18.3917 53.0982 18.1007L55.0327 17.5929ZM52.606 17.8227C52.6048 17.858 52.5706 18.0196 52.2225 18.3265C51.8879 18.6215 51.4711 18.8764 51.0118 19.1785L52.1108 20.8495C52.4841 20.604 53.0736 20.2424 53.5451 19.8267C54.003 19.423 54.5745 18.7798 54.6049 17.891L52.606 17.8227ZM51.0119 19.1784C50.0911 19.7838 49.137 20.3586 48.1494 20.9028L49.1146 22.6545C50.1467 22.0858 51.1454 21.4842 52.1106 20.8496L51.0119 19.1784ZM48.1431 20.9062C46.1837 22.0043 44.109 22.9789 41.9396 23.8196L42.6623 25.6845C44.9165 24.8109 47.0766 23.7965 49.1209 22.651L48.1431 20.9062ZM41.9462 23.8171C41.3225 24.0537 40.7186 24.2855 40.1065 24.5008L40.7701 26.3875C41.4111 26.1621 42.0434 25.9193 42.6556 25.687L41.9462 23.8171ZM40.1066 24.5008C39.556 24.6944 38.7527 24.9239 38.0934 25.2162L38.9038 27.0446C39.475 26.7915 40.0289 26.6481 40.77 26.3875L40.1066 24.5008ZM38.0935 25.2161C37.6409 25.4167 37.3131 25.9466 37.4933 26.5228C37.6839 27.1328 38.2726 27.3259 38.6955 27.2656L38.4129 25.2856C38.717 25.2422 39.2324 25.383 39.4022 25.9261C39.5614 26.4356 39.2653 26.8845 38.9037 27.0447L38.0935 25.2161ZM38.726 27.2607C39.3905 27.1449 40.0413 26.9819 40.6703 26.7732L40.0406 24.875C39.5073 25.0519 38.9522 25.1911 38.3824 25.2905L38.726 27.2607ZM40.6395 26.7829C41.2599 26.5991 41.9048 26.4064 42.5386 26.1816L41.8701 24.2966C41.2927 24.5014 40.6954 24.6804 40.0713 24.8653L40.6395 26.7829ZM42.5388 26.1815C43.745 25.7535 44.9321 25.2897 46.0944 24.7998L45.3176 22.9568C44.1879 23.4329 43.0369 23.8826 41.87 24.2967L42.5388 26.1815ZM46.1028 24.7962C48.45 23.7815 50.6576 22.5801 52.6892 21.2102L51.571 19.5519C49.6466 20.8497 47.5483 21.9924 45.3092 22.9604L46.1028 24.7962ZM52.6816 21.2152C53.1316 20.9177 53.8001 20.4947 54.2933 19.982C54.8042 19.451 55.3063 18.6327 55.0326 17.5923L53.0984 18.1013C53.1168 18.1711 53.1383 18.2979 52.852 18.5954C52.5481 18.9113 52.1029 19.2003 51.5786 19.5469L52.6816 21.2152Z" fill="#FFEDE4" mask="url(#path-20-inside-8_170_956)"/>
<path d="M54.4605 2.35626L54.4475 2.32359L54.4605 2.35626Z" fill="#FFEDE4" stroke="#FFEDE4"/>
<mask id="path-23-inside-9_170_956" fill="white">
<path d="M62.7999 38.1829C62.3758 36.9486 60.605 36.5608 59.2257 36.1905C58.8183 36.0902 58.4311 35.9467 58.0752 35.764C57.7388 35.5818 57.4758 35.3307 57.134 35.1538C56.7885 34.995 56.3794 34.9389 55.9839 34.9963C55.5884 35.0537 55.2339 35.2205 54.9874 35.4652C54.6364 35.7136 55.1218 36.15 55.4714 35.8986C55.7313 35.7115 56.0669 35.4388 56.4563 35.5437C56.7468 35.6606 57.0051 35.8198 57.2168 36.0123C57.7449 36.3627 58.3627 36.6241 59.0303 36.7794C60.2783 37.1011 61.9087 37.2109 62.5273 38.2506C62.593 38.3628 62.842 38.3074 62.7999 38.1829Z"/>
</mask>
<path d="M62.7999 38.1829C62.3758 36.9486 60.605 36.5608 59.2257 36.1905C58.8183 36.0902 58.4311 35.9467 58.0752 35.764C57.7388 35.5818 57.4758 35.3307 57.134 35.1538C56.7885 34.995 56.3794 34.9389 55.9839 34.9963C55.5884 35.0537 55.2339 35.2205 54.9874 35.4652C54.6364 35.7136 55.1218 36.15 55.4714 35.8986C55.7313 35.7115 56.0669 35.4388 56.4563 35.5437C56.7468 35.6606 57.0051 35.8198 57.2168 36.0123C57.7449 36.3627 58.3627 36.6241 59.0303 36.7794C60.2783 37.1011 61.9087 37.2109 62.5273 38.2506C62.593 38.3628 62.842 38.3074 62.7999 38.1829Z" fill="#FFEDE4"/>
<path d="M62.7999 38.1829L63.7472 37.8625L63.7456 37.858L62.7999 38.1829ZM59.2257 36.1905L59.4851 35.2247L59.4749 35.222L59.4647 35.2195L59.2257 36.1905ZM58.0752 35.764L57.5988 36.6433L57.6087 36.6486L57.6186 36.6537L58.0752 35.764ZM57.134 35.1538L57.5935 34.2657L57.5729 34.255L57.5518 34.2453L57.134 35.1538ZM54.9874 35.4652L55.5651 36.2815L55.633 36.2335L55.692 36.1749L54.9874 35.4652ZM55.4714 35.8986L56.0552 36.7105L56.0555 36.7103L55.4714 35.8986ZM56.4563 35.5437L56.8297 34.616L56.7742 34.5937L56.7163 34.5781L56.4563 35.5437ZM57.2168 36.0123L56.5441 36.7522L56.6004 36.8034L56.6639 36.8455L57.2168 36.0123ZM59.0303 36.7794L59.28 35.8111L59.2685 35.8081L59.2569 35.8054L59.0303 36.7794ZM62.5273 38.2506L63.3902 37.7452L63.3867 37.7393L62.5273 38.2506ZM63.7456 37.858C63.3974 36.8445 62.532 36.2851 61.7778 35.9492C61.0184 35.611 60.1296 35.3978 59.4851 35.2247L58.9664 37.1563C59.7011 37.3536 60.3873 37.5194 60.9642 37.7762C61.5462 38.0354 61.7783 38.287 61.8542 38.5079L63.7456 37.858ZM59.4647 35.2195C59.1291 35.1368 58.8152 35.0198 58.5318 34.8744L57.6186 36.6537C58.0469 36.8735 58.5075 37.0436 58.9867 37.1615L59.4647 35.2195ZM58.5516 34.8848C58.4483 34.8288 58.3503 34.7593 58.1884 34.6435C58.042 34.5388 57.8366 34.3914 57.5935 34.2657L56.6745 36.042C56.7732 36.0931 56.8702 36.1597 57.0249 36.2703C57.1641 36.3698 57.3658 36.517 57.5988 36.6433L58.5516 34.8848ZM57.5518 34.2453C57.0218 34.0016 56.4166 33.9231 55.8403 34.0067L56.1275 35.9859C56.3422 35.9548 56.5553 35.9884 56.7161 36.0624L57.5518 34.2453ZM55.8403 34.0067C55.2659 34.09 54.7037 34.3377 54.2828 34.7556L55.692 36.1749C55.7641 36.1033 55.9109 36.0174 56.1275 35.9859L55.8403 34.0067ZM54.4097 34.649C54.105 34.8646 53.8556 35.2297 53.866 35.6954C53.8754 36.1144 54.0922 36.4282 54.2988 36.6137C54.702 36.9753 55.4299 37.1601 56.0552 36.7105L54.8876 35.0867C55.1633 34.8885 55.4737 34.9808 55.6345 35.125C55.72 35.2017 55.8594 35.3756 55.8655 35.6508C55.8727 35.9726 55.6943 36.1901 55.5651 36.2815L54.4097 34.649ZM56.0555 36.7103C56.0741 36.6969 56.0926 36.6834 56.1093 36.6712C56.1267 36.6586 56.1423 36.6473 56.158 36.6359C56.1893 36.6133 56.2161 36.5943 56.2413 36.5772C56.293 36.5422 56.3251 36.5241 56.3446 36.5149C56.3632 36.506 56.3549 36.5127 56.3252 36.5172C56.2908 36.5225 56.2442 36.5222 56.1963 36.5093L56.7163 34.5781C56.2153 34.4432 55.7818 34.5679 55.4861 34.7085C55.2175 34.8361 54.9755 35.0234 54.8873 35.0869L56.0555 36.7103ZM56.0829 36.4714C56.2736 36.5481 56.4281 36.6467 56.5441 36.7522L57.8896 35.2724C57.5821 34.9928 57.22 34.7731 56.8297 34.616L56.0829 36.4714ZM56.6639 36.8455C57.2993 37.2672 58.0293 37.5732 58.8037 37.7534L59.2569 35.8054C58.6961 35.6749 58.1905 35.4583 57.7698 35.1791L56.6639 36.8455ZM58.7807 37.7477C59.1199 37.8352 59.488 37.9089 59.8085 37.977C60.1439 38.0482 60.4461 38.1169 60.7202 38.2014C61.2948 38.3786 61.5538 38.5701 61.6679 38.7619L63.3867 37.7393C62.8822 36.8914 62.0167 36.5082 61.3095 36.2902C60.9427 36.1771 60.5646 36.0929 60.224 36.0206C59.8684 35.9451 59.5647 35.8845 59.28 35.8111L58.7807 37.7477ZM61.6644 38.756C61.8466 39.0671 62.1289 39.2124 62.3422 39.2701C62.5522 39.327 62.758 39.3202 62.9335 39.2788C63.0986 39.2399 63.3386 39.1454 63.5347 38.9228C63.7703 38.6553 63.8813 38.2591 63.7471 37.8625L61.8526 38.5034C61.7395 38.169 61.8352 37.8264 62.0339 37.6008C62.1931 37.4201 62.3746 37.3558 62.4745 37.3322C62.5849 37.3062 62.7187 37.3 62.8648 37.3396C63.0142 37.3801 63.2408 37.4901 63.3902 37.7452L61.6644 38.756Z" fill="#FFEDE4" mask="url(#path-23-inside-9_170_956)"/>
<path d="M47.5113 34.915L47.5211 34.7239C46.5409 34.6629 45.5548 34.6831 44.58 34.7841L44.5703 34.7851L44.5703 34.785C44.456 34.7947 44.3427 34.8082 44.2306 34.8256C44.2256 34.8264 44.2205 34.8272 44.2155 34.828C43.9121 34.8762 43.6184 34.9525 43.341 35.0551L43.2385 35.0982L43.0281 35.1867L42.8826 35.2479L42.8625 35.2564L42.7862 35.2885L42.688 35.3298L42.6851 35.3169L42.4101 35.4089C42.438 35.4657 42.4862 35.5152 42.5492 35.5516C42.6122 35.5881 42.6874 35.61 42.766 35.6149C42.8445 35.6198 42.9233 35.6074 42.9931 35.5791C43.0629 35.5509 43.1208 35.508 43.1601 35.4555C43.5039 35.2866 43.8775 35.1565 44.2693 35.0692C45.335 34.9001 46.4266 34.8482 47.5113 34.915ZM47.5113 34.915L47.5231 34.724L47.7262 34.7379C48.6752 34.8479 49.6162 34.9917 50.5462 35.1687C49.5402 35.0515 48.5277 34.9668 47.5113 34.915ZM42.9404 34.1388L42.8508 34.1765L43.0447 34.6373L43.1645 34.6104L43.2587 34.8632C43.2248 34.8771 43.1911 34.8913 43.1576 34.9059C43.084 34.9379 43.0113 34.9715 42.9397 35.0066L42.8317 35.0597L42.9404 34.1388ZM42.9404 34.1388C42.7146 32.9714 42.6153 31.7912 42.6437 30.6106M42.9404 34.1388L42.297 30.6188L42.6437 30.6106M42.6437 30.6106C42.6118 29.2581 42.3716 27.9142 41.929 26.6068C41.97 27.0806 42.0225 27.5556 42.0758 28.0375C42.0887 28.155 42.1018 28.2729 42.1147 28.3914C42.1937 29.1158 42.2682 29.8547 42.2964 30.6023L42.6437 30.6106ZM41.6687 25.9006C41.675 25.9164 41.6813 25.9322 41.6875 25.9479L41.5432 25.9564L41.6687 25.9006ZM41.6687 25.9006C41.6087 25.7656 41.3735 25.8451 41.3805 25.966M41.6687 25.9006L41.5262 25.9574L41.3805 25.966M41.3805 25.966C41.3815 25.9821 41.3824 25.9983 41.3834 26.0144L41.5259 25.9576L41.3805 25.966ZM47.5394 34.4158C46.5418 34.3545 45.5384 34.3904 44.5528 34.5224C44.5513 34.5226 44.5498 34.5228 44.5483 34.523C44.4289 34.5391 44.3097 34.5565 44.1909 34.5754L44.1756 34.5778L44.1605 34.5812C43.8531 34.6497 43.5547 34.7425 43.2699 34.8586L43.1654 34.6102L43.5325 34.5276C43.5282 34.5087 43.524 34.4897 43.5198 34.4708C43.8443 34.3778 44.1831 34.3159 44.5284 34.2868L47.5394 34.4158ZM41.7899 26.2151C41.7567 26.1259 41.7226 26.0369 41.6876 25.9482L41.5429 25.9566L41.3842 26.0272C41.3898 26.117 41.3959 26.2067 41.4025 26.2964C41.4169 26.3031 41.4315 26.3088 41.4461 26.3134C41.5271 26.3391 41.5934 26.3301 41.6329 26.3192C41.6728 26.3082 41.7228 26.285 41.7705 26.2366C41.7767 26.2302 41.7832 26.2231 41.7899 26.2151Z" fill="#FFEDE4" stroke="#FFEDE4"/>
<path d="M61.6548 38.5142L61.6376 38.5265L61.6548 38.5142Z" fill="#FFEDE4" stroke="#FFEDE4"/>
<mask id="path-27-inside-10_170_956" fill="white">
<path d="M17.2303 15.0045C17.0215 14.8065 16.7616 14.6439 16.467 14.5272C16.1723 14.4104 15.8494 14.342 15.5186 14.3262C14.8899 14.3313 14.2695 14.4365 13.6963 14.6352C12.9056 14.3868 12.0473 14.2931 11.198 14.3625C10.3487 14.4319 9.53509 14.6622 8.82989 15.0328C7.98312 15.5006 7.40006 16.1992 7.1995 16.9861C7.17474 17.0911 7.38144 17.1211 7.42902 17.0271C7.8391 16.2569 8.60151 15.6289 9.57232 15.2616C10.5431 14.8943 11.6552 14.8131 12.6985 15.0333C13.7963 15.224 14.7768 15.6966 15.4786 16.3734C15.7987 16.7147 16.0218 17.1039 16.1337 17.5159C16.2455 17.9278 16.2435 18.3532 16.1278 18.7645C16.0498 18.9942 16.4813 19.1298 16.5872 18.8959C16.7686 18.5538 16.8667 18.1889 16.8766 17.8195C16.8705 17.4342 16.7835 17.0522 16.619 16.6882C16.2387 15.9561 15.5362 15.35 14.6343 14.9757L14.3698 14.8647C14.7373 14.8127 15.1153 14.826 15.475 14.9036C15.8347 14.9811 16.1666 15.1208 16.4454 15.3121C17.0304 15.7789 17.6423 16.5777 17.0316 17.1949C16.9086 17.3193 17.1076 17.5284 17.2962 17.4438C18.5668 16.8739 18.0138 15.6957 17.2303 15.0045Z"/>
</mask>
<path d="M17.2303 15.0045C17.0215 14.8065 16.7616 14.6439 16.467 14.5272C16.1723 14.4104 15.8494 14.342 15.5186 14.3262C14.8899 14.3313 14.2695 14.4365 13.6963 14.6352C12.9056 14.3868 12.0473 14.2931 11.198 14.3625C10.3487 14.4319 9.53509 14.6622 8.82989 15.0328C7.98312 15.5006 7.40006 16.1992 7.1995 16.9861C7.17474 17.0911 7.38144 17.1211 7.42902 17.0271C7.8391 16.2569 8.60151 15.6289 9.57232 15.2616C10.5431 14.8943 11.6552 14.8131 12.6985 15.0333C13.7963 15.224 14.7768 15.6966 15.4786 16.3734C15.7987 16.7147 16.0218 17.1039 16.1337 17.5159C16.2455 17.9278 16.2435 18.3532 16.1278 18.7645C16.0498 18.9942 16.4813 19.1298 16.5872 18.8959C16.7686 18.5538 16.8667 18.1889 16.8766 17.8195C16.8705 17.4342 16.7835 17.0522 16.619 16.6882C16.2387 15.9561 15.5362 15.35 14.6343 14.9757L14.3698 14.8647C14.7373 14.8127 15.1153 14.826 15.475 14.9036C15.8347 14.9811 16.1666 15.1208 16.4454 15.3121C17.0304 15.7789 17.6423 16.5777 17.0316 17.1949C16.9086 17.3193 17.1076 17.5284 17.2962 17.4438C18.5668 16.8739 18.0138 15.6957 17.2303 15.0045Z" fill="#FFEDE4"/>
<path d="M17.2303 15.0045L16.5421 15.73L16.5552 15.7424L16.5687 15.7544L17.2303 15.0045ZM15.5186 14.3262L15.5663 13.3273L15.5384 13.326L15.5104 13.3262L15.5186 14.3262ZM13.6963 14.6352L13.3966 15.5892L13.7117 15.6882L14.0238 15.58L13.6963 14.6352ZM8.82989 15.0328L8.36471 14.1476L8.35547 14.1525L8.34633 14.1575L8.82989 15.0328ZM7.1995 16.9861L6.23047 16.7392L6.22826 16.7478L6.22621 16.7566L7.1995 16.9861ZM7.42902 17.0271L6.54635 16.5571L6.54143 16.5663L6.5367 16.5756L7.42902 17.0271ZM12.6985 15.0333L12.492 16.0117L12.5096 16.0154L12.5274 16.0185L12.6985 15.0333ZM15.4786 16.3734L16.2081 15.6893L16.1909 15.671L16.1728 15.6535L15.4786 16.3734ZM16.1278 18.7645L17.0746 19.0861L17.0832 19.061L17.0904 19.0354L16.1278 18.7645ZM16.5872 18.8959L15.7037 18.4275L15.6891 18.455L15.6762 18.4834L16.5872 18.8959ZM16.8766 17.8195L17.8762 17.8463L17.8768 17.8251L17.8764 17.8039L16.8766 17.8195ZM16.619 16.6882L17.5302 16.2762L17.5189 16.2514L17.5064 16.2273L16.619 16.6882ZM14.6343 14.9757L14.2472 15.8977L14.2509 15.8993L14.6343 14.9757ZM14.3698 14.8647L14.2298 13.8745L10.6378 14.3825L13.9828 15.7867L14.3698 14.8647ZM16.4454 15.3121L17.0691 14.5305L17.0409 14.508L17.0111 14.4875L16.4454 15.3121ZM17.0316 17.1949L17.7424 17.8983L17.7424 17.8983L17.0316 17.1949ZM17.2962 17.4438L16.887 16.5313L16.8869 16.5314L17.2962 17.4438ZM17.9185 14.2789C17.6081 13.9846 17.2366 13.7565 16.8354 13.5975L16.0986 15.4568C16.2866 15.5314 16.4349 15.6283 16.5421 15.73L17.9185 14.2789ZM16.8354 13.5975C16.4338 13.4384 16.0021 13.3481 15.5663 13.3273L15.4709 15.325C15.6967 15.3358 15.9108 15.3824 16.0986 15.4568L16.8354 13.5975ZM15.5104 13.3262C14.7771 13.3322 14.0485 13.4548 13.3688 13.6903L14.0238 15.58C14.4905 15.4183 15.0028 15.3304 15.5268 15.3261L15.5104 13.3262ZM13.996 13.6811C13.0787 13.393 12.0907 13.2863 11.1166 13.3659L11.2794 15.3592C12.0038 15.3 12.7326 15.3806 13.3966 15.5892L13.996 13.6811ZM11.1166 13.3659C10.1426 13.4454 9.19714 13.7102 8.36471 14.1476L9.29508 15.918C9.87304 15.6143 10.5548 15.4184 11.2794 15.3592L11.1166 13.3659ZM8.34633 14.1575C7.308 14.7311 6.51214 15.6339 6.23047 16.7392L8.16853 17.2331C8.28798 16.7644 8.65823 16.2701 9.31346 15.9081L8.34633 14.1575ZM6.22621 16.7566C6.13191 17.1563 6.27641 17.5301 6.52266 17.7685C6.72879 17.9681 6.96578 18.0421 7.1266 18.0683C7.29728 18.096 7.49468 18.0891 7.69285 18.0214C7.89305 17.953 8.16104 17.7953 8.32133 17.4785L6.5367 16.5756C6.6732 16.3058 6.89751 16.1796 7.04635 16.1288C7.19315 16.0787 7.3315 16.0753 7.44766 16.0942C7.55395 16.1115 7.74093 16.1642 7.91378 16.3316C8.12676 16.5378 8.2547 16.8684 8.1728 17.2157L6.22621 16.7566ZM8.31168 17.4971C8.5869 16.9802 9.13696 16.4955 9.9262 16.1969L9.21843 14.3263C8.06605 14.7624 7.0913 15.5337 6.54635 16.5571L8.31168 17.4971ZM9.9262 16.1969C10.7131 15.8992 11.6303 15.8299 12.492 16.0117L12.905 14.0548C11.68 13.7963 10.3732 13.8894 9.21843 14.3263L9.9262 16.1969ZM12.5274 16.0185C13.4572 16.18 14.2464 16.5743 14.7845 17.0932L16.1728 15.6535C15.3072 14.8189 14.1353 14.2679 12.8696 14.048L12.5274 16.0185ZM14.7492 17.0574C14.9683 17.2911 15.1036 17.5385 15.1686 17.7779L17.0988 17.2539C16.9401 16.6693 16.629 16.1382 16.2081 15.6893L14.7492 17.0574ZM15.1686 17.7779C15.233 18.015 15.2319 18.2563 15.1652 18.4937L17.0904 19.0354C17.2551 18.4501 17.258 17.8406 17.0988 17.2539L15.1686 17.7779ZM15.1809 18.4429C15.0459 18.8404 15.1404 19.2342 15.3529 19.5164C15.5407 19.7657 15.7919 19.8991 16.0014 19.9619C16.3563 20.0683 17.1511 20.0749 17.4982 19.3084L15.6762 18.4834C15.7827 18.2483 15.982 18.1068 16.1668 18.0502C16.3304 18.0001 16.4731 18.0154 16.5756 18.0461C16.6738 18.0755 16.8251 18.1466 16.9506 18.3133C17.1008 18.5128 17.1706 18.8035 17.0746 19.0861L15.1809 18.4429ZM17.4707 19.3643C17.7208 18.8926 17.862 18.3773 17.8762 17.8463L15.8769 17.7927C15.8714 18.0005 15.8164 18.2149 15.7037 18.4275L17.4707 19.3643ZM17.8764 17.8039C17.8682 17.2767 17.749 16.7602 17.5302 16.2762L15.7078 17.1002C15.8181 17.3442 15.8729 17.5917 15.8767 17.8352L17.8764 17.8039ZM17.5064 16.2273C16.9985 15.2495 16.0949 14.4992 15.0176 14.0521L14.2509 15.8993C14.9775 16.2008 15.4789 16.6627 15.7316 17.1492L17.5064 16.2273ZM15.0213 14.0536L14.7569 13.9426L13.9828 15.7867L14.2472 15.8977L15.0213 14.0536ZM14.5099 15.8548C14.7615 15.8192 15.0208 15.8286 15.2642 15.8811L15.6857 13.926C15.2097 13.8234 14.713 13.8062 14.2298 13.8745L14.5099 15.8548ZM15.2642 15.8811C15.5081 15.9337 15.7173 16.0253 15.8797 16.1367L17.0111 14.4875C16.6159 14.2164 16.1613 14.0285 15.6857 13.926L15.2642 15.8811ZM15.8217 16.0938C15.9279 16.1785 16.0298 16.2742 16.1139 16.3712C16.2 16.4707 16.25 16.5514 16.2739 16.605C16.2975 16.6579 16.2801 16.6477 16.2864 16.592C16.2947 16.5203 16.3292 16.483 16.3207 16.4916L17.7424 17.8983C18.0394 17.5982 18.2264 17.2296 18.2734 16.8199C18.3186 16.4263 18.2261 16.0715 18.0999 15.7892C17.8576 15.2469 17.4208 14.811 17.0691 14.5305L15.8217 16.0938ZM16.3208 16.4916C16.0745 16.7405 15.961 17.0803 16.0017 17.4177C16.0385 17.7231 16.1902 17.957 16.3444 18.1092C16.6478 18.4089 17.1764 18.5936 17.7056 18.3562L16.8869 16.5314C17.2275 16.3786 17.5622 16.501 17.7497 16.6862C17.8459 16.7812 17.9592 16.9447 17.9873 17.1786C18.0194 17.4445 17.9272 17.7115 17.7424 17.8983L16.3208 16.4916ZM17.7054 18.3562C18.1637 18.1507 18.5561 17.8449 18.8013 17.414C19.05 16.9769 19.0896 16.5122 19.0192 16.101C18.8879 15.3334 18.3705 14.6768 17.8919 14.2546L16.5687 15.7544C16.7058 15.8753 16.8261 16.0122 16.9139 16.1459C17.0042 16.2834 17.0387 16.3847 17.0479 16.4383C17.0549 16.4792 17.0435 16.4591 17.063 16.4249C17.079 16.3968 17.064 16.452 16.887 16.5313L17.7054 18.3562Z" fill="#FFEDE4" mask="url(#path-27-inside-10_170_956)"/>
<path d="M7.24465 19.6433V19.6433ZM7.24465 19.6433L7.25263 19.6207L7.25386 19.6172" fill="#FFEDE4" stroke="#FFEDE4"/>
<mask id="path-30-inside-11_170_956" fill="white">
<path d="M15.4311 18.8952C14.8531 18.7067 14.2449 18.5778 13.6701 18.3827C13.1073 18.189 12.5737 17.9488 12.0787 17.6661C11.0429 17.1011 10.1648 16.3822 9.49588 15.552C9.36718 15.3788 9.00526 15.492 9.11934 15.6803C9.3818 16.1592 9.71323 16.614 10.1074 17.0361C10.453 17.3745 10.8472 17.6817 11.2825 17.952C11.1743 17.9997 11.0848 18.069 11.0235 18.1526C10.9621 18.2361 10.9312 18.3308 10.934 18.4268C10.9331 18.4478 10.9427 18.4684 10.9607 18.4842C10.9788 18.5001 11.004 18.51 11.0312 18.5121C11.0585 18.5142 11.0858 18.5083 11.1075 18.4955C11.1293 18.4827 11.144 18.464 11.1485 18.4433C11.1847 18.3803 11.2461 18.328 11.3237 18.2938C11.4014 18.2596 11.4912 18.2454 11.58 18.2532C11.6939 18.2702 11.7735 18.3936 11.8098 18.4656C11.8969 18.6586 11.8835 18.87 11.7725 19.0556C11.6411 19.1685 11.4959 19.2714 11.3388 19.3629C11.2205 19.4652 11.1261 19.5825 11.0598 19.7096C10.989 19.8159 11.1616 19.8966 11.2776 19.8674C11.7316 19.7651 12.1178 19.5334 12.3573 19.2197C12.4663 19.0235 12.5031 18.8081 12.4638 18.597C13.3098 19.0281 14.2918 19.2749 15.3055 19.3113C15.3722 19.3149 15.4384 19.3 15.4922 19.2695C15.546 19.2389 15.5838 19.1946 15.5989 19.1444C15.6141 19.0943 15.6055 19.0417 15.5747 18.996C15.5439 18.9504 15.493 18.9146 15.4311 18.8952Z"/>
</mask>
<path d="M15.4311 18.8952C14.8531 18.7067 14.2449 18.5778 13.6701 18.3827C13.1073 18.189 12.5737 17.9488 12.0787 17.6661C11.0429 17.1011 10.1648 16.3822 9.49588 15.552C9.36718 15.3788 9.00526 15.492 9.11934 15.6803C9.3818 16.1592 9.71323 16.614 10.1074 17.0361C10.453 17.3745 10.8472 17.6817 11.2825 17.952C11.1743 17.9997 11.0848 18.069 11.0235 18.1526C10.9621 18.2361 10.9312 18.3308 10.934 18.4268C10.9331 18.4478 10.9427 18.4684 10.9607 18.4842C10.9788 18.5001 11.004 18.51 11.0312 18.5121C11.0585 18.5142 11.0858 18.5083 11.1075 18.4955C11.1293 18.4827 11.144 18.464 11.1485 18.4433C11.1847 18.3803 11.2461 18.328 11.3237 18.2938C11.4014 18.2596 11.4912 18.2454 11.58 18.2532C11.6939 18.2702 11.7735 18.3936 11.8098 18.4656C11.8969 18.6586 11.8835 18.87 11.7725 19.0556C11.6411 19.1685 11.4959 19.2714 11.3388 19.3629C11.2205 19.4652 11.1261 19.5825 11.0598 19.7096C10.989 19.8159 11.1616 19.8966 11.2776 19.8674C11.7316 19.7651 12.1178 19.5334 12.3573 19.2197C12.4663 19.0235 12.5031 18.8081 12.4638 18.597C13.3098 19.0281 14.2918 19.2749 15.3055 19.3113C15.3722 19.3149 15.4384 19.3 15.4922 19.2695C15.546 19.2389 15.5838 19.1946 15.5989 19.1444C15.6141 19.0943 15.6055 19.0417 15.5747 18.996C15.5439 18.9504 15.493 18.9146 15.4311 18.8952Z" fill="#FFEDE4"/>
<path d="M15.4311 18.8952L15.1209 19.846L15.1321 19.8495L15.4311 18.8952ZM13.6701 18.3827L13.3447 19.3283L13.3486 19.3296L13.6701 18.3827ZM12.0787 17.6661L12.5745 16.7977L12.5661 16.7929L12.5576 16.7883L12.0787 17.6661ZM9.49588 15.552L8.69314 16.1483L8.70485 16.1641L8.71717 16.1794L9.49588 15.552ZM9.11934 15.6803L9.99628 15.1997L9.98583 15.1806L9.97457 15.162L9.11934 15.6803ZM10.1074 17.0361L9.3765 17.7186L9.39179 17.735L9.40779 17.7506L10.1074 17.0361ZM11.2825 17.952L11.686 18.867L13.4201 18.1022L11.81 17.1025L11.2825 17.952ZM10.934 18.4268L11.9331 18.4687L11.9346 18.4333L11.9336 18.3978L10.934 18.4268ZM11.1485 18.4433L10.2817 17.9445L10.2048 18.0783L10.1717 18.2291L11.1485 18.4433ZM11.58 18.2532L11.7273 17.2641L11.6977 17.2597L11.6679 17.2571L11.58 18.2532ZM11.8098 18.4656L12.7212 18.0541L12.7124 18.0347L12.7028 18.0157L11.8098 18.4656ZM11.7725 19.0556L12.4242 19.814L12.5473 19.7083L12.6306 19.569L11.7725 19.0556ZM11.3388 19.3629L10.8353 18.4989L10.7552 18.5456L10.685 18.6063L11.3388 19.3629ZM11.0598 19.7096L11.8922 20.2636L11.9218 20.2193L11.9464 20.172L11.0598 19.7096ZM11.2776 19.8674L11.0578 18.8918L11.0455 18.8946L11.0331 18.8977L11.2776 19.8674ZM12.3573 19.2197L13.1521 19.8265L13.1962 19.7688L13.2314 19.7054L12.3573 19.2197ZM12.4638 18.597L12.9178 17.706L11.1087 16.7842L11.4807 18.7802L12.4638 18.597ZM15.3055 19.3113L15.3589 18.3127L15.3502 18.3123L15.3414 18.312L15.3055 19.3113ZM15.7412 17.9445C15.4231 17.8407 15.0997 17.7544 14.8107 17.6762C14.5121 17.5953 14.2451 17.5218 13.9915 17.4357L13.3486 19.3296C13.6699 19.4387 13.9944 19.5272 14.2881 19.6067C14.5914 19.6888 14.8612 19.7611 15.121 19.8459L15.7412 17.9445ZM13.9954 17.4371C13.4892 17.2629 13.0129 17.048 12.5745 16.7977L11.5828 18.5345C12.1344 18.8495 12.7254 19.1152 13.3447 19.3282L13.9954 17.4371ZM12.5576 16.7883C11.625 16.2794 10.8526 15.6421 10.2746 14.9246L8.71717 16.1794C9.47693 17.1224 10.4609 17.9227 11.5997 18.544L12.5576 16.7883ZM10.2986 14.9557C9.89011 14.4058 9.24693 14.4185 8.90573 14.5301C8.71489 14.5925 8.42969 14.7389 8.24645 15.0555C8.02316 15.4413 8.06845 15.8756 8.26411 16.1985L9.97457 15.162C10.1132 15.3908 10.1609 15.7403 9.97745 16.0573C9.834 16.3052 9.62594 16.3988 9.52741 16.431C9.37083 16.4822 8.97295 16.525 8.69314 16.1483L10.2986 14.9557ZM8.24239 16.1609C8.54717 16.717 8.92869 17.239 9.3765 17.7186L10.8383 16.3536C10.4978 15.9889 10.2164 15.6014 9.99628 15.1997L8.24239 16.1609ZM9.40779 17.7506C9.80864 18.1431 10.2612 18.495 10.755 18.8016L11.81 17.1025C11.4331 16.8685 11.0973 16.6059 10.807 16.3216L9.40779 17.7506ZM10.879 17.037C10.6335 17.1453 10.3961 17.3172 10.2173 17.5609L11.8296 18.7443C11.7734 18.8208 11.715 18.8542 11.686 18.867L10.879 17.037ZM10.2173 17.5609C10.0354 17.8086 9.92468 18.1188 9.93443 18.4557L11.9336 18.3978C11.9378 18.5428 11.8888 18.6636 11.8296 18.7443L10.2173 17.5609ZM9.93489 18.3848C9.91944 18.7526 10.0914 19.0516 10.3009 19.2356L11.6205 17.7328C11.794 17.8851 11.9468 18.1431 11.9331 18.4687L9.93489 18.3848ZM10.3009 19.2356C10.5037 19.4137 10.7426 19.4929 10.9545 19.5092L11.1079 17.5151C11.2653 17.5272 11.4539 17.5864 11.6205 17.7328L10.3009 19.2356ZM10.9545 19.5092C11.1677 19.5256 11.4014 19.4826 11.6139 19.3578L10.6011 17.6332C10.7701 17.534 10.9493 17.5029 11.1079 17.5151L10.9545 19.5092ZM11.6139 19.3578C11.8271 19.2326 12.05 19.0011 12.1253 18.6574L10.1717 18.2291C10.2379 17.9269 10.4315 17.7328 10.6011 17.6332L11.6139 19.3578ZM12.0153 18.942C11.9281 19.0935 11.8101 19.1722 11.7268 19.209L10.9207 17.3786C10.6821 17.4837 10.4414 17.6671 10.2817 17.9445L12.0153 18.942ZM11.7268 19.209C11.6422 19.2462 11.5622 19.2555 11.4922 19.2493L11.6679 17.2571C11.4202 17.2352 11.1606 17.2729 10.9207 17.3786L11.7268 19.209ZM11.4328 19.2423C11.1722 19.2035 11.0272 19.0584 10.9884 19.0162C10.942 18.9658 10.9222 18.9266 10.9167 18.9155L12.7028 18.0157C12.661 17.9326 12.5833 17.7957 12.4596 17.6614C12.3434 17.5352 12.1018 17.3199 11.7273 17.2641L11.4328 19.2423ZM10.8983 18.8771C10.8766 18.8289 10.8632 18.7675 10.8674 18.7004C10.8716 18.6336 10.8921 18.5794 10.9144 18.5421L12.6306 19.569C12.9055 19.1096 12.9464 18.553 12.7212 18.0541L10.8983 18.8771ZM11.1208 18.2971C11.0377 18.3685 10.9424 18.4365 10.8353 18.4989L11.8423 20.2269C12.0493 20.1063 12.2445 19.9684 12.4242 19.814L11.1208 18.2971ZM10.685 18.6063C10.4799 18.7835 10.3029 18.9984 10.1731 19.2471L11.9464 20.172C11.9493 20.1666 11.9611 20.1469 11.9927 20.1195L10.685 18.6063ZM10.2273 19.1555C10.0575 19.4106 9.97707 19.7659 10.108 20.1255C10.2202 20.4333 10.4384 20.6078 10.5773 20.6927C10.8419 20.8543 11.1886 20.9211 11.522 20.837L11.0331 18.8977C11.2506 18.8429 11.453 18.8839 11.62 18.986C11.7101 19.041 11.8912 19.1772 11.9872 19.4409C12.1021 19.7563 12.0267 20.0617 11.8922 20.2636L10.2273 19.1555ZM11.4974 20.8429C12.1374 20.6987 12.7455 20.3591 13.1521 19.8265L11.5625 18.6128C11.49 18.7078 11.3258 18.8315 11.0578 18.8918L11.4974 20.8429ZM13.2314 19.7054C13.448 19.3156 13.5309 18.8647 13.4469 18.4138L11.4807 18.7802C11.4787 18.7692 11.4785 18.7567 11.4805 18.7454C11.4824 18.7344 11.4851 18.7304 11.4832 18.7339L13.2314 19.7054ZM12.0098 19.488C12.9944 19.9897 14.1205 20.2694 15.2696 20.3107L15.3414 18.312C14.4632 18.2804 13.6253 18.0665 12.9178 17.706L12.0098 19.488ZM15.2521 20.3099C15.4941 20.3228 15.753 20.2716 15.9865 20.1387L14.9978 18.4002C15.1239 18.3285 15.2504 18.3069 15.3589 18.3127L15.2521 20.3099ZM15.9865 20.1387C16.2201 20.0059 16.4538 19.7731 16.5563 19.4334L14.6416 18.8555C14.7139 18.6161 14.8718 18.4719 14.9978 18.4002L15.9865 20.1387ZM16.5563 19.4334C16.6632 19.0791 16.5925 18.7172 16.4042 18.4375L14.7452 19.5546C14.6184 19.3662 14.5649 19.1096 14.6416 18.8555L16.5563 19.4334ZM16.4042 18.4375C16.2249 18.1712 15.9683 18.0156 15.7301 17.9409L15.1321 19.8495C15.0177 19.8136 14.863 19.7295 14.7452 19.5546L16.4042 18.4375Z" fill="#FFEDE4" mask="url(#path-30-inside-11_170_956)"/>
</svg>
