<svg width="28" height="20" viewBox="0 0 28 20" fill="none" xmlns="http://www.w3.org/2000/svg">
<path d="M14.5794 19.8239C14.6688 19.8113 14.7558 19.7657 14.8213 19.6766C18.5941 14.6668 22.9812 10.1446 27.881 6.21493C28.0638 6.06234 28.0148 5.85601 27.8768 5.73591C27.8799 5.67441 27.8607 5.60801 27.8116 5.54114C26.3929 3.6849 24.8244 1.9466 23.1217 0.343476C22.9608 0.196909 22.7642 0.234325 22.6405 0.347822C22.5492 0.3343 22.4503 0.354792 22.3607 0.426027C19.4331 2.67707 16.6111 5.03772 13.8948 7.50798L5.29875 0.184666C5.29573 0.177976 5.2925 0.171359 5.28906 0.164825C5.2405 0.089392 5.16523 0.03482 5.07813 0.0119039C4.99103 -0.0110122 4.89849 -0.000603604 4.81874 0.0410714C2.95395 1.45142 1.34456 3.16728 0.0596944 5.11498C-0.104298 5.35947 0.097698 5.59204 0.325882 5.61632C0.339447 5.67107 0.369312 5.72531 0.419423 5.77512L14.0464 19.8968C14.2241 20.0815 14.4679 19.9942 14.5794 19.8239ZM0.838336 5.23706C0.860816 5.25229 0.882707 5.27112 0.903678 5.29385L14.3192 19.2095C18.0496 14.2595 22.3756 9.78236 27.2009 5.87789C25.8611 4.12292 24.3773 2.4814 22.7648 0.970142C19.9301 3.19642 17.1532 5.52885 14.4341 7.96744L14.9595 8.41507C15.2916 8.69008 14.8074 9.1851 14.4615 8.89634L4.96218 0.80348C3.36585 2.06143 1.97484 3.55699 0.838336 5.23706Z" fill="#FFEDE4"/>
<path d="M14.5794 19.8239C14.6688 19.8113 14.7558 19.7657 14.8213 19.6766C18.5941 14.6668 22.9812 10.1446 27.881 6.21493C28.0638 6.06234 28.0148 5.85601 27.8768 5.73591C27.8799 5.67441 27.8607 5.60801 27.8116 5.54114C26.3929 3.6849 24.8244 1.9466 23.1217 0.343476C22.9608 0.196909 22.7642 0.234325 22.6405 0.347822C22.5492 0.3343 22.4503 0.354792 22.3607 0.426027C19.4331 2.67707 16.6111 5.03772 13.8948 7.50798L5.29875 0.184666C5.29573 0.177976 5.2925 0.171359 5.28906 0.164825C5.2405 0.089392 5.16523 0.03482 5.07813 0.0119039C4.99103 -0.0110122 4.89849 -0.000603604 4.81874 0.0410714C2.95395 1.45142 1.34456 3.16728 0.0596944 5.11498C-0.104298 5.35947 0.097698 5.59204 0.325882 5.61632C0.339447 5.67107 0.369312 5.72531 0.419423 5.77512L14.0464 19.8968C14.2241 20.0815 14.4679 19.9942 14.5794 19.8239ZM0.838336 5.23706C0.860816 5.25229 0.882707 5.27112 0.903678 5.29385L14.3192 19.2095C18.0496 14.2595 22.3756 9.78236 27.2009 5.87789C25.8611 4.12292 24.3773 2.4814 22.7648 0.970142C19.9301 3.19642 17.1532 5.52885 14.4341 7.96744L14.9595 8.41507C15.2916 8.69008 14.8074 9.1851 14.4615 8.89634L4.96218 0.80348C3.36585 2.06143 1.97484 3.55699 0.838336 5.23706Z" stroke="#FFEDE4"/>
</svg>
