<svg width="46" height="40" viewBox="0 0 46 40" fill="none" xmlns="http://www.w3.org/2000/svg">
<path d="M17.9117 21.1766C18.1312 21.4295 18.3787 21.664 18.6515 21.8761C18.6462 21.8668 18.6409 21.8575 18.6357 21.8481C18.5571 21.7361 18.4743 21.6258 18.3916 21.5156C18.2809 21.368 18.1704 21.2208 18.0707 21.0704M17.9117 21.1766L21.1223 23.2101C20.4373 23.0021 19.8382 22.6108 19.4043 22.088C19.3619 22.0369 19.3212 21.9848 19.2824 21.9317C19.213 21.8098 19.1372 21.6933 19.0604 21.583C18.8394 21.1795 18.7129 20.7365 18.6921 20.2822C18.5715 19.5714 18.5181 18.8526 18.5323 18.1336C18.5136 17.9058 18.5062 17.6775 18.51 17.4493L18.6817 17.3982L18.5391 16.919L18.0412 16.8726C18.035 16.939 18.0298 17.0054 18.0254 17.0719L18.0131 17.0755C17.7793 17.1453 17.542 17.2016 17.3031 17.2528C17.345 17.5628 17.3627 17.875 17.3559 18.1872C17.3601 18.6879 17.4077 19.1876 17.498 19.6816C17.5913 20.1729 17.7856 20.6439 18.0707 21.0704M17.9117 21.1766L18.0707 21.0704M17.9117 21.1766L17.9113 21.1761L18.0707 21.0704M15.0518 19.4434L14.9709 19.5415C14.9856 19.5173 14.9999 19.4936 15.0132 19.4715C15.0249 19.4521 15.0358 19.434 15.0457 19.4177C15.047 19.4156 15.0483 19.4135 15.0496 19.4114C15.0503 19.422 15.0511 19.4327 15.0518 19.4434ZM15.7964 27.0135C15.7662 26.8994 15.7372 26.785 15.7094 26.6705L16.8928 28.7595C16.7149 28.6803 16.542 28.5185 16.3694 28.2645C16.1072 27.8787 15.9248 27.3895 15.7964 27.0135Z" fill="#FFEDE4" stroke="#FFEDE4"/>
<path d="M9.99684 31.8949C9.87363 31.7254 9.75006 31.5555 9.62574 31.3854C9.99251 31.8509 10.348 32.3236 10.6921 32.8032L10.6923 32.8035C11.5251 33.9626 12.681 34.8932 14.0356 35.504L14.045 35.5082L14.0545 35.512L14.3586 35.6344L15.0373 35.9076L15.0376 35.8829L15.3056 35.9608C16.3127 36.2536 17.3396 36.4868 18.3798 36.659C21.5225 37.2324 24.7507 37.3097 27.9223 36.8877L27.9223 36.8877L27.9282 36.8869C29.4465 36.6665 30.9514 36.3758 32.4371 36.0161C33.9617 35.6774 35.4465 35.2044 36.8702 34.6034L36.8702 34.6034L36.876 34.6008C37.0505 34.5246 37.2296 34.4478 37.4114 34.3698C37.8752 34.171 38.3559 33.965 38.8178 33.7419L39.2063 33.5543L39.0777 33.1425C38.9248 32.6535 38.7403 32.1742 38.5253 31.7073C38.7572 32.1062 38.9582 32.5193 39.1267 32.9437L39.3519 33.5109L39.8637 33.1785L40.2996 32.8955C40.8011 32.5851 41.2337 32.1881 41.5721 31.7255C41.3078 32.2007 40.9205 32.6184 40.4363 32.9411C39.1958 33.725 37.8624 34.3825 36.4602 34.9013L36.4602 34.9012L36.4517 34.9045C35.0106 35.4676 33.5165 35.9137 31.9873 36.2375L31.9873 36.2374L31.9766 36.2399C30.4657 36.5946 28.9332 36.8695 27.3868 37.063C24.2066 37.4142 20.9836 37.2758 17.8549 36.6538L17.8474 36.6523L17.84 36.6511C16.3982 36.4095 14.9991 35.9957 13.6795 35.4209C12.4598 34.8044 11.4373 33.9219 10.7029 32.8598L10.6982 32.853L10.6933 32.8464C10.4606 32.5326 10.2294 32.2146 9.99684 31.8949Z" fill="#FFEDE4" stroke="#FFEDE4"/>
<mask id="path-3-inside-1_170_993" fill="white">
<path d="M42.3616 28.9129C42.2159 28.3394 42.1502 27.7517 42.166 27.1635C42.1393 26.5583 42.0776 25.9547 41.9813 25.3554C41.7615 23.8791 41.4598 22.4138 41.0771 20.965C40.668 19.4889 40.3568 17.9921 40.1452 16.4824C40.0546 15.7359 40.0249 14.9834 39.9125 14.2391C39.8569 13.5456 39.6417 12.8703 39.2808 12.2565C39.1281 12.0372 38.8158 12.2414 38.8266 12.4407C38.866 13.1755 39.0629 13.9159 39.139 14.6519C39.2163 15.4011 39.2624 16.1533 39.3629 16.9003C39.588 18.3832 39.9091 19.8529 40.3246 21.3017C40.7087 22.7317 41.0648 24.1465 41.3248 25.6004C41.3837 26.7581 41.624 27.9024 42.0385 28.999C42.1178 29.1484 42.4152 29.0878 42.3616 28.9129Z"/>
</mask>
<path d="M42.3616 28.9129C42.2159 28.3394 42.1502 27.7517 42.166 27.1635C42.1393 26.5583 42.0776 25.9547 41.9813 25.3554C41.7615 23.8791 41.4598 22.4138 41.0771 20.965C40.668 19.4889 40.3568 17.9921 40.1452 16.4824C40.0546 15.7359 40.0249 14.9834 39.9125 14.2391C39.8569 13.5456 39.6417 12.8703 39.2808 12.2565C39.1281 12.0372 38.8158 12.2414 38.8266 12.4407C38.866 13.1755 39.0629 13.9159 39.139 14.6519C39.2163 15.4011 39.2624 16.1533 39.3629 16.9003C39.588 18.3832 39.9091 19.8529 40.3246 21.3017C40.7087 22.7317 41.0648 24.1465 41.3248 25.6004C41.3837 26.7581 41.624 27.9024 42.0385 28.999C42.1178 29.1484 42.4152 29.0878 42.3616 28.9129Z" fill="#FFEDE4"/>
<path d="M42.3616 28.9129L41.3923 29.159L41.3983 29.1826L41.4054 29.2058L42.3616 28.9129ZM42.166 27.1635L43.1656 27.1903L43.1666 27.1548L43.165 27.1194L42.166 27.1635ZM41.9813 25.3554L40.9921 25.5026L40.994 25.5141L41.9813 25.3554ZM41.0771 20.965L42.044 20.7096L42.0408 20.6979L41.0771 20.965ZM40.1452 16.4824L39.1525 16.603L39.1536 16.6121L39.1549 16.6212L40.1452 16.4824ZM39.9125 14.2391L38.9157 14.319L38.9184 14.3539L38.9237 14.3884L39.9125 14.2391ZM39.2808 12.2565L40.1429 11.7497L40.1234 11.7165L40.1014 11.6849L39.2808 12.2565ZM38.8266 12.4407L39.8251 12.3871L39.8251 12.3868L38.8266 12.4407ZM39.139 14.6519L40.1337 14.5492L40.1337 14.549L39.139 14.6519ZM39.3629 16.9003L38.3718 17.0335L38.3729 17.042L38.3742 17.0504L39.3629 16.9003ZM40.3246 21.3017L41.2903 21.0423L41.2882 21.0342L41.2858 21.0261L40.3246 21.3017ZM41.3248 25.6004L42.3235 25.5495L42.3203 25.4865L42.3091 25.4243L41.3248 25.6004ZM42.0385 28.999L41.1032 29.3526L41.1255 29.4117L41.1551 29.4674L42.0385 28.999ZM43.3308 28.6667C43.2077 28.1819 43.1523 27.686 43.1656 27.1903L41.1663 27.1367C41.1481 27.8174 41.2242 28.4969 41.3923 29.159L43.3308 28.6667ZM43.165 27.1194C43.1366 26.4757 43.0711 25.8339 42.9686 25.1966L40.994 25.5141C41.0842 26.0756 41.142 26.6408 41.1669 27.2075L43.165 27.1194ZM42.9704 25.2081C42.7452 23.6953 42.436 22.1939 42.044 20.7096L40.1103 21.2203C40.4836 22.6337 40.7779 24.0629 40.9922 25.5026L42.9704 25.2081ZM42.0408 20.6979C41.6433 19.2638 41.3411 17.8098 41.1356 16.3436L39.1549 16.6212C39.3726 18.1744 39.6927 19.7141 40.1134 21.232L42.0408 20.6979ZM41.138 16.3618C41.0952 16.0099 41.0669 15.6577 41.0332 15.2726C41.0002 14.8964 40.9625 14.4953 40.9012 14.0897L38.9237 14.3884C38.9748 14.7272 39.0082 15.0745 39.0408 15.4472C39.0727 15.8111 39.1046 16.2084 39.1525 16.603L41.138 16.3618ZM40.9093 14.1591C40.8413 13.3114 40.5785 12.4906 40.1429 11.7497L38.4188 12.7633C38.7049 13.25 38.8724 13.7798 38.9157 14.319L40.9093 14.1591ZM40.1014 11.6849C39.9185 11.4224 39.6409 11.2347 39.3111 11.1788C39.0053 11.1269 38.7352 11.2009 38.5405 11.2996C38.2108 11.4666 37.7949 11.8805 37.828 12.4945L39.8251 12.3868C39.837 12.607 39.7591 12.7714 39.6949 12.8645C39.6295 12.9593 39.5442 13.0331 39.4443 13.0837C39.3454 13.1338 39.1813 13.1854 38.9767 13.1506C38.7481 13.1119 38.5668 12.9809 38.4603 12.8281L40.1014 11.6849ZM37.828 12.4943C37.8512 12.9259 37.9197 13.3458 37.9836 13.7159C38.0505 14.1033 38.1107 14.4294 38.1443 14.7547L40.1337 14.549C40.0912 14.1383 40.0149 13.7262 39.9545 13.3758C39.891 13.008 39.8414 12.6903 39.8251 12.3871L37.828 12.4943ZM38.1443 14.7546C38.2151 15.441 38.2696 16.2737 38.3718 17.0335L40.3539 16.7671C40.2553 16.0329 40.2175 15.3611 40.1337 14.5492L38.1443 14.7546ZM38.3742 17.0504C38.6058 18.5759 38.9361 20.0875 39.3633 21.5774L41.2858 21.0261C40.8822 19.6183 40.5702 18.1905 40.3515 16.7502L38.3742 17.0504ZM39.3588 21.5611C39.7409 22.9836 40.0881 24.3654 40.3404 25.7764L42.3091 25.4243C42.0415 23.9276 41.6765 22.4799 41.2903 21.0423L39.3588 21.5611ZM40.3261 25.6512C40.3903 26.9137 40.6524 28.1601 41.1032 29.3526L42.9739 28.6454C42.5957 27.6447 42.3771 26.6025 42.3235 25.5495L40.3261 25.6512ZM41.1551 29.4674C41.4862 30.092 42.1467 30.1295 42.4799 30.0507C42.6776 30.004 42.939 29.8879 43.1363 29.6324C43.3631 29.3387 43.4228 28.963 43.3177 28.62L41.4054 29.2058C41.3271 28.9502 41.3698 28.6477 41.5534 28.4099C41.7075 28.2103 41.8997 28.1328 42.0198 28.1044C42.1979 28.0623 42.6701 28.0554 42.922 28.5306L41.1551 29.4674Z" fill="#FFEDE4" mask="url(#path-3-inside-1_170_993)"/>
<path d="M39.8223 11.7566L39.8344 11.7663L39.8223 11.7566ZM39.8223 11.7566L39.8202 11.7825M39.8223 11.7566L39.8202 11.7825M39.8202 11.7825L39.8422 11.7853L39.8547 11.7869L39.7889 11.8017L39.8023 11.7802L39.8202 11.7825ZM36.7062 11.1169L36.7113 11.1308L36.7062 11.1169Z" fill="#FFEDE4" stroke="#FFEDE4"/>
<mask id="path-6-inside-2_170_993" fill="white">
<path d="M38.9295 9.31336C38.7415 9.20205 38.5303 9.12699 38.3088 9.09287C38.0874 9.05876 37.8606 9.06632 37.6425 9.11509C37.535 9.1325 37.4997 9.29199 37.6199 9.31989C37.9959 9.3517 38.3608 9.45275 38.6922 9.61685C38.8941 9.7693 39.137 9.46274 38.9295 9.31336Z"/>
</mask>
<path d="M38.9295 9.31336C38.7415 9.20205 38.5303 9.12699 38.3088 9.09287C38.0874 9.05876 37.8606 9.06632 37.6425 9.11509C37.535 9.1325 37.4997 9.29199 37.6199 9.31989C37.9959 9.3517 38.3608 9.45275 38.6922 9.61685C38.8941 9.7693 39.137 9.46274 38.9295 9.31336Z" fill="#FFEDE4"/>
<path d="M38.9295 9.31336L39.5138 8.50182L39.4775 8.47572L39.4391 8.45295L38.9295 9.31336ZM37.6425 9.11509L37.8024 10.1022L37.8317 10.0975L37.8608 10.091L37.6425 9.11509ZM37.6199 9.31989L37.3938 10.294L37.4639 10.3103L37.5356 10.3163L37.6199 9.31989ZM38.6922 9.61685L39.2947 8.81871L39.2199 8.7623L39.136 8.72074L38.6922 9.61685ZM39.4391 8.45295C39.1384 8.27489 38.8054 8.15758 38.4611 8.10453L38.1566 10.0812C38.2551 10.0964 38.3446 10.1292 38.4199 10.1738L39.4391 8.45295ZM38.4611 8.10453C38.1168 8.05149 37.7643 8.06315 37.4242 8.1392L37.8608 10.091C37.9568 10.0695 38.058 10.066 38.1566 10.0812L38.4611 8.10453ZM37.4826 8.12795C36.9458 8.2149 36.6238 8.64444 36.5582 9.05636C36.5232 9.27642 36.5494 9.55102 36.7085 9.80676C36.8764 10.0767 37.1357 10.2341 37.3938 10.294L37.846 8.34579C38.044 8.39174 38.2626 8.51872 38.4067 8.75038C38.542 8.96782 38.5611 9.19622 38.5334 9.37075C38.4823 9.6916 38.2317 10.0327 37.8024 10.1022L37.4826 8.12795ZM37.5356 10.3163C37.7892 10.3378 38.0319 10.4057 38.2484 10.513L39.136 8.72074C38.6898 8.49976 38.2026 8.36561 37.7041 8.32345L37.5356 10.3163ZM38.0897 10.415C38.3645 10.6224 38.7078 10.7021 39.0408 10.6351C39.3491 10.5731 39.5914 10.3985 39.7502 10.1968C39.9083 9.99582 40.0288 9.70923 40.006 9.37668C39.9811 9.0143 39.7919 8.70206 39.5138 8.50182L38.3452 10.1249C38.1708 9.99936 38.0291 9.78145 38.0107 9.51381C37.9944 9.27598 38.0804 9.08451 38.1786 8.95982C38.2773 8.83439 38.434 8.7171 38.6465 8.67437C38.8837 8.62669 39.1208 8.68749 39.2947 8.81871L38.0897 10.415Z" fill="#FFEDE4" mask="url(#path-6-inside-2_170_993)"/>
<mask id="path-8-inside-3_170_993" fill="white">
<path d="M39.6302 10.289C39.1803 9.7995 38.4335 9.92033 37.8073 9.91239C37.7799 9.9108 37.7527 9.91807 37.7307 9.93291C37.7086 9.94774 37.6931 9.96918 37.6869 9.9934C37.6807 10.0176 37.6842 10.043 37.6967 10.0652C37.7093 10.0873 37.7301 10.1046 37.7555 10.1141C38.0056 10.2268 38.2661 10.2946 38.5262 10.385C38.7861 10.4955 39.0527 10.5925 39.3247 10.6758C39.3805 10.6928 39.4408 10.6932 39.4969 10.6768C39.5529 10.6605 39.6016 10.6282 39.6359 10.5849C39.6701 10.5415 39.688 10.4894 39.687 10.4361C39.686 10.3828 39.6661 10.3312 39.6302 10.289Z"/>
</mask>
<path d="M39.6302 10.289C39.1803 9.7995 38.4335 9.92033 37.8073 9.91239C37.7799 9.9108 37.7527 9.91807 37.7307 9.93291C37.7086 9.94774 37.6931 9.96918 37.6869 9.9934C37.6807 10.0176 37.6842 10.043 37.6967 10.0652C37.7093 10.0873 37.7301 10.1046 37.7555 10.1141C38.0056 10.2268 38.2661 10.2946 38.5262 10.385C38.7861 10.4955 39.0527 10.5925 39.3247 10.6758C39.3805 10.6928 39.4408 10.6932 39.4969 10.6768C39.5529 10.6605 39.6016 10.6282 39.6359 10.5849C39.6701 10.5415 39.688 10.4894 39.687 10.4361C39.686 10.3828 39.6661 10.3312 39.6302 10.289Z" fill="#FFEDE4"/>
<path d="M39.6302 10.289L40.3923 9.64152L40.3796 9.62664L40.3664 9.61226L39.6302 10.289ZM37.8073 9.91239L37.7494 10.9107L37.772 10.912L37.7946 10.9123L37.8073 9.91239ZM37.7555 10.1141L38.1662 9.20236L38.1367 9.18904L38.1063 9.17766L37.7555 10.1141ZM38.5262 10.385L38.9174 9.46468L38.8863 9.45145L38.8544 9.44036L38.5262 10.385ZM39.3247 10.6758L39.0321 11.632L39.0323 11.6321L39.3247 10.6758ZM40.3664 9.61226C39.906 9.1113 39.3233 8.96875 38.8839 8.92502C38.6645 8.90319 38.452 8.90316 38.2775 8.90587C38.0821 8.90891 37.9585 8.91423 37.82 8.91247L37.7946 10.9123C37.9692 10.9145 38.1738 10.9077 38.3086 10.9056C38.4643 10.9032 38.584 10.9051 38.6858 10.9152C38.7863 10.9252 38.8418 10.941 38.87 10.9523C38.8915 10.961 38.8936 10.9653 38.8939 10.9657L40.3664 9.61226ZM37.8652 8.91407C37.6273 8.90028 37.3823 8.96202 37.1724 9.10324L38.2889 10.7626C38.1232 10.8741 37.9324 10.9213 37.7494 10.9107L37.8652 8.91407ZM37.1724 9.10324C36.9609 9.24554 36.7895 9.46736 36.7183 9.74485L38.6555 10.2419C38.5967 10.471 38.4563 10.6499 38.2889 10.7626L37.1724 9.10324ZM36.7183 9.74485C36.6464 10.0249 36.6892 10.3162 36.8274 10.5593L38.5661 9.57101C38.6792 9.76992 38.715 10.0103 38.6555 10.2419L36.7183 9.74485ZM36.8274 10.5593C36.9636 10.7991 37.1756 10.9648 37.4048 11.0506L38.1063 9.17766C38.2846 9.24446 38.455 9.37547 38.5661 9.57101L36.8274 10.5593ZM37.3448 11.0259C37.6449 11.1611 38.0409 11.275 38.198 11.3296L38.8544 9.44036C38.4912 9.31419 38.3662 9.29245 38.1662 9.20236L37.3448 11.0259ZM38.1349 11.3053C38.4273 11.4295 38.7268 11.5386 39.0321 11.632L39.6173 9.71955C39.3785 9.64649 39.1448 9.56136 38.9174 9.46468L38.1349 11.3053ZM39.0323 11.6321C39.2747 11.7062 39.5342 11.7077 39.7773 11.6367L39.2165 9.71696C39.3475 9.67869 39.4862 9.67948 39.6171 9.71949L39.0323 11.6321ZM39.7773 11.6367C40.0207 11.5656 40.2502 11.4205 40.4206 11.2047L38.8511 9.9651C38.9531 9.83593 39.0851 9.75533 39.2165 9.71696L39.7773 11.6367ZM40.4206 11.2047C40.5927 10.9868 40.6925 10.7106 40.6868 10.4168L38.6872 10.4554C38.6836 10.2681 38.7475 10.0962 38.8511 9.9651L40.4206 11.2047ZM40.6868 10.4168C40.6812 10.1231 40.5709 9.85183 40.3923 9.64152L38.8681 10.9364C38.7612 10.8106 38.6908 10.6425 38.6872 10.4554L40.6868 10.4168Z" fill="#FFEDE4" mask="url(#path-8-inside-3_170_993)"/>
<mask id="path-10-inside-4_170_993" fill="white">
<path d="M35.4197 3.60721C35.4435 3.57666 35.453 3.53878 35.446 3.50189C35.439 3.46501 35.4162 3.43215 35.3824 3.41054C35.3486 3.38893 35.3068 3.38035 35.266 3.38667C35.2253 3.393 35.189 3.41372 35.1651 3.44427C35.0135 3.6068 34.9036 3.7977 34.8432 4.00325C34.7871 4.10826 34.7547 4.22235 34.7479 4.33883C34.7411 4.45531 34.76 4.57185 34.8035 4.68165C34.9094 4.84805 35.2136 4.93765 35.3444 4.73054C35.5796 4.36101 35.1928 3.98673 35.4197 3.60721Z"/>
</mask>
<path d="M35.4197 3.60721C35.4435 3.57666 35.453 3.53878 35.446 3.50189C35.439 3.46501 35.4162 3.43215 35.3824 3.41054C35.3486 3.38893 35.3068 3.38035 35.266 3.38667C35.2253 3.393 35.189 3.41372 35.1651 3.44427C35.0135 3.6068 34.9036 3.7977 34.8432 4.00325C34.7871 4.10826 34.7547 4.22235 34.7479 4.33883C34.7411 4.45531 34.76 4.57185 34.8035 4.68165C34.9094 4.84805 35.2136 4.93765 35.3444 4.73054C35.5796 4.36101 35.1928 3.98673 35.4197 3.60721Z" fill="#FFEDE4"/>
<path d="M35.4197 3.60721L34.6317 2.99149L34.5933 3.04063L34.5613 3.09415L35.4197 3.60721ZM35.1651 3.44427L35.8964 4.12633L35.9262 4.0944L35.9531 4.06L35.1651 3.44427ZM34.8432 4.00325L35.7253 4.47438L35.7737 4.38371L35.8027 4.28508L34.8432 4.00325ZM34.8035 4.68165L33.8738 5.05005L33.9088 5.13845L33.9599 5.21866L34.8035 4.68165ZM35.3444 4.73054L34.5008 4.1936L34.499 4.19649L35.3444 4.73054ZM36.2076 4.22294C36.4021 3.97407 36.4911 3.6459 36.4286 3.31572L34.4635 3.68807C34.4149 3.43165 34.485 3.17925 34.6317 2.99149L36.2076 4.22294ZM36.4286 3.31572C36.3666 2.98865 36.1695 2.72704 35.9215 2.5683L34.8433 4.25279C34.6628 4.13726 34.5115 3.94137 34.4635 3.68807L36.4286 3.31572ZM35.9215 2.5683C35.676 2.41115 35.3866 2.35598 35.1127 2.39851L35.4194 4.37484C35.2269 4.40472 35.0213 4.36672 34.8433 4.25279L35.9215 2.5683ZM35.1127 2.39851C34.8382 2.4411 34.5681 2.58416 34.3771 2.82854L35.9531 4.06C35.8098 4.24328 35.6123 4.3449 35.4194 4.37484L35.1127 2.39851ZM34.4338 2.76221C34.1801 3.03418 33.9896 3.36086 33.8837 3.72142L35.8027 4.28508C35.8175 4.23454 35.8469 4.17942 35.8964 4.12633L34.4338 2.76221ZM33.9611 3.53211C33.8384 3.76198 33.765 4.01653 33.7496 4.28034L35.7462 4.39731C35.7444 4.42816 35.7359 4.45454 35.7253 4.47438L33.9611 3.53211ZM33.7496 4.28034C33.7341 4.54424 33.7772 4.80637 33.8738 5.05005L35.7331 4.31325C35.7427 4.33733 35.748 4.36637 35.7462 4.39731L33.7496 4.28034ZM33.9599 5.21866C34.1827 5.56868 34.549 5.77501 34.9029 5.833C35.2966 5.8975 35.857 5.7915 36.1899 5.26459L34.499 4.19649C34.5842 4.0616 34.7157 3.95436 34.87 3.89677C35.0133 3.84331 35.1402 3.84521 35.2263 3.85932C35.3689 3.88268 35.5301 3.96102 35.647 4.14463L33.9599 5.21866ZM36.188 5.26748C36.5519 4.69579 36.3933 4.10892 36.3642 3.96894C36.3146 3.7303 36.392 3.92952 36.278 4.12028L34.5613 3.09415C34.2204 3.66443 34.3779 4.24054 34.4061 4.3763C34.4549 4.61072 34.3721 4.39575 34.5008 4.19361L36.188 5.26748Z" fill="#FFEDE4" mask="url(#path-10-inside-4_170_993)"/>
<path d="M34.5268 5.3365L34.4942 5.31033L34.5268 5.3365ZM34.5268 5.3365L34.5707 5.37175L34.5268 5.3365ZM33.9785 5.77344L33.9903 5.7936L33.9645 5.78793L33.9428 5.77253L33.941 5.75912C33.9411 5.75903 33.9412 5.75895 33.9412 5.75887M33.9785 5.77344L34.0006 5.78207L34.0038 5.78334L34.0013 5.7812L33.9652 5.75079M33.9785 5.77344L33.9412 5.75887M33.9785 5.77344L33.9652 5.75079M33.9652 5.75079L33.9588 5.73974C33.9577 5.74071 33.9567 5.74171 33.9557 5.74272M33.9652 5.75079L33.9557 5.74272M33.9557 5.74272L33.9473 5.73569C33.9443 5.74122 33.9418 5.74602 33.9398 5.74991L33.941 5.75878L33.9412 5.75887M33.9557 5.74272C33.9507 5.7476 33.9459 5.75297 33.9412 5.75887M34.0586 5.8547L34.0644 5.85884L34.0586 5.8547ZM34.0749 5.86632L34.097 5.88197L34.0749 5.86632ZM33.9968 5.81088L34.0109 5.82086L33.9968 5.81088ZM33.9996 5.79564L34.0107 5.78915L33.9996 5.79564ZM34.0346 5.83773L34.0481 5.84729L34.0346 5.83773Z" fill="#FFEDE4" stroke="#FFEDE4"/>
<path d="M36.9995 27.0593C36.9906 27.037 36.9816 27.0149 36.9725 26.9927C36.9821 27.0148 36.9911 27.037 36.9995 27.0593ZM36.9225 27.762L37.0708 27.6298C37.0638 27.692 37.052 27.7539 37.0355 27.8152L36.9711 27.7996L36.8225 27.873C36.8456 27.8398 36.8572 27.8234 36.8675 27.811L36.9225 27.762ZM35.5621 21.9545C35.571 21.6556 35.5842 21.3553 35.601 21.0544C35.5873 21.3728 35.5758 21.6928 35.5691 22.0132C35.5077 23.2713 35.771 24.5234 36.3359 25.6693L36.3415 25.6808L36.3477 25.6919C36.5623 26.0766 36.754 26.4711 36.922 26.8739C36.8106 26.6188 36.6847 26.3746 36.5623 26.1436C36.5279 26.0786 36.4938 26.0149 36.4603 25.9522C36.3188 25.6873 36.1871 25.4407 36.0739 25.1898C35.6595 24.1599 35.4854 23.0653 35.5611 21.9742L35.5618 21.9643L35.5621 21.9545Z" fill="#FFEDE4" stroke="#FFEDE4"/>
<path d="M27.1087 30.0427L27.1076 30.0411L27.1087 30.0427Z" fill="#FFEDE4" stroke="#FFEDE4"/>
<mask id="path-15-inside-5_170_993" fill="white">
<path d="M9.13875 12.0594C8.3458 12.3387 7.51046 12.507 6.66149 12.5586C6.15744 12.5215 4.86535 12.4502 4.87808 11.8001C4.88034 11.6858 4.68389 11.6671 4.68163 11.7823C4.66678 12.5119 5.35625 12.9141 6.08559 13.0751L6.3024 13.1163L6.34483 13.2206C6.5675 13.5475 6.72097 13.9091 6.7974 14.2869C6.89202 14.6795 6.8858 15.0865 6.97589 15.48L7.01374 15.5369L7.08335 15.5581L7.15153 15.5334L7.18577 15.4746C7.24929 14.9628 7.25672 14.4467 7.20797 13.9336C7.19211 13.6643 7.1169 13.4006 6.98678 13.158C7.79666 13.0934 8.57992 12.8639 9.27792 12.4866C9.51382 12.3753 9.42925 12.0028 9.13875 12.0594Z"/>
</mask>
<path d="M9.13875 12.0594C8.3458 12.3387 7.51046 12.507 6.66149 12.5586C6.15744 12.5215 4.86535 12.4502 4.87808 11.8001C4.88034 11.6858 4.68389 11.6671 4.68163 11.7823C4.66678 12.5119 5.35625 12.9141 6.08559 13.0751L6.3024 13.1163L6.34483 13.2206C6.5675 13.5475 6.72097 13.9091 6.7974 14.2869C6.89202 14.6795 6.8858 15.0865 6.97589 15.48L7.01374 15.5369L7.08335 15.5581L7.15153 15.5334L7.18577 15.4746C7.24929 14.9628 7.25672 14.4467 7.20797 13.9336C7.19211 13.6643 7.1169 13.4006 6.98678 13.158C7.79666 13.0934 8.57992 12.8639 9.27792 12.4866C9.51382 12.3753 9.42925 12.0028 9.13875 12.0594Z" fill="#FFEDE4"/>
<path d="M9.13875 12.0594L8.94759 11.0779L8.87567 11.0919L8.80656 11.1162L9.13875 12.0594ZM6.66149 12.5586L6.58805 13.5559L6.65507 13.5609L6.72215 13.5568L6.66149 12.5586ZM4.87808 11.8001L3.87827 11.7803L3.87827 11.7805L4.87808 11.8001ZM4.68163 11.7823L5.68143 11.8026L5.68144 11.8019L4.68163 11.7823ZM6.08559 13.0751L5.87001 14.0516L5.88438 14.0548L5.89884 14.0575L6.08559 13.0751ZM6.3024 13.1163L7.22872 12.7396L7.02372 12.2355L6.48916 12.1339L6.3024 13.1163ZM6.34483 13.2206L5.41852 13.5974L5.45854 13.6958L5.51834 13.7836L6.34483 13.2206ZM6.7974 14.2869L5.81726 14.4852L5.82092 14.5033L5.82524 14.5212L6.7974 14.2869ZM6.97589 15.48L6.00111 15.7032L6.04191 15.8813L6.14311 16.0336L6.97589 15.48ZM7.01374 15.5369L6.18097 16.0905L6.37955 16.3892L6.72274 16.4936L7.01374 15.5369ZM7.08335 15.5581L6.79235 16.5148L7.11093 16.6117L7.424 16.4983L7.08335 15.5581ZM7.15153 15.5334L7.49218 16.4736L7.83319 16.35L8.01571 16.0366L7.15153 15.5334ZM7.18577 15.4746L8.04994 15.9778L8.15294 15.8009L8.17815 15.5978L7.18577 15.4746ZM7.20797 13.9336L6.2097 13.9924L6.21076 14.0103L6.21246 14.0282L7.20797 13.9336ZM6.98678 13.158L6.90724 12.1612L5.38255 12.2829L6.10555 13.6307L6.98678 13.158ZM9.27792 12.4866L8.85144 11.5821L8.82657 11.5938L8.80239 11.6069L9.27792 12.4866ZM8.80656 11.1162C8.10216 11.3643 7.35828 11.5144 6.60083 11.5605L6.72215 13.5568C7.66265 13.4996 8.58944 13.3131 9.47095 13.0026L8.80656 11.1162ZM6.73494 11.5613C6.45358 11.5406 6.1097 11.5175 5.83649 11.4438C5.69714 11.4062 5.66829 11.378 5.69341 11.3975C5.71304 11.4127 5.76329 11.4566 5.80795 11.5384C5.8562 11.6267 5.87971 11.7264 5.87789 11.8197L3.87827 11.7805C3.8674 12.3355 4.15815 12.7378 4.46756 12.9778C4.74711 13.1947 5.0704 13.3086 5.31549 13.3747C5.81116 13.5084 6.36536 13.5395 6.58805 13.5559L6.73494 11.5613ZM5.87788 11.8199C5.89335 11.0384 5.21834 10.7414 4.874 10.7094C4.67374 10.6908 4.40448 10.722 4.15292 10.8924C3.86463 11.0876 3.68876 11.4098 3.68182 11.7627L5.68144 11.8019C5.67564 12.0972 5.52517 12.3786 5.27428 12.5484C5.06012 12.6935 4.84025 12.7149 4.6891 12.7008C4.44299 12.678 3.86506 12.4475 3.87827 11.7803L5.87788 11.8199ZM3.68184 11.7619C3.66689 12.4963 4.02511 13.0546 4.47527 13.4191C4.8992 13.7623 5.41675 13.9515 5.87001 14.0516L6.30118 12.0986C6.02509 12.0377 5.83323 11.9452 5.7338 11.8647C5.71198 11.8471 5.69832 11.8329 5.69032 11.8235C5.68636 11.8188 5.68382 11.8153 5.68232 11.8131C5.68083 11.8109 5.68024 11.8097 5.68021 11.8097C5.68018 11.8096 5.68049 11.8102 5.68091 11.8114C5.68134 11.8125 5.68165 11.8136 5.68182 11.8144C5.68233 11.8165 5.68121 11.8134 5.68142 11.8026L3.68184 11.7619ZM5.89884 14.0575L6.11565 14.0987L6.48916 12.1339L6.27235 12.0927L5.89884 14.0575ZM5.37609 13.4931L5.41852 13.5974L7.27115 12.8439L7.22872 12.7396L5.37609 13.4931ZM5.51834 13.7836C5.66804 14.0034 5.76795 14.2415 5.81726 14.4852L7.77754 14.0886C7.674 13.5768 7.46697 13.0917 7.17132 12.6577L5.51834 13.7836ZM5.82524 14.5212C5.8551 14.6451 5.87171 14.7823 5.89409 14.9901C5.91426 15.1775 5.94051 15.4385 6.00111 15.7032L7.95066 15.2568C7.92118 15.128 7.90549 14.9887 7.8826 14.776C7.86191 14.5839 7.83433 14.3213 7.76957 14.0526L5.82524 14.5212ZM6.14311 16.0336L6.18097 16.0905L7.84652 14.9833L7.80866 14.9264L6.14311 16.0336ZM6.72274 16.4936L6.79235 16.5148L7.37436 14.6014L7.30475 14.5802L6.72274 16.4936ZM7.424 16.4983L7.49218 16.4736L6.81088 14.5932L6.74271 14.6179L7.424 16.4983ZM8.01571 16.0366L8.04994 15.9778L6.32159 14.9714L6.28735 15.0302L8.01571 16.0366ZM8.17815 15.5978C8.25064 15.0138 8.25913 14.4246 8.20349 13.839L6.21246 14.0282C6.25432 14.4687 6.24794 14.9119 6.19338 15.3514L8.17815 15.5978ZM8.20624 13.8748C8.18166 13.4577 8.06525 13.0531 7.86801 12.6854L6.10555 13.6307C6.16855 13.7482 6.20255 13.871 6.2097 13.9924L8.20624 13.8748ZM7.06631 14.1549C8.0115 14.0795 8.93006 13.8113 9.75345 13.3663L8.80239 11.6069C8.22977 11.9164 7.58183 12.1074 6.90724 12.1612L7.06631 14.1549ZM9.7044 13.3911C10.3159 13.1027 10.512 12.4525 10.3687 11.9406C10.2957 11.6797 10.1282 11.4181 9.85318 11.243C9.56771 11.0613 9.24187 11.0205 8.94759 11.0779L9.32992 13.041C9.18089 13.07 8.97455 13.0546 8.77927 12.9303C8.59439 12.8126 8.48776 12.6405 8.44272 12.4795C8.35544 12.1676 8.47589 11.7591 8.85144 11.5821L9.7044 13.3911Z" fill="#FFEDE4" mask="url(#path-15-inside-5_170_993)"/>
<mask id="path-17-inside-6_170_993" fill="white">
<path d="M5.60738 10.426C5.43959 10.3861 5.27433 10.3379 5.11238 10.2816C4.95822 10.2081 4.82542 10.1111 4.66561 10.0465C4.41259 9.94405 4.25872 10.2349 4.38148 10.4063C4.60663 10.7208 5.21916 11.0263 5.62124 10.8264C5.66345 10.8079 5.69885 10.7788 5.72315 10.7426C5.74745 10.7063 5.7596 10.6645 5.75813 10.6221C5.75667 10.5797 5.74164 10.5386 5.71488 10.5038C5.68812 10.469 5.65078 10.442 5.60738 10.426Z"/>
</mask>
<path d="M5.60738 10.426C5.43959 10.3861 5.27433 10.3379 5.11238 10.2816C4.95822 10.2081 4.82542 10.1111 4.66561 10.0465C4.41259 9.94405 4.25872 10.2349 4.38148 10.4063C4.60663 10.7208 5.21916 11.0263 5.62124 10.8264C5.66345 10.8079 5.69885 10.7788 5.72315 10.7426C5.74745 10.7063 5.7596 10.6645 5.75813 10.6221C5.75667 10.5797 5.74164 10.5386 5.71488 10.5038C5.68812 10.469 5.65078 10.442 5.60738 10.426Z" fill="#FFEDE4"/>
<path d="M5.60738 10.426L5.95296 9.48758L5.89684 9.46691L5.83865 9.45308L5.60738 10.426ZM5.11238 10.2816L4.68214 11.1843L4.73194 11.208L4.78405 11.2262L5.11238 10.2816ZM4.66561 10.0465L4.29045 10.9734L4.29065 10.9735L4.66561 10.0465ZM4.38148 10.4063L5.19458 9.82414L5.19445 9.82396L4.38148 10.4063ZM5.62124 10.8264L5.22145 9.90975L5.19846 9.91978L5.176 9.93095L5.62124 10.8264ZM5.83865 9.45308C5.70347 9.42095 5.57062 9.38218 5.44072 9.33703L4.78405 11.2262C4.97805 11.2936 5.1757 11.3512 5.37612 11.3989L5.83865 9.45308ZM5.54262 9.37887C5.50901 9.36286 5.48013 9.3457 5.38836 9.2931C5.31159 9.2491 5.18819 9.17912 5.04057 9.11941L4.29065 10.9735C4.30284 10.9784 4.32575 10.9893 4.39388 11.0283C4.44699 11.0588 4.56159 11.1268 4.68214 11.1843L5.54262 9.37887ZM5.04077 9.11949C4.78368 9.01544 4.48442 8.98857 4.18967 9.08383C3.90348 9.17633 3.69003 9.36182 3.55309 9.56524C3.2995 9.94192 3.22998 10.5159 3.5685 10.9886L5.19445 9.82396C5.41022 10.1252 5.35625 10.4681 5.21217 10.6821C5.12997 10.8042 4.99476 10.9255 4.80475 10.9869C4.60618 11.0511 4.42103 11.0263 4.29045 10.9734L5.04077 9.11949ZM3.56837 10.9884C3.81655 11.335 4.19944 11.5951 4.57025 11.7403C4.92974 11.8811 5.50679 12.0001 6.06649 11.7218L5.176 9.93095C5.25936 9.8895 5.32236 9.88974 5.33583 9.89036C5.34344 9.89071 5.34341 9.89142 5.3356 9.88962C5.32793 9.88786 5.31571 9.88436 5.29977 9.87812C5.266 9.86489 5.23135 9.84556 5.20394 9.82552C5.19101 9.81606 5.18339 9.80913 5.1806 9.80641C5.17737 9.80327 5.18339 9.80851 5.19458 9.82414L3.56837 10.9884ZM6.02103 11.743C6.22819 11.6526 6.41726 11.5031 6.55386 11.2993L4.89244 10.1859C4.98044 10.0546 5.09871 9.96328 5.22145 9.90975L6.02103 11.743ZM6.55386 11.2993C6.69145 11.094 6.76649 10.8463 6.75753 10.5875L4.75873 10.6567C4.75271 10.4827 4.80345 10.3187 4.89244 10.1859L6.55386 11.2993ZM6.75753 10.5875C6.74858 10.3289 6.65681 10.0883 6.50771 9.89436L4.92205 11.1132C4.82647 10.9889 4.76475 10.8305 4.75873 10.6567L6.75753 10.5875ZM6.50771 9.89436C6.35965 9.70174 6.16361 9.56516 5.95296 9.48758L5.26181 11.3644C5.13795 11.3188 5.0166 11.2362 4.92205 11.1132L6.50771 9.89436Z" fill="#FFEDE4" mask="url(#path-17-inside-6_170_993)"/>
<mask id="path-19-inside-7_170_993" fill="white">
<path d="M37.9685 8.0587L37.98 8.01851C37.997 7.55841 37.8574 7.10468 37.58 6.7188C37.3321 6.26837 37.0221 5.8484 36.8149 5.37941C36.639 4.96488 36.5308 4.52937 36.4937 4.08661C36.4882 3.9373 36.4688 3.78868 36.4357 3.64232C36.4225 3.59803 36.3367 3.40027 36.3535 3.48872C36.3538 3.47473 36.3445 3.46332 36.3379 3.4507C36.3312 3.43808 36.3214 3.42702 36.3092 3.4184C36.2971 3.40978 36.2829 3.40383 36.2677 3.40102C36.2526 3.39821 36.2369 3.39861 36.222 3.40219C35.7694 3.48846 35.9977 4.86804 36.0514 5.08219C36.2 5.59932 36.4225 6.09667 36.7135 6.56161C36.8488 6.79521 36.9946 7.02446 37.1185 7.26344C37.2059 7.43201 37.2688 7.61147 37.3432 7.78542L37.2867 7.79285L37.2369 7.8091C36.3864 7.74012 35.5339 7.91956 34.8043 8.3211L34.766 8.33838C34.7249 8.12107 34.6565 7.90871 34.5622 7.70542C34.3206 7.32371 34.1229 6.92052 33.9724 6.50222C33.9649 6.46609 33.9434 6.43358 33.9117 6.41052C33.8801 6.38746 33.8404 6.37537 33.7998 6.37642C33.7592 6.37747 33.7204 6.39159 33.6902 6.41624C33.6601 6.4409 33.6407 6.47447 33.6354 6.51093C33.5971 6.87605 33.6473 7.24434 33.7825 7.59009C33.8562 7.79656 33.9572 7.99432 34.012 8.20628C34.0505 8.35502 34.045 8.50376 34.077 8.64609C33.4369 8.9387 32.7647 9.16985 32.0715 9.33576C31.0379 9.56501 30.0004 9.72705 28.991 10.0433C27.9149 10.3806 26.8555 10.7667 25.8126 11.18C24.7766 11.6263 23.7076 12.0069 22.6133 12.3192C21.5832 12.5725 20.537 12.7685 19.4804 12.9061L19.4865 12.8299C19.6228 11.4109 19.3709 9.98327 18.753 8.67323C18.4572 8.16354 18.0275 7.72743 17.5018 7.40321C16.9605 7.1109 16.3992 6.8501 15.8212 6.62241C15.5888 6.19359 15.2899 5.79704 14.9335 5.44481C13.9549 4.41707 12.5673 3.78089 11.0728 3.67483C9.57834 3.56877 8.09811 4.00141 6.95449 4.87854C6.38239 5.40968 5.97245 6.06614 5.76479 6.78369L5.57839 7.34113C5.383 7.29832 5.2042 7.20813 5.06118 7.08027C4.97265 6.99579 4.8216 7.10356 4.90462 7.19611C5.04529 7.39877 5.2171 7.58228 5.41489 7.74113L5.3975 7.78094C5.20517 8.14664 4.89387 8.45035 4.50537 8.65134C4.48633 8.66562 4.47298 8.68515 4.46737 8.70695C4.46176 8.72875 4.46419 8.75161 4.4743 8.77203C4.4844 8.79246 4.50162 8.80933 4.52332 8.82006C4.54503 8.83078 4.57002 8.83478 4.59447 8.83144C4.86589 8.7756 5.11913 8.66313 5.33399 8.50298C5.54885 8.34284 5.71938 8.13946 5.83197 7.90907C6.01059 7.94901 6.19622 7.95637 6.37802 7.9307C6.44147 7.91999 6.4986 7.88912 6.53913 7.84366C6.57966 7.7982 6.60091 7.74113 6.59907 7.68274C6.59723 7.62435 6.57241 7.56848 6.52908 7.52519C6.48575 7.48189 6.42677 7.45402 6.36275 7.44661L6.06575 7.41883C6.20873 7.06683 6.32357 6.69857 6.47278 6.37217C6.74557 5.75834 7.22499 5.23783 7.84303 4.88447C8.46107 4.53111 9.18635 4.36284 9.916 4.40353C11.2031 4.3952 12.4511 4.80355 13.4347 5.55486C14.4184 6.30618 15.0729 7.35097 15.2801 8.50069C15.3643 9.10592 15.37 9.71799 15.2971 10.3244C15.2649 10.6395 15.2022 10.9514 15.1095 11.2565C14.9858 11.5372 14.8463 11.8119 14.6915 12.0796C14.6765 12.1171 14.6726 12.1574 14.68 12.1967C14.6874 12.236 14.706 12.2729 14.7339 12.3037C14.7618 12.3346 14.798 12.3584 14.8391 12.3727C14.8802 12.3871 14.9247 12.3916 14.9683 12.3857C15.6009 12.2735 16.0257 11.6102 16.2374 11.1028C16.2928 10.9686 16.3379 10.8311 16.3725 10.6913L16.389 10.9164C16.4484 11.6707 16.4677 12.4206 16.4739 13.1764C15.6768 13.2222 14.8784 13.2579 14.0815 13.3058C14.2797 13.1352 14.4272 12.9221 14.5104 12.6863C14.7053 11.9893 14.7399 11.2634 14.6121 10.5538C14.5405 9.87745 14.3038 9.22394 13.9191 8.64046C13.6839 8.20751 13.3533 7.82272 12.9475 7.5098C12.5418 7.19687 12.0696 6.96244 11.56 6.82094C11.5278 6.81887 11.4957 6.82628 11.4685 6.84206C11.4414 6.85784 11.4206 6.88115 11.4093 6.9085C11.3979 6.93586 11.3967 6.96579 11.4057 6.99384C11.4147 7.02189 11.4335 7.04655 11.4593 7.06414C12.0698 7.45403 12.5803 7.95844 12.956 8.54301C13.3317 9.12759 13.5638 9.77859 13.6364 10.4517C13.7143 10.9823 13.7219 11.5194 13.659 12.0517C13.643 12.25 13.5826 12.4434 13.4814 12.62C13.3864 12.7545 13.2882 12.7415 13.0919 12.843C12.9164 12.9337 12.7743 13.1852 12.96 13.3439L13.0061 13.3806L12.4016 13.4337C11.3842 13.4446 10.3803 13.646 9.4531 14.0252C9.04925 14.2279 8.7258 14.5401 8.5283 14.918C8.29891 15.3532 8.27203 15.8565 8.0275 16.2777C7.95255 16.4069 8.19962 16.5271 8.27981 16.3984C8.63217 15.6709 9.21023 15.0515 9.94386 14.6154C10.7723 14.3361 11.648 14.1891 12.532 14.1809C13.6069 14.0785 14.6718 13.9889 15.7529 13.9523C16.8783 13.9339 18.0018 13.8622 19.1189 13.7374C21.2043 13.482 23.238 12.9552 25.157 12.1735C26.1248 11.773 27.096 11.3761 28.0988 11.0508C29.1199 10.7317 30.1655 10.4806 31.2272 10.2996C32.2749 10.1661 33.2888 9.86767 34.2228 9.41768C35.2304 8.85921 36.1524 8.05102 37.4367 8.33288L37.4995 8.33992L37.5561 8.36475C37.6802 8.43646 37.8125 8.49597 37.9505 8.54229C37.9705 8.54854 37.9917 8.55068 38.0126 8.54855C38.0336 8.54643 38.0537 8.54009 38.0716 8.53C38.0895 8.51992 38.1047 8.50634 38.116 8.49026C38.1274 8.47418 38.1346 8.45601 38.1372 8.43707C38.1345 8.29642 38.0744 8.16165 37.9685 8.0587ZM17.4418 13.1139C17.4663 12.3361 17.4113 11.5579 17.2774 10.7893C17.1204 10.1244 16.8465 9.48659 16.466 8.9003C16.4303 8.37925 16.3249 7.86404 16.1522 7.36597C16.8356 7.83517 17.3992 8.43225 17.8046 9.11649C18.2774 10.2691 18.4647 11.5016 18.3532 12.7269C18.3513 12.8337 18.3852 12.9386 18.4504 13.0278C18.1153 13.0615 17.779 13.0892 17.4418 13.1139Z"/>
</mask>
<path d="M37.9685 8.0587L37.98 8.01851C37.997 7.55841 37.8574 7.10468 37.58 6.7188C37.3321 6.26837 37.0221 5.8484 36.8149 5.37941C36.639 4.96488 36.5308 4.52937 36.4937 4.08661C36.4882 3.9373 36.4688 3.78868 36.4357 3.64232C36.4225 3.59803 36.3367 3.40027 36.3535 3.48872C36.3538 3.47473 36.3445 3.46332 36.3379 3.4507C36.3312 3.43808 36.3214 3.42702 36.3092 3.4184C36.2971 3.40978 36.2829 3.40383 36.2677 3.40102C36.2526 3.39821 36.2369 3.39861 36.222 3.40219C35.7694 3.48846 35.9977 4.86804 36.0514 5.08219C36.2 5.59932 36.4225 6.09667 36.7135 6.56161C36.8488 6.79521 36.9946 7.02446 37.1185 7.26344C37.2059 7.43201 37.2688 7.61147 37.3432 7.78542L37.2867 7.79285L37.2369 7.8091C36.3864 7.74012 35.5339 7.91956 34.8043 8.3211L34.766 8.33838C34.7249 8.12107 34.6565 7.90871 34.5622 7.70542C34.3206 7.32371 34.1229 6.92052 33.9724 6.50222C33.9649 6.46609 33.9434 6.43358 33.9117 6.41052C33.8801 6.38746 33.8404 6.37537 33.7998 6.37642C33.7592 6.37747 33.7204 6.39159 33.6902 6.41624C33.6601 6.4409 33.6407 6.47447 33.6354 6.51093C33.5971 6.87605 33.6473 7.24434 33.7825 7.59009C33.8562 7.79656 33.9572 7.99432 34.012 8.20628C34.0505 8.35502 34.045 8.50376 34.077 8.64609C33.4369 8.9387 32.7647 9.16985 32.0715 9.33576C31.0379 9.56501 30.0004 9.72705 28.991 10.0433C27.9149 10.3806 26.8555 10.7667 25.8126 11.18C24.7766 11.6263 23.7076 12.0069 22.6133 12.3192C21.5832 12.5725 20.537 12.7685 19.4804 12.9061L19.4865 12.8299C19.6228 11.4109 19.3709 9.98327 18.753 8.67323C18.4572 8.16354 18.0275 7.72743 17.5018 7.40321C16.9605 7.1109 16.3992 6.8501 15.8212 6.62241C15.5888 6.19359 15.2899 5.79704 14.9335 5.44481C13.9549 4.41707 12.5673 3.78089 11.0728 3.67483C9.57834 3.56877 8.09811 4.00141 6.95449 4.87854C6.38239 5.40968 5.97245 6.06614 5.76479 6.78369L5.57839 7.34113C5.383 7.29832 5.2042 7.20813 5.06118 7.08027C4.97265 6.99579 4.8216 7.10356 4.90462 7.19611C5.04529 7.39877 5.2171 7.58228 5.41489 7.74113L5.3975 7.78094C5.20517 8.14664 4.89387 8.45035 4.50537 8.65134C4.48633 8.66562 4.47298 8.68515 4.46737 8.70695C4.46176 8.72875 4.46419 8.75161 4.4743 8.77203C4.4844 8.79246 4.50162 8.80933 4.52332 8.82006C4.54503 8.83078 4.57002 8.83478 4.59447 8.83144C4.86589 8.7756 5.11913 8.66313 5.33399 8.50298C5.54885 8.34284 5.71938 8.13946 5.83197 7.90907C6.01059 7.94901 6.19622 7.95637 6.37802 7.9307C6.44147 7.91999 6.4986 7.88912 6.53913 7.84366C6.57966 7.7982 6.60091 7.74113 6.59907 7.68274C6.59723 7.62435 6.57241 7.56848 6.52908 7.52519C6.48575 7.48189 6.42677 7.45402 6.36275 7.44661L6.06575 7.41883C6.20873 7.06683 6.32357 6.69857 6.47278 6.37217C6.74557 5.75834 7.22499 5.23783 7.84303 4.88447C8.46107 4.53111 9.18635 4.36284 9.916 4.40353C11.2031 4.3952 12.4511 4.80355 13.4347 5.55486C14.4184 6.30618 15.0729 7.35097 15.2801 8.50069C15.3643 9.10592 15.37 9.71799 15.2971 10.3244C15.2649 10.6395 15.2022 10.9514 15.1095 11.2565C14.9858 11.5372 14.8463 11.8119 14.6915 12.0796C14.6765 12.1171 14.6726 12.1574 14.68 12.1967C14.6874 12.236 14.706 12.2729 14.7339 12.3037C14.7618 12.3346 14.798 12.3584 14.8391 12.3727C14.8802 12.3871 14.9247 12.3916 14.9683 12.3857C15.6009 12.2735 16.0257 11.6102 16.2374 11.1028C16.2928 10.9686 16.3379 10.8311 16.3725 10.6913L16.389 10.9164C16.4484 11.6707 16.4677 12.4206 16.4739 13.1764C15.6768 13.2222 14.8784 13.2579 14.0815 13.3058C14.2797 13.1352 14.4272 12.9221 14.5104 12.6863C14.7053 11.9893 14.7399 11.2634 14.6121 10.5538C14.5405 9.87745 14.3038 9.22394 13.9191 8.64046C13.6839 8.20751 13.3533 7.82272 12.9475 7.5098C12.5418 7.19687 12.0696 6.96244 11.56 6.82094C11.5278 6.81887 11.4957 6.82628 11.4685 6.84206C11.4414 6.85784 11.4206 6.88115 11.4093 6.9085C11.3979 6.93586 11.3967 6.96579 11.4057 6.99384C11.4147 7.02189 11.4335 7.04655 11.4593 7.06414C12.0698 7.45403 12.5803 7.95844 12.956 8.54301C13.3317 9.12759 13.5638 9.77859 13.6364 10.4517C13.7143 10.9823 13.7219 11.5194 13.659 12.0517C13.643 12.25 13.5826 12.4434 13.4814 12.62C13.3864 12.7545 13.2882 12.7415 13.0919 12.843C12.9164 12.9337 12.7743 13.1852 12.96 13.3439L13.0061 13.3806L12.4016 13.4337C11.3842 13.4446 10.3803 13.646 9.4531 14.0252C9.04925 14.2279 8.7258 14.5401 8.5283 14.918C8.29891 15.3532 8.27203 15.8565 8.0275 16.2777C7.95255 16.4069 8.19962 16.5271 8.27981 16.3984C8.63217 15.6709 9.21023 15.0515 9.94386 14.6154C10.7723 14.3361 11.648 14.1891 12.532 14.1809C13.6069 14.0785 14.6718 13.9889 15.7529 13.9523C16.8783 13.9339 18.0018 13.8622 19.1189 13.7374C21.2043 13.482 23.238 12.9552 25.157 12.1735C26.1248 11.773 27.096 11.3761 28.0988 11.0508C29.1199 10.7317 30.1655 10.4806 31.2272 10.2996C32.2749 10.1661 33.2888 9.86767 34.2228 9.41768C35.2304 8.85921 36.1524 8.05102 37.4367 8.33288L37.4995 8.33992L37.5561 8.36475C37.6802 8.43646 37.8125 8.49597 37.9505 8.54229C37.9705 8.54854 37.9917 8.55068 38.0126 8.54855C38.0336 8.54643 38.0537 8.54009 38.0716 8.53C38.0895 8.51992 38.1047 8.50634 38.116 8.49026C38.1274 8.47418 38.1346 8.45601 38.1372 8.43707C38.1345 8.29642 38.0744 8.16165 37.9685 8.0587ZM17.4418 13.1139C17.4663 12.3361 17.4113 11.5579 17.2774 10.7893C17.1204 10.1244 16.8465 9.48659 16.466 8.9003C16.4303 8.37925 16.3249 7.86404 16.1522 7.36597C16.8356 7.83517 17.3992 8.43225 17.8046 9.11649C18.2774 10.2691 18.4647 11.5016 18.3532 12.7269C18.3513 12.8337 18.3852 12.9386 18.4504 13.0278C18.1153 13.0615 17.779 13.0892 17.4418 13.1139Z" fill="#FFEDE4" stroke="#FFEDE4" stroke-width="2" mask="url(#path-19-inside-7_170_993)"/>
<path d="M8.80968 10.9378L8.81525 10.9314L8.80968 10.9378ZM8.80968 10.9378L8.77574 10.9766L8.80968 10.9378ZM8.80968 10.9378L8.80258 10.9336L8.80968 10.9378Z" fill="#FFEDE4" stroke="#FFEDE4"/>
</svg>
