<svg width="100" height="100" viewBox="0 0 100 100" fill="none" xmlns="http://www.w3.org/2000/svg">
<g clip-path="url(#clip0_170_910)">
<path d="M28.7143 19.525L31.0393 19.125V20.7L28.7143 21.075V19.925H21.2643V28.1C23.7143 27.975 25.8393 26.55 28.3143 26.55V26.95C25.8393 26.95 23.7143 28.35 21.2643 28.5V37.125L18.9393 37.5V19.525L21.2643 19.125V19.525H28.7143ZM38.3667 37.125C39.9667 37 41.4167 36.125 42.2917 34.775L42.6666 35.55C41.4916 36.725 39.2167 37.525 37.5917 37.525C33.9167 37.525 30.9167 35.425 30.5917 31.25C30.5667 31 30.5667 30.75 30.5667 30.475C30.5667 25.775 33.6917 23.425 37.5917 23.425C37.7917 23.425 38.0167 23.45 38.2167 23.45C38.2917 23.45 38.3667 23.475 38.4417 23.475C38.5667 23.5 38.6917 23.5 38.8167 23.525C38.9167 23.525 38.9917 23.55 39.0917 23.55C39.1917 23.575 39.2917 23.6 39.3916 23.625C39.4916 23.65 39.5917 23.65 39.6917 23.675C39.7667 23.7 39.8667 23.725 39.9667 23.75C40.0667 23.775 40.1666 23.825 40.2416 23.85C40.3417 23.875 40.4167 23.9 40.5167 23.95C40.5917 23.975 40.6917 24.025 40.7917 24.05C40.8667 24.1 40.9417 24.125 41.0166 24.15C41.1166 24.2 41.2167 24.25 41.2917 24.3C41.3667 24.35 41.4417 24.375 41.5167 24.425C41.6167 24.475 41.6917 24.525 41.7666 24.575C41.8167 24.6 41.8666 24.625 41.8916 24.65C43.3166 25.65 44.2667 27.2 44.4917 28.9H42.2917C38.9917 28.9 36.1667 30.35 32.8917 30.45V30.475C32.8917 35.175 36.0417 37.125 38.3667 37.125ZM36.8167 23.825C33.8167 23.825 32.9667 27.05 32.9167 30.075C36.0917 29.95 38.8667 28.575 42.0667 28.525C41.8917 27.7 41.5666 26.925 41.1166 26.225C40.9916 26.025 40.8417 25.875 40.7167 25.7C40.6917 25.675 40.6667 25.625 40.6167 25.6C40.5167 25.475 40.3916 25.35 40.2666 25.225C40.2167 25.2 40.1667 25.15 40.1416 25.125C39.9916 25 39.8417 24.875 39.6667 24.75C39.4917 24.625 39.3167 24.525 39.1417 24.45C39.1167 24.425 39.0667 24.4 39.0167 24.375C38.8917 24.3 38.7416 24.25 38.5917 24.175C38.5667 24.175 38.5167 24.15 38.4917 24.15C38.3167 24.075 38.1416 24.025 37.9667 23.975C37.9417 23.975 37.8916 23.95 37.8666 23.95C37.7167 23.925 37.5917 23.9 37.4417 23.875C37.3917 23.875 37.3417 23.85 37.3167 23.85C37.1417 23.825 36.9667 23.825 36.8167 23.825ZM54.2358 37.125C55.8358 37 57.2858 36.125 58.1608 34.775L58.5358 35.55C57.3608 36.725 55.0858 37.525 53.4608 37.525C49.7858 37.525 46.7858 35.425 46.4608 31.25C46.4358 31 46.4358 30.75 46.4358 30.475C46.4358 25.775 49.5608 23.425 53.4608 23.425C53.6608 23.425 53.8858 23.45 54.0858 23.45C54.1608 23.45 54.2358 23.475 54.3108 23.475C54.4358 23.5 54.5608 23.5 54.6858 23.525C54.7858 23.525 54.8608 23.55 54.9608 23.55C55.0608 23.575 55.1608 23.6 55.2608 23.625C55.3608 23.65 55.4608 23.65 55.5608 23.675C55.6358 23.7 55.7358 23.725 55.8358 23.75C55.9358 23.775 56.0359 23.825 56.1108 23.85C56.2108 23.875 56.2858 23.9 56.3858 23.95C56.4608 23.975 56.5608 24.025 56.6608 24.05C56.7358 24.1 56.8108 24.125 56.8858 24.15C56.9858 24.2 57.0858 24.25 57.1609 24.3C57.2359 24.35 57.3108 24.375 57.3858 24.425C57.4859 24.475 57.5608 24.525 57.6358 24.575C57.6858 24.6 57.7358 24.625 57.7608 24.65C59.1858 25.65 60.1358 27.2 60.3609 28.9H58.1608C54.8608 28.9 52.0358 30.35 48.7608 30.45V30.475C48.7608 35.175 51.9108 37.125 54.2358 37.125ZM52.6858 23.825C49.6858 23.825 48.8358 27.05 48.7858 30.075C51.9608 29.95 54.7358 28.575 57.9358 28.525C57.7608 27.7 57.4358 26.925 56.9858 26.225C56.8608 26.025 56.7108 25.875 56.5858 25.7C56.5608 25.675 56.5358 25.625 56.4858 25.6C56.3858 25.475 56.2608 25.35 56.1358 25.225C56.0858 25.2 56.0359 25.15 56.0108 25.125C55.8608 25 55.7108 24.875 55.5358 24.75C55.3608 24.625 55.1858 24.525 55.0108 24.45C54.9858 24.425 54.9358 24.4 54.8858 24.375C54.7608 24.3 54.6108 24.25 54.4608 24.175C54.4358 24.175 54.3858 24.15 54.3609 24.15C54.1858 24.075 54.0108 24.025 53.8358 23.975C53.8108 23.975 53.7608 23.95 53.7358 23.95C53.5858 23.925 53.4608 23.9 53.3108 23.875C53.2608 23.875 53.2108 23.85 53.1858 23.85C53.0108 23.825 52.8358 23.825 52.6858 23.825ZM60.3609 19.125C62.6859 19.125 65.0359 19.925 65.0359 22.65V37.125L62.6858 37.5V22.65C62.6858 19.925 61.5108 19.525 60.7358 19.525L60.3609 19.125Z" fill="#011E26"/>
<path d="M37.4464 66.2819C41.3464 66.2819 44.4964 68.6319 44.4964 73.3319C44.4964 78.0319 41.3464 80.3569 37.4464 80.3569C35.7464 80.4069 34.0964 79.8819 32.7464 78.8569V79.9819L30.4214 80.3569V62.3819L32.7464 61.9819V67.8069C34.0964 66.7819 35.7464 66.2319 37.4464 66.2819ZM38.2214 79.9819C41.3464 79.9819 42.1464 76.4569 42.1464 73.3319C42.1464 68.6319 39.0214 66.6819 36.6714 66.6819C35.0964 66.7569 33.6464 67.5569 32.7464 68.8319V77.4319C34.1714 78.9569 36.1464 79.8819 38.2214 79.9819ZM53.935 66.2819C57.835 66.2819 60.9851 68.6319 60.9851 73.3319C60.9851 78.0319 57.835 80.3819 53.935 80.3819C50.035 80.3819 46.91 78.0319 46.91 73.3319C46.91 68.6319 50.035 66.2819 53.935 66.2819ZM54.71 79.9819C57.835 79.9819 58.6351 76.4569 58.6351 73.3319C58.6351 68.6319 55.51 66.6819 53.16 66.6819C50.035 66.6819 49.235 70.2069 49.235 73.3319C49.235 78.0319 52.36 79.9819 54.71 79.9819ZM75.139 62.3819L77.489 61.9819V79.9819L75.139 80.3819V78.8569C73.789 79.8819 72.139 80.4319 70.439 80.3819C66.539 80.3819 63.414 78.0319 63.414 73.3319C63.414 68.6319 66.539 66.2819 70.439 66.2819C72.139 66.2319 73.789 66.7819 75.139 67.8069V62.3819ZM71.214 79.9819C72.789 79.9069 74.239 79.1069 75.139 77.8319V69.2319C73.714 67.7069 71.739 66.7819 69.664 66.6819C66.539 66.6819 65.739 70.2069 65.739 73.3319C65.739 78.0319 68.864 79.9819 71.214 79.9819ZM92.4276 66.2819L92.8026 66.4319L85.7776 83.6069C85.0276 85.4319 82.4276 85.3069 81.4526 84.5069L81.8276 83.7319C82.6276 84.3819 84.6776 85.2069 85.4026 83.4569L87.4526 78.4819L85.9526 79.5319L79.9276 67.6819L81.8526 66.3069L87.7026 77.8319L92.4276 66.2819Z" fill="#011E26"/>
<path d="M53.2535 43.9609L53.6285 44.1109L46.6035 61.2859C45.8535 63.1109 43.2535 62.9859 42.2785 62.1859L42.6535 61.4109C43.4535 62.0609 45.5035 62.8859 46.2285 61.1359L48.2785 56.1609L46.7785 57.2109L40.7535 45.3609L42.6785 43.9859L48.5285 55.5109L53.2535 43.9609ZM61.9534 43.9609C65.8534 43.9609 69.0034 46.3109 69.0034 51.0109C69.0034 55.7109 65.8534 58.0609 61.9534 58.0609C58.0534 58.0609 54.9284 55.7109 54.9284 51.0109C54.9284 46.3109 58.0534 43.9609 61.9534 43.9609ZM62.7284 57.6609C65.8534 57.6609 66.6534 54.1359 66.6534 51.0109C66.6534 46.3109 63.5284 44.3609 61.1784 44.3609C58.0534 44.3609 57.2534 47.8859 57.2534 51.0109C57.2534 55.7109 60.3784 57.6609 62.7284 57.6609ZM82.0323 44.3609L84.3823 43.9609V57.6609L82.0323 58.0359V55.1609C81.2073 56.9859 79.3573 58.1109 77.3323 58.0359C74.2073 58.0359 71.8823 56.4859 71.8823 52.9609V44.3609L74.2073 43.9609V52.9609C74.2073 55.7859 75.0073 57.6609 77.7323 57.6609C80.4823 57.6609 82.0323 55.3109 82.0323 52.9609V44.3609ZM94.3232 43.9609C97.0482 43.9609 98.6232 45.9359 98.6232 48.6609L96.2732 49.0609C96.2732 47.0859 95.8732 44.3609 93.9232 44.3609C91.9732 44.3609 90.3982 46.7109 90.3982 49.0609V57.6609L88.0729 58.0359V44.7609L90.3982 44.3609V46.6859C90.9982 45.0359 92.5732 43.9609 94.3232 43.9609Z" fill="#011E26"/>
<path d="M99.2107 41.153C97.2634 30.32 91.7955 20.4323 83.656 13.0234C75.5162 5.61456 65.1591 1.09864 54.1912 0.17602C43.2232 -0.746597 32.2572 1.97566 22.9941 7.92057C13.731 13.8655 6.68833 22.7009 2.95844 33.0563C-0.771465 43.4117 -0.980167 54.7086 2.36471 65.1948C5.70958 75.6809 12.4211 84.7703 21.4583 91.0536C30.4955 97.3367 41.3535 100.462 52.348 99.9447C63.3426 99.4277 73.8594 95.2974 82.2673 88.1946L81.6292 87.4392C73.3876 94.4018 63.0788 98.451 52.3016 98.9572C41.5245 99.4634 30.8813 96.4001 22.0228 90.2411C13.1642 84.0827 6.58543 75.1731 3.30671 64.8943C0.0279761 54.6155 0.232547 43.542 3.88869 33.3914C7.54483 23.2407 14.4482 14.5801 23.5281 8.7527C32.6081 2.92535 43.3572 0.256924 54.1083 1.16129C64.8594 2.06567 75.0116 6.49229 82.9904 13.7546C90.9696 21.0169 96.3286 30.7092 98.2375 41.3279L99.2107 41.153Z" fill="#011E26"/>
</g>
<defs>
<clipPath id="clip0_170_910">
<rect width="100" height="100" fill="white"/>
</clipPath>
</defs>
</svg>
