<svg width="44" height="44" viewBox="0 0 44 44" fill="none" xmlns="http://www.w3.org/2000/svg">
<path fill-rule="evenodd" clip-rule="evenodd" d="M22.0129 10.7013C15.7702 10.7013 10.7055 15.764 10.7055 22.0043C10.7055 28.2446 15.7702 33.3073 22.0129 33.3073C28.2556 33.3073 33.3203 28.2446 33.3203 22.0043C33.3203 15.764 28.2556 10.7013 22.0129 10.7013ZM22.0129 29.3362C17.9629 29.3362 14.6781 26.0527 14.6781 22.0043C14.6781 17.9559 17.9629 14.6724 22.0129 14.6724C26.0629 14.6724 29.3477 17.9559 29.3477 22.0043C29.3477 26.0527 26.0629 29.3362 22.0129 29.3362Z" fill="url(#paint0_linear_170_864)"/>
<path d="M33.7674 12.8932C35.2206 12.8932 36.4073 11.7156 36.4073 10.2544C36.4073 8.80174 35.2206 7.61557 33.7674 7.61557C32.3142 7.61557 31.1276 8.79315 31.1276 10.2544C31.1276 11.707 32.3056 12.8932 33.7674 12.8932Z" fill="url(#paint1_linear_170_864)"/>
<path fill-rule="evenodd" clip-rule="evenodd" d="M22.0129 0C16.0367 0 15.2886 0.0257863 12.9412 0.128931C10.6023 0.232077 8.99433 0.610275 7.60133 1.15179C6.14813 1.71909 4.91851 2.46689 3.69748 3.69603C2.46785 4.91659 1.71976 6.14573 1.15224 7.58976C0.610514 8.99082 0.232167 10.5896 0.128982 12.9275C0.0257964 15.2827 0 16.0305 0 22.0043C0 27.9781 0.0257964 28.7259 0.128982 31.0725C0.232167 33.4104 0.610514 35.0178 1.15224 36.4102C1.71976 37.8629 2.46785 39.092 3.69748 40.3126C4.91851 41.5331 6.14813 42.2895 7.59273 42.8482C8.99433 43.3897 10.5937 43.7679 12.9326 43.8711C15.28 43.9742 16.0281 44 22.0043 44C27.9805 44 28.7286 43.9742 31.076 43.8711C33.4149 43.7679 35.0229 43.3897 36.4159 42.8482C37.8605 42.2895 39.0901 41.5331 40.3111 40.3126C41.5321 39.092 42.2888 37.8629 42.8478 36.4188C43.3895 35.0178 43.7678 33.419 43.871 31.0811C43.9742 28.7345 44 27.9867 44 22.0129C44 16.0391 43.9742 15.2913 43.871 12.9447C43.7678 10.6068 43.3895 8.99941 42.8478 7.60695C42.306 6.14573 41.5579 4.91659 40.3283 3.69603C39.1073 2.47548 37.8777 1.71909 36.4331 1.16038C35.0315 0.618871 33.4321 0.240672 31.0932 0.137527C28.7372 0.0257863 27.9891 0 22.0129 0ZM22.0129 3.96249C27.8945 3.96249 28.591 3.98828 30.904 4.09142C33.0537 4.18597 34.2146 4.54698 34.9885 4.84782C36.0117 5.24321 36.7512 5.72456 37.5165 6.48955C38.2904 7.26314 38.7633 7.99375 39.1589 9.01661C39.4598 9.79019 39.821 10.9592 39.9156 13.0994C40.0188 15.4202 40.0446 16.1164 40.0446 21.9871C40.0446 27.8664 40.0188 28.5626 39.9156 30.8748C39.821 33.0236 39.4598 34.184 39.1589 34.9576C38.7633 35.9805 38.2818 36.7197 37.5165 37.4847C36.7426 38.2583 36.0117 38.731 34.9885 39.1264C34.2146 39.4272 33.0451 39.7882 30.904 39.8828C28.5824 39.9859 27.8859 40.0117 22.0129 40.0117C16.1313 40.0117 15.4348 39.9859 13.1218 39.8828C10.9721 39.7882 9.81122 39.4272 9.03733 39.1264C8.01407 38.731 7.27457 38.2497 6.50928 37.4847C5.73539 36.7111 5.26246 35.9805 4.86691 34.9576C4.56596 34.184 4.20481 33.015 4.11022 30.8748C4.00704 28.554 3.98124 27.8578 3.98124 21.9871C3.98124 16.1078 4.00704 15.4116 4.11022 13.0994C4.20481 10.9506 4.56596 9.79019 4.86691 9.01661C5.26246 7.99375 5.74399 7.25454 6.50928 6.48955C7.28317 5.71596 8.01407 5.24321 9.03733 4.84782C9.81122 4.54698 10.9807 4.18597 13.1218 4.09142C15.4348 3.98828 16.1313 3.96249 22.0129 3.96249Z" fill="url(#paint2_linear_170_864)"/>
<defs>
<linearGradient id="paint0_linear_170_864" x1="31.7778" y1="-1.40068e-06" x2="8.54846" y2="44.0049" gradientUnits="userSpaceOnUse">
<stop stop-color="#6E3BF1"/>
<stop offset="0.241314" stop-color="#C128BF"/>
<stop offset="0.475694" stop-color="#EA336B"/>
<stop offset="0.715281" stop-color="#EE8131"/>
<stop offset="0.913202" stop-color="#F8D849"/>
</linearGradient>
<linearGradient id="paint1_linear_170_864" x1="31.7778" y1="-1.40068e-06" x2="8.54846" y2="44.0049" gradientUnits="userSpaceOnUse">
<stop stop-color="#6E3BF1"/>
<stop offset="0.241314" stop-color="#C128BF"/>
<stop offset="0.475694" stop-color="#EA336B"/>
<stop offset="0.715281" stop-color="#EE8131"/>
<stop offset="0.913202" stop-color="#F8D849"/>
</linearGradient>
<linearGradient id="paint2_linear_170_864" x1="31.7778" y1="-1.40068e-06" x2="8.54846" y2="44.0049" gradientUnits="userSpaceOnUse">
<stop stop-color="#6E3BF1"/>
<stop offset="0.241314" stop-color="#C128BF"/>
<stop offset="0.475694" stop-color="#EA336B"/>
<stop offset="0.715281" stop-color="#EE8131"/>
<stop offset="0.913202" stop-color="#F8D849"/>
</linearGradient>
</defs>
</svg>
