<svg width="112" height="112" viewBox="0 0 112 112" fill="none" xmlns="http://www.w3.org/2000/svg">
<g clip-path="url(#clip0_63_363)">
<path d="M32.1599 21.868L34.7639 21.42V23.184L32.1599 23.604V22.316H23.8159V31.472C26.5599 31.332 28.9399 29.736 31.7119 29.736V30.184C28.9399 30.184 26.5599 31.752 23.8159 31.92V41.58L21.2119 42V21.868L23.8159 21.42V21.868H32.1599ZM42.9705 41.58C44.7625 41.44 46.3865 40.46 47.3665 38.948L47.7865 39.816C46.4705 41.132 43.9225 42.028 42.1025 42.028C37.9865 42.028 34.6265 39.676 34.2625 35C34.2345 34.72 34.2345 34.44 34.2345 34.132C34.2345 28.868 37.7345 26.236 42.1025 26.236C42.3265 26.236 42.5785 26.264 42.8025 26.264C42.8865 26.264 42.9705 26.292 43.0545 26.292C43.1945 26.32 43.3345 26.32 43.4745 26.348C43.5865 26.348 43.6705 26.376 43.7825 26.376C43.8945 26.404 44.0065 26.432 44.1185 26.46C44.2305 26.488 44.3425 26.488 44.4545 26.516C44.5385 26.544 44.6505 26.572 44.7625 26.6C44.8745 26.628 44.9865 26.684 45.0705 26.712C45.1825 26.74 45.2665 26.768 45.3785 26.824C45.4625 26.852 45.5745 26.908 45.6865 26.936C45.7705 26.992 45.8545 27.02 45.9385 27.048C46.0505 27.104 46.1625 27.16 46.2465 27.216C46.3305 27.272 46.4145 27.3 46.4985 27.356C46.6105 27.412 46.6945 27.468 46.7785 27.524C46.8345 27.552 46.8905 27.58 46.9185 27.608C48.5145 28.728 49.5785 30.464 49.8305 32.368H47.3665C43.6705 32.368 40.5065 33.992 36.8385 34.104V34.132C36.8385 39.396 40.3665 41.58 42.9705 41.58ZM41.2345 26.684C37.8745 26.684 36.9225 30.296 36.8665 33.684C40.4225 33.544 43.5305 32.004 47.1145 31.948C46.9185 31.024 46.5545 30.156 46.0505 29.372C45.9105 29.148 45.7425 28.98 45.6025 28.784C45.5745 28.756 45.5465 28.7 45.4905 28.672C45.3785 28.532 45.2385 28.392 45.0985 28.252C45.0425 28.224 44.9865 28.168 44.9585 28.14C44.7905 28 44.6225 27.86 44.4265 27.72C44.2305 27.58 44.0345 27.468 43.8385 27.384C43.8105 27.356 43.7545 27.328 43.6985 27.3C43.5585 27.216 43.3905 27.16 43.2225 27.076C43.1945 27.076 43.1385 27.048 43.1105 27.048C42.9145 26.964 42.7185 26.908 42.5225 26.852C42.4945 26.852 42.4385 26.824 42.4105 26.824C42.2425 26.796 42.1025 26.768 41.9345 26.74C41.8785 26.74 41.8225 26.712 41.7945 26.712C41.5985 26.684 41.4025 26.684 41.2345 26.684ZM60.744 41.58C62.536 41.44 64.16 40.46 65.14 38.948L65.56 39.816C64.244 41.132 61.696 42.028 59.876 42.028C55.76 42.028 52.4 39.676 52.036 35C52.008 34.72 52.008 34.44 52.008 34.132C52.008 28.868 55.508 26.236 59.876 26.236C60.1 26.236 60.352 26.264 60.576 26.264C60.66 26.264 60.744 26.292 60.828 26.292C60.968 26.32 61.108 26.32 61.248 26.348C61.36 26.348 61.444 26.376 61.556 26.376C61.668 26.404 61.78 26.432 61.892 26.46C62.004 26.488 62.116 26.488 62.228 26.516C62.312 26.544 62.424 26.572 62.536 26.6C62.648 26.628 62.76 26.684 62.844 26.712C62.956 26.74 63.04 26.768 63.152 26.824C63.236 26.852 63.348 26.908 63.46 26.936C63.544 26.992 63.628 27.02 63.712 27.048C63.824 27.104 63.936 27.16 64.02 27.216C64.104 27.272 64.188 27.3 64.272 27.356C64.384 27.412 64.468 27.468 64.552 27.524C64.608 27.552 64.664 27.58 64.692 27.608C66.288 28.728 67.352 30.464 67.604 32.368H65.14C61.444 32.368 58.28 33.992 54.612 34.104V34.132C54.612 39.396 58.14 41.58 60.744 41.58ZM59.008 26.684C55.648 26.684 54.696 30.296 54.64 33.684C58.196 33.544 61.304 32.004 64.888 31.948C64.692 31.024 64.328 30.156 63.824 29.372C63.684 29.148 63.516 28.98 63.376 28.784C63.348 28.756 63.32 28.7 63.264 28.672C63.152 28.532 63.012 28.392 62.872 28.252C62.816 28.224 62.76 28.168 62.732 28.14C62.564 28 62.396 27.86 62.2 27.72C62.004 27.58 61.808 27.468 61.612 27.384C61.584 27.356 61.528 27.328 61.472 27.3C61.332 27.216 61.164 27.16 60.996 27.076C60.968 27.076 60.912 27.048 60.884 27.048C60.688 26.964 60.492 26.908 60.296 26.852C60.268 26.852 60.212 26.824 60.184 26.824C60.016 26.796 59.876 26.768 59.708 26.74C59.652 26.74 59.596 26.712 59.568 26.712C59.372 26.684 59.176 26.684 59.008 26.684ZM67.604 21.42C70.208 21.42 72.84 22.316 72.84 25.368V41.58L70.208 42V25.368C70.208 22.316 68.892 21.868 68.024 21.868L67.604 21.42Z" fill="#FFEDE4"/>
<path d="M41.9398 74.236C46.3078 74.236 49.8358 76.868 49.8358 82.132C49.8358 87.396 46.3078 90 41.9398 90C40.0358 90.056 38.1878 89.468 36.6758 88.32V89.58L34.0718 90V69.868L36.6758 69.42V75.944C38.1878 74.796 40.0358 74.18 41.9398 74.236ZM42.8078 89.58C46.3078 89.58 47.2038 85.632 47.2038 82.132C47.2038 76.868 43.7038 74.684 41.0718 74.684C39.3078 74.768 37.6838 75.664 36.6758 77.092V86.724C38.2718 88.432 40.4838 89.468 42.8078 89.58ZM60.4071 74.236C64.7751 74.236 68.3031 76.868 68.3031 82.132C68.3031 87.396 64.7751 90.028 60.4071 90.028C56.0391 90.028 52.5391 87.396 52.5391 82.132C52.5391 76.868 56.0391 74.236 60.4071 74.236ZM61.2751 89.58C64.7751 89.58 65.6711 85.632 65.6711 82.132C65.6711 76.868 62.1711 74.684 59.5391 74.684C56.0391 74.684 55.1431 78.632 55.1431 82.132C55.1431 87.396 58.6431 89.58 61.2751 89.58ZM84.1555 69.868L86.7875 69.42V89.58L84.1555 90.028V88.32C82.6435 89.468 80.7955 90.084 78.8915 90.028C74.5235 90.028 71.0235 87.396 71.0235 82.132C71.0235 76.868 74.5235 74.236 78.8915 74.236C80.7955 74.18 82.6435 74.796 84.1555 75.944V69.868ZM79.7595 89.58C81.5235 89.496 83.1475 88.6 84.1555 87.172V77.54C82.5595 75.832 80.3475 74.796 78.0235 74.684C74.5235 74.684 73.6275 78.632 73.6275 82.132C73.6275 87.396 77.1275 89.58 79.7595 89.58ZM103.519 74.236L103.939 74.404L96.0708 93.64C95.2308 95.684 92.3188 95.544 91.2268 94.648L91.6468 93.78C92.5428 94.508 94.8388 95.432 95.6508 93.472L97.9468 87.9L96.2668 89.076L89.5188 75.804L91.6748 74.264L98.2268 87.172L103.519 74.236Z" fill="#FFEDE4"/>
<path d="M59.644 49.236L60.064 49.404L52.196 68.64C51.356 70.684 48.444 70.544 47.352 69.648L47.772 68.78C48.668 69.508 50.964 70.432 51.776 68.472L54.072 62.9L52.392 64.076L45.644 50.804L47.8 49.264L54.352 62.172L59.644 49.236ZM69.3878 49.236C73.7558 49.236 77.2838 51.868 77.2838 57.132C77.2838 62.396 73.7558 65.028 69.3878 65.028C65.0198 65.028 61.5198 62.396 61.5198 57.132C61.5198 51.868 65.0198 49.236 69.3878 49.236ZM70.2558 64.58C73.7558 64.58 74.6518 60.632 74.6518 57.132C74.6518 51.868 71.1518 49.684 68.5198 49.684C65.0198 49.684 64.1238 53.632 64.1238 57.132C64.1238 62.396 67.6238 64.58 70.2558 64.58ZM91.8762 49.684L94.5082 49.236V64.58L91.8762 65V61.78C90.9522 63.824 88.8802 65.084 86.6122 65C83.1122 65 80.5082 63.264 80.5082 59.316V49.684L83.1122 49.236V59.316C83.1122 62.48 84.0082 64.58 87.0602 64.58C90.1402 64.58 91.8762 61.948 91.8762 59.316V49.684ZM105.642 49.236C108.694 49.236 110.458 51.448 110.458 54.5L107.826 54.948C107.826 52.736 107.378 49.684 105.194 49.684C103.01 49.684 101.246 52.316 101.246 54.948V64.58L98.6417 65V50.132L101.246 49.684V52.288C101.918 50.44 103.682 49.236 105.642 49.236Z" fill="#FFEDE4"/>
<path d="M111.116 46.0914C108.935 33.9584 102.811 22.8842 93.6947 14.5863C84.5781 6.28831 72.9782 1.23048 60.6941 0.197143C48.41 -0.836189 36.1281 2.21274 25.7534 8.87104C15.3787 15.5294 7.49093 25.425 3.31345 37.0231C-0.864041 48.6212 -1.09779 61.2737 2.64847 73.0182C6.39473 84.7627 13.9116 94.9428 24.0333 101.98C34.155 109.017 46.3159 112.517 58.6298 111.938C70.9437 111.359 82.7225 106.733 92.1394 98.778L91.4247 97.932C82.1941 105.73 70.6482 110.265 58.5778 110.832C46.5074 111.399 34.587 107.968 24.6655 101.07C14.7439 94.1727 7.37568 84.1939 3.70351 72.6816C0.0313332 61.1694 0.260452 48.7671 4.35533 37.3984C8.45021 26.0296 16.182 16.3297 26.3515 9.80302C36.5211 3.27639 48.5601 0.287755 60.6013 1.30065C72.6425 2.31355 84.013 7.27137 92.9493 15.4052C101.886 23.539 107.888 34.3943 110.026 46.2873L111.116 46.0914Z" fill="#FFEDE4"/>
</g>
<defs>
<clipPath id="clip0_63_363">
<rect width="112" height="112" fill="white"/>
</clipPath>
</defs>
</svg>
