<svg width="97" height="88" viewBox="0 0 97 88" fill="none" xmlns="http://www.w3.org/2000/svg">
<path d="M76.9045 63.618C69.2567 72.2885 60.9029 80.3107 51.9291 87.6022V87.7352C51.4759 88.0976 50.9412 88.0527 50.5429 87.8124C50.5305 87.8169 50.5181 87.8211 50.5055 87.8251C50.244 87.9088 49.9607 87.8926 49.7106 87.7796C43.7621 83.7184 38.5427 78.6823 34.2728 72.8836L17.1937 54.0864C12.44 49.1481 7.99542 43.9217 3.88529 38.4368C0.779479 34.2004 -0.54221 28.9168 0.203365 23.7182C1.4269 18.1994 4.27952 13.1746 8.39209 9.29385C12.5047 5.4131 17.688 2.85503 23.2713 1.95063C28.3619 0.933725 33.6448 1.57828 38.3411 3.78926C42.7143 5.84814 46.3634 9.16389 48.8288 13.3008C50.9988 9.54064 54.0603 6.36265 57.7511 4.05109C61.785 1.52471 66.423 0.125756 71.1819 0C75.3766 0.0413922 79.4992 1.09492 83.1989 3.07094C86.8986 5.04696 90.0658 7.88696 92.431 11.3493C94.9772 15.1855 96.5151 19.601 96.9027 24.188C97.2904 28.7751 96.5154 33.3859 94.6491 37.5945C90.2626 47.2169 84.2612 56.0184 76.9045 63.618ZM50.0088 15.7051C50.0628 15.6385 50.1118 15.5611 50.1547 15.4723C52.0632 11.7501 54.8896 8.57553 58.367 6.24842C61.8444 3.9213 65.8578 2.51844 70.0285 2.17231C74.1991 1.93414 78.358 2.81078 82.0771 4.71202C85.7963 6.61326 88.9414 9.47045 91.1889 12.9896C102.767 30.7229 85.7768 50.3181 74.4203 63.0417C67.1313 71.2359 59.2205 78.8555 50.7587 85.8327C46.1785 82.7811 42.1239 79.0068 38.7533 74.657L26.9976 61.357L14.5321 47.3034C10.7958 43.5833 7.47843 39.4653 4.63949 35.0231C-0.994389 24.7379 5.34927 13.2999 14.6208 7.8026C18.9732 4.96834 24.1284 3.62197 29.3119 3.96572C34.4954 4.30947 39.4274 6.32478 43.3669 9.70893C45.3683 11.4646 46.9395 13.6561 47.9593 16.1146C48.9791 18.5731 49.4204 21.2328 49.2489 23.8886C49.0775 26.5445 48.2979 29.1255 46.9705 31.4326C45.643 33.7398 43.8029 35.7114 41.5924 37.1955C41.3394 37.3483 41.1576 37.5953 41.0869 37.8822C41.0161 38.169 41.0624 38.4722 41.2153 38.725C41.3683 38.9777 41.6155 39.1595 41.9025 39.2301C42.1895 39.3008 42.4929 39.2547 42.7458 39.1018H42.5241C46.5115 36.5104 49.4091 32.5473 50.6682 27.9635C51.7844 23.9 51.5441 19.5989 50.0088 15.7051Z" fill="#FFEDE4"/>
<path d="M76.9045 63.618C69.2567 72.2885 60.9029 80.3107 51.9291 87.6022V87.7352C51.4759 88.0976 50.9412 88.0527 50.5429 87.8124C50.5305 87.8169 50.5181 87.8211 50.5055 87.8251C50.244 87.9088 49.9607 87.8926 49.7106 87.7796C43.7621 83.7184 38.5427 78.6823 34.2728 72.8836L17.1937 54.0864C12.44 49.1481 7.99542 43.9217 3.88529 38.4368C0.779479 34.2004 -0.54221 28.9168 0.203365 23.7182C1.4269 18.1994 4.27952 13.1746 8.39209 9.29385C12.5047 5.4131 17.688 2.85503 23.2713 1.95063C28.3619 0.933725 33.6448 1.57828 38.3411 3.78926C42.7143 5.84814 46.3634 9.16389 48.8288 13.3008C50.9988 9.54064 54.0603 6.36265 57.7511 4.05109C61.785 1.52471 66.423 0.125756 71.1819 0C75.3766 0.0413922 79.4992 1.09492 83.1989 3.07094C86.8986 5.04696 90.0658 7.88696 92.431 11.3493C94.9772 15.1855 96.5151 19.601 96.9027 24.188C97.2904 28.7751 96.5154 33.3859 94.6491 37.5945C90.2626 47.2169 84.2612 56.0184 76.9045 63.618ZM50.0088 15.7051C50.0628 15.6385 50.1118 15.5611 50.1547 15.4723C52.0632 11.7501 54.8896 8.57553 58.367 6.24842C61.8444 3.9213 65.8578 2.51844 70.0285 2.17231C74.1991 1.93414 78.358 2.81078 82.0771 4.71202C85.7963 6.61326 88.9414 9.47045 91.1889 12.9896C102.767 30.7229 85.7768 50.3181 74.4203 63.0417C67.1313 71.2359 59.2205 78.8555 50.7587 85.8327C46.1785 82.7811 42.1239 79.0068 38.7533 74.657L26.9976 61.357L14.5321 47.3034C10.7958 43.5833 7.47843 39.4653 4.63949 35.0231C-0.994389 24.7379 5.34927 13.2999 14.6208 7.8026C18.9732 4.96834 24.1284 3.62197 29.3119 3.96572C34.4954 4.30947 39.4274 6.32478 43.3669 9.70893C45.3683 11.4646 46.9395 13.6561 47.9593 16.1146C48.9791 18.5731 49.4204 21.2328 49.2489 23.8886C49.0775 26.5445 48.2979 29.1255 46.9705 31.4326C45.643 33.7398 43.8029 35.7114 41.5924 37.1955C41.3394 37.3483 41.1576 37.5953 41.0869 37.8822C41.0161 38.169 41.0624 38.4722 41.2153 38.725C41.3683 38.9777 41.6155 39.1595 41.9025 39.2301C42.1895 39.3008 42.4929 39.2547 42.7458 39.1018H42.5241C46.5115 36.5104 49.4091 32.5473 50.6682 27.9635C51.7844 23.9 51.5441 19.5989 50.0088 15.7051Z" stroke="#FFEDE4"/>
</svg>
