<svg width="65" height="40" viewBox="0 0 65 40" fill="none" xmlns="http://www.w3.org/2000/svg">
<mask id="path-1-inside-1_170_939" fill="white">
<path d="M34.7551 6.64792C34.4546 6.89503 34.18 7.18239 33.9371 7.5041C33.7883 7.69204 33.6539 7.8949 33.5357 8.11032L33.4875 8.09557C33.2005 8.02587 32.9041 8.02805 32.6179 8.10198C32.3317 8.17591 32.0622 8.31989 31.8274 8.52437L31.8014 8.56066L31.8036 8.60783L31.8327 8.64076L31.8732 8.64188C32.3372 8.48604 32.8257 8.45666 33.301 8.55601C32.9354 9.30655 32.617 10.087 32.3484 10.8913C32.161 11.4344 31.9843 11.9821 31.8117 12.5317C31.7587 12.5713 31.6962 12.5902 31.6333 12.5857C31.5553 12.584 31.4773 12.5879 31.3997 12.5973C31.3177 12.6112 31.2414 12.654 31.181 12.7199L31.1511 12.7758L31.1523 12.8416L31.184 12.896L31.2361 12.9215C31.3871 12.9427 31.5158 13.0129 31.6554 13.0333L31.4703 13.6346L31.3601 13.9901C31.2385 14.1651 31.1263 14.3487 31.0244 14.54C30.831 14.8862 30.5562 15.1604 30.2328 15.3297C30.1507 15.372 30.1899 15.534 30.2804 15.5075C30.5784 15.4227 30.852 15.2483 31.074 15.0017L31.0473 15.1208C30.9368 15.6314 30.8364 16.1425 30.683 16.6385L30.6875 16.703L30.7291 16.7458L30.7845 16.7431L30.823 16.6965C30.9846 16.2031 31.1947 15.7375 31.3974 15.2659C31.5837 14.8319 31.7247 14.3727 31.8744 13.9205C32.1729 13.0186 32.4639 12.1128 32.7722 11.2156C33.0334 10.4237 33.344 9.65522 33.7015 8.91619C33.8812 8.55619 34.0863 8.2161 34.2782 7.86517C34.3771 7.68419 34.4708 7.50073 34.58 7.32757C34.6893 7.15441 34.8219 7.0065 34.931 6.83459C35.0182 6.69664 34.8601 6.57041 34.7551 6.64792Z"/>
</mask>
<path d="M34.7551 6.64792C34.4546 6.89503 34.18 7.18239 33.9371 7.5041C33.7883 7.69204 33.6539 7.8949 33.5357 8.11032L33.4875 8.09557C33.2005 8.02587 32.9041 8.02805 32.6179 8.10198C32.3317 8.17591 32.0622 8.31989 31.8274 8.52437L31.8014 8.56066L31.8036 8.60783L31.8327 8.64076L31.8732 8.64188C32.3372 8.48604 32.8257 8.45666 33.301 8.55601C32.9354 9.30655 32.617 10.087 32.3484 10.8913C32.161 11.4344 31.9843 11.9821 31.8117 12.5317C31.7587 12.5713 31.6962 12.5902 31.6333 12.5857C31.5553 12.584 31.4773 12.5879 31.3997 12.5973C31.3177 12.6112 31.2414 12.654 31.181 12.7199L31.1511 12.7758L31.1523 12.8416L31.184 12.896L31.2361 12.9215C31.3871 12.9427 31.5158 13.0129 31.6554 13.0333L31.4703 13.6346L31.3601 13.9901C31.2385 14.1651 31.1263 14.3487 31.0244 14.54C30.831 14.8862 30.5562 15.1604 30.2328 15.3297C30.1507 15.372 30.1899 15.534 30.2804 15.5075C30.5784 15.4227 30.852 15.2483 31.074 15.0017L31.0473 15.1208C30.9368 15.6314 30.8364 16.1425 30.683 16.6385L30.6875 16.703L30.7291 16.7458L30.7845 16.7431L30.823 16.6965C30.9846 16.2031 31.1947 15.7375 31.3974 15.2659C31.5837 14.8319 31.7247 14.3727 31.8744 13.9205C32.1729 13.0186 32.4639 12.1128 32.7722 11.2156C33.0334 10.4237 33.344 9.65522 33.7015 8.91619C33.8812 8.55619 34.0863 8.2161 34.2782 7.86517C34.3771 7.68419 34.4708 7.50073 34.58 7.32757C34.6893 7.15441 34.8219 7.0065 34.931 6.83459C35.0182 6.69664 34.8601 6.57041 34.7551 6.64792Z" fill="#FFEDE4"/>
<path d="M34.7551 6.64792L34.1611 5.84341L34.1401 5.85893L34.1199 5.87553L34.7551 6.64792ZM33.9371 7.5041L34.721 8.12492L34.7282 8.11591L34.7351 8.10673L33.9371 7.5041ZM33.5357 8.11032L33.2432 9.06657L34.021 9.30456L34.4124 8.59144L33.5357 8.11032ZM33.4875 8.09557L33.7801 7.13932L33.752 7.13074L33.7235 7.12382L33.4875 8.09557ZM31.8274 8.52437L31.1707 7.77025L31.0824 7.84714L31.0142 7.94235L31.8274 8.52437ZM31.8014 8.56066L30.9883 7.97864L30.7869 8.26L30.8025 8.60565L31.8014 8.56066ZM31.8036 8.60783L30.8046 8.65283L30.8205 9.0054L31.0541 9.2699L31.8036 8.60783ZM31.8327 8.64076L31.0832 9.30282L31.3708 9.62837L31.805 9.64038L31.8327 8.64076ZM31.8732 8.64188L31.8456 9.6415L32.0232 9.64641L32.1916 9.58984L31.8732 8.64188ZM33.301 8.55601L34.2 8.99398L34.7623 7.83986L33.5056 7.57717L33.301 8.55601ZM32.3484 10.8913L33.2938 11.2175L33.2969 11.208L32.3484 10.8913ZM31.8117 12.5317L32.4107 13.3324L32.6691 13.1392L32.7657 12.8313L31.8117 12.5317ZM31.6333 12.5857L31.7054 11.5883L31.6803 11.5865L31.6551 11.5859L31.6333 12.5857ZM31.3997 12.5973L31.2795 11.6045L31.2557 11.6074L31.2321 11.6114L31.3997 12.5973ZM31.181 12.7199L30.4438 12.0442L30.3585 12.1373L30.2989 12.2487L31.181 12.7199ZM31.1511 12.7758L30.2691 12.3046L30.1468 12.5335L30.1513 12.7929L31.1511 12.7758ZM31.1523 12.8416L30.1524 12.8587L30.1569 13.1197L30.2883 13.3451L31.1523 12.8416ZM31.184 12.896L30.32 13.3996L30.4725 13.6611L30.7444 13.7942L31.184 12.896ZM31.2361 12.9215L30.7965 13.8197L30.9396 13.8898L31.0974 13.9119L31.2361 12.9215ZM31.6554 13.0333L32.6112 13.3276L32.9544 12.2129L31.8003 12.0439L31.6554 13.0333ZM31.4703 13.6346L32.4255 13.9306L32.426 13.9288L31.4703 13.6346ZM31.3601 13.9901L32.1811 14.5611L32.2695 14.434L32.3153 14.2862L31.3601 13.9901ZM31.0244 14.54L31.8974 15.0276L31.9023 15.019L31.9069 15.0103L31.0244 14.54ZM30.2328 15.3297L30.6909 16.2186L30.6967 16.2156L30.2328 15.3297ZM30.2804 15.5075L30.0068 14.5456L29.9995 14.5477L30.2804 15.5075ZM31.074 15.0017L32.0498 15.2205L32.8851 11.4947L30.3307 14.3327L31.074 15.0017ZM31.0473 15.1208L30.0715 14.902L30.0699 14.9093L31.0473 15.1208ZM30.683 16.6385L29.7276 16.3431L29.6724 16.5217L29.6854 16.7081L30.683 16.6385ZM30.6875 16.703L29.6899 16.7726L29.7154 17.1371L29.9698 17.3993L30.6875 16.703ZM30.7291 16.7458L30.0114 17.4422L30.3259 17.7663L30.777 17.7447L30.7291 16.7458ZM30.7845 16.7431L30.8325 17.742L31.2752 17.7207L31.5567 17.3785L30.7845 16.7431ZM30.823 16.6965L31.5952 17.3318L31.7147 17.1866L31.7733 17.0078L30.823 16.6965ZM31.3974 15.2659L32.3161 15.6607L32.3162 15.6604L31.3974 15.2659ZM31.8744 13.9205L32.8238 14.2347L32.8238 14.2347L31.8744 13.9205ZM32.7722 11.2156L33.718 11.5405L33.7219 11.5288L32.7722 11.2156ZM33.7015 8.91619L32.8067 8.46939L32.8012 8.48076L33.7015 8.91619ZM34.2782 7.86517L35.1556 8.34481L35.1557 8.34468L34.2782 7.86517ZM34.931 6.83459L35.7753 7.37048L35.7765 7.36863L34.931 6.83459ZM34.1199 5.87553C33.7565 6.1744 33.4277 6.51924 33.1391 6.90147L34.7351 8.10673C34.9324 7.84554 35.1527 7.61565 35.3902 7.42031L34.1199 5.87553ZM33.1531 6.88329C32.9687 7.11619 32.8036 7.36592 32.6591 7.62921L34.4124 8.59144C34.5043 8.42387 34.6078 8.26788 34.721 8.12492L33.1531 6.88329ZM33.8283 7.15408L33.7801 7.13932L33.1949 9.05182L33.2432 9.06657L33.8283 7.15408ZM33.7235 7.12382C33.2765 7.01525 32.8131 7.01873 32.3678 7.13376L32.868 9.0702C32.995 9.03738 33.1245 9.03648 33.2515 9.06732L33.7235 7.12382ZM32.3678 7.13376C31.9232 7.24859 31.5162 7.46939 31.1707 7.77025L32.4842 9.27848C32.6083 9.17039 32.7401 9.10322 32.868 9.0702L32.3678 7.13376ZM31.0142 7.94235L30.9883 7.97864L32.6146 9.14268L32.6406 9.10639L31.0142 7.94235ZM30.8025 8.60565L30.8046 8.65283L32.8026 8.56284L32.8004 8.51566L30.8025 8.60565ZM31.0541 9.2699L31.0832 9.30282L32.5821 7.9787L32.553 7.94577L31.0541 9.2699ZM31.805 9.64038L31.8456 9.6415L31.9008 7.64226L31.8603 7.64114L31.805 9.64038ZM32.1916 9.58984C32.4885 9.49011 32.7966 9.47218 33.0964 9.53486L33.5056 7.57717C32.8549 7.44114 32.1859 7.48197 31.5548 7.69392L32.1916 9.58984ZM32.402 8.11805C32.0169 8.90848 31.6821 9.72949 31.3999 10.5746L33.2969 11.208C33.5519 10.4446 33.8538 9.70463 34.2 8.99398L32.402 8.11805ZM31.4031 10.5651C31.2115 11.1205 31.0317 11.678 30.8577 12.232L32.7657 12.8313C32.9369 12.2863 33.1106 11.7483 33.2937 11.2175L31.4031 10.5651ZM31.2127 11.7309C31.3419 11.6342 31.5155 11.5746 31.7054 11.5883L31.5612 13.5831C31.8769 13.6059 32.1754 13.5084 32.4107 13.3324L31.2127 11.7309ZM31.6551 11.5859C31.5295 11.5832 31.4041 11.5894 31.2795 11.6045L31.5198 13.59C31.5505 13.5863 31.5811 13.5848 31.6115 13.5855L31.6551 11.5859ZM31.2321 11.6114C30.914 11.6655 30.6422 11.8278 30.4438 12.0442L31.9181 13.3957C31.8406 13.4802 31.7215 13.5569 31.5673 13.5831L31.2321 11.6114ZM30.2989 12.2487L30.2691 12.3046L32.0332 13.247L32.063 13.1911L30.2989 12.2487ZM30.1513 12.7929L30.1524 12.8587L32.1521 12.8245L32.151 12.7587L30.1513 12.7929ZM30.2883 13.3451L30.32 13.3996L32.048 12.3925L32.0162 12.3381L30.2883 13.3451ZM30.7444 13.7942L30.7965 13.8197L31.6757 12.0233L31.6236 11.9978L30.7444 13.7942ZM31.0974 13.9119C31.0704 13.9081 31.059 13.9015 31.1348 13.9267C31.1631 13.9361 31.2182 13.9547 31.276 13.9713C31.3369 13.9888 31.4172 14.0091 31.5106 14.0228L31.8003 12.0439C31.8338 12.0488 31.8536 12.058 31.7653 12.0287C31.7041 12.0084 31.5528 11.9561 31.3747 11.9312L31.0974 13.9119ZM30.6997 12.7391L30.5146 13.3403L32.426 13.9288L32.6112 13.3276L30.6997 12.7391ZM30.5151 13.3386L30.4049 13.6941L32.3153 14.2862L32.4255 13.9306L30.5151 13.3386ZM30.5392 13.4191C30.3946 13.627 30.262 13.8443 30.1419 14.0697L31.9069 15.0103C31.9906 14.8532 32.0823 14.7032 32.1811 14.5611L30.5392 13.4191ZM30.1513 14.0524C30.0442 14.2442 29.9053 14.3724 29.769 14.4438L30.6967 16.2156C31.2072 15.9483 31.6178 15.5283 31.8974 15.0276L30.1513 14.0524ZM29.7747 14.4408C29.1512 14.7621 29.1513 15.4112 29.223 15.692C29.2675 15.866 29.3725 16.0965 29.5978 16.2771C29.8581 16.4857 30.2138 16.5689 30.5613 16.4672L29.9995 14.5477C30.3018 14.4593 30.6187 14.5322 30.8487 14.7165C31.0437 14.8729 31.1271 15.0652 31.1607 15.1968C31.2108 15.3926 31.2323 15.9396 30.6909 16.2186L29.7747 14.4408ZM30.5541 16.4693C31.046 16.3294 31.4787 16.0468 31.8173 15.6707L30.3307 14.3327C30.2253 14.4498 30.1108 14.516 30.0068 14.5456L30.5541 16.4693ZM30.0982 14.7829L30.0715 14.902L32.0231 15.3396L32.0498 15.2205L30.0982 14.7829ZM30.0699 14.9093C29.9535 15.4472 29.8646 15.9003 29.7276 16.3431L31.6384 16.9339C31.8082 16.3847 31.9201 15.8155 32.0247 15.3323L30.0699 14.9093ZM29.6854 16.7081L29.6899 16.7726L31.6851 16.6333L31.6806 16.5689L29.6854 16.7081ZM29.9698 17.3993L30.0114 17.4422L31.4468 16.0494L31.4052 16.0066L29.9698 17.3993ZM30.777 17.7447L30.8325 17.742L30.7366 15.7443L30.6811 15.747L30.777 17.7447ZM31.5567 17.3785L31.5952 17.3318L30.0507 16.0611L30.0123 16.1078L31.5567 17.3785ZM31.7733 17.0078C31.9172 16.5684 32.1031 16.1564 32.3161 15.6607L30.4786 14.8711C30.2863 15.3187 30.0519 15.8378 29.8726 16.3851L31.7733 17.0078ZM32.3162 15.6604C32.5245 15.1753 32.6839 14.6571 32.8238 14.2347L30.9251 13.6062C30.7655 14.0884 30.6429 14.4885 30.4785 14.8713L32.3162 15.6604ZM32.8238 14.2347C33.126 13.3214 33.412 12.4309 33.718 11.5405L31.8265 10.8906C31.5159 11.7947 31.2198 12.7158 30.9251 13.6062L32.8238 14.2347ZM33.7219 11.5288C33.9695 10.7781 34.2637 10.0505 34.6017 9.35163L32.8012 8.48076C32.4243 9.26 32.0973 10.0694 31.8225 10.9023L33.7219 11.5288ZM34.5961 9.36295C34.7671 9.02064 34.9345 8.74934 35.1556 8.34481L33.4007 7.38552C33.2382 7.68287 32.9954 8.09174 32.8068 8.46943L34.5961 9.36295ZM35.1557 8.34468C35.2726 8.13077 35.3388 7.999 35.4257 7.86124L33.7343 6.7939C33.6027 7.00245 33.4815 7.23761 33.4006 7.38566L35.1557 8.34468ZM35.4257 7.86124C35.4546 7.81549 35.49 7.76757 35.5538 7.68296C35.61 7.60851 35.6954 7.49638 35.7753 7.37048L34.0867 6.29871C34.0575 6.34471 34.0221 6.39249 33.9573 6.47827C33.9003 6.55388 33.8147 6.6665 33.7343 6.7939L35.4257 7.86124ZM35.7765 7.36863C36.4406 6.31726 35.1767 5.09366 34.1611 5.84341L35.349 7.45244C34.5434 8.04717 33.5957 7.07601 34.0856 6.30056L35.7765 7.36863Z" fill="#FFEDE4" mask="url(#path-1-inside-1_170_939)"/>
<path d="M43.9612 1.73794L43.9672 1.72241M43.9612 1.73794L43.9593 1.74296L43.9672 1.72241M43.9612 1.73794L43.9674 1.73908L43.9612 1.73794ZM43.9672 1.72241L43.9682 1.72194L43.9672 1.72241ZM38.5277 3.76126C38.8711 3.49073 39.215 3.22122 39.5635 2.96052C39.7528 2.81886 39.947 2.6878 40.1412 2.55669C40.266 2.47242 40.3909 2.38812 40.5146 2.30097C40.516 2.29984 40.5175 2.29871 40.5189 2.29759L38.5277 3.76126ZM38.5277 3.76126C38.8561 3.46991 39.1915 3.18952 39.5335 2.92043C39.6121 2.85856 39.6911 2.79728 39.7704 2.73661C40.0091 2.56744 40.2578 2.42166 40.5138 2.30002L38.5277 3.76126Z" fill="#FFEDE4" stroke="#FFEDE4"/>
<mask id="path-4-inside-2_170_939" fill="white">
<path d="M41.0596 1.78062C41.1455 1.69728 41.241 1.62846 41.3434 1.57617C40.8122 1.48215 40.2716 1.48479 39.741 1.584C38.9801 1.71652 38.2496 2.02543 37.5929 2.49244C36.9028 3.01985 36.2384 3.59145 35.6027 4.20462L34.5516 5.16746C34.2006 5.48746 33.8738 5.84391 33.517 6.15324L33.5904 6.25457C33.9317 5.97564 34.3002 5.7408 34.6485 5.47377L35.6893 4.66915C36.3559 4.1568 37.0109 3.62151 37.6826 3.11893C37.9937 2.88622 38.3176 2.68213 38.6337 2.45937C38.9501 2.21473 39.2978 2.02993 39.6638 1.91182C40.0534 1.80674 40.4546 1.77262 40.8531 1.81066L41.0187 1.82968L41.0596 1.78062Z"/>
</mask>
<path d="M41.0596 1.78062C41.1455 1.69728 41.241 1.62846 41.3434 1.57617C40.8122 1.48215 40.2716 1.48479 39.741 1.584C38.9801 1.71652 38.2496 2.02543 37.5929 2.49244C36.9028 3.01985 36.2384 3.59145 35.6027 4.20462L34.5516 5.16746C34.2006 5.48746 33.8738 5.84391 33.517 6.15324L33.5904 6.25457C33.9317 5.97564 34.3002 5.7408 34.6485 5.47377L35.6893 4.66915C36.3559 4.1568 37.0109 3.62151 37.6826 3.11893C37.9937 2.88622 38.3176 2.68213 38.6337 2.45937C38.9501 2.21473 39.2978 2.02993 39.6638 1.91182C40.0534 1.80674 40.4546 1.77262 40.8531 1.81066L41.0187 1.82968L41.0596 1.78062Z" fill="#FFEDE4"/>
<path d="M41.0596 1.78062L40.3633 1.06286L40.3253 1.09969L40.2914 1.14032L41.0596 1.78062ZM41.3434 1.57617L41.7982 2.46678L44.4533 1.11104L41.5177 0.591478L41.3434 1.57617ZM39.741 1.584L39.9126 2.56924L39.9248 2.56696L39.741 1.584ZM37.5929 2.49244L37.0134 1.67749L36.9993 1.68747L36.9857 1.69792L37.5929 2.49244ZM35.6027 4.20462L36.2782 4.94203L36.2877 4.93332L36.297 4.92436L35.6027 4.20462ZM34.5516 5.16746L35.2253 5.90645L35.227 5.90487L34.5516 5.16746ZM33.517 6.15324L32.862 5.39766L32.1697 5.99787L32.7072 6.73989L33.517 6.15324ZM33.5904 6.25457L32.7806 6.84123L33.4025 7.69976L34.2233 7.02882L33.5904 6.25457ZM34.6485 5.47377L35.2569 6.26735L35.2601 6.26492L34.6485 5.47377ZM35.6893 4.66915L35.0799 3.87629L35.0776 3.878L35.6893 4.66915ZM37.6826 3.11893L38.2817 3.91965L38.2817 3.91961L37.6826 3.11893ZM38.6337 2.45937L39.2098 3.27676L39.2279 3.26402L39.2453 3.25051L38.6337 2.45937ZM39.6638 1.91182L39.4034 0.946326L39.3799 0.952666L39.3567 0.960141L39.6638 1.91182ZM40.8531 1.81066L40.9672 0.817197L40.9577 0.816102L40.9481 0.81519L40.8531 1.81066ZM41.0187 1.82968L40.9045 2.82315L41.441 2.88478L41.7868 2.46998L41.0187 1.82968ZM41.7559 2.49838C41.7733 2.48149 41.788 2.47196 41.7982 2.46678L40.8886 0.685564C40.694 0.784955 40.5177 0.913071 40.3633 1.06286L41.7559 2.49838ZM41.5177 0.591478C40.8679 0.47647 40.206 0.479715 39.5572 0.601034L39.9248 2.56696C40.3372 2.48986 40.7564 2.48783 41.1691 2.56087L41.5177 0.591478ZM39.5694 0.598826C38.6551 0.758065 37.7863 1.12786 37.0134 1.67749L38.1724 3.30739C38.713 2.92299 39.305 2.67498 39.9126 2.56917L39.5694 0.598826ZM36.9857 1.69792C36.2647 2.24896 35.5713 2.84559 34.9085 3.48487L36.297 4.92436C36.9056 4.33732 37.541 3.79074 38.2001 3.28696L36.9857 1.69792ZM34.9273 3.46721L33.8761 4.43006L35.227 5.90487L36.2782 4.94203L34.9273 3.46721ZM33.8778 4.42848C33.6842 4.60503 33.4975 4.79139 33.3344 4.95228C33.1644 5.11982 33.0137 5.2661 32.862 5.39766L34.1721 6.90882C34.3771 6.73105 34.5682 6.54444 34.7386 6.37642C34.9157 6.20176 35.0679 6.0499 35.2253 5.90645L33.8778 4.42848ZM32.7072 6.73989L32.7806 6.84123L34.4003 5.66792L34.3269 5.56659L32.7072 6.73989ZM34.2233 7.02882C34.3662 6.91205 34.5202 6.80007 34.6968 6.67434C34.8659 6.55398 35.0648 6.41468 35.2569 6.26735L34.04 4.6802C33.8839 4.79989 33.7244 4.91153 33.5368 5.04507C33.3568 5.17326 33.1559 5.31817 32.9575 5.48033L34.2233 7.02882ZM35.2601 6.26492L36.3009 5.4603L35.0776 3.878L34.0368 4.68263L35.2601 6.26492ZM36.2987 5.46201C37.0082 4.91667 37.6055 4.4255 38.2817 3.91965L37.0836 2.31821C36.4162 2.81751 35.7035 3.39692 35.0799 3.87629L36.2987 5.46201ZM38.2817 3.91961C38.5906 3.68854 38.8245 3.54831 39.2098 3.27676L38.0576 1.64199C37.8108 1.81595 37.3968 2.08389 37.0835 2.31825L38.2817 3.91961ZM39.2453 3.25051C39.474 3.07371 39.7193 2.94468 39.9709 2.8635L39.3567 0.960141C38.8763 1.11517 38.4263 1.35574 38.0221 1.66824L39.2453 3.25051ZM39.9242 2.87731C40.199 2.8032 40.4798 2.77957 40.758 2.80614L40.9481 0.81519C40.4293 0.76566 39.9077 0.810279 39.4034 0.946326L39.9242 2.87731ZM40.739 2.80413L40.9045 2.82315L41.1328 0.836217L40.9672 0.817197L40.739 2.80413ZM41.7868 2.46998L41.8277 2.42092L40.2914 1.14032L40.2505 1.18939L41.7868 2.46998Z" fill="#FFEDE4" mask="url(#path-4-inside-2_170_939)"/>
<path d="M35.8955 10.0028C35.8888 9.98522 35.882 9.96774 35.8751 9.95032C35.8665 9.92883 35.8577 9.90743 35.8487 9.88613C35.836 9.90941 35.8234 9.93277 35.8109 9.9562C35.8062 9.96501 35.8015 9.97383 35.7969 9.98266L35.8955 10.0028ZM35.8955 10.0028L35.8323 9.96799L35.8955 10.0028ZM34.7258 13.4062C34.8895 12.4434 35.1581 11.5096 35.5244 10.6274C35.5201 10.6099 35.5156 10.5926 35.5109 10.5752C35.2477 11.1764 35.0462 11.8149 34.9123 12.4773L34.9098 12.4898L34.9097 12.4897C34.8403 12.7932 34.7751 13.0979 34.7141 13.4037L34.7258 13.4062ZM34.7258 13.4062L34.714 13.4042C34.6739 13.6054 34.6356 13.8072 34.5991 14.0093C34.6037 14.0043 34.6085 13.9993 34.6134 13.9944C34.6472 13.7977 34.6842 13.6015 34.7258 13.4062ZM35.4573 15.0778L35.698 15.5111C35.9614 15.3648 36.1824 15.1523 36.3489 14.8983C36.3492 14.8978 36.3495 14.8973 36.3498 14.8969C36.3794 14.8516 36.4073 14.805 36.4333 14.7572C36.5708 14.5208 36.6644 14.2581 36.7111 13.985C36.7189 13.9396 36.7253 13.8941 36.7304 13.8484C36.7527 13.6509 36.7506 13.4507 36.7241 13.2537C36.7544 13.4493 36.7604 13.65 36.741 13.8494C36.7034 14.2362 36.5721 14.6026 36.3624 14.9056C36.1932 15.2179 35.9315 15.4464 35.6274 15.5482C35.6512 15.5364 35.6747 15.524 35.698 15.5111L35.4573 15.0778ZM35.4573 15.0778C35.6323 15.0228 35.8045 14.8857 35.9227 14.6675L35.9357 14.6435L35.9512 14.621C35.9734 14.589 35.9945 14.5558 36.0145 14.5217L35.9976 14.5118M35.4573 15.0778C35.4569 15.0779 35.4565 15.078 35.4561 15.0781C35.45 15.0801 35.4438 15.0819 35.4375 15.0836C35.4434 15.0805 35.4493 15.0773 35.4552 15.074C35.678 14.9502 35.8661 14.7552 35.9976 14.5118M35.9976 14.5118L36.0149 14.5211C36.0772 14.4146 36.1285 14.2985 36.1674 14.1755C36.158 14.1858 36.1485 14.1961 36.1391 14.2063C36.1013 14.3133 36.054 14.4158 35.9976 14.5118ZM34.7265 15.2992L34.7235 15.3205M34.7265 15.2992L34.7235 15.3205M34.7265 15.2992L34.6751 15.2326L34.7265 15.2992ZM34.7235 15.3205L34.6413 15.2953L34.7235 15.3205ZM34.912 15.3782C34.9056 15.4237 34.8992 15.4692 34.8928 15.5148L34.9199 15.5499C34.9564 15.562 34.9933 15.5721 35.0305 15.5803C35.0708 15.5359 35.0966 15.4863 35.1111 15.4392L34.912 15.3782ZM34.912 15.3782L35.1111 15.4392C35.1309 15.3745 35.1319 15.3066 35.1148 15.2421C35.1113 15.2291 35.107 15.2158 35.1017 15.2025C35.0463 15.213 34.9902 15.2192 34.9339 15.2212C34.9317 15.237 34.9295 15.2528 34.9273 15.2686C34.9261 15.2767 34.925 15.2848 34.9239 15.2929C34.9199 15.3213 34.9159 15.3497 34.912 15.3782ZM36.5589 12.2732C36.559 12.2726 36.5591 12.2719 36.5592 12.2712L36.5589 12.2732ZM36.5592 12.2712C36.7082 11.4309 36.6164 10.5554 36.2944 9.77686L36.151 9.43025L36.1434 9.4119C36.1471 9.40692 36.1507 9.40194 36.1544 9.39697C36.683 8.68038 37.2476 8.00176 37.845 7.36463L36.5592 12.2712ZM36.072 10.6178C36.1715 11.1191 36.1737 11.6466 36.0719 12.1593L36.0698 12.1671C36.1557 11.6706 36.147 11.1612 36.0476 10.674C36.0557 10.6552 36.0638 10.6365 36.072 10.6178ZM35.9371 12.7252C35.9356 12.7301 35.9341 12.735 35.9325 12.7399L35.9396 12.7283L35.9371 12.7252ZM34.4706 14.7721C34.479 14.7186 34.4875 14.6651 34.4961 14.6117C34.5007 14.624 34.5055 14.6358 34.5105 14.6467C34.5049 14.6849 34.4993 14.7231 34.4938 14.7613C34.486 14.7647 34.4782 14.7684 34.4706 14.7721ZM34.7322 15.3067L34.7413 15.3184L34.7322 15.3067ZM34.756 15.3375L34.7507 15.339L34.756 15.3375ZM34.8928 15.5148L34.9198 15.5499C34.9096 15.5465 34.8995 15.543 34.8893 15.5394C34.8905 15.5312 34.8916 15.523 34.8928 15.5148ZM34.7374 15.3248L34.7489 15.3283L34.7374 15.3248ZM35.2451 14.0409C35.3338 14.0915 35.3832 14.1608 35.4075 14.2064C35.4081 14.2075 35.4088 14.2087 35.4094 14.2099C35.3059 14.2956 35.1985 14.375 35.0877 14.4479C35.0849 14.4497 35.0822 14.4515 35.0794 14.4533C35.0701 14.4594 35.0607 14.4654 35.0513 14.4714C35.048 14.4738 35.0447 14.4757 35.0415 14.4772C35.0423 14.4718 35.0431 14.4665 35.0439 14.4611C35.044 14.4608 35.044 14.4605 35.0441 14.4602C35.0462 14.4468 35.0482 14.4334 35.0503 14.42C35.0508 14.4172 35.0512 14.4143 35.0516 14.4115C35.0611 14.3513 35.0707 14.2912 35.0805 14.2313C35.1374 14.17 35.1923 14.1065 35.2451 14.0409Z" fill="#FFEDE4" stroke="#FFEDE4"/>
<mask id="path-7-inside-3_170_939" fill="white">
<path d="M44.0584 2.15112C43.6832 2.41778 43.3497 2.76605 42.9771 3.04214C42.6015 3.33429 42.2046 3.5873 41.791 3.79823L41.7617 3.83485L41.7595 3.88487L41.7856 3.92467L41.8276 3.93547C42.2947 3.85752 42.75 3.70273 43.1797 3.47574C43.6137 3.25127 44.0006 2.91951 44.3136 2.50347C44.4326 2.32551 44.2326 2.02792 44.0584 2.15112Z"/>
</mask>
<path d="M44.0584 2.15112C43.6832 2.41778 43.3497 2.76605 42.9771 3.04214C42.6015 3.33429 42.2046 3.5873 41.791 3.79823L41.7617 3.83485L41.7595 3.88487L41.7856 3.92467L41.8276 3.93547C42.2947 3.85752 42.75 3.70273 43.1797 3.47574C43.6137 3.25127 44.0006 2.91951 44.3136 2.50347C44.4326 2.32551 44.2326 2.02792 44.0584 2.15112Z" fill="#FFEDE4"/>
<path d="M44.0584 2.15112L43.4809 1.33478L43.4792 1.33597L44.0584 2.15112ZM42.9771 3.04214L42.3818 2.23862L42.3723 2.24564L42.363 2.25287L42.9771 3.04214ZM41.791 3.79823L41.3367 2.90735L41.1449 3.00515L41.0104 3.1732L41.791 3.79823ZM41.7617 3.83485L40.981 3.20982L40.7764 3.46541L40.7625 3.79255L41.7617 3.83485ZM41.7595 3.88487L40.7604 3.84257L40.7468 4.16397L40.9232 4.43303L41.7595 3.88487ZM41.7856 3.92467L40.9493 4.47283L41.1615 4.79667L41.5365 4.89314L41.7856 3.92467ZM41.8276 3.93547L41.5785 4.90394L41.7834 4.95667L41.9922 4.92183L41.8276 3.93547ZM43.1797 3.47574L42.7203 2.58746L42.7127 2.5915L43.1797 3.47574ZM44.3136 2.50347L45.1127 3.10461L45.1294 3.08248L45.1448 3.05946L44.3136 2.50347ZM43.4792 1.33597C43.2443 1.50285 43.0313 1.68899 42.8579 1.84086C42.6719 2.00375 42.5285 2.12993 42.3818 2.23862L43.5723 3.84566C43.7983 3.67825 44.0079 3.49225 44.1757 3.34532C44.356 3.18737 44.4973 3.06605 44.6377 2.96626L43.4792 1.33597ZM42.363 2.25287C42.0362 2.50713 41.6927 2.72586 41.3367 2.90735L42.2452 4.6891C42.7166 4.44873 43.1669 4.16145 43.5911 3.8314L42.363 2.25287ZM41.0104 3.1732L40.981 3.20982L42.5423 4.45987L42.5716 4.42325L41.0104 3.1732ZM40.7625 3.79255L40.7604 3.84257L42.7586 3.92716L42.7608 3.87714L40.7625 3.79255ZM40.9232 4.43303L40.9493 4.47283L42.622 3.37651L42.5959 3.3367L40.9232 4.43303ZM41.5365 4.89314L41.5785 4.90394L42.0767 2.967L42.0348 2.9562L41.5365 4.89314ZM41.9922 4.92183C42.5677 4.82578 43.1248 4.63565 43.6468 4.35997L42.7127 2.5915C42.3751 2.76981 42.0217 2.88925 41.663 2.94911L41.9922 4.92183ZM43.6391 4.36398C44.2151 4.06606 44.7156 3.63262 45.1127 3.10461L43.5145 1.90233C43.2857 2.2064 43.0123 2.43648 42.7203 2.5875L43.6391 4.36398ZM45.1448 3.05946C45.5028 2.52418 45.3283 1.94514 45.115 1.64067C44.996 1.47077 44.7949 1.27407 44.4956 1.1775C44.1573 1.06833 43.784 1.12033 43.4809 1.33478L44.636 2.96745C44.42 3.1203 44.1369 3.1633 43.8814 3.08084C43.6649 3.01098 43.539 2.8767 43.4769 2.78805C43.3774 2.64607 43.2434 2.30481 43.4824 1.94748L45.1448 3.05946Z" fill="#FFEDE4" mask="url(#path-7-inside-3_170_939)"/>
<path d="M42.724 4.0475L42.7038 4.09079L42.724 4.0475ZM42.7531 4.07982L42.7071 4.09799L42.7531 4.07982Z" fill="#FFEDE4" stroke="#FFEDE4"/>
<mask id="path-10-inside-4_170_939" fill="white">
<path d="M29.506 15.9828C28.7209 16.6086 27.9419 17.242 27.1874 17.9126C27.3336 17.6493 27.47 17.3793 27.5976 17.1089C27.8863 16.4961 28.147 15.8625 28.3841 15.2201C28.5895 14.5086 28.8881 13.8382 29.2693 13.2329C29.3405 13.1366 29.2157 13.0239 29.1363 13.0888C28.6972 13.5549 28.369 14.1456 28.1839 14.8033C27.9271 15.4473 27.6803 16.0971 27.3916 16.7233C26.9692 17.6631 26.4219 18.5191 25.7698 19.2596L25.409 19.6365L25.1514 19.8785L25.1069 19.9871C24.7137 20.4651 24.4462 21.0642 24.336 21.7137C24.2084 22.4881 24.3453 23.29 24.7176 23.9487C24.8297 24.1327 25.0283 23.9325 24.9804 23.7542C24.7747 23.0605 24.7544 22.3105 24.9222 21.6031C25.154 20.872 25.5627 20.2349 26.0988 19.7688C27.2554 18.5421 28.4156 17.303 29.6258 16.1485C29.7201 16.0585 29.6029 15.9057 29.506 15.9828Z"/>
</mask>
<path d="M29.506 15.9828C28.7209 16.6086 27.9419 17.242 27.1874 17.9126C27.3336 17.6493 27.47 17.3793 27.5976 17.1089C27.8863 16.4961 28.147 15.8625 28.3841 15.2201C28.5895 14.5086 28.8881 13.8382 29.2693 13.2329C29.3405 13.1366 29.2157 13.0239 29.1363 13.0888C28.6972 13.5549 28.369 14.1456 28.1839 14.8033C27.9271 15.4473 27.6803 16.0971 27.3916 16.7233C26.9692 17.6631 26.4219 18.5191 25.7698 19.2596L25.409 19.6365L25.1514 19.8785L25.1069 19.9871C24.7137 20.4651 24.4462 21.0642 24.336 21.7137C24.2084 22.4881 24.3453 23.29 24.7176 23.9487C24.8297 24.1327 25.0283 23.9325 24.9804 23.7542C24.7747 23.0605 24.7544 22.3105 24.9222 21.6031C25.154 20.872 25.5627 20.2349 26.0988 19.7688C27.2554 18.5421 28.4156 17.303 29.6258 16.1485C29.7201 16.0585 29.6029 15.9057 29.506 15.9828Z" fill="#FFEDE4"/>
<path d="M29.506 15.9828L28.8831 15.2005L28.8826 15.2009L29.506 15.9828ZM27.1874 17.9126L26.3131 17.4271L27.8517 18.66L27.1874 17.9126ZM27.5976 17.1089L28.502 17.5356L28.5022 17.5351L27.5976 17.1089ZM28.3841 15.2201L29.3222 15.5665L29.3348 15.5324L29.3449 15.4974L28.3841 15.2201ZM29.2693 13.2329L28.4653 12.6383L28.443 12.6684L28.4231 12.7L29.2693 13.2329ZM29.1363 13.0888L28.5033 12.3146L28.4531 12.3557L28.4085 12.403L29.1363 13.0888ZM28.1839 14.8033L29.1128 15.1737L29.1323 15.1248L29.1465 15.0742L28.1839 14.8033ZM27.3916 16.7233L26.4834 16.3045L26.4795 16.3133L27.3916 16.7233ZM25.7698 19.2596L26.4922 19.9511L26.5066 19.9361L26.5203 19.9205L25.7698 19.2596ZM25.409 19.6365L26.0937 20.3654L26.113 20.3472L26.1314 20.328L25.409 19.6365ZM25.1514 19.8785L24.4668 19.1496L24.3086 19.2981L24.2263 19.4989L25.1514 19.8785ZM25.1069 19.9871L25.8791 20.6224L25.9748 20.506L26.032 20.3666L25.1069 19.9871ZM24.336 21.7137L23.3501 21.5464L23.3494 21.551L24.336 21.7137ZM24.7176 23.9487L23.847 24.4407L23.8551 24.4551L23.8637 24.4692L24.7176 23.9487ZM24.9804 23.7542L25.9461 23.4947L25.9428 23.4823L25.9391 23.47L24.9804 23.7542ZM24.9222 21.6031L23.969 21.3008L23.9578 21.3362L23.9492 21.3723L24.9222 21.6031ZM26.0988 19.7688L26.7549 20.5234L26.7924 20.4909L26.8264 20.4548L26.0988 19.7688ZM29.6258 16.1485L28.9356 15.4249L28.9355 15.4249L29.6258 16.1485ZM28.8826 15.2009C28.094 15.8296 27.2981 16.4763 26.5231 17.1651L27.8517 18.66C28.5857 18.0077 29.3479 17.3876 30.1293 16.7648L28.8826 15.2009ZM28.0616 18.398C28.2204 18.1122 28.3668 17.8221 28.502 17.5356L26.6932 16.6821C26.5732 16.9364 26.4468 17.1864 26.3131 17.4271L28.0616 18.398ZM28.5022 17.5351C28.8052 16.8921 29.0768 16.2314 29.3222 15.5665L27.446 14.8738C27.2172 15.4935 26.9675 16.1 26.693 16.6826L28.5022 17.5351ZM29.3449 15.4974C29.5252 14.8728 29.786 14.289 30.1154 13.7659L28.4231 12.7C27.9901 13.3875 27.6538 14.1443 27.4233 14.9429L29.3449 15.4974ZM30.0733 13.8276C30.4551 13.3113 30.2836 12.7094 29.9652 12.3921C29.6835 12.1113 29.0533 11.8649 28.5033 12.3146L29.7694 13.8629C29.2987 14.2478 28.7706 14.0252 28.5534 13.8087C28.2994 13.5556 28.1547 13.0583 28.4653 12.6383L30.0733 13.8276ZM28.4085 12.403C27.8514 12.9943 27.4471 13.7301 27.2213 14.5323L29.1465 15.0742C29.291 14.561 29.5429 14.1155 29.8642 13.7745L28.4085 12.403ZM27.255 14.4329C26.9897 15.0982 26.7578 15.7097 26.4835 16.3045L28.2997 17.142C28.6029 16.4845 28.8644 15.7965 29.1128 15.1737L27.255 14.4329ZM26.4795 16.3133C26.0963 17.1659 25.6023 17.9366 25.0193 18.5987L26.5203 19.9205C27.2414 19.1016 27.8421 18.1602 28.3037 17.1332L26.4795 16.3133ZM25.0474 18.5681L24.6866 18.945L26.1314 20.328L26.4922 19.9511L25.0474 18.5681ZM24.7244 18.9076L24.4668 19.1496L25.836 20.6074L26.0937 20.3654L24.7244 18.9076ZM24.2263 19.4989L24.1817 19.6075L26.032 20.3666L26.0766 20.258L24.2263 19.4989ZM24.3346 19.3518C23.8234 19.9732 23.4875 20.7365 23.3501 21.5464L25.322 21.8809C25.4049 21.3919 25.6039 20.9569 25.8791 20.6224L24.3346 19.3518ZM23.3494 21.551C23.1861 22.5415 23.358 23.5756 23.847 24.4407L25.5881 23.4566C25.3326 23.0045 25.2307 22.4348 25.3227 21.8763L23.3494 21.551ZM23.8637 24.4692C24.0031 24.6978 24.2715 24.9597 24.6852 25.0128C25.0761 25.0631 25.3825 24.8982 25.5591 24.7472C25.8842 24.469 26.0785 23.9873 25.9461 23.4947L24.0146 24.0137C23.9302 23.6994 24.0491 23.4069 24.2589 23.2274C24.3778 23.1257 24.6165 22.9876 24.9401 23.0291C25.2866 23.0737 25.4881 23.2916 25.5714 23.4282L23.8637 24.4692ZM25.9391 23.47C25.7834 22.9446 25.7675 22.3721 25.8952 21.8339L23.9492 21.3723C23.7413 22.2488 23.766 23.1764 24.0216 24.0384L25.9391 23.47ZM25.8754 21.9053C26.0563 21.3351 26.3686 20.8593 26.7549 20.5234L25.4427 19.0141C24.7568 19.6104 24.2517 20.409 23.969 21.3008L25.8754 21.9053ZM26.8264 20.4548C27.9887 19.2221 29.129 18.0044 30.316 16.8721L28.9355 15.4249C27.7021 16.6016 26.5222 17.8621 25.3712 19.0827L26.8264 20.4548ZM30.316 16.8721C30.7975 16.4128 30.7106 15.77 30.4399 15.4061C30.3047 15.2243 30.0851 15.0484 29.7855 14.9851C29.4571 14.9157 29.1299 15.004 28.8831 15.2005L30.1288 16.7651C29.9305 16.923 29.6543 17.0015 29.3721 16.9419C29.1189 16.8884 28.9409 16.7419 28.8352 16.5999C28.6238 16.3157 28.5483 15.7942 28.9356 15.4249L30.316 16.8721Z" fill="#FFEDE4" mask="url(#path-10-inside-4_170_939)"/>
<mask id="path-12-inside-5_170_939" fill="white">
<path d="M29.4118 34.9264C29.1856 34.5735 28.9055 34.2724 28.6834 33.912C28.4591 33.5478 28.2517 33.1616 28.0534 32.7776C27.8552 32.3936 27.6719 32.0007 27.4929 31.6043C27.2818 31.1894 27.1066 30.7511 26.9698 30.2958C26.8545 29.8358 26.8391 29.3549 26.7036 28.8994C26.5484 28.4511 26.3531 28.023 26.121 27.6222C25.6919 26.7737 25.3524 25.8679 25.1099 24.9245C25.0757 24.797 24.8946 24.8651 24.9187 24.9938C25.1056 25.9516 25.3733 26.8856 25.7178 27.7821C25.9175 28.2513 26.09 28.7355 26.234 29.2317C26.3496 29.7054 26.3593 30.1984 26.5043 30.6654C26.6585 31.1081 26.8407 31.5369 27.0494 31.9481C27.239 32.3558 27.431 32.762 27.6411 33.157C27.8447 33.5458 28.077 33.9132 28.3356 34.2548C28.5816 34.6191 28.879 34.9322 29.2151 35.1805C29.2447 35.2033 29.2805 35.2131 29.3157 35.2079C29.351 35.2027 29.3835 35.1829 29.4074 35.1521C29.4312 35.1213 29.4447 35.0816 29.4455 35.0402C29.4464 34.9988 29.4344 34.9584 29.4118 34.9264Z"/>
</mask>
<path d="M29.4118 34.9264C29.1856 34.5735 28.9055 34.2724 28.6834 33.912C28.4591 33.5478 28.2517 33.1616 28.0534 32.7776C27.8552 32.3936 27.6719 32.0007 27.4929 31.6043C27.2818 31.1894 27.1066 30.7511 26.9698 30.2958C26.8545 29.8358 26.8391 29.3549 26.7036 28.8994C26.5484 28.4511 26.3531 28.023 26.121 27.6222C25.6919 26.7737 25.3524 25.8679 25.1099 24.9245C25.0757 24.797 24.8946 24.8651 24.9187 24.9938C25.1056 25.9516 25.3733 26.8856 25.7178 27.7821C25.9175 28.2513 26.09 28.7355 26.234 29.2317C26.3496 29.7054 26.3593 30.1984 26.5043 30.6654C26.6585 31.1081 26.8407 31.5369 27.0494 31.9481C27.239 32.3558 27.431 32.762 27.6411 33.157C27.8447 33.5458 28.077 33.9132 28.3356 34.2548C28.5816 34.6191 28.879 34.9322 29.2151 35.1805C29.2447 35.2033 29.2805 35.2131 29.3157 35.2079C29.351 35.2027 29.3835 35.1829 29.4074 35.1521C29.4312 35.1213 29.4447 35.0816 29.4455 35.0402C29.4464 34.9988 29.4344 34.9584 29.4118 34.9264Z" fill="#FFEDE4"/>
<path d="M29.4118 34.9264L28.5699 35.466L28.5819 35.4847L28.5947 35.5029L29.4118 34.9264ZM28.6834 33.912L27.8319 34.4364L27.8321 34.4366L28.6834 33.912ZM27.4929 31.6043L28.4043 31.1928L28.3947 31.1715L28.3842 31.1508L27.4929 31.6043ZM26.9698 30.2958L25.9997 30.5388L26.0054 30.5613L26.0121 30.5836L26.9698 30.2958ZM26.7036 28.8994L27.6621 28.6142L27.6558 28.5931L27.6486 28.5722L26.7036 28.8994ZM26.121 27.6222L25.2286 28.0735L25.2414 28.0989L25.2556 28.1235L26.121 27.6222ZM25.1099 24.9245L26.0785 24.6755L26.0758 24.6654L25.1099 24.9245ZM24.9187 24.9938L23.9358 25.1779L23.9372 25.1853L24.9187 24.9938ZM25.7178 27.7821L24.7843 28.1408L24.7907 28.1574L24.7977 28.1738L25.7178 27.7821ZM26.234 29.2317L27.2056 28.9948L27.2004 28.9737L27.1944 28.9528L26.234 29.2317ZM26.5043 30.6654L25.5493 30.9619L25.5543 30.9782L25.5599 30.9943L26.5043 30.6654ZM27.0494 31.9481L27.9562 31.5265L27.9489 31.5109L27.9411 31.4955L27.0494 31.9481ZM27.6411 33.157L28.5271 32.6932L28.5239 32.6873L27.6411 33.157ZM28.3356 34.2548L29.1644 33.6952L29.1493 33.6728L29.133 33.6513L28.3356 34.2548ZM29.2151 35.1805L29.826 34.3888L29.8177 34.3824L29.8094 34.3762L29.2151 35.1805ZM30.2537 34.3868C30.1134 34.1679 29.9588 33.969 29.8397 33.8136C29.7117 33.6466 29.6156 33.5186 29.5348 33.3874L27.8321 34.4366C27.9733 34.6658 28.1283 34.8685 28.2525 35.0305C28.3855 35.204 28.484 35.3321 28.5699 35.466L30.2537 34.3868ZM29.5349 33.3876C29.3303 33.0554 29.1364 32.6953 28.942 32.3189L27.1649 33.2363C27.367 33.6279 27.5879 34.0401 27.8319 34.4364L29.5349 33.3876ZM28.942 32.3189C28.7555 31.9576 28.5805 31.5829 28.4043 31.1928L26.5815 32.0158C26.7634 32.4186 26.9549 32.8297 27.1649 33.2363L28.942 32.3189ZM28.3842 31.1508C28.2007 30.7901 28.0475 30.4074 27.9275 30.0081L26.0121 30.5836C26.1657 31.0948 26.3629 31.5886 26.6016 32.0578L28.3842 31.1508ZM27.9398 30.0529C27.8967 29.8807 27.8713 29.7015 27.8332 29.4476C27.7982 29.214 27.7521 28.9167 27.6621 28.6142L25.7451 29.1846C25.7906 29.3375 25.82 29.5085 25.8554 29.7442C25.8877 29.9596 25.9276 30.2509 25.9997 30.5388L27.9398 30.0529ZM27.6486 28.5722C27.4729 28.0649 27.2512 27.5784 26.9863 27.121L25.2556 28.1235C25.4549 28.4675 25.6238 28.8372 25.7587 29.2266L27.6486 28.5722ZM27.0133 27.171C26.6177 26.3885 26.3034 25.5507 26.0784 24.6755L24.1414 25.1734C24.4014 26.1851 24.7661 27.1589 25.2286 28.0735L27.0133 27.171ZM26.0758 24.6654C25.9992 24.3799 25.7997 24.0971 25.4689 23.9498C25.1653 23.8147 24.8648 23.8442 24.6462 23.9249C24.2174 24.0832 23.82 24.5596 23.9358 25.1779L25.9016 24.8097C25.9933 25.2993 25.6744 25.6773 25.3387 25.8012C25.1667 25.8647 24.9164 25.8931 24.6556 25.777C24.3676 25.6488 24.2035 25.4053 24.1441 25.1835L26.0758 24.6654ZM23.9372 25.1853C24.1351 26.1992 24.4186 27.1892 24.7843 28.1408L26.6512 27.4234C26.3279 26.5819 26.0762 25.704 25.9002 24.8023L23.9372 25.1853ZM24.7977 28.1738C24.9816 28.6057 25.1407 29.0523 25.2737 29.5105L27.1944 28.9528C27.0393 28.4188 26.8535 27.8968 26.6379 27.3904L24.7977 28.1738ZM25.2625 29.4686C25.3061 29.6475 25.33 29.8301 25.3685 30.0949C25.4038 30.3377 25.4513 30.6465 25.5493 30.9619L27.4594 30.369C27.4123 30.2174 27.3824 30.0461 27.3477 29.8073C27.3162 29.5904 27.2775 29.2896 27.2056 28.9948L25.2625 29.4686ZM25.5599 30.9943C25.7286 31.4787 25.9283 31.9488 26.1577 32.4007L27.9411 31.4955C27.753 31.1249 27.5883 30.7376 27.4487 30.3366L25.5599 30.9943ZM26.1427 32.3697C26.3328 32.7787 26.5345 33.206 26.7582 33.6267L28.5239 32.6873C28.3274 32.3179 28.1451 31.9328 27.9562 31.5265L26.1427 32.3697ZM26.7552 33.6208C26.9837 34.0574 27.2456 34.4716 27.5383 34.8583L29.133 33.6513C28.9085 33.3548 28.7056 33.0343 28.527 32.6932L26.7552 33.6208ZM27.5069 34.8144C27.8132 35.2681 28.1886 35.6653 28.6208 35.9847L29.8094 34.3762C29.5695 34.199 29.3501 33.9702 29.1644 33.6952L27.5069 34.8144ZM28.6042 35.9722C28.8368 36.1516 29.143 36.2441 29.4616 36.1972L29.1699 34.2186C29.4179 34.182 29.6527 34.2551 29.826 34.3888L28.6042 35.9722ZM29.4616 36.1972C29.7769 36.1507 30.0318 35.979 30.198 35.7643L28.6167 34.5399C28.7352 34.3867 28.9252 34.2546 29.1699 34.2186L29.4616 36.1972ZM30.198 35.7643C30.3622 35.5523 30.4406 35.3014 30.4453 35.06L28.4457 35.0205C28.4489 34.8619 28.5002 34.6903 28.6167 34.5399L30.198 35.7643ZM30.4453 35.06C30.4501 34.8185 30.3817 34.5665 30.2289 34.3499L28.5947 35.5029C28.487 35.3503 28.4426 35.1791 28.4457 35.0205L30.4453 35.06Z" fill="#FFEDE4" mask="url(#path-12-inside-5_170_939)"/>
<path d="M34.5285 37.898C34.1147 37.7743 33.7074 37.629 33.306 37.4656L33.407 37.4577C33.7911 37.5716 34.1777 37.674 34.5667 37.7647L34.5285 37.898ZM34.5285 37.898C35.7638 38.252 37.024 38.4756 38.2938 38.5663M34.5285 37.898L34.5683 37.765C34.7131 37.7988 34.8583 37.831 35.0038 37.8615C36.0974 38.0997 37.2005 38.2665 38.3079 38.3616L38.2938 38.5663M38.2938 38.5663C40.8355 38.7413 43.386 38.6143 45.9056 38.1873C46.4602 38.1007 47.0136 38.0013 47.5672 37.9018C48.2701 37.7754 48.9731 37.649 49.6786 37.5491C48.6262 37.5789 47.5764 37.6948 46.5368 37.8963L46.5268 37.8982L46.5166 37.8998C46.3033 37.9321 46.0897 37.964 45.8756 37.9953C45.8748 37.9954 45.874 37.9955 45.8731 37.9957C44.8211 38.1492 43.7599 38.2856 42.6891 38.3633C41.2292 38.4874 39.7651 38.4866 38.3084 38.3616L38.2938 38.5663ZM30.9727 36.3012C31.0651 36.3552 31.1577 36.4085 31.2505 36.4611C31.3422 36.3944 31.379 36.3102 31.3925 36.2632C31.397 36.2478 31.4008 36.2285 31.4027 36.2065C31.3034 36.1643 31.2043 36.1213 31.1055 36.0775L30.9727 36.3012ZM30.9727 36.3012L31.1039 36.0768C31.0856 36.0687 31.0673 36.0605 31.049 36.0524C30.9243 35.9933 30.8595 36.1851 30.9427 36.2768C30.944 36.2782 30.9454 36.2797 30.9468 36.2811C30.9543 36.2886 30.9629 36.2954 30.9727 36.3012ZM32.7729 37.5071C32.7578 37.5107 32.7428 37.5142 32.7277 37.5178C32.3166 37.6149 31.9077 37.7116 31.4897 37.775C31.0057 37.8486 30.5158 37.8689 30.0282 37.889M32.7729 37.5071L30.3146 37.6501C30.2165 37.6554 30.1184 37.6601 30.0203 37.6643L30.0282 37.889M32.7729 37.5071L32.3866 37.5372C32.0805 37.561 31.7706 37.5788 31.4623 37.5943C31.4623 37.5943 31.4623 37.5943 31.4623 37.5943C31.2989 37.6025 31.136 37.6101 30.9744 37.6177C30.7513 37.6281 30.5307 37.6384 30.3147 37.6501L32.7729 37.5071ZM30.0282 37.889L30.0189 37.6643C29.2343 37.6974 28.4509 37.6934 27.6722 37.6667L27.6722 37.6667C26.7086 37.6337 25.7427 37.5665 24.7822 37.4912C24.7818 37.4912 24.7814 37.4912 24.781 37.4911C24.4537 37.4655 24.127 37.4389 23.8013 37.4123C23.3381 37.3746 22.8769 37.3371 22.4186 37.3026L22.4083 37.3018L22.3982 37.3006C22.2945 37.2885 22.1908 37.2773 22.087 37.2668C22.0866 37.2667 22.0862 37.2667 22.0858 37.2667C21.8668 37.2445 21.6475 37.226 21.4281 37.211C21.6455 37.2449 21.8633 37.2753 22.0814 37.3023C22.1995 37.3209 22.3176 37.3396 22.4358 37.3583C23.2092 37.4807 23.983 37.6033 24.7603 37.6859C26.5108 37.8829 28.2703 37.9507 30.0282 37.889ZM30.0091 37.3893C30.1072 37.3853 30.204 37.3813 30.2999 37.3769L30.2876 37.1508L30.2999 37.3769C30.6846 37.3593 31.0528 37.3357 31.4146 37.2807L31.4147 37.2807L30.0091 37.3893ZM30.0091 37.3893C29.2333 37.4165 28.4571 37.4182 27.6815 37.3942C26.7249 37.3647 25.7692 37.2963 24.8162 37.1891L24.8162 37.1891L24.8132 37.1888C24.0496 37.1075 23.2896 36.9872 22.5152 36.8646C22.4942 36.8613 22.4732 36.858 22.4523 36.8546C22.4516 36.8545 22.4509 36.8544 22.4502 36.8543C22.3534 36.839 22.2563 36.8237 22.159 36.8084L22.1509 36.8071L22.1428 36.8061C21.9228 36.7789 21.7032 36.7481 21.484 36.7137L30.0091 37.3893ZM19.5513 36.6698C19.5607 36.6695 19.5702 36.6693 19.5796 36.6691L19.5717 36.7005L19.5513 36.6698ZM19.5513 36.6698L19.5123 36.6956M19.5513 36.6698L19.5523 36.7104L19.5123 36.6956M19.5123 36.6956L19.4946 36.7436M19.5123 36.6956L19.5381 36.7345L19.4946 36.7436M19.4946 36.7436L19.5052 36.7944M19.4946 36.7436L19.5382 36.7597L19.5052 36.7944M19.5052 36.7944L19.5399 36.8275M19.5052 36.7944L19.5506 36.7849L19.5399 36.8275M19.5399 36.8275C19.545 36.8287 19.5501 36.83 19.5552 36.8313L19.5547 36.8119L19.5399 36.8275ZM33.1234 36.8469L33.3042 36.9235C33.7532 37.1137 34.2078 37.2801 34.669 37.4182C34.8038 37.4568 34.9389 37.4938 35.0742 37.5292L35.1084 37.3725M33.1234 36.8469L35.0755 37.5295L35.1084 37.3725M33.1234 36.8469C33.7775 37.0569 34.4399 37.2324 35.1084 37.3725M33.1234 36.8469L35.1084 37.3725M33.0594 36.8262L33.0575 36.8274L33.0464 36.822C33.0507 36.8234 33.055 36.8248 33.0594 36.8262ZM50.5882 37.4372C50.5951 37.4365 50.6021 37.4358 50.609 37.4351C50.8022 37.4159 50.7857 37.0561 50.5956 37.0449C50.5871 37.0447 50.5786 37.0446 50.5702 37.0444C50.57 37.0444 50.5697 37.0444 50.5695 37.0444L50.5882 37.4372ZM42.6672 38.0687L42.6499 37.8648L42.6646 38.0688L42.6672 38.0687Z" fill="#FFEDE4" stroke="#FFEDE4"/>
<mask id="path-15-inside-6_170_939" fill="white">
<path d="M63.9151 37.2737C63.5034 37.2193 63.0886 37.2036 62.6747 37.2268L61.4261 37.1805C60.5902 37.1459 59.7553 37.0778 58.9212 37.0102C57.2595 36.8395 55.591 36.7751 53.9232 36.8172C52.9871 36.8433 52.0569 36.9985 51.152 37.2794L51.1093 37.3139L51.0986 37.3732L51.1258 37.4248L51.176 37.4406C52.0202 37.3505 52.8588 37.2573 53.7076 37.2584C54.5379 37.2595 55.3648 37.2828 56.1934 37.3484C57.8621 37.4804 59.524 37.7087 61.1958 37.7855C61.6759 37.8076 62.1534 37.8115 62.6335 37.7887C63.0825 37.8026 63.5311 37.7446 63.9666 37.6163C64.1297 37.5537 64.0471 37.3027 63.9151 37.2737Z"/>
</mask>
<path d="M63.9151 37.2737C63.5034 37.2193 63.0886 37.2036 62.6747 37.2268L61.4261 37.1805C60.5902 37.1459 59.7553 37.0778 58.9212 37.0102C57.2595 36.8395 55.591 36.7751 53.9232 36.8172C52.9871 36.8433 52.0569 36.9985 51.152 37.2794L51.1093 37.3139L51.0986 37.3732L51.1258 37.4248L51.176 37.4406C52.0202 37.3505 52.8588 37.2573 53.7076 37.2584C54.5379 37.2595 55.3648 37.2828 56.1934 37.3484C57.8621 37.4804 59.524 37.7087 61.1958 37.7855C61.6759 37.8076 62.1534 37.8115 62.6335 37.7887C63.0825 37.8026 63.5311 37.7446 63.9666 37.6163C64.1297 37.5537 64.0471 37.3027 63.9151 37.2737Z" fill="#FFEDE4"/>
<path d="M63.9151 37.2737L64.1295 36.2969L64.0881 36.2879L64.0461 36.2823L63.9151 37.2737ZM62.6747 37.2268L62.6377 38.2261L62.6842 38.2278L62.7306 38.2252L62.6747 37.2268ZM61.4261 37.1805L61.3846 38.1797L61.3891 38.1798L61.4261 37.1805ZM58.9212 37.0102L58.819 38.005L58.8297 38.0061L58.8404 38.007L58.9212 37.0102ZM53.9232 36.8172L53.898 35.8175L53.8953 35.8175L53.9232 36.8172ZM51.152 37.2794L50.8555 36.3243L50.6722 36.3812L50.523 36.502L51.152 37.2794ZM51.1093 37.3139L50.4803 36.5365L50.1912 36.7705L50.1252 37.1365L51.1093 37.3139ZM51.0986 37.3732L50.1145 37.1958L50.0535 37.5343L50.2136 37.8387L51.0986 37.3732ZM51.1258 37.4248L50.2408 37.8903L50.4324 38.2548L50.8252 38.3786L51.1258 37.4248ZM51.176 37.4406L50.8754 38.3944L51.0745 38.4571L51.2821 38.435L51.176 37.4406ZM53.7076 37.2584L53.7089 36.2584L53.7088 36.2584L53.7076 37.2584ZM56.1934 37.3484L56.1145 38.3452L56.1145 38.3452L56.1934 37.3484ZM61.1958 37.7855L61.1499 38.7845L61.1499 38.7845L61.1958 37.7855ZM62.6335 37.7887L62.6645 36.7892L62.6253 36.788L62.5862 36.7898L62.6335 37.7887ZM63.9666 37.6163L64.2492 38.5755L64.2875 38.5642L64.3247 38.5499L63.9666 37.6163ZM64.0461 36.2823C63.5726 36.2198 63.0952 36.2017 62.6189 36.2283L62.7306 38.2252C63.082 38.2055 63.4342 38.2189 63.7842 38.2651L64.0461 36.2823ZM62.7117 36.2274L61.4631 36.1812L61.3891 38.1798L62.6377 38.2261L62.7117 36.2274ZM61.4675 36.1814C60.6548 36.1477 59.8399 36.0814 59.0019 36.0135L58.8404 38.007C59.6707 38.0742 60.5257 38.144 61.3846 38.1797L61.4675 36.1814ZM59.0233 36.0155C57.3194 35.8404 55.6083 35.7743 53.898 35.8175L53.9484 37.8168C55.5736 37.7758 57.1995 37.8386 58.819 38.005L59.0233 36.0155ZM53.8953 35.8175C52.8669 35.8463 51.8464 36.0167 50.8555 36.3243L51.4485 38.2344C52.2673 37.9802 53.1072 37.8404 53.9512 37.8168L53.8953 35.8175ZM50.523 36.502L50.4803 36.5365L51.7383 38.0913L51.781 38.0568L50.523 36.502ZM50.1252 37.1365L50.1145 37.1958L52.0828 37.5506L52.0934 37.4913L50.1252 37.1365ZM50.2136 37.8387L50.2408 37.8903L52.0108 36.9593L51.9837 36.9076L50.2136 37.8387ZM50.8252 38.3786L50.8754 38.3944L51.4766 36.4869L51.4264 36.4711L50.8252 38.3786ZM51.2821 38.435C52.1395 38.3434 52.9217 38.2574 53.7063 38.2584L53.7088 36.2584C52.7959 36.2573 51.9009 36.3575 51.0698 36.4463L51.2821 38.435ZM53.7063 38.2584C54.5193 38.2594 55.319 38.2823 56.1145 38.3452L56.2723 36.3515C55.4105 36.2833 54.5565 36.2595 53.7089 36.2584L53.7063 38.2584ZM56.1145 38.3452C57.6897 38.4699 59.473 38.7074 61.1499 38.7845L61.2417 36.7866C59.5749 36.71 58.0344 36.491 56.2723 36.3515L56.1145 38.3452ZM61.1499 38.7845C61.6549 38.8076 62.164 38.8121 62.6809 38.7876L62.5862 36.7898C62.1428 36.8109 61.6969 36.8075 61.2417 36.7866L61.1499 38.7845ZM62.6026 38.7882C63.1587 38.8055 63.7131 38.7335 64.2492 38.5755L63.6839 36.6571C63.3491 36.7557 63.0064 36.7998 62.6645 36.7892L62.6026 38.7882ZM64.3247 38.5499C64.6257 38.4345 64.8576 38.2033 64.9742 37.9124C65.08 37.6483 65.0685 37.396 65.027 37.2122C64.9603 36.9167 64.71 36.4244 64.1295 36.2969L63.7007 38.2504C63.4605 38.1977 63.3096 38.0623 63.2327 37.9698C63.1528 37.8736 63.1015 37.7652 63.0761 37.6526C63.0513 37.543 63.0381 37.367 63.1177 37.1684C63.208 36.9431 63.389 36.7668 63.6084 36.6826L64.3247 38.5499Z" fill="#FFEDE4" mask="url(#path-15-inside-6_170_939)"/>
<path d="M45.8598 33.8994C45.8921 33.9037 45.922 33.9213 45.9441 33.949C45.9662 33.9767 45.9791 34.0127 45.9805 34.0505C45.9818 34.0884 45.9715 34.1255 45.9515 34.1552C45.9314 34.185 45.9028 34.2054 45.871 34.2128M45.8598 33.8994C45.8514 33.8991 45.843 33.8989 45.8345 33.8986L45.8463 34.0005L45.8598 33.8994ZM45.8598 33.8994L45.8561 34.0193L45.855 34.055L45.8545 34.0706L45.8569 34.0914L45.871 34.2128M45.871 34.2128L45.8525 34.1334L45.85 34.2152C45.857 34.2144 45.864 34.2136 45.871 34.2128ZM45.8361 34.0774L45.8373 34.068L45.8345 34.0557L45.8307 34.0395L45.7977 33.8974C45.7168 33.8947 45.6361 33.8916 45.5554 33.8879C45.5469 33.8875 45.5383 33.8871 45.5298 33.8867C45.4928 33.9464 45.4787 34.0102 45.4808 34.0683C45.4828 34.1252 45.5007 34.1881 45.5421 34.2461C45.5533 34.2451 45.5645 34.2441 45.5757 34.2431C45.5757 34.2431 45.5757 34.2431 45.5757 34.2431C45.6563 34.2359 45.7368 34.2278 45.8172 34.2189L45.8361 34.0774ZM45.8361 34.0774L45.8075 34.0581L45.8361 34.0774ZM45.8361 34.0774L45.8402 34.0801L45.8361 34.0774ZM36.5656 32.4228L36.6032 32.3125L36.6507 32.317C37.0465 32.3544 37.4399 32.4223 37.8285 32.5205L37.8285 32.5205L37.8349 32.5221C37.8761 32.5319 37.9173 32.5419 37.9584 32.5519C37.959 32.5521 37.9595 32.5522 37.96 32.5523C38.7561 32.7473 39.5454 32.9859 40.3501 33.2291L40.4076 33.2464C40.4765 33.2673 40.5455 33.2878 40.6145 33.3081C40.6182 33.3092 40.6219 33.3103 40.6256 33.3114C41.2372 33.491 41.8522 33.6511 42.4591 33.809C42.6497 33.8587 42.8395 33.9081 43.0281 33.9578L43.0282 33.9578C43.0882 33.9736 43.1493 33.9901 43.2115 34.0069L43.1873 34.2037M36.5656 32.4228L36.5942 32.3117L36.4164 32.2949L36.2674 32.2997C36.242 32.3006 36.2166 32.3017 36.191 32.303C36.3164 32.3405 36.4413 32.3804 36.5656 32.4228ZM36.5656 32.4228L37.9031 32.7669C38.5486 32.9381 39.1893 33.1338 39.8298 33.3294C40.0675 33.402 40.3053 33.4746 40.5432 33.546C41.4076 33.8494 42.292 34.0694 43.1873 34.2037M43.1873 34.2037C43.5993 34.2543 44.0128 34.2821 44.4265 34.2873C44.0272 34.2283 43.6353 34.122 43.2754 34.0243C43.2557 34.0189 43.2361 34.0136 43.2166 34.0083L43.1873 34.2037ZM33.2783 31.0818C33.4897 30.8657 33.6909 30.6365 33.8809 30.395C34.0327 30.2356 34.157 30.044 34.2472 29.8304L34.4032 29.8789C34.8064 30.0377 35.1778 30.2897 35.4954 30.6198C35.6928 30.825 35.8668 31.0578 36.0137 31.3123C36.0313 31.311 36.0491 31.3098 36.0669 31.3086C35.9399 31.0193 35.7748 30.7595 35.5805 30.538C35.4384 30.3762 35.2808 30.2347 35.1108 30.1171C34.8926 29.9886 34.6678 29.8796 34.4381 29.7902C34.4359 29.7894 34.4337 29.7886 34.4316 29.7877C34.3806 29.768 34.3294 29.7492 34.278 29.7314C34.2401 29.7183 34.2021 29.7057 34.164 29.6937L34.1093 29.7722L33.9625 29.9826L33.8466 30.1486L33.8393 30.1592L33.8314 30.1693C33.8048 30.2035 33.778 30.2375 33.751 30.2712C33.7474 30.2756 33.7439 30.28 33.7404 30.2844C33.5772 30.4868 33.4055 30.6801 33.2257 30.8636C33.1982 30.8921 33.1705 30.9205 33.1428 30.9487L33.2783 31.0818ZM33.2783 31.0818C32.8538 31.514 32.4076 31.9162 31.9419 32.2864C31.521 32.6804 31.0521 32.9918 30.5537 33.2125C30.6001 33.1836 30.646 33.1539 30.6916 33.1235L30.7011 33.1172L30.7102 33.1105C31.1013 32.8231 31.4781 32.5112 31.8389 32.1764C31.8419 32.1736 31.8449 32.1709 31.8479 32.1681C31.8974 32.122 31.9467 32.0755 31.9956 32.0286C32.3762 31.6864 32.7679 31.3307 33.1426 30.949L33.2783 31.0818ZM35.3799 29.6953C35.9873 30.11 36.4479 30.7615 36.6815 31.5327C36.4799 31.06 36.2007 30.6318 35.8557 30.2732C35.6883 30.0992 35.5068 29.943 35.3136 29.807L35.3799 29.6953ZM35.3799 29.6953C35.0847 29.5202 34.7776 29.3768 34.4622 29.2661L34.4006 29.3545L34.5517 29.4015L34.5693 29.407L34.5864 29.4137C34.84 29.5136 35.0814 29.6443 35.3069 29.8022L35.3799 29.6953ZM32.8672 30.515C32.977 30.403 33.0837 30.287 33.1871 30.1672C33.2599 30.1759 33.3328 30.1829 33.406 30.1884C33.2767 30.3472 33.1425 30.5 33.0035 30.6464L32.8672 30.515ZM32.8672 30.515C32.4789 30.9177 32.0667 31.2923 31.6553 31.6622M32.8672 30.515L33.0024 30.6476C32.9755 30.6758 32.9485 30.7039 32.9214 30.7316C32.5538 31.1059 32.1696 31.4566 31.7706 31.7823L31.6553 31.6622M31.6553 31.6622C31.2609 32.0408 30.8464 32.3899 30.4141 32.7076C30.3826 32.7286 30.3509 32.7492 30.319 32.7694C30.3542 32.7542 30.3891 32.7385 30.424 32.7223C30.4242 32.7222 30.4245 32.7221 30.4247 32.722C30.8433 32.5269 31.2399 32.2587 31.6002 31.9214L31.615 31.9076L31.6308 31.895C31.6762 31.8589 31.7214 31.8225 31.7664 31.7858L31.6553 31.6622ZM31.9176 29.2981C32.2618 29.4536 32.6188 29.5651 32.9825 29.631C32.9998 29.6094 33.0169 29.5877 33.0339 29.5658L33.0819 29.4971C33.069 29.4964 33.0562 29.4958 33.0433 29.4953L33.0153 29.4941L32.9876 29.4898C32.6842 29.4424 32.3161 29.356 31.9699 29.1864L31.9176 29.2981ZM31.9176 29.2981L31.9684 29.1857C31.8909 29.1477 31.8145 29.1056 31.7402 29.0587C31.4992 28.9069 31.2787 28.7043 31.116 28.4414C30.9936 28.2434 30.904 28.0113 30.8633 27.7408L30.8603 27.7211L30.8589 27.7012C30.8476 27.5397 30.8444 27.3778 30.8491 27.2164L30.8025 27.2119M31.9176 29.2981C31.5656 29.1335 31.2678 28.8425 31.0673 28.4674C30.8668 28.0923 30.7741 27.6525 30.8025 27.2119M30.8025 27.2119C30.8529 26.6902 30.9482 26.1757 31.0871 25.6763C31.1138 25.5631 31.1407 25.45 31.1679 25.337C31.1446 25.4509 31.1214 25.5649 31.0983 25.6789C31.0983 25.679 31.0982 25.6792 31.0982 25.6793C31.0708 25.8148 31.0436 25.9504 31.0169 26.0857C30.9167 26.4527 30.8605 26.8326 30.8492 27.2149L30.8025 27.2119ZM31.5039 26.2005C31.3727 26.6731 31.3231 27.1713 31.3577 27.6663C31.4961 28.5854 32.3811 28.8891 33.0646 28.9957C33.5097 29.0147 33.9498 29.096 34.3757 29.2367L33.5771 29.1971C33.4034 29.1885 33.2303 29.1683 33.0586 29.1366C33.0535 29.1357 33.0483 29.1347 33.0431 29.1337C32.7311 29.0748 32.424 28.978 32.1267 28.8439C31.883 28.7291 31.6624 28.52 31.5083 28.2317C31.4171 28.0612 31.3538 27.871 31.3217 27.6717C31.3216 27.6708 31.3214 27.6698 31.3212 27.6689C31.2996 27.5329 31.2925 27.3927 31.301 27.2517C31.3358 26.8944 31.393 26.541 31.4719 26.1942L31.5039 26.2005ZM31.5039 26.2005C31.5535 25.9486 31.6046 25.6971 31.656 25.4457C31.6284 25.5606 31.601 25.6757 31.5738 25.791L31.5715 25.8007L31.5689 25.8103C31.5338 25.9364 31.5016 26.0637 31.4724 26.1918L31.5039 26.2005ZM32.4423 20.826C32.452 20.7971 32.4709 20.7737 32.4951 20.7608C32.5193 20.7479 32.5469 20.7465 32.572 20.7569C32.5971 20.7673 32.6177 20.7886 32.6295 20.8164C32.6385 20.8375 32.6418 20.8611 32.6393 20.8842L32.5462 20.8567L32.5394 20.8547L32.5324 20.8526L32.4423 20.826ZM32.4423 20.826C32.4399 20.8342 32.4375 20.8424 32.435 20.8506C32.4347 20.8518 32.4343 20.853 32.4339 20.8542C32.4288 20.8715 32.4237 20.8887 32.4186 20.9059C32.39 21.0024 32.3612 21.0987 32.3324 21.195C32.3475 21.2038 32.3636 21.2118 32.3808 21.2189C32.435 21.2413 32.4924 21.2514 32.549 21.2498C32.5706 21.1616 32.5926 21.0735 32.6149 20.9856C32.6216 20.959 32.6284 20.9324 32.6352 20.9058C32.6365 20.9011 32.6375 20.8963 32.6383 20.8916L32.5488 20.8616L32.5344 20.8568L32.5311 20.8557L32.4423 20.826ZM44.4668 33.7877C44.1113 33.7327 43.766 33.6391 43.4186 33.545C43.3311 33.5212 43.2435 33.4975 43.1556 33.4743C42.9636 33.4237 42.7715 33.3737 42.5796 33.3237C41.902 33.1473 41.2252 32.9712 40.5522 32.7678L40.4888 32.7487C39.6464 32.494 38.8042 32.2395 37.951 32.0357C37.7028 31.973 37.4526 31.9219 37.201 31.8824C37.1902 31.9294 37.175 31.9757 37.1554 32.0204L36.8198 31.8729L36.8644 31.9833L37.8971 32.2491L37.8999 32.2498L38.0277 32.2827L38.0312 32.2836C38.6864 32.4573 39.3407 32.6572 39.984 32.8537C40.1503 32.9045 40.3159 32.955 40.4806 33.0049C40.5495 33.0257 40.6183 33.0465 40.6868 33.067L40.6979 33.0704L40.7089 33.0742C41.4919 33.3491 42.2914 33.553 43.1003 33.6841C43.1003 33.6841 43.1003 33.6841 43.1003 33.6841C43.1518 33.6925 43.2033 33.7005 43.2548 33.7083C43.6578 33.7575 44.0622 33.7839 44.4668 33.7877ZM35.3455 32.0882L35.2255 31.969L35.3455 32.0882C35.3021 32.0791 35.2587 32.0703 35.2152 32.0618C35.2094 32.0607 35.2036 32.0595 35.1978 32.0584C35.1976 32.0584 35.1975 32.0583 35.1974 32.0583C35.177 32.0557 35.1584 32.044 35.1454 32.0256C35.1324 32.0072 35.1261 31.9836 35.1279 31.9599C35.1296 31.9362 35.1392 31.9142 35.1547 31.8987C35.1702 31.8831 35.1902 31.8752 35.2106 31.8766C35.214 31.8765 35.2173 31.8765 35.2206 31.8764C35.2247 31.8763 35.2287 31.8761 35.2328 31.876C35.2773 31.8747 35.3217 31.8726 35.3659 31.8699C35.4476 31.8651 35.5289 31.8583 35.6099 31.8509C35.625 31.8997 35.63 31.9493 35.6266 31.9964C35.6231 32.0436 35.6107 32.0936 35.5872 32.1419C35.5068 32.123 35.4263 32.1052 35.3455 32.0882ZM33.5597 29.5488C33.6412 29.5623 33.7224 29.5781 33.8033 29.5963L33.7866 29.636C33.762 29.6942 33.7343 29.7497 33.7038 29.8022C33.6691 29.8619 33.6308 29.9178 33.5895 29.9693C33.5875 29.9718 33.5855 29.9743 33.5835 29.9768C33.568 29.9958 33.5521 30.0143 33.5358 30.0321L33.5402 29.9431L33.5406 29.9351L33.5524 29.6965L33.2891 29.5129C33.3796 29.522 33.4698 29.534 33.5597 29.5488ZM29.1189 33.585C29.1888 33.5788 29.2584 33.571 29.3277 33.5616L29.268 33.2679C29.2476 33.2746 29.227 33.2812 29.2065 33.2876C29.1242 33.3133 29.0413 33.3366 28.9578 33.3575L28.9428 33.4671L28.9419 33.4738L28.9441 33.4829L28.9469 33.4946L28.9712 33.5954C29.0205 33.5928 29.0698 33.5893 29.1189 33.585C29.1189 33.585 29.1189 33.585 29.1189 33.585ZM28.925 33.5977C28.9404 33.597 28.9558 33.5963 28.9711 33.5954L28.9469 33.4946L28.9441 33.4829L28.9419 33.4738L28.9407 33.483L28.9381 33.5016L28.925 33.5977Z" fill="#FFEDE4" stroke="#FFEDE4"/>
<mask id="path-18-inside-7_170_939" fill="white">
<path d="M57.8787 34.8191C56.8904 34.5791 55.8857 34.4425 54.9062 34.1497C53.9632 33.868 53.0308 33.5394 52.0944 33.2305C51.6502 33.0703 51.193 32.9639 50.7301 32.9129C50.2325 32.8819 49.7335 32.9085 49.2405 32.9926C48.7421 33.0711 48.2492 33.1911 47.7655 33.3517C47.2973 33.4788 46.839 33.6515 46.3957 33.8681C46.3804 33.877 46.3683 33.8919 46.3616 33.9102C46.3549 33.9285 46.354 33.949 46.3591 33.968C46.3641 33.9869 46.3748 34.0032 46.3893 34.0139C46.4037 34.0245 46.4209 34.0288 46.4378 34.026C46.9323 33.9297 47.4128 33.7636 47.9106 33.6856C48.3788 33.6121 48.8481 33.5611 49.3194 33.5233C49.8372 33.4715 50.3583 33.4869 50.8732 33.5693C51.3258 33.6619 51.7719 33.7929 52.2081 33.9613C53.1208 34.2827 54.0493 34.54 54.9885 34.732C55.932 34.9657 56.8896 35.1135 57.8528 35.1743C57.8932 35.1783 57.9334 35.1634 57.9644 35.1329C57.9954 35.1025 58.0148 35.0589 58.0182 35.0118C58.0217 34.9647 58.0089 34.9179 57.9827 34.8818C57.9566 34.8456 57.9192 34.8231 57.8787 34.8191Z"/>
</mask>
<path d="M57.8787 34.8191C56.8904 34.5791 55.8857 34.4425 54.9062 34.1497C53.9632 33.868 53.0308 33.5394 52.0944 33.2305C51.6502 33.0703 51.193 32.9639 50.7301 32.9129C50.2325 32.8819 49.7335 32.9085 49.2405 32.9926C48.7421 33.0711 48.2492 33.1911 47.7655 33.3517C47.2973 33.4788 46.839 33.6515 46.3957 33.8681C46.3804 33.877 46.3683 33.8919 46.3616 33.9102C46.3549 33.9285 46.354 33.949 46.3591 33.968C46.3641 33.9869 46.3748 34.0032 46.3893 34.0139C46.4037 34.0245 46.4209 34.0288 46.4378 34.026C46.9323 33.9297 47.4128 33.7636 47.9106 33.6856C48.3788 33.6121 48.8481 33.5611 49.3194 33.5233C49.8372 33.4715 50.3583 33.4869 50.8732 33.5693C51.3258 33.6619 51.7719 33.7929 52.2081 33.9613C53.1208 34.2827 54.0493 34.54 54.9885 34.732C55.932 34.9657 56.8896 35.1135 57.8528 35.1743C57.8932 35.1783 57.9334 35.1634 57.9644 35.1329C57.9954 35.1025 58.0148 35.0589 58.0182 35.0118C58.0217 34.9647 58.0089 34.9179 57.9827 34.8818C57.9566 34.8456 57.9192 34.8231 57.8787 34.8191Z" fill="#FFEDE4"/>
<path d="M57.8787 34.8191L57.6427 35.7908L57.7106 35.8073L57.7801 35.8142L57.8787 34.8191ZM54.9062 34.1497L55.1926 33.1916L55.1925 33.1916L54.9062 34.1497ZM52.0944 33.2305L51.7552 34.1712L51.7681 34.1758L51.7811 34.1801L52.0944 33.2305ZM50.7301 32.9129L50.8395 31.9189L50.816 31.9164L50.7924 31.9149L50.7301 32.9129ZM49.2405 32.9926L49.3961 33.9805L49.4085 33.9784L49.2405 32.9926ZM47.7655 33.3517L48.0274 34.3168L48.0542 34.3095L48.0806 34.3008L47.7655 33.3517ZM46.3957 33.8681L45.9567 32.9697L45.9248 32.9852L45.8941 33.003L46.3957 33.8681ZM46.4378 34.026L46.6008 35.0126L46.615 35.0103L46.6291 35.0075L46.4378 34.026ZM47.9106 33.6856L48.0655 34.6735L48.0656 34.6735L47.9106 33.6856ZM49.3194 33.5233L49.3995 34.52L49.4092 34.5193L49.4189 34.5183L49.3194 33.5233ZM50.8732 33.5693L51.0736 32.5896L51.0525 32.5853L51.0313 32.5819L50.8732 33.5693ZM52.2081 33.9613L51.8479 34.8942L51.8618 34.8996L51.876 34.9045L52.2081 33.9613ZM54.9885 34.732L55.2289 33.7613L55.2089 33.7563L55.1887 33.7522L54.9885 34.732ZM57.8528 35.1743L57.9514 34.1791L57.9336 34.1774L57.9157 34.1763L57.8528 35.1743ZM58.1147 33.8473C57.596 33.7214 57.0674 33.6213 56.5877 33.5241C56.0956 33.4244 55.6366 33.3244 55.1926 33.1916L54.6198 35.1078C55.1553 35.2679 55.6884 35.3825 56.1906 35.4843C56.7052 35.5886 57.1731 35.6768 57.6427 35.7908L58.1147 33.8473ZM55.1925 33.1916C54.2673 32.9151 53.37 32.5983 52.4077 32.2808L51.7811 34.1801C52.6916 34.4805 53.6592 34.8208 54.6199 35.1079L55.1925 33.1916ZM52.4336 32.2897C51.9162 32.1032 51.3819 31.9787 50.8395 31.9189L50.6207 33.9069C51.0041 33.9491 51.3842 34.0374 51.7552 34.1712L52.4336 32.2897ZM50.7924 31.9149C50.2176 31.879 49.6413 31.9098 49.0724 32.0068L49.4085 33.9784C49.8257 33.9072 50.2474 33.8847 50.6678 33.911L50.7924 31.9149ZM49.0848 32.0048C48.5318 32.0919 47.9856 32.225 47.4504 32.4026L48.0806 34.3008C48.5128 34.1573 48.9524 34.0503 49.3961 33.9804L49.0848 32.0048ZM47.5036 32.3866C46.9733 32.5305 46.4559 32.7257 45.9567 32.9697L46.8347 34.7666C47.2222 34.5773 47.6212 34.427 48.0274 34.3168L47.5036 32.3866ZM45.8941 33.003C45.6556 33.1413 45.5011 33.3523 45.4228 33.5658L47.3004 34.2546C47.2355 34.4316 47.1052 34.6127 46.8972 34.7333L45.8941 33.003ZM45.4228 33.5658C45.3446 33.7791 45.3353 34.0099 45.3929 34.2257L47.3253 33.7102C47.3727 33.888 47.3653 34.0779 47.3004 34.2546L45.4228 33.5658ZM45.3929 34.2257C45.4505 34.4416 45.5807 34.6601 45.7958 34.8187L46.9827 33.209C47.169 33.3463 47.2778 33.5323 47.3253 33.7102L45.3929 34.2257ZM45.7958 34.8187C46.0163 34.9813 46.3041 35.0617 46.6008 35.0126L46.2748 33.0394C46.5377 32.9959 46.7911 33.0677 46.9827 33.209L45.7958 34.8187ZM46.6291 35.0075C46.914 34.952 47.1941 34.8765 47.424 34.8169C47.6675 34.7538 47.8699 34.7042 48.0655 34.6735L47.7558 32.6976C47.4535 32.745 47.1668 32.8175 46.922 32.8809C46.6634 32.948 46.4561 33.0036 46.2465 33.0445L46.6291 35.0075ZM48.0656 34.6735C48.5031 34.6049 48.9465 34.5564 49.3995 34.52L49.2393 32.5265C48.7497 32.5658 48.2546 32.6194 47.7557 32.6976L48.0656 34.6735ZM49.4189 34.5183C49.8507 34.4751 50.2853 34.4879 50.7152 34.5567L51.0313 32.5819C50.4314 32.4859 49.8236 32.4678 49.2198 32.5282L49.4189 34.5183ZM50.6729 34.549C51.0703 34.6303 51.463 34.7455 51.8479 34.8942L52.5683 33.0284C52.0809 32.8402 51.5813 32.6934 51.0736 32.5896L50.6729 34.549ZM51.876 34.9045C52.8314 35.2409 53.8039 35.5105 54.7882 35.7117L55.1887 33.7522C54.2947 33.5695 53.4103 33.3244 52.5402 33.0181L51.876 34.9045ZM54.748 35.7026C55.7493 35.9506 56.7664 36.1078 57.7899 36.1723L57.9157 34.1763C57.0128 34.1193 56.1146 33.9807 55.2289 33.7613L54.748 35.7026ZM57.7542 36.1694C58.1125 36.2049 58.4396 36.0679 58.6651 35.8464L57.2636 34.4195C57.4272 34.2589 57.6739 34.1516 57.9514 34.1791L57.7542 36.1694ZM58.6651 35.8464C58.8851 35.6303 58.9961 35.3517 59.0156 35.0846L57.0209 34.9389C57.0335 34.7661 57.1058 34.5746 57.2636 34.4195L58.6651 35.8464ZM59.0156 35.0846C59.0351 34.8175 58.9656 34.5341 58.7928 34.2954L57.1727 35.4681C57.0522 35.3017 57.0082 35.1119 57.0209 34.9389L59.0156 35.0846ZM58.7928 34.2954C58.6173 34.053 58.3323 33.8591 57.9774 33.824L57.7801 35.8142C57.506 35.787 57.2958 35.6383 57.1727 35.4681L58.7928 34.2954Z" fill="#FFEDE4" mask="url(#path-18-inside-7_170_939)"/>
<mask id="path-20-inside-8_170_939" fill="white">
<path d="M63.6903 36.8525C63.5818 36.5305 63.2224 36.3535 62.9677 36.226C62.6569 36.0816 62.3382 35.9615 62.0138 35.8665C61.3568 35.7217 60.7543 35.3442 60.2884 34.7857C59.8925 34.2111 59.6372 33.3937 58.9749 33.1641C58.6399 33.0981 58.2955 33.1577 57.9914 33.3342C57.6873 33.5108 57.4392 33.7953 57.2829 34.1467L57.2715 34.2092L57.3014 34.2627L57.3551 34.276L57.401 34.2411C57.6374 33.8917 57.9728 33.6517 58.3472 33.564C58.4982 33.5482 58.6504 33.5738 58.7914 33.6386C58.9325 33.7034 59.0587 33.8057 59.1598 33.9373C59.5829 34.4569 59.7617 35.1572 60.2586 35.6111C60.7593 35.9813 61.3201 36.2275 61.906 36.3345C62.199 36.4173 62.4874 36.5206 62.7698 36.6436C63.0208 36.8124 63.2833 36.957 63.5547 37.076C63.6629 37.1014 63.7239 36.9501 63.6903 36.8525Z"/>
</mask>
<path d="M63.6903 36.8525C63.5818 36.5305 63.2224 36.3535 62.9677 36.226C62.6569 36.0816 62.3382 35.9615 62.0138 35.8665C61.3568 35.7217 60.7543 35.3442 60.2884 34.7857C59.8925 34.2111 59.6372 33.3937 58.9749 33.1641C58.6399 33.0981 58.2955 33.1577 57.9914 33.3342C57.6873 33.5108 57.4392 33.7953 57.2829 34.1467L57.2715 34.2092L57.3014 34.2627L57.3551 34.276L57.401 34.2411C57.6374 33.8917 57.9728 33.6517 58.3472 33.564C58.4982 33.5482 58.6504 33.5738 58.7914 33.6386C58.9325 33.7034 59.0587 33.8057 59.1598 33.9373C59.5829 34.4569 59.7617 35.1572 60.2586 35.6111C60.7593 35.9813 61.3201 36.2275 61.906 36.3345C62.199 36.4173 62.4874 36.5206 62.7698 36.6436C63.0208 36.8124 63.2833 36.957 63.5547 37.076C63.6629 37.1014 63.7239 36.9501 63.6903 36.8525Z" fill="#FFEDE4"/>
<path d="M63.6903 36.8525L62.7427 37.1719L62.7447 37.1778L63.6903 36.8525ZM62.9677 36.226L63.4152 35.3317L63.4022 35.3252L63.389 35.3191L62.9677 36.226ZM62.0138 35.8665L62.2947 34.9068L62.2622 34.8973L62.2291 34.89L62.0138 35.8665ZM60.2884 34.7857L59.4649 35.353L59.491 35.3909L59.5205 35.4262L60.2884 34.7857ZM58.9749 33.1641L59.3023 32.2193L59.2366 32.1965L59.1683 32.183L58.9749 33.1641ZM57.2829 34.1467L56.3693 33.7402L56.3205 33.8498L56.299 33.9679L57.2829 34.1467ZM57.2715 34.2092L56.2876 34.0304L56.2235 34.3835L56.3985 34.6968L57.2715 34.2092ZM57.3014 34.2627L56.4284 34.7503L56.6402 35.1296L57.062 35.2336L57.3014 34.2627ZM57.3551 34.276L57.1157 35.2469L57.5789 35.3611L57.9591 35.0729L57.3551 34.276ZM57.401 34.2411L58.005 35.0381L58.1367 34.9383L58.2292 34.8015L57.401 34.2411ZM58.3472 33.564L58.2435 32.5694L58.1806 32.5759L58.119 32.5904L58.3472 33.564ZM59.1598 33.9373L58.367 34.5467L58.3755 34.5578L58.3843 34.5686L59.1598 33.9373ZM60.2586 35.6111L59.5842 36.3494L59.6225 36.3844L59.6641 36.4152L60.2586 35.6111ZM61.906 36.3345L62.1783 35.3722L62.1325 35.3593L62.0856 35.3507L61.906 36.3345ZM62.7698 36.6436L63.3277 35.8137L63.2524 35.7631L63.1692 35.7269L62.7698 36.6436ZM63.5547 37.076L63.1531 37.9918L63.2369 38.0285L63.3259 38.0495L63.5547 37.076ZM64.6379 36.5331C64.4931 36.1034 64.2006 35.8273 63.9801 35.6635C63.7624 35.5019 63.5283 35.3883 63.4152 35.3317L62.5202 37.1203C62.5879 37.1542 62.6382 37.1794 62.6872 37.2066C62.7348 37.233 62.7666 37.2536 62.7876 37.2691C62.8376 37.3063 62.779 37.2796 62.7427 37.1719L64.6379 36.5331ZM63.389 35.3191C63.0335 35.1539 62.6679 35.0161 62.2947 34.9068L61.7328 36.8263C62.0086 36.907 62.2804 37.0094 62.5464 37.1329L63.389 35.3191ZM62.2291 34.89C61.8065 34.7968 61.3926 34.5483 61.0562 34.1451L59.5205 35.4262C60.116 36.1401 60.9072 36.6465 61.7984 36.8431L62.2291 34.89ZM61.1118 34.2183C61.0429 34.1182 60.9735 33.9978 60.8823 33.8345C60.7986 33.6847 60.6914 33.4893 60.5726 33.3045C60.3393 32.9419 59.9558 32.4457 59.3023 32.2193L58.6474 34.109C58.6563 34.1121 58.7315 34.1393 58.8905 34.3865C58.9677 34.5066 59.04 34.6376 59.1363 34.8099C59.2249 34.9686 59.3359 35.1658 59.4649 35.353L61.1118 34.2183ZM59.1683 32.183C58.5873 32.0685 57.9965 32.1749 57.4892 32.4695L58.4936 34.199C58.5945 34.1404 58.6924 34.1277 58.7814 34.1453L59.1683 32.183ZM57.4892 32.4695C56.986 32.7617 56.6027 33.2155 56.3693 33.7402L58.1965 34.5533C58.2758 34.3751 58.3886 34.26 58.4936 34.199L57.4892 32.4695ZM56.299 33.9679L56.2876 34.0304L58.2554 34.388L58.2668 34.3255L56.299 33.9679ZM56.3985 34.6968L56.4284 34.7503L58.1745 33.7751L58.1446 33.7216L56.3985 34.6968ZM57.062 35.2336L57.1157 35.2469L57.5945 33.305L57.5408 33.2918L57.062 35.2336ZM57.9591 35.0729L58.005 35.0381L56.797 33.4442L56.751 33.479L57.9591 35.0729ZM58.2292 34.8015C58.3396 34.6385 58.4705 34.5622 58.5754 34.5376L58.119 32.5904C57.4751 32.7413 56.9353 33.145 56.5728 33.6807L58.2292 34.8015ZM58.4509 34.5586C58.4195 34.5618 58.392 34.5555 58.374 34.5473L59.2089 32.7299C58.9088 32.592 58.577 32.5346 58.2435 32.5694L58.4509 34.5586ZM58.374 34.5473C58.3573 34.5396 58.3577 34.5347 58.367 34.5467L59.9527 33.3279C59.7596 33.0767 59.5077 32.8672 59.2089 32.7299L58.374 34.5473ZM58.3843 34.5686C58.5196 34.7348 58.6151 34.9274 58.8009 35.2728C58.963 35.574 59.1992 35.9978 59.5842 36.3494L60.933 34.8727C60.8211 34.7705 60.7194 34.6173 60.5621 34.325C60.4286 34.0768 60.2231 33.6595 59.9353 33.306L58.3843 34.5686ZM59.6641 36.4152C60.2819 36.8719 60.9834 37.1826 61.7264 37.3182L62.0856 35.3507C61.6568 35.2724 61.2368 35.0906 60.8531 34.807L59.6641 36.4152ZM61.6338 37.2967C61.8828 37.3672 62.1288 37.4551 62.3703 37.5604L63.1692 35.7269C62.846 35.586 62.5151 35.4675 62.1783 35.3722L61.6338 37.2967ZM62.2118 37.4735C62.5113 37.6748 62.8261 37.8484 63.1531 37.9918L63.9562 36.1601C63.7406 36.0656 63.5304 35.95 63.3277 35.8137L62.2118 37.4735ZM63.3259 38.0495C63.9885 38.2051 64.4149 37.7536 64.5611 37.4751C64.6988 37.2128 64.7522 36.8652 64.6359 36.5272L62.7447 37.1778C62.662 36.9374 62.7017 36.7143 62.7902 36.5456C62.8405 36.4498 62.9385 36.311 63.1153 36.2059C63.312 36.089 63.5524 36.0482 63.7834 36.1025L63.3259 38.0495Z" fill="#FFEDE4" mask="url(#path-20-inside-8_170_939)"/>
<mask id="path-22-inside-9_170_939" fill="white">
<path d="M27.0551 31.422L26.5963 31.4131C24.0501 31.4239 21.5115 31.7368 19.0198 32.3468C17.4685 32.7052 15.9313 33.1665 14.3661 33.4406C14.1755 33.4741 14.2114 33.8318 14.4017 33.8293C15.7914 33.7539 17.1725 33.532 18.5279 33.1665C19.7764 32.8837 21.025 32.6154 22.2876 32.4314C23.9082 32.1865 25.5424 32.0852 27.1761 32.1283C27.1104 31.8997 27.0697 31.6624 27.0551 31.422Z"/>
</mask>
<path d="M27.0551 31.422L26.5963 31.4131C24.0501 31.4239 21.5115 31.7368 19.0198 32.3468C17.4685 32.7052 15.9313 33.1665 14.3661 33.4406C14.1755 33.4741 14.2114 33.8318 14.4017 33.8293C15.7914 33.7539 17.1725 33.532 18.5279 33.1665C19.7764 32.8837 21.025 32.6154 22.2876 32.4314C23.9082 32.1865 25.5424 32.0852 27.1761 32.1283C27.1104 31.8997 27.0697 31.6624 27.0551 31.422Z" fill="#FFEDE4"/>
<path d="M27.0551 31.422L28.0532 31.3612L27.9971 30.44L27.0744 30.4222L27.0551 31.422ZM26.5963 31.4131L26.6157 30.4133L26.6039 30.413L26.5921 30.4131L26.5963 31.4131ZM19.0198 32.3468L19.2449 33.3212L19.2576 33.3181L19.0198 32.3468ZM14.3661 33.4406L14.1936 32.4556L14.1934 32.4557L14.3661 33.4406ZM14.4017 33.8293L14.4148 34.8292L14.4353 34.8289L14.4559 34.8278L14.4017 33.8293ZM18.5279 33.1665L18.307 32.1912L18.2872 32.1957L18.2675 32.201L18.5279 33.1665ZM22.2876 32.4314L22.4318 33.421L22.437 33.4202L22.2876 32.4314ZM27.1761 32.1283L27.1497 33.1279L28.5143 33.1639L28.1372 31.852L27.1761 32.1283ZM27.0744 30.4222L26.6157 30.4133L26.577 32.4129L27.0357 32.4218L27.0744 30.4222ZM26.5921 30.4131C23.9666 30.4243 21.3496 30.7469 18.782 31.3755L19.2576 33.3181C21.6735 32.7266 24.1337 32.4236 26.6006 32.4131L26.5921 30.4131ZM18.7947 31.3724C17.1502 31.7524 15.7324 32.1861 14.1936 32.4556L14.5386 34.4256C16.1301 34.1469 17.7868 33.658 19.2449 33.3211L18.7947 31.3724ZM14.1934 32.4557C13.8025 32.5242 13.5278 32.7734 13.3831 33.0435C13.2515 33.289 13.2263 33.5424 13.2456 33.7437C13.2649 33.9451 13.3374 34.187 13.5102 34.4015C13.6992 34.6362 14.0139 34.8344 14.4148 34.8292L14.3886 32.8293C14.6943 32.8253 14.9332 32.9798 15.0679 33.147C15.1864 33.2942 15.2262 33.4451 15.2365 33.5532C15.2468 33.6612 15.2366 33.819 15.1459 33.9882C15.0421 34.1818 14.8344 34.3738 14.5388 34.4256L14.1934 32.4557ZM14.4559 34.8278C15.9159 34.7486 17.3661 34.5155 18.7883 34.132L18.2675 32.201C16.9789 32.5485 15.667 32.7591 14.3475 32.8307L14.4559 34.8278ZM18.7489 34.1418C19.9934 33.8598 21.2102 33.599 22.4318 33.4209L22.1434 31.4419C20.8399 31.6318 19.5594 31.9075 18.307 32.1912L18.7489 34.1418ZM22.437 33.4202C23.9996 33.1841 25.5749 33.0864 27.1497 33.1279L27.2025 31.1286C25.5098 31.084 23.8167 31.189 22.1382 31.4426L22.437 33.4202ZM28.1372 31.852C28.0919 31.6946 28.0635 31.5296 28.0532 31.3612L26.0569 31.4828C26.076 31.7952 26.1289 32.1049 26.215 32.4046L28.1372 31.852Z" fill="#FFEDE4" mask="url(#path-22-inside-9_170_939)"/>
<mask id="path-24-inside-10_170_939" fill="white">
<path d="M1.096 34.5736C1.50984 34.5981 1.9247 34.5837 2.33656 34.5307L3.5852 34.4857C4.42119 34.4592 5.25825 34.4664 6.0944 34.4729C7.76197 34.5221 9.43061 34.4647 11.0928 34.301C12.0257 34.2064 12.9457 33.9834 13.8336 33.6368L13.8774 33.6L13.886 33.5378L13.8543 33.4868L13.801 33.4768C12.9632 33.6285 12.1313 33.7826 11.2842 33.8434C10.4553 33.903 9.62897 33.9399 8.79847 33.935C7.12603 33.9248 5.45512 33.8184 3.78237 33.8639C3.30196 33.8768 2.82521 33.9078 2.34785 33.9655C1.89896 33.9844 1.45443 34.075 1.02672 34.2349C0.866632 34.3097 0.962623 34.5544 1.096 34.5736Z"/>
</mask>
<path d="M1.096 34.5736C1.50984 34.5981 1.9247 34.5837 2.33656 34.5307L3.5852 34.4857C4.42119 34.4592 5.25825 34.4664 6.0944 34.4729C7.76197 34.5221 9.43061 34.4647 11.0928 34.301C12.0257 34.2064 12.9457 33.9834 13.8336 33.6368L13.8774 33.6L13.886 33.5378L13.8543 33.4868L13.801 33.4768C12.9632 33.6285 12.1313 33.7826 11.2842 33.8434C10.4553 33.903 9.62897 33.9399 8.79847 33.935C7.12603 33.9248 5.45512 33.8184 3.78237 33.8639C3.30196 33.8768 2.82521 33.9078 2.34785 33.9655C1.89896 33.9844 1.45443 34.075 1.02672 34.2349C0.866632 34.3097 0.962623 34.5544 1.096 34.5736Z" fill="#FFEDE4"/>
<path d="M1.096 34.5736L0.953522 35.5633L0.995017 35.5693L1.03687 35.5718L1.096 34.5736ZM2.33656 34.5307L2.30056 33.5314L2.25453 33.533L2.20885 33.5389L2.33656 34.5307ZM3.5852 34.4857L3.55353 33.4862L3.54921 33.4864L3.5852 34.4857ZM6.0944 34.4729L6.12385 33.4734L6.11306 33.473L6.10226 33.473L6.0944 34.4729ZM11.0928 34.301L11.1908 35.2962L11.1937 35.2959L11.0928 34.301ZM13.8336 33.6368L14.1973 34.5684L14.3514 34.5082L14.478 34.4016L13.8336 33.6368ZM13.8774 33.6L14.5217 34.3647L14.8156 34.1171L14.868 33.7365L13.8774 33.6ZM13.886 33.5378L14.8766 33.6744L14.9259 33.3169L14.7356 33.0103L13.886 33.5378ZM13.8543 33.4868L14.7039 32.9594L14.4714 32.5849L14.0383 32.5039L13.8543 33.4868ZM13.801 33.4768L13.9849 32.4939L13.804 32.46L13.6229 32.4928L13.801 33.4768ZM11.2842 33.8434L11.2126 32.846L11.2125 32.846L11.2842 33.8434ZM8.79847 33.935L8.79241 34.935L8.79248 34.935L8.79847 33.935ZM3.78237 33.8639L3.80938 34.8635L3.80957 34.8635L3.78237 33.8639ZM2.34785 33.9655L2.38985 34.9647L2.42906 34.963L2.46801 34.9583L2.34785 33.9655ZM1.02672 34.2349L0.676658 33.2982L0.639312 33.3121L0.603195 33.329L1.02672 34.2349ZM1.03687 35.5718C1.51316 35.6 1.99057 35.5835 2.46427 35.5225L2.20885 33.5389C1.85882 33.584 1.50652 33.5961 1.15514 33.5753L1.03687 35.5718ZM2.37256 35.5301L3.6212 35.4851L3.54921 33.4864L2.30056 33.5314L2.37256 35.5301ZM3.61687 35.4852C4.4296 35.4595 5.24645 35.4663 6.08653 35.4729L6.10226 33.473C5.27006 33.4664 4.41279 33.459 3.55353 33.4862L3.61687 35.4852ZM6.06494 35.4725C7.7751 35.5229 9.4863 35.464 11.1908 35.2962L10.9948 33.3058C9.37491 33.4653 7.74885 33.5212 6.12385 33.4734L6.06494 35.4725ZM11.1937 35.2959C12.2181 35.192 13.2264 34.9473 14.1973 34.5684L13.47 32.7053C12.665 33.0195 11.8333 33.2208 10.9918 33.3061L11.1937 35.2959ZM14.478 34.4016L14.5217 34.3647L13.2331 32.8352L13.1893 32.8721L14.478 34.4016ZM14.868 33.7365L14.8766 33.6744L12.8954 33.4012L12.8868 33.4634L14.868 33.7365ZM14.7356 33.0103L14.7039 32.9594L13.0048 34.0143L13.0364 34.0653L14.7356 33.0103ZM14.0383 32.5039L13.9849 32.4939L13.617 34.4598L13.6704 34.4698L14.0383 32.5039ZM13.6229 32.4928C12.7721 32.6468 11.9958 32.7898 11.2126 32.846L11.3557 34.8409C12.2667 34.7755 13.1542 34.6102 13.9791 34.4609L13.6229 32.4928ZM11.2125 32.846C10.401 32.9043 9.60175 32.9398 8.80446 32.935L8.79248 34.935C9.65618 34.9401 10.5096 34.9017 11.3558 34.8408L11.2125 32.846ZM8.80453 32.935C7.22574 32.9254 5.43325 32.8186 3.75518 32.8642L3.80957 34.8635C5.47698 34.8181 7.02632 34.9243 8.79241 34.935L8.80453 32.935ZM3.75537 32.8642C3.25004 32.8779 2.7416 32.9106 2.22769 32.9728L2.46801 34.9583C2.90882 34.9049 3.35388 34.8758 3.80938 34.8635L3.75537 32.8642ZM2.30585 32.9664C1.7499 32.9898 1.20149 33.102 0.676658 33.2982L1.37678 35.1716C1.70737 35.0481 2.04803 34.979 2.38985 34.9647L2.30585 32.9664ZM0.603195 33.329C0.316487 33.463 0.103073 33.7035 0.0040611 33.996C-0.0864443 34.2633 -0.0628891 34.5139 -0.0108119 34.6977C0.0727295 34.9925 0.355903 35.4773 0.953522 35.5633L1.23848 33.5838C1.48535 33.6193 1.6485 33.7463 1.73422 33.8373C1.82266 33.9312 1.88141 34.0395 1.91343 34.1525C1.94485 34.2633 1.96609 34.4375 1.89844 34.6373C1.82229 34.8623 1.65691 35.0441 1.45024 35.1408L0.603195 33.329Z" fill="#FFEDE4" mask="url(#path-24-inside-10_170_939)"/>
<path d="M18.7175 36.6245L18.7148 36.6205L18.7125 36.6171L18.4013 36.8894C18.4731 36.8527 18.5445 36.8149 18.6155 36.7759L18.7131 36.6231M18.7175 36.6245L18.7131 36.6231M18.7175 36.6245L18.7131 36.6231M18.7175 36.6245L18.7426 36.6617L18.7516 36.6994C18.7064 36.7253 18.6611 36.7508 18.6155 36.7759L18.7131 36.6231M18.7304 36.6113L18.7349 36.6298L18.7404 36.6529L18.7254 36.6269L18.7187 36.6151M18.7304 36.6113L18.7187 36.6151M18.7304 36.6113L18.7187 36.6151M18.7187 36.6151L18.7184 36.6148M18.747 36.6643L18.7379 36.6307L18.7325 36.6106L18.747 36.6643Z" fill="#FFEDE4" stroke="#FFEDE4"/>
<mask id="path-27-inside-11_170_939" fill="white">
<path d="M1.34309 34.9772C1.46869 35.2906 1.83693 35.4412 2.09789 35.5498C2.4158 35.6712 2.7403 35.7679 3.06925 35.839C3.73268 35.9357 4.35435 36.2684 4.84943 36.7919C5.27536 37.3364 5.57417 38.1338 6.24763 38.3144C6.58553 38.3559 6.92601 38.2713 7.22 38.0728C7.51398 37.8744 7.74629 37.5724 7.88344 37.2102L7.89038 37.1478L7.85789 37.0975L7.80448 37.088L7.76059 37.1247C7.54326 37.4908 7.22116 37.7549 6.85196 37.8696C6.70201 37.8963 6.54877 37.8819 6.40446 37.8274C6.26014 37.773 6.12873 37.6801 6.0207 37.556C5.5705 37.0682 5.35441 36.3827 4.83386 35.9656C4.31418 35.6327 3.74127 35.4278 3.15074 35.3638C2.85389 35.3024 2.56046 35.2204 2.27202 35.1181C2.01238 34.968 1.74263 34.8428 1.46548 34.7439C1.35682 34.7256 1.30463 34.8813 1.34309 34.9772Z"/>
</mask>
<path d="M1.34309 34.9772C1.46869 35.2906 1.83693 35.4412 2.09789 35.5498C2.4158 35.6712 2.7403 35.7679 3.06925 35.839C3.73268 35.9357 4.35435 36.2684 4.84943 36.7919C5.27536 37.3364 5.57417 38.1338 6.24763 38.3144C6.58553 38.3559 6.92601 38.2713 7.22 38.0728C7.51398 37.8744 7.74629 37.5724 7.88344 37.2102L7.89038 37.1478L7.85789 37.0975L7.80448 37.088L7.76059 37.1247C7.54326 37.4908 7.22116 37.7549 6.85196 37.8696C6.70201 37.8963 6.54877 37.8819 6.40446 37.8274C6.26014 37.773 6.12873 37.6801 6.0207 37.556C5.5705 37.0682 5.35441 36.3827 4.83386 35.9656C4.31418 35.6327 3.74127 35.4278 3.15074 35.3638C2.85389 35.3024 2.56046 35.2204 2.27202 35.1181C2.01238 34.968 1.74263 34.8428 1.46548 34.7439C1.35682 34.7256 1.30463 34.8813 1.34309 34.9772Z" fill="#FFEDE4"/>
<path d="M1.34309 34.9772L2.27133 34.6052L2.27114 34.6047L1.34309 34.9772ZM2.09789 35.5498L1.71361 36.473L1.72724 36.4787L1.74103 36.4839L2.09789 35.5498ZM3.06925 35.839L2.85777 36.8164L2.89122 36.8236L2.92508 36.8286L3.06925 35.839ZM4.84943 36.7919L5.63709 36.1758L5.60819 36.1389L5.57596 36.1048L4.84943 36.7919ZM6.24763 38.3144L5.98858 39.2803L6.05626 39.2984L6.12581 39.307L6.24763 38.3144ZM7.88344 37.2102L8.81862 37.5644L8.86336 37.4463L8.87732 37.3207L7.88344 37.2102ZM7.89038 37.1478L8.88426 37.2583L8.9236 36.9043L8.73032 36.6051L7.89038 37.1478ZM7.85789 37.0975L8.69783 36.5549L8.46162 36.1892L8.03308 36.113L7.85789 37.0975ZM7.80448 37.088L7.97967 36.1035L7.52079 36.0218L7.16317 36.3207L7.80448 37.088ZM7.76059 37.1247L7.11927 36.3574L6.98801 36.4672L6.90068 36.6143L7.76059 37.1247ZM6.85196 37.8696L7.02742 38.8541L7.08897 38.8431L7.14868 38.8246L6.85196 37.8696ZM6.0207 37.556L6.77481 36.8993L6.76535 36.8884L6.75558 36.8778L6.0207 37.556ZM4.83386 35.9656L5.45913 35.1852L5.41785 35.1521L5.37331 35.1236L4.83386 35.9656ZM3.15074 35.3638L2.94817 36.3431L2.99522 36.3528L3.04299 36.358L3.15074 35.3638ZM2.27202 35.1181L1.77141 35.9838L1.85113 36.0299L1.93792 36.0607L2.27202 35.1181ZM1.46548 34.7439L1.80162 33.8021L1.71859 33.7725L1.63166 33.7578L1.46548 34.7439ZM0.414846 35.3491C0.584898 35.7735 0.89668 36.0319 1.12831 36.181C1.35642 36.3279 1.59826 36.425 1.71361 36.473L2.48217 34.6266C2.41274 34.5977 2.36161 34.5764 2.3118 34.553C2.26342 34.5304 2.23161 34.5127 2.21115 34.4995C2.16202 34.4679 2.22688 34.4942 2.27133 34.6052L0.414846 35.3491ZM1.74103 36.4839C2.10571 36.6232 2.4788 36.7344 2.85777 36.8164L3.28072 34.8616C3.00181 34.8013 2.72589 34.7192 2.45475 34.6156L1.74103 36.4839ZM2.92508 36.8286C3.34875 36.8903 3.77005 37.106 4.12289 37.479L5.57596 36.1048C4.93864 35.4309 4.1166 34.9811 3.21342 34.8495L2.92508 36.8286ZM4.06176 37.408C4.13506 37.5017 4.21015 37.6159 4.31006 37.7723C4.4014 37.9154 4.51942 38.1035 4.6486 38.28C4.9023 38.6268 5.31677 39.1001 5.98858 39.2803L6.50667 37.3485C6.50502 37.3481 6.43335 37.3324 6.2628 37.0992C6.17985 36.9858 6.10122 36.8612 5.9957 36.6959C5.89874 36.5441 5.77676 36.3544 5.63709 36.1758L4.06176 37.408ZM6.12581 39.307C6.71385 39.3791 7.29471 39.2289 7.77947 38.9017L6.66052 37.244C6.55731 37.3137 6.45721 37.3326 6.36945 37.3218L6.12581 39.307ZM7.77947 38.9017C8.26052 38.577 8.61534 38.1012 8.81862 37.5644L6.94826 36.856C6.87725 37.0436 6.76745 37.1718 6.66052 37.244L7.77947 38.9017ZM8.87732 37.3207L8.88426 37.2583L6.8965 37.0373L6.88956 37.0997L8.87732 37.3207ZM8.73032 36.6051L8.69783 36.5549L7.01794 37.6402L7.05043 37.6905L8.73032 36.6051ZM8.03308 36.113L7.97967 36.1035L7.6293 38.0726L7.6827 38.0821L8.03308 36.113ZM7.16317 36.3207L7.11927 36.3574L8.40191 37.892L8.4458 37.8553L7.16317 36.3207ZM6.90068 36.6143C6.7958 36.7909 6.66353 36.881 6.55524 36.9146L7.14868 38.8246C7.77879 38.6288 8.29072 38.1907 8.6205 37.6352L6.90068 36.6143ZM6.6765 36.8851C6.70624 36.8798 6.73548 36.8835 6.75743 36.8918L6.05148 38.7631C6.36207 38.8802 6.69777 38.9128 7.02742 38.8541L6.6765 36.8851ZM6.75743 36.8918C6.77809 36.8996 6.78168 36.9071 6.77481 36.8993L5.26659 38.2127C5.47578 38.453 5.74219 38.6464 6.05148 38.7631L6.75743 36.8918ZM6.75558 36.8778C6.61386 36.7242 6.50982 36.5419 6.30492 36.2095C6.12694 35.9208 5.86635 35.5115 5.45913 35.1852L4.20859 36.746C4.32192 36.8368 4.42965 36.9788 4.6024 37.259C4.74824 37.4956 4.97734 37.8999 5.28582 38.2342L6.75558 36.8778ZM5.37331 35.1236C4.72868 34.7106 4.00882 34.451 3.25849 34.3696L3.04299 36.358C3.47372 36.4047 3.89969 36.5547 4.29441 36.8076L5.37331 35.1236ZM3.35331 34.3846C3.1015 34.3325 2.852 34.2628 2.60611 34.1756L1.93792 36.0607C2.26891 36.178 2.60627 36.2724 2.94817 36.3431L3.35331 34.3846ZM2.77262 34.2525C2.46159 34.0726 2.13688 33.9218 1.80162 33.8021L1.12934 35.6857C1.34839 35.7639 1.56317 35.8634 1.77141 35.9838L2.77262 34.2525ZM1.63166 33.7578C0.953994 33.6436 0.561024 34.1315 0.436797 34.4083C0.31745 34.6742 0.282906 35.0204 0.415043 35.3496L2.27114 34.6047C2.36481 34.8381 2.33714 35.0585 2.26144 35.2272C2.21837 35.3232 2.13105 35.4662 1.96353 35.5819C1.77657 35.7111 1.53804 35.7702 1.2993 35.73L1.63166 33.7578Z" fill="#FFEDE4" mask="url(#path-27-inside-11_170_939)"/>
<path d="M29.0936 15.873C29.0264 15.9477 28.9404 15.8516 28.9602 15.7656L29.0936 15.873ZM29.0936 15.873C29.1069 15.8565 29.1201 15.8399 29.1332 15.8231C29.1332 15.8231 29.1332 15.8231 29.1333 15.823C29.2081 15.7271 29.279 15.6274 29.346 15.5243C29.3035 15.4818 29.2349 15.4323 29.1393 15.4107C29.0799 15.5239 29.0219 15.6343 28.9688 15.7415C28.9665 15.7461 28.9646 15.7508 28.963 15.7555L29.0936 15.873Z" fill="#FFEDE4" stroke="#FFEDE4"/>
<path d="M29.5136 10.7335C29.5569 10.7278 29.5976 10.7141 29.6334 10.6944C29.6664 10.6761 29.6932 10.654 29.7145 10.6307L29.6789 10.5764L29.6768 10.5685C29.6688 10.5732 29.6609 10.5781 29.6532 10.5832C29.6396 10.5921 29.6266 10.6018 29.6143 10.6121C29.6081 10.6172 29.6022 10.6224 29.5965 10.6277M29.5136 10.7335L29.5965 10.6277M29.5136 10.7335C29.5309 10.702 29.5547 10.6685 29.5873 10.6365C29.5903 10.6335 29.5934 10.6306 29.5965 10.6277M29.5136 10.7335L29.5965 10.6277" fill="#FFEDE4" stroke="#FFEDE4"/>
<mask id="path-31-inside-12_170_939" fill="white">
<path d="M31.5354 9.40462L31.4368 9.31573L31.5297 9.18489C31.5391 9.16777 31.5435 9.14763 31.5423 9.1274C31.5411 9.10717 31.5345 9.0879 31.5232 9.07239C31.512 9.05688 31.4968 9.04595 31.4799 9.04118C31.463 9.03641 31.4452 9.03805 31.4292 9.04587L31.2688 9.12729C31.1744 9.00519 31.1057 8.85908 31.0684 8.70062C31.063 8.6737 31.0489 8.6502 31.0291 8.63494C31.0093 8.61968 30.9853 8.61381 30.9619 8.61854C30.9385 8.62326 30.9175 8.63822 30.9033 8.66035C30.889 8.68248 30.8826 8.71012 30.8853 8.7376C30.8961 8.89468 30.9293 9.04855 30.9835 9.19289L30.8044 9.18418C30.612 9.1821 30.4198 9.20043 30.2303 9.23893C30.2156 9.24228 30.2025 9.25164 30.1932 9.26531C30.184 9.27898 30.1793 9.29605 30.1799 9.31343C30.1806 9.33081 30.1865 9.34734 30.1968 9.36003C30.207 9.37272 30.2208 9.38072 30.2356 9.38258C30.5144 9.39609 30.7983 9.45902 31.0776 9.45244L31.1174 9.4496C31.1856 9.54879 31.2693 9.63214 31.364 9.69529C31.397 9.71499 31.435 9.72001 31.471 9.70941C31.507 9.69881 31.5384 9.67333 31.5594 9.63771C31.5804 9.6021 31.5895 9.5588 31.5851 9.5159C31.5807 9.473 31.563 9.43345 31.5354 9.40462Z"/>
</mask>
<path d="M31.5354 9.40462L31.4368 9.31573L31.5297 9.18489C31.5391 9.16777 31.5435 9.14763 31.5423 9.1274C31.5411 9.10717 31.5345 9.0879 31.5232 9.07239C31.512 9.05688 31.4968 9.04595 31.4799 9.04118C31.463 9.03641 31.4452 9.03805 31.4292 9.04587L31.2688 9.12729C31.1744 9.00519 31.1057 8.85908 31.0684 8.70062C31.063 8.6737 31.0489 8.6502 31.0291 8.63494C31.0093 8.61968 30.9853 8.61381 30.9619 8.61854C30.9385 8.62326 30.9175 8.63822 30.9033 8.66035C30.889 8.68248 30.8826 8.71012 30.8853 8.7376C30.8961 8.89468 30.9293 9.04855 30.9835 9.19289L30.8044 9.18418C30.612 9.1821 30.4198 9.20043 30.2303 9.23893C30.2156 9.24228 30.2025 9.25164 30.1932 9.26531C30.184 9.27898 30.1793 9.29605 30.1799 9.31343C30.1806 9.33081 30.1865 9.34734 30.1968 9.36003C30.207 9.37272 30.2208 9.38072 30.2356 9.38258C30.5144 9.39609 30.7983 9.45902 31.0776 9.45244L31.1174 9.4496C31.1856 9.54879 31.2693 9.63214 31.364 9.69529C31.397 9.71499 31.435 9.72001 31.471 9.70941C31.507 9.69881 31.5384 9.67333 31.5594 9.63771C31.5804 9.6021 31.5895 9.5588 31.5851 9.5159C31.5807 9.473 31.563 9.43345 31.5354 9.40462Z" fill="#FFEDE4"/>
<path d="M31.5354 9.40462L32.2573 8.71261L32.2321 8.68632L32.205 8.66194L31.5354 9.40462ZM31.4368 9.31573L30.6215 8.73666L30.1061 9.46236L30.7672 10.0584L31.4368 9.31573ZM31.5297 9.18489L32.345 9.76396L32.3793 9.71566L32.4077 9.66364L31.5297 9.18489ZM31.4292 9.04587L30.9917 8.14665L30.9841 8.15035L30.9765 8.15418L31.4292 9.04587ZM31.2688 9.12729L30.4777 9.73896L30.9837 10.3935L31.7214 10.019L31.2688 9.12729ZM31.0684 8.70062L30.0881 8.89802L30.0913 8.9141L30.0951 8.93006L31.0684 8.70062ZM30.8853 8.7376L31.8829 8.6691L31.8819 8.65492L31.8806 8.64077L30.8853 8.7376ZM30.9835 9.19289L30.935 10.1917L32.4553 10.2656L31.9195 8.8409L30.9835 9.19289ZM30.8044 9.18418L30.8529 8.18536L30.8341 8.18444L30.8152 8.18424L30.8044 9.18418ZM30.2303 9.23893L30.0312 8.25895L30.0193 8.26137L30.0074 8.26408L30.2303 9.23893ZM30.2356 9.38258L30.1112 10.3748L30.1491 10.3796L30.1872 10.3814L30.2356 9.38258ZM31.0776 9.45244L31.1011 10.4522L31.125 10.4516L31.1488 10.4499L31.0776 9.45244ZM31.1174 9.4496L31.9412 8.88276L31.6169 8.41139L31.0462 8.45214L31.1174 9.4496ZM31.364 9.69529L30.8092 10.5273L30.8301 10.5412L30.8516 10.554L31.364 9.69529ZM32.205 8.66194L32.1064 8.57305L30.7672 10.0584L30.8657 10.1473L32.205 8.66194ZM32.2521 9.89481L32.345 9.76396L30.7145 8.60581L30.6215 8.73666L32.2521 9.89481ZM32.4077 9.66364C32.5101 9.47588 32.5521 9.26887 32.5406 9.06976L30.544 9.18504C30.5348 9.02639 30.5681 8.85966 30.6518 8.70614L32.4077 9.66364ZM32.5406 9.06976C32.5291 8.87074 32.4632 8.66562 32.3335 8.48627L30.713 9.65851C30.6057 9.51017 30.5531 9.3436 30.544 9.18504L32.5406 9.06976ZM32.3335 8.48627C32.2026 8.30544 32.0048 8.15017 31.7513 8.0787L31.2086 10.0037C30.9889 9.94173 30.8214 9.80833 30.713 9.65851L32.3335 8.48627ZM31.7513 8.0787C31.4941 8.00619 31.2243 8.03348 30.9917 8.14665L31.8667 9.94509C31.6662 10.0426 31.4319 10.0666 31.2086 10.0037L31.7513 8.0787ZM30.9765 8.15418L30.8161 8.2356L31.7214 10.019L31.8818 9.93755L30.9765 8.15418ZM32.0599 8.51561C32.0576 8.5126 32.0481 8.49845 32.0417 8.47118L30.0951 8.93006C30.1634 9.21972 30.2912 9.49777 30.4777 9.73896L32.0599 8.51561ZM32.0487 8.50322C32.0008 8.26507 31.8696 8.02016 31.6395 7.84282L30.4188 9.42706C30.2282 9.28023 30.1252 9.08232 30.0881 8.89802L32.0487 8.50322ZM31.6395 7.84282C31.4027 7.66034 31.0863 7.57322 30.7639 7.63832L31.1598 9.59875C30.8842 9.6544 30.616 9.57903 30.4188 9.42706L31.6395 7.84282ZM30.7639 7.63832C30.4471 7.70229 30.2062 7.89562 30.0623 8.11929L31.7443 9.20141C31.6288 9.38082 31.4298 9.54423 31.1598 9.59875L30.7639 7.63832ZM30.0623 8.11929C29.92 8.34043 29.8667 8.59488 29.89 8.83443L31.8806 8.64077C31.8985 8.82535 31.8581 9.02453 31.7443 9.20141L30.0623 8.11929ZM29.8876 8.8061C29.9049 9.0581 29.9583 9.30763 30.0475 9.54488L31.9195 8.8409C31.9002 8.78948 31.8872 8.73125 31.8829 8.6691L29.8876 8.8061ZM31.0321 8.19407L30.8529 8.18536L30.7558 10.183L30.935 10.1917L31.0321 8.19407ZM30.8152 8.18424C30.5519 8.18139 30.2894 8.20649 30.0312 8.25895L30.4294 10.2189C30.5502 10.1944 30.672 10.1828 30.7936 10.1841L30.8152 8.18424ZM30.0074 8.26408C29.7205 8.32967 29.5008 8.50396 29.3647 8.70542L31.0218 9.8252C30.9041 9.99933 30.7108 10.1549 30.4531 10.2138L30.0074 8.26408ZM29.3647 8.70542C29.2299 8.90485 29.1725 9.13338 29.1806 9.35059L31.1792 9.27627C31.186 9.45872 31.1381 9.65311 31.0218 9.8252L29.3647 8.70542ZM29.1806 9.35059C29.1887 9.56775 29.2631 9.79504 29.4179 9.98722L30.9756 8.73284C31.11 8.89964 31.1725 9.09387 31.1792 9.27627L29.1806 9.35059ZM29.4179 9.98722C29.5749 10.1821 29.8151 10.3377 30.1112 10.3748L30.36 8.39034C30.6264 8.42373 30.8391 8.56329 30.9756 8.73284L29.4179 9.98722ZM30.1872 10.3814C30.2819 10.386 30.3732 10.3986 30.5393 10.4182C30.6844 10.4353 30.8855 10.4572 31.1011 10.4522L31.054 8.45272C30.9903 8.45422 30.9099 8.44801 30.7736 8.43193C30.6581 8.41832 30.4681 8.39267 30.284 8.38375L30.1872 10.3814ZM31.1488 10.4499L31.1886 10.4471L31.0462 8.45214L31.0063 8.45498L31.1488 10.4499ZM30.2936 10.0164C30.4296 10.2142 30.6028 10.3896 30.8092 10.5273L31.9188 8.86329C31.9358 8.87464 31.9416 8.8834 31.9412 8.88276L30.2936 10.0164ZM30.8516 10.554C31.1171 10.7125 31.4426 10.7603 31.7537 10.6686L31.1883 8.7502C31.4274 8.67972 31.6769 8.7175 31.8764 8.83655L30.8516 10.554ZM31.7537 10.6686C32.0587 10.5787 32.2854 10.3752 32.4208 10.1456L30.698 9.12982C30.7913 8.9715 30.9552 8.81889 31.1883 8.7502L31.7537 10.6686ZM32.4208 10.1456C32.5551 9.91776 32.6051 9.65911 32.5798 9.41352L30.5904 9.61828C30.5739 9.45848 30.6056 9.28644 30.698 9.12982L32.4208 10.1456ZM32.5798 9.41352C32.5546 9.16808 32.4516 8.91532 32.2573 8.71261L30.8135 10.0966C30.6744 9.95158 30.6068 9.77793 30.5904 9.61828L32.5798 9.41352Z" fill="#FFEDE4" mask="url(#path-31-inside-12_170_939)"/>
<mask id="path-33-inside-13_170_939" fill="white">
<path d="M31.5126 16.4977C31.1833 16.6787 31.1616 17.0542 30.9667 17.3688C30.7119 17.7449 30.4329 18.0979 30.1321 18.4246L30.1065 18.4619L30.0952 18.5078L30.0997 18.5552L30.1195 18.597L30.1515 18.6268L30.1909 18.64L30.2316 18.6347L30.2675 18.6117C30.5864 18.3358 30.9562 18.1086 31.2512 17.7994C31.4722 17.5255 31.6498 17.2083 31.776 16.8623C31.8674 16.6609 31.7183 16.3854 31.5126 16.4977Z"/>
</mask>
<path d="M31.5126 16.4977C31.1833 16.6787 31.1616 17.0542 30.9667 17.3688C30.7119 17.7449 30.4329 18.0979 30.1321 18.4246L30.1065 18.4619L30.0952 18.5078L30.0997 18.5552L30.1195 18.597L30.1515 18.6268L30.1909 18.64L30.2316 18.6347L30.2675 18.6117C30.5864 18.3358 30.9562 18.1086 31.2512 17.7994C31.4722 17.5255 31.6498 17.2083 31.776 16.8623C31.8674 16.6609 31.7183 16.3854 31.5126 16.4977Z" fill="#FFEDE4"/>
<path d="M31.5126 16.4977L31.0333 15.6201L31.031 15.6213L31.5126 16.4977ZM30.9667 17.3688L31.7946 17.9297L31.8061 17.9128L31.8169 17.8953L30.9667 17.3688ZM30.1321 18.4246L29.3964 17.7474L29.3478 17.8001L29.3073 17.8592L30.1321 18.4246ZM30.1065 18.4619L29.2818 17.8965L29.1795 18.0457L29.1359 18.2212L30.1065 18.4619ZM30.0952 18.5078L29.1246 18.2671L29.0834 18.4331L29.0997 18.6034L30.0952 18.5078ZM30.0997 18.5552L29.1043 18.6508L29.121 18.8251L29.196 18.9833L30.0997 18.5552ZM30.1195 18.597L29.2158 19.025L29.2979 19.1984L29.4383 19.3291L30.1195 18.597ZM30.1515 18.6268L29.4703 19.3589L29.6282 19.5058L29.8326 19.5746L30.1515 18.6268ZM30.1909 18.64L29.8719 19.5878L30.091 19.6615L30.3201 19.6316L30.1909 18.64ZM30.2316 18.6347L30.3608 19.6263L30.5834 19.5973L30.7723 19.4759L30.2316 18.6347ZM30.2675 18.6117L30.8081 19.4529L30.8679 19.4145L30.9217 19.368L30.2675 18.6117ZM31.2512 17.7994L31.9747 18.4897L32.0034 18.4597L32.0295 18.4273L31.2512 17.7994ZM31.776 16.8623L30.8654 16.4491L30.8496 16.4838L30.8365 16.5197L31.776 16.8623ZM31.031 15.6213C30.5881 15.8647 30.3851 16.2361 30.2791 16.4688C30.2374 16.5605 30.1812 16.7019 30.166 16.7379C30.1387 16.803 30.1244 16.8296 30.1166 16.8423L31.8169 17.8953C31.9064 17.7507 31.968 17.6123 32.0098 17.5129C32.0296 17.4658 32.0509 17.4129 32.0639 17.381C32.0792 17.3435 32.09 17.3181 32.0994 17.2975C32.1353 17.2186 32.1078 17.3117 31.9942 17.3741L31.031 15.6213ZM30.1388 16.8079C29.9112 17.1439 29.6628 17.4579 29.3964 17.7474L30.8679 19.1019C31.203 18.7379 31.5126 18.3459 31.7946 17.9297L30.1388 16.8079ZM29.3073 17.8592L29.2818 17.8965L30.9313 19.0274L30.9569 18.9901L29.3073 17.8592ZM29.1359 18.2212L29.1246 18.2671L31.0658 18.7485L31.0771 18.7026L29.1359 18.2212ZM29.0997 18.6034L29.1043 18.6508L31.0951 18.4596L31.0906 18.4122L29.0997 18.6034ZM29.196 18.9833L29.2158 19.025L31.0233 18.169L31.0035 18.1272L29.196 18.9833ZM29.4383 19.3291L29.4703 19.3589L30.8327 17.8947L30.8007 17.8649L29.4383 19.3291ZM29.8326 19.5746L29.8719 19.5878L30.5098 17.6923L30.4705 17.679L29.8326 19.5746ZM30.3201 19.6316L30.3608 19.6263L30.1024 17.6431L30.0616 17.6484L30.3201 19.6316ZM30.7723 19.4759L30.8081 19.4529L29.7268 17.7704L29.6909 17.7935L30.7723 19.4759ZM30.9217 19.368C31.0519 19.2553 31.1824 19.1609 31.3774 19.0111C31.5544 18.8752 31.7715 18.7027 31.9747 18.4897L30.5277 17.1091C30.4359 17.2053 30.3206 17.3009 30.1592 17.4249C30.0159 17.535 29.802 17.6921 29.6132 17.8554L30.9217 19.368ZM32.0295 18.4273C32.3226 18.0639 32.5534 17.6494 32.7155 17.205L30.8365 16.5197C30.7463 16.7672 30.6217 16.9871 30.4729 17.1715L32.0295 18.4273ZM32.6866 17.2756C32.8786 16.8525 32.8242 16.3743 32.5963 16.0207C32.4752 15.8327 32.2678 15.6249 31.9562 15.5259C31.6236 15.4202 31.294 15.4777 31.0333 15.6201L31.9919 17.3753C31.834 17.4616 31.6002 17.5113 31.3506 17.432C31.122 17.3594 30.9847 17.212 30.9151 17.104C30.7904 16.9104 30.7648 16.6708 30.8654 16.4491L32.6866 17.2756Z" fill="#FFEDE4" mask="url(#path-33-inside-13_170_939)"/>
<path d="M31.6313 22.0141L31.6313 22.0141L31.6147 22.0194M31.6313 22.0141L31.6046 22.0227L31.6046 22.0227L31.6147 22.0194M31.6313 22.0141L31.6147 22.0194M31.6313 22.0141L31.6147 22.0194" fill="#FFEDE4" stroke="#FFEDE4"/>
<path d="M27.5519 22.7253L27.5541 22.7217L27.5519 22.7253ZM27.5519 22.7253L27.5478 22.7248" fill="#FFEDE4" stroke="#FFEDE4"/>
<mask id="path-37-inside-14_170_939" fill="white">
<path d="M33.1877 6.49149C32.8731 6.79655 32.5765 7.12582 32.2998 7.47709C31.9932 7.81291 31.6797 8.13665 31.3779 8.47834L31.4484 8.57842C31.7971 8.2746 32.1331 7.9562 32.4756 7.64349C32.8148 7.38166 33.1225 7.06819 33.3905 6.7114C33.488 6.55762 33.3117 6.38856 33.1877 6.49149Z"/>
</mask>
<path d="M33.1877 6.49149C32.8731 6.79655 32.5765 7.12582 32.2998 7.47709C31.9932 7.81291 31.6797 8.13665 31.3779 8.47834L31.4484 8.57842C31.7971 8.2746 32.1331 7.9562 32.4756 7.64349C32.8148 7.38166 33.1225 7.06819 33.3905 6.7114C33.488 6.55762 33.3117 6.38856 33.1877 6.49149Z" fill="#FFEDE4"/>
<path d="M33.1877 6.49149L32.5492 5.72187L32.5193 5.74664L32.4914 5.77366L33.1877 6.49149ZM32.2998 7.47709L33.0383 8.15133L33.0628 8.12448L33.0853 8.09592L32.2998 7.47709ZM31.3779 8.47834L30.6284 7.81626L30.1054 8.40835L30.5603 9.05423L31.3779 8.47834ZM31.4484 8.57842L30.6309 9.15432L31.2694 10.0607L32.1053 9.33239L31.4484 8.57842ZM32.4756 7.64349L31.8646 6.85185L31.8318 6.87714L31.8013 6.90504L32.4756 7.64349ZM33.3905 6.7114L34.1901 7.31193L34.2138 7.28032L34.235 7.24694L33.3905 6.7114ZM32.4914 5.77366C32.1443 6.11033 31.8179 6.47276 31.5142 6.85827L33.0853 8.09592C33.3351 7.77888 33.6019 7.48277 33.8839 7.20932L32.4914 5.77366ZM31.5613 6.80286C31.2869 7.10336 30.9316 7.47313 30.6284 7.81626L32.1273 9.14041C32.4279 8.80016 32.6995 8.52247 33.0383 8.15133L31.5613 6.80286ZM30.5603 9.05423L30.6309 9.15432L32.2659 8.00253L32.1954 7.90244L30.5603 9.05423ZM32.1053 9.33239C32.4652 9.01879 32.8261 8.67764 33.1499 8.38194L31.8013 6.90504C31.4402 7.23476 31.1289 7.53042 30.7915 7.82446L32.1053 9.33239ZM33.0866 8.43513C33.4999 8.11614 33.8704 7.73764 34.1901 7.31193L32.5909 6.11087C32.3747 6.39874 32.1298 6.64718 31.8646 6.85185L33.0866 8.43513ZM34.235 7.24694C34.5569 6.73935 34.4253 6.15298 34.0883 5.80724C33.7596 5.46994 33.0974 5.26705 32.5492 5.72187L33.8262 7.26111C33.649 7.40812 33.4113 7.48222 33.1698 7.45409C32.9468 7.42814 32.7724 7.32252 32.656 7.20312C32.4138 6.95462 32.3216 6.52968 32.546 6.17586L34.235 7.24694Z" fill="#FFEDE4" mask="url(#path-37-inside-14_170_939)"/>
</svg>
