<svg width="69" height="52" viewBox="0 0 69 52" fill="none" xmlns="http://www.w3.org/2000/svg">
<g clip-path="url(#clip0_62_315)">
<path d="M67.7574 33.4931L67.5945 33.3098C67.5713 33.3731 67.5353 33.431 67.4889 33.4801C67.4425 33.5292 67.3866 33.5684 67.3245 33.5954C59.8288 37.0053 51.3517 39.0426 43.2088 40.0954C35.2717 41.1184 26.9231 41.1866 19.1445 39.0298C18.8488 38.9489 19.0245 38.5695 19.2902 38.6036C27.4982 40.0415 35.8872 40.1365 44.1259 38.8849C52.0502 37.6574 59.4131 35.1426 66.9645 32.5853C63.9645 29.0134 61.6374 24.4869 59.5974 20.3951C57.3388 15.8472 55.2859 11.001 54.1674 6.02689C54.1202 5.80099 54.506 5.63902 54.596 5.86492C56.4431 10.6259 58.1788 15.3656 60.536 19.9092C62.8931 24.4528 66.026 28.4764 68.6788 32.8623C68.9702 33.3695 68.1431 33.9108 67.7574 33.4931ZM58.5902 49.0377C58.4831 45.8112 57.8874 42.4141 57.3045 39.2344C57.2531 38.9531 56.7731 39.0171 56.786 39.2941C56.9574 42.461 57.1545 45.858 57.7845 48.978C48.8874 49.8305 40.136 50.8918 31.166 50.7298C22.2434 50.5586 13.3605 49.4991 4.65024 47.5672C4.83452 41.9367 4.22167 36.2125 3.8831 30.599C3.54453 25.2669 3.26167 19.9433 2.94024 14.5984C4.30585 18.0831 5.8801 21.4834 7.65453 24.781C10.0933 29.5467 13.1905 33.9497 16.856 37.862C17.2845 38.3223 18.1117 37.619 17.6531 37.1416C13.8988 33.2672 10.8774 28.7535 8.28024 24.0479C5.75167 19.4574 3.90881 14.6026 1.6631 9.88853C1.59453 9.74787 1.34595 9.84165 1.38453 9.99083C1.66738 11.0095 1.99738 12.0197 2.3531 13.0256C2.07881 18.7925 2.43453 24.5935 2.70453 30.3518C2.97453 36.2295 3.00881 42.1243 3.3131 47.9977C3.31975 48.1261 3.36395 48.2498 3.44026 48.3537C3.51658 48.4575 3.62171 48.5369 3.74274 48.5821C3.86378 48.6274 3.99546 48.6365 4.12165 48.6084C4.24783 48.5803 4.36302 48.5162 4.4531 48.4239C13.031 50.5449 21.8191 51.7128 30.656 51.9062C39.7974 52.1407 49.3031 51.7698 58.3031 50.0308C58.4053 50.0055 58.4989 49.954 58.5747 49.8813C58.6505 49.8086 58.7057 49.7173 58.7348 49.6167C58.7639 49.516 58.7659 49.4096 58.7405 49.3079C58.7151 49.2063 58.6633 49.1131 58.5902 49.0377ZM8.45595 12.9148C7.79595 13.5243 8.67453 14.2787 9.33881 13.8013C9.96945 13.3253 10.4842 12.7141 10.8448 12.0131C11.2053 11.3121 11.4025 10.5393 11.4217 9.75214C14.1388 9.89705 16.8645 9.9752 19.5988 9.98656C19.3933 10.8487 19.084 11.6831 18.6774 12.4715C18.4331 13.0043 19.2217 13.3239 19.5774 12.983C20.3878 12.1899 20.876 11.1277 20.9488 9.99935C23.1574 9.99935 25.3631 9.93826 27.566 9.81607C27.566 11.0948 27.0431 12.2285 26.5202 13.4561C26.2931 13.9761 27.056 14.3085 27.4117 13.959C27.9523 13.4058 28.3654 12.7422 28.6222 12.0142C28.879 11.2863 28.9734 10.5115 28.8988 9.74361C31.1045 9.6129 33.306 9.4282 35.5031 9.18952C35.3992 10.1267 35.1384 11.0401 34.7317 11.8918C34.4317 12.5354 35.4431 12.8082 35.7902 12.318C36.476 11.3556 36.8566 10.2111 36.8831 9.03181C39.1431 8.74766 41.3931 8.41378 43.6331 8.03017C43.4869 8.78116 43.2404 9.50935 42.9002 10.1954C42.5745 10.8603 43.6888 11.2269 44.0317 10.6515C44.5523 9.78093 44.8619 8.80172 44.936 7.79148C46.5788 7.47891 48.2117 7.13225 49.8345 6.75148C49.8779 7.82122 49.7609 8.89143 49.4874 9.92689C49.316 10.6003 50.2802 10.7794 50.5074 10.1912C50.9396 9.00532 51.0978 7.73791 50.9702 6.48296C52.5902 6.0823 54.2002 5.64471 55.8002 5.17017C55.8648 5.17231 55.929 5.15992 55.988 5.13392C56.0471 5.10793 56.0995 5.06899 56.1413 5.02003C56.1831 4.97107 56.2132 4.91335 56.2294 4.85118C56.2456 4.78901 56.2475 4.724 56.2349 4.66101C56.2223 4.59802 56.1955 4.53867 56.1566 4.48741C56.1177 4.43614 56.0677 4.39429 56.0102 4.36496C55.9528 4.33564 55.8894 4.31961 55.8248 4.31807C55.7603 4.31653 55.6962 4.32952 55.6374 4.35607C54.0231 4.7141 52.4102 5.06219 50.7988 5.40033C50.5789 4.37875 50.1587 3.41027 49.5623 2.55022C48.966 1.69017 48.2051 0.955394 47.3231 0.387874C47.286 0.369112 47.2437 0.363361 47.203 0.371555C47.1622 0.379748 47.1254 0.401405 47.0986 0.433007C47.0718 0.464609 47.0565 0.5043 47.0553 0.545629C47.054 0.586958 47.0668 0.627497 47.0917 0.660661C48.41 2.0367 49.318 3.74989 49.7145 5.60919C48.1202 5.94165 46.5274 6.25706 44.936 6.55542C44.8448 5.48433 44.4862 4.45283 43.8927 3.55445C43.2992 2.65608 42.4897 1.91926 41.5374 1.41083C41.3317 1.30427 41.0231 1.58558 41.2331 1.7646C42.9045 3.23509 43.7531 4.92722 43.7617 6.77279C41.4502 7.1905 39.1345 7.56558 36.8145 7.89804C36.6159 6.72853 36.1068 5.63301 35.3397 4.7248C34.5727 3.81659 33.5756 3.12865 32.4517 2.73214C32.1688 2.6341 31.9117 3.07312 32.1988 3.23083C34.3159 4.39443 35.3788 6.12492 35.5202 8.06853C33.2688 8.37257 31.0117 8.61268 28.7488 8.78886C28.4874 7.72363 27.983 6.73249 27.2748 5.89214C26.5666 5.05178 25.6735 4.38474 24.6645 3.94263C24.236 3.75935 23.7131 4.36886 24.2017 4.63312C25.0225 5.02176 25.7434 5.59158 26.3093 6.29919C26.8752 7.0068 27.2713 7.83353 27.4674 8.7164C27.4674 8.77181 27.4674 8.82722 27.4674 8.88263C25.2945 9.03181 23.1131 9.14689 20.9231 9.21083C20.7174 6.65345 18.626 4.13017 15.8445 3.99804C15.7998 3.99584 15.7557 4.00958 15.7201 4.03678C15.6846 4.06399 15.66 4.10289 15.6507 4.1465C15.6415 4.19011 15.6481 4.23559 15.6695 4.27478C15.6908 4.31396 15.7256 4.34429 15.7674 4.36033C17.3874 4.95705 18.806 5.98853 19.406 7.66361C19.5896 8.16732 19.6768 8.70077 19.6631 9.2364C16.9117 9.29891 14.156 9.28755 11.396 9.2023C11.367 8.37958 11.1328 7.57693 10.7145 6.86656C9.47595 4.87181 6.60452 3.76361 4.43595 4.90165C4.2731 4.98689 4.29452 5.28099 4.5131 5.26394C6.51452 5.1105 8.58881 5.52394 9.65595 7.39509C9.9647 7.92683 10.1397 8.52489 10.166 9.13837C6.90024 9.00197 3.64738 8.76328 0.42024 8.39246C0.392099 8.39051 0.363846 8.39408 0.337094 8.40298C0.310342 8.41188 0.285615 8.42593 0.264324 8.44434C0.243033 8.46274 0.225595 8.48514 0.213006 8.51024C0.200417 8.53535 0.192924 8.56267 0.190954 8.59066C0.188984 8.61865 0.192576 8.64675 0.201525 8.67335C0.210474 8.69996 0.224605 8.72455 0.243111 8.74573C0.261616 8.7669 0.284134 8.78424 0.309378 8.79676C0.334623 8.80928 0.362099 8.81674 0.39024 8.81869C3.62167 9.18809 6.87595 9.47225 10.1531 9.67115C10.0051 10.9223 9.40132 12.0762 8.45595 12.9148ZM39.6474 33.6721C35.8713 33.0475 32.2565 31.6874 29.0102 29.6698C27.206 28.5489 23.6145 26.618 23.276 24.278C23.1939 23.7528 23.2465 23.2154 23.4289 22.7157C23.6113 22.216 23.9175 21.7702 24.3192 21.4195C24.721 21.0689 25.2052 20.8247 25.727 20.7097C26.2489 20.5947 26.7915 20.6126 27.3045 20.7616C30.1202 21.4862 32.6488 23.5236 34.4531 25.7656C34.6588 22.0403 38.0231 15.3826 42.2788 17.9741C44.4474 19.2912 44.4902 22.343 44.2417 24.5594C43.8645 27.918 42.3731 31.1744 40.5988 34.0216C40.5383 34.1265 40.4424 34.2067 40.3281 34.2479C40.2138 34.2892 40.0886 34.2888 39.9745 34.2469C39.8605 34.205 39.765 34.1243 39.7052 34.0191C39.6453 33.9139 39.6248 33.7909 39.6474 33.6721ZM40.1402 32.6833C41.936 29.2479 43.8988 25.3266 43.1402 21.3839C42.7888 19.598 41.756 17.7738 39.2831 18.7669C38.2074 19.1931 37.2517 20.3653 36.6302 21.2859C35.5417 22.9013 35.1645 24.6616 35.006 26.5669C35.0006 26.6115 34.9835 26.6538 34.9564 26.6897C34.9293 26.7257 34.8932 26.7538 34.8517 26.7715C34.8184 26.8074 34.7779 26.836 34.7329 26.8556C34.6879 26.8752 34.6394 26.8853 34.5902 26.8853C34.5411 26.8853 34.4925 26.8752 34.4475 26.8556C34.4025 26.836 34.3621 26.8074 34.3288 26.7715C32.742 24.6865 30.6292 23.0558 28.2045 22.0446C27.0131 21.5459 25.556 20.8256 24.5188 22.6967C24.3698 23.003 24.2902 23.3382 24.2857 23.6785C24.2813 24.0188 24.3521 24.3558 24.4931 24.6659C24.8917 25.4331 25.8902 26.0682 26.5502 26.601C30.4871 29.7397 35.165 31.826 40.1402 32.662V32.6833Z" fill="#FFEDE4"/>
</g>
<defs>
<clipPath id="clip0_62_315">
<rect width="69" height="52" fill="white"/>
</clipPath>
</defs>
</svg>
