<svg width="27" height="20" viewBox="0 0 27 20" fill="none" xmlns="http://www.w3.org/2000/svg">
<path d="M25.6264 6.99697L25.6264 6.99694C21.2665 10.5216 17.3627 14.5776 14.0056 19.071C13.9328 19.1704 13.8386 19.2356 13.7372 19.2698C13.6597 19.3543 13.5559 19.4187 13.4379 19.4432C13.2759 19.4769 13.1022 19.4314 12.9681 19.2909C12.9681 19.2909 12.9681 19.2909 12.9681 19.2909L0.802816 6.58313C0.769452 6.54941 0.741164 6.51293 0.718229 6.47425C0.6057 6.43229 0.505403 6.35536 0.439957 6.25195C0.340385 6.09461 0.332253 5.89108 0.454774 5.70639C0.454934 5.70615 0.455094 5.70591 0.455253 5.70567L0.643631 5.83102C1.79084 4.07809 3.22778 2.53382 4.89278 1.2645L25.6264 6.99697ZM25.6264 6.99697L25.6298 6.9941C25.7625 6.88244 25.8272 6.73273 25.8152 6.57706C25.8068 6.46755 25.7617 6.3699 25.6988 6.29187C25.6846 6.21761 25.6525 6.14632 25.6049 6.08103L25.6049 6.08101L25.6024 6.07766C24.3283 4.39726 22.9196 2.82362 21.3905 1.37235L21.3905 1.37233L21.3877 1.36982C21.1743 1.17375 20.9149 1.19642 20.7331 1.31157C20.6242 1.31662 20.5138 1.35494 20.4153 1.43335C17.8501 3.42153 15.3756 5.50457 12.9917 7.68246L5.5001 1.24898L25.6264 6.99697ZM13.355 9.4059L13.355 9.40591L13.3567 9.40736C13.6223 9.6309 13.9404 9.53954 14.1119 9.36779C14.1982 9.28126 14.2651 9.15995 14.2721 9.02117C14.2795 8.87441 14.2182 8.73339 14.0934 8.62855L13.8204 8.39411C16.1344 6.3093 18.4953 4.31128 20.9029 2.40005C22.2262 3.66405 23.4503 5.02835 24.5645 6.48089C20.3788 9.91734 16.6157 13.8402 13.3545 18.1669L1.63271 5.91089C2.57926 4.53284 3.71867 3.29814 5.01601 2.24476L13.355 9.4059Z" fill="#FFEDE4" stroke="#FFEDE4" stroke-width="0.452541" stroke-linejoin="round"/>
</svg>
