<svg width="1278" height="290" viewBox="0 0 1278 290" fill="none" xmlns="http://www.w3.org/2000/svg">
<path d="M736 131.616L805.656 91.3304C846.082 67.9503 895.918 67.9503 936.344 91.3304L1006 131.616L1075.66 171.901C1116.08 195.281 1165.92 195.281 1206.34 171.901L1276 131.616" stroke="#FFEDE4" stroke-width="2.46923" stroke-linecap="round" stroke-linejoin="round"/>
<path d="M736 104.846L805.656 64.5608C846.082 41.1808 895.918 41.1808 936.344 64.5608L1006 104.846L1075.66 145.132C1116.08 168.512 1165.92 168.512 1206.34 145.132L1276 104.846" stroke="#FFEDE4" stroke-width="2.46923" stroke-linecap="round" stroke-linejoin="round"/>
<path d="M736 78.077L805.656 37.7915C846.082 14.4115 895.918 14.4115 936.344 37.7915L1006 78.077L1075.66 118.362C1116.08 141.743 1165.92 141.743 1206.34 118.362L1276 78.077" stroke="#FFEDE4" stroke-width="2.46923" stroke-linecap="round" stroke-linejoin="round"/>
<path d="M736 158.385L805.656 118.1C846.082 94.7196 895.918 94.7196 936.344 118.1L1006 158.385L1075.66 198.671C1116.08 222.051 1165.92 222.051 1206.34 198.671L1276 158.385" stroke="#FFEDE4" stroke-width="2.46923" stroke-linecap="round" stroke-linejoin="round"/>
<path d="M736 185.155L805.656 144.869C846.082 121.489 895.918 121.489 936.344 144.869L1006 185.155L1075.66 225.44C1116.08 248.82 1165.92 248.82 1206.34 225.44L1276 185.155" stroke="#FFEDE4" stroke-width="2.46923" stroke-linecap="round" stroke-linejoin="round"/>
<path d="M736 211.923L805.656 171.637C846.082 148.257 895.918 148.257 936.344 171.637L1006 211.923L1075.66 252.208C1116.08 275.589 1165.92 275.589 1206.34 252.208L1276 211.923" stroke="#FFEDE4" stroke-width="2.46923" stroke-linecap="round" stroke-linejoin="round"/>
<path d="M0 131.616L133.017 75.1726C165.6 61.3467 202.4 61.3467 234.983 75.1726L368 131.616L501.017 188.059C533.6 201.885 570.4 201.885 602.983 188.059L736 131.616" stroke="#FFEDE4" stroke-width="2.46923" stroke-linecap="round" stroke-linejoin="round"/>
<path d="M0 104.846L133.017 48.4031C165.6 34.5772 202.4 34.5772 234.983 48.4031L368 104.846L501.017 161.29C533.6 175.115 570.4 175.115 602.983 161.29L736 104.846" stroke="#FFEDE4" stroke-width="2.46923" stroke-linecap="round" stroke-linejoin="round"/>
<path d="M0 78.077L133.017 21.6338C165.6 7.80789 202.4 7.80788 234.983 21.6338L368 78.077L501.017 134.52C533.6 148.346 570.4 148.346 602.983 134.52L736 78.077" stroke="#FFEDE4" stroke-width="2.46923" stroke-linecap="round" stroke-linejoin="round"/>
<path d="M0 158.385L133.017 101.942C165.6 88.116 202.4 88.116 234.983 101.942L368 158.385L501.017 214.828C533.6 228.654 570.4 228.654 602.983 214.828L736 158.385" stroke="#FFEDE4" stroke-width="2.46923" stroke-linecap="round" stroke-linejoin="round"/>
<path d="M0 185.155L133.017 128.711C165.6 114.886 202.4 114.886 234.983 128.711L368 185.155L501.017 241.598C533.6 255.424 570.4 255.424 602.983 241.598L736 185.155" stroke="#FFEDE4" stroke-width="2.46923" stroke-linecap="round" stroke-linejoin="round"/>
<path d="M0 211.923L133.017 155.48C165.6 141.654 202.4 141.654 234.983 155.48L368 211.923L501.017 268.366C533.6 282.192 570.4 282.192 602.983 268.366L736 211.923" stroke="#FFEDE4" stroke-width="2.46923" stroke-linecap="round" stroke-linejoin="round"/>
</svg>
