<svg width="34" height="28" viewBox="0 0 34 28" fill="none" xmlns="http://www.w3.org/2000/svg">
<path d="M11.4138 14.4338L26.5747 0.125229C26.7823 -0.0701889 27.0436 -0.0145499 27.2032 0.139266C27.2566 0.162115 27.3087 0.198482 27.3573 0.250711C29.3072 2.3289 31.4658 4.20748 33.8002 5.85772C34.2157 6.15662 33.9154 6.78709 33.5156 6.70573C26.3768 13.5505 19.4585 20.6005 12.7606 27.8557H12.7424C12.484 28.1463 12.101 27.9541 12.0035 27.6662C11.8395 27.793 11.5948 27.8301 11.3956 27.6585C7.296 24.2504 3.54758 20.4531 0.204521 16.3215C0.031711 16.2017 -0.070257 15.9797 0.056946 15.746C0.994867 13.9402 2.32063 12.3599 3.93936 11.1134L4.37043 10.5332C4.39945 10.4937 4.42818 10.4533 4.45705 10.4128C4.6636 10.1228 4.87673 9.8236 5.24401 9.74501C5.43617 9.7265 5.63007 9.7525 5.8102 9.82093C5.99034 9.88936 6.15173 9.99833 6.28143 10.1391L11.4138 14.4338ZM10.9895 15.2434L7.51902 12.2888L5.69901 10.7482C5.62949 10.7482 5.58387 10.7273 5.5449 10.7094C5.48185 10.6805 5.43622 10.6596 5.33498 10.7482C5.25661 10.8247 5.18488 10.9073 5.12042 10.9951C5.13964 11.0708 5.13935 11.1507 5.11875 11.2273C5.08842 11.3401 5.0162 11.4375 4.91636 11.5004C4.81497 11.5722 4.7147 11.6454 4.61557 11.7199L4.27945 12.1813C4.15667 12.3467 3.97882 12.3969 3.81515 12.372C2.67928 13.374 1.72617 14.5639 1.00041 15.8903C4.30321 19.9461 7.99791 23.6773 12.0327 27.0315C12.0882 27.0774 12.1272 27.1271 12.152 27.1781C18.794 19.9738 25.6527 12.977 32.7281 6.18775C30.6249 4.65894 28.6673 2.94448 26.8798 1.0655L12.3205 14.8063C12.3373 14.8545 12.3461 14.9056 12.3461 14.9576C12.3461 15.0778 12.2989 15.1933 12.2144 15.28L10.0668 17.5551C9.97868 17.6383 9.86131 17.6847 9.7392 17.6847C9.61709 17.6847 9.49973 17.6383 9.41161 17.5551C9.32824 17.4713 9.28153 17.3588 9.28153 17.2416C9.28153 17.1243 9.32824 17.0118 9.41161 16.9281L10.9895 15.2434Z" fill="#011E26"/>
<path d="M11.4138 14.4338L26.5747 0.125229C26.7823 -0.0701889 27.0436 -0.0145499 27.2032 0.139266C27.2566 0.162115 27.3087 0.198482 27.3573 0.250711C29.3072 2.3289 31.4658 4.20748 33.8002 5.85772C34.2157 6.15662 33.9154 6.78709 33.5156 6.70573C26.3768 13.5505 19.4585 20.6005 12.7606 27.8557H12.7424C12.484 28.1463 12.101 27.9541 12.0035 27.6662C11.8395 27.793 11.5948 27.8301 11.3956 27.6585C7.296 24.2504 3.54758 20.4531 0.204521 16.3215C0.031711 16.2017 -0.070257 15.9797 0.056946 15.746C0.994867 13.9402 2.32063 12.3599 3.93936 11.1134L4.37043 10.5332C4.39945 10.4937 4.42818 10.4533 4.45705 10.4128C4.6636 10.1228 4.87673 9.8236 5.24401 9.74501C5.43617 9.7265 5.63007 9.7525 5.8102 9.82093C5.99034 9.88936 6.15173 9.99833 6.28143 10.1391L11.4138 14.4338ZM10.9895 15.2434L7.51902 12.2888L5.69901 10.7482C5.62949 10.7482 5.58387 10.7273 5.5449 10.7094C5.48185 10.6805 5.43622 10.6596 5.33498 10.7482C5.25661 10.8247 5.18488 10.9073 5.12042 10.9951C5.13964 11.0708 5.13935 11.1507 5.11875 11.2273C5.08842 11.3401 5.0162 11.4375 4.91636 11.5004C4.81497 11.5722 4.7147 11.6454 4.61557 11.7199L4.27945 12.1813C4.15667 12.3467 3.97882 12.3969 3.81515 12.372C2.67928 13.374 1.72617 14.5639 1.00041 15.8903C4.30321 19.9461 7.99791 23.6773 12.0327 27.0315C12.0882 27.0774 12.1272 27.1271 12.152 27.1781C18.794 19.9738 25.6527 12.977 32.7281 6.18775C30.6249 4.65894 28.6673 2.94448 26.8798 1.0655L12.3205 14.8063C12.3373 14.8545 12.3461 14.9056 12.3461 14.9576C12.3461 15.0778 12.2989 15.1933 12.2144 15.28L10.0668 17.5551C9.97868 17.6383 9.86131 17.6847 9.7392 17.6847C9.61709 17.6847 9.49973 17.6383 9.41161 17.5551C9.32824 17.4713 9.28153 17.3588 9.28153 17.2416C9.28153 17.1243 9.32824 17.0118 9.41161 16.9281L10.9895 15.2434Z" stroke="#011E26"/>
</svg>
