<svg width="65" height="40" viewBox="0 0 65 40" fill="none" xmlns="http://www.w3.org/2000/svg">
<path d="M4.52575 38.4224L4.49169 38.4409L4.52575 38.4224ZM4.52575 38.4224L4.5262 38.4247L4.52575 38.4224Z" fill="#FFEDE4" stroke="#FFEDE4"/>
<mask id="path-2-inside-1_170_976" fill="white">
<path d="M36.3145 21.5588C31.5889 23.6391 26.7516 25.3834 21.8313 26.7814C19.3987 27.525 16.9769 28.3099 14.5475 29.0647C13.3366 29.4408 12.1276 29.8192 10.9116 30.1745C10.5184 30.2893 10.1242 30.4083 9.73159 30.5336L9.54248 30.1983C9.42863 30.0042 9.32882 29.8001 9.24401 29.5881C9.05436 29.1797 8.91388 28.7446 8.82627 28.2945C8.80166 28.1231 8.58603 28.1696 8.59418 28.3359C8.59125 28.8355 8.66436 29.3319 8.81033 29.8038C8.91279 30.1236 9.05696 30.4244 9.23811 30.6965C8.70078 30.8799 8.16882 31.0816 7.64899 31.3143C6.56383 31.7252 5.61782 32.5024 4.93997 33.5399C4.62683 34.0852 4.43568 34.7076 4.38283 35.3539C4.32998 36.0002 4.417 36.6513 4.63646 37.2516L4.68263 37.3021L4.74691 37.3069L4.79862 37.2638L4.81308 37.1932C4.70694 36.5936 4.71283 35.9759 4.83037 35.379C4.9479 34.7822 5.17452 34.2193 5.49585 33.7262C5.63265 33.5232 5.78596 33.3349 5.95379 33.1638C5.87042 33.6765 5.67316 34.1826 5.55807 34.6727C5.4841 34.9865 5.44177 35.3086 5.43189 35.633C5.41992 36.0107 5.50365 36.3755 5.49983 36.7496L5.51784 36.8107L5.56849 36.8406L5.62341 36.8226L5.65185 36.7668C5.71439 36.3918 5.7954 36.021 5.89451 35.656C5.97303 35.2778 6.06663 34.9042 6.17549 34.5373C6.376 33.9594 6.47034 33.3418 6.45282 32.7218C6.90005 32.39 7.3778 32.1133 7.87779 31.8966C8.92819 31.4215 10.0271 31.0736 11.0976 30.6632C12.2728 30.2129 13.4617 29.8274 14.6589 29.4585C17.01 28.734 19.3909 28.1172 21.7536 27.4433C24.1052 26.7729 26.4447 26.0485 28.7723 25.2701C31.4144 24.385 34.0322 23.4177 36.5951 22.272C37.0111 22.0861 36.7276 21.3665 36.3145 21.5588Z"/>
</mask>
<path d="M36.3145 21.5588C31.5889 23.6391 26.7516 25.3834 21.8313 26.7814C19.3987 27.525 16.9769 28.3099 14.5475 29.0647C13.3366 29.4408 12.1276 29.8192 10.9116 30.1745C10.5184 30.2893 10.1242 30.4083 9.73159 30.5336L9.54248 30.1983C9.42863 30.0042 9.32882 29.8001 9.24401 29.5881C9.05436 29.1797 8.91388 28.7446 8.82627 28.2945C8.80166 28.1231 8.58603 28.1696 8.59418 28.3359C8.59125 28.8355 8.66436 29.3319 8.81033 29.8038C8.91279 30.1236 9.05696 30.4244 9.23811 30.6965C8.70078 30.8799 8.16882 31.0816 7.64899 31.3143C6.56383 31.7252 5.61782 32.5024 4.93997 33.5399C4.62683 34.0852 4.43568 34.7076 4.38283 35.3539C4.32998 36.0002 4.417 36.6513 4.63646 37.2516L4.68263 37.3021L4.74691 37.3069L4.79862 37.2638L4.81308 37.1932C4.70694 36.5936 4.71283 35.9759 4.83037 35.379C4.9479 34.7822 5.17452 34.2193 5.49585 33.7262C5.63265 33.5232 5.78596 33.3349 5.95379 33.1638C5.87042 33.6765 5.67316 34.1826 5.55807 34.6727C5.4841 34.9865 5.44177 35.3086 5.43189 35.633C5.41992 36.0107 5.50365 36.3755 5.49983 36.7496L5.51784 36.8107L5.56849 36.8406L5.62341 36.8226L5.65185 36.7668C5.71439 36.3918 5.7954 36.021 5.89451 35.656C5.97303 35.2778 6.06663 34.9042 6.17549 34.5373C6.376 33.9594 6.47034 33.3418 6.45282 32.7218C6.90005 32.39 7.3778 32.1133 7.87779 31.8966C8.92819 31.4215 10.0271 31.0736 11.0976 30.6632C12.2728 30.2129 13.4617 29.8274 14.6589 29.4585C17.01 28.734 19.3909 28.1172 21.7536 27.4433C24.1052 26.7729 26.4447 26.0485 28.7723 25.2701C31.4144 24.385 34.0322 23.4177 36.5951 22.272C37.0111 22.0861 36.7276 21.3665 36.3145 21.5588Z" fill="#FFEDE4"/>
<path d="M36.3145 21.5588L36.7174 22.474L36.7271 22.4698L36.7366 22.4653L36.3145 21.5588ZM21.8313 26.7814L21.558 25.8194L21.5484 25.8222L21.539 25.8251L21.8313 26.7814ZM14.5475 29.0647L14.8441 30.0197L14.8442 30.0197L14.5475 29.0647ZM10.9116 30.1745L11.1918 31.1344L11.1921 31.1343L10.9116 30.1745ZM9.73159 30.5336L8.86053 31.0248L9.26028 31.7337L10.0356 31.4863L9.73159 30.5336ZM9.54248 30.1983L10.4135 29.7071L10.4094 29.6996L10.405 29.6923L9.54248 30.1983ZM9.24401 29.5881L10.1725 29.2167L10.1624 29.1916L10.151 29.167L9.24401 29.5881ZM8.82627 28.2945L7.83642 28.4366L7.83995 28.4612L7.84469 28.4856L8.82627 28.2945ZM8.59418 28.3359L9.59416 28.3417L9.59432 28.3143L9.59298 28.2869L8.59418 28.3359ZM8.81033 29.8038L7.85494 30.0994L7.85803 30.109L8.81033 29.8038ZM9.23811 30.6965L9.56109 31.6429L10.7903 31.2235L10.0705 30.1424L9.23811 30.6965ZM7.64899 31.3143L8.00311 32.2495L8.03065 32.2391L8.05754 32.227L7.64899 31.3143ZM4.93997 33.5399L4.1028 32.993L4.08709 33.017L4.07279 33.0419L4.93997 33.5399ZM4.63646 37.2516L3.69725 37.595L3.76507 37.7805L3.89835 37.9263L4.63646 37.2516ZM4.68263 37.3021L3.94452 37.9768L4.21233 38.2698L4.60817 38.2994L4.68263 37.3021ZM4.74691 37.3069L4.67245 38.3042L5.0768 38.3344L5.38799 38.0744L4.74691 37.3069ZM4.79862 37.2638L5.4397 38.0312L5.70807 37.8071L5.77826 37.4645L4.79862 37.2638ZM4.81308 37.1932L5.79273 37.3939L5.83106 37.2069L5.79777 37.0188L4.81308 37.1932ZM5.49585 33.7262L4.66655 33.1674L4.66223 33.1738L4.65801 33.1803L5.49585 33.7262ZM5.95379 33.1638L6.94083 33.3243L7.44662 30.2139L5.23991 32.4635L5.95379 33.1638ZM5.55807 34.6727L6.53139 34.9022L6.53159 34.9013L5.55807 34.6727ZM5.43189 35.633L6.43138 35.6647L6.43142 35.6635L5.43189 35.633ZM5.49983 36.7496L4.49988 36.7395L4.49836 36.8891L4.5407 37.0326L5.49983 36.7496ZM5.51784 36.8107L4.55871 37.0937L4.67019 37.4715L5.00942 37.6718L5.51784 36.8107ZM5.56849 36.8406L5.06007 37.7017L5.44974 37.9318L5.87977 37.7909L5.56849 36.8406ZM5.62341 36.8226L5.93469 37.7729L6.32697 37.6444L6.51439 37.2766L5.62341 36.8226ZM5.65185 36.7668L6.54283 37.2208L6.61285 37.0834L6.63822 36.9313L5.65185 36.7668ZM5.89451 35.656L6.85955 35.9181L6.86749 35.8889L6.87364 35.8593L5.89451 35.656ZM6.17549 34.5373L5.23074 34.2095L5.22327 34.231L5.21678 34.2529L6.17549 34.5373ZM6.45282 32.7218L5.85692 31.9188L5.4385 32.2293L5.45322 32.7501L6.45282 32.7218ZM7.87779 31.8966L8.27549 32.8141L8.28272 32.8109L8.2899 32.8077L7.87779 31.8966ZM11.0976 30.6632L10.7398 29.7294L10.7397 29.7295L11.0976 30.6632ZM14.6589 29.4585L14.9534 30.4142L14.9534 30.4142L14.6589 29.4585ZM21.7536 27.4433L21.4794 26.4817L21.4794 26.4817L21.7536 27.4433ZM28.7723 25.2701L29.0894 26.2185L29.0899 26.2183L28.7723 25.2701ZM36.5951 22.272L36.1871 21.3591L36.187 21.3591L36.5951 22.272ZM35.9116 20.6436C31.2276 22.7055 26.4336 24.4341 21.558 25.8194L22.1046 27.7433C27.0695 26.3326 31.9501 24.5727 36.7174 22.474L35.9116 20.6436ZM21.539 25.8251C19.1105 26.5674 16.6577 27.362 14.2508 28.1097L14.8442 30.0197C17.2961 29.2579 19.687 28.4826 22.1236 27.7377L21.539 25.8251ZM14.2509 28.1097C13.0364 28.4869 11.8371 28.8623 10.6312 29.2146L11.1921 31.1343C12.4181 30.7762 13.6367 30.3947 14.8441 30.0197L14.2509 28.1097ZM10.6315 29.2145C10.2323 29.331 9.8299 29.4526 9.42754 29.581L10.0356 31.4863C10.4185 31.3641 10.8044 31.2475 11.1918 31.1344L10.6315 29.2145ZM10.6027 30.0425L10.4135 29.7071L8.67142 30.6894L8.86053 31.0248L10.6027 30.0425ZM10.405 29.6923C10.3169 29.542 10.239 29.383 10.1725 29.2167L8.31554 29.9595C8.41865 30.2173 8.5404 30.4664 8.67994 30.7042L10.405 29.6923ZM10.151 29.167C9.99606 28.8333 9.88029 28.4756 9.80785 28.1035L7.84469 28.4856C7.94748 29.0137 8.11266 29.5261 8.337 30.0092L10.151 29.167ZM9.81613 28.1525C9.77902 27.894 9.64762 27.6012 9.36722 27.397C9.09391 27.1979 8.77492 27.1544 8.50531 27.2073C7.95535 27.3152 7.56734 27.8127 7.59538 28.3848L9.59298 28.2869C9.61287 28.6928 9.3286 29.0838 8.89057 29.1698C8.67692 29.2118 8.41595 29.1784 8.18974 29.0136C7.95644 28.8437 7.86121 28.6094 7.83642 28.4366L9.81613 28.1525ZM7.5942 28.33C7.59068 28.9306 7.67848 29.5287 7.85499 30.0993L9.76566 29.5083C9.65023 29.1351 9.59183 28.7404 9.59416 28.3417L7.5942 28.33ZM7.85803 30.109C7.98796 30.5145 8.17187 30.8995 8.40571 31.2507L10.0705 30.1424C9.94205 29.9494 9.83762 29.7327 9.76263 29.4987L7.85803 30.109ZM8.91513 29.7501C8.35713 29.9406 7.79531 30.1532 7.24045 30.4015L8.05754 32.227C8.54233 32.01 9.04442 31.8193 9.56109 31.6429L8.91513 29.7501ZM7.29488 30.3791C5.99781 30.8702 4.88813 31.7909 4.1028 32.993L5.77713 34.0869C6.34751 33.2138 7.12985 32.5801 8.00311 32.2495L7.29488 30.3791ZM4.07279 33.0419C3.68404 33.7189 3.45061 34.4841 3.38615 35.2724L5.3795 35.4354C5.42074 34.931 5.56962 34.4515 5.80714 34.0379L4.07279 33.0419ZM3.38615 35.2724C3.3217 36.0606 3.4274 36.8568 3.69725 37.595L5.57567 36.9083C5.40659 36.4458 5.33826 35.9398 5.3795 35.4354L3.38615 35.2724ZM3.89835 37.9263L3.94452 37.9768L5.42074 36.6275L5.37457 36.577L3.89835 37.9263ZM4.60817 38.2994L4.67245 38.3042L4.82137 36.3097L4.75709 36.3049L4.60817 38.2994ZM5.38799 38.0744L5.4397 38.0312L4.15754 36.4963L4.10583 36.5395L5.38799 38.0744ZM5.77826 37.4645L5.79273 37.3939L3.83344 36.9924L3.81898 37.063L5.77826 37.4645ZM5.79777 37.0188C5.71315 36.5409 5.71788 36.0477 5.81152 35.5722L3.84921 35.1858C3.70778 35.904 3.70073 36.6464 3.8284 37.3675L5.79777 37.0188ZM5.81152 35.5722C5.90516 35.0968 6.08463 34.6544 6.33368 34.2721L4.65801 33.1803C4.26442 33.7843 3.99065 34.4676 3.84921 35.1858L5.81152 35.5722ZM6.32514 34.285C6.42861 34.1315 6.54346 33.9907 6.66767 33.8641L5.23991 32.4635C5.02846 32.6791 4.8367 32.9149 4.66655 33.1674L6.32514 34.285ZM4.96676 33.0033C4.93577 33.1939 4.88106 33.3979 4.8085 33.6444C4.74151 33.8721 4.65045 34.1635 4.58455 34.4441L6.53159 34.9013C6.58078 34.6918 6.6459 34.4852 6.72715 34.209C6.80284 33.9518 6.88844 33.6464 6.94083 33.3243L4.96676 33.0033ZM4.58476 34.4432C4.49528 34.8227 4.44426 35.2116 4.43235 35.6026L6.43142 35.6635C6.43928 35.4057 6.47291 35.1502 6.53139 34.9022L4.58476 34.4432ZM4.43239 35.6014C4.424 35.8661 4.44956 36.1143 4.468 36.2945C4.48849 36.4946 4.50111 36.6196 4.49988 36.7395L6.49978 36.7598C6.50237 36.5055 6.47504 36.2611 6.4576 36.0908C6.43813 35.9006 6.42781 35.7777 6.43138 35.6647L4.43239 35.6014ZM4.5407 37.0326L4.55871 37.0937L6.47697 36.5277L6.45896 36.4667L4.5407 37.0326ZM5.00942 37.6718L5.06007 37.7017L6.0769 35.9795L6.02626 35.9496L5.00942 37.6718ZM5.87977 37.7909L5.93469 37.7729L5.31213 35.8723L5.2572 35.8903L5.87977 37.7909ZM6.51439 37.2766L6.54283 37.2208L4.76086 36.3128L4.73242 36.3686L6.51439 37.2766ZM6.63822 36.9313C6.69531 36.589 6.76923 36.2507 6.85955 35.9181L4.92947 35.3939C4.82158 35.7912 4.73346 36.1946 4.66547 36.6023L6.63822 36.9313ZM6.87364 35.8593C6.94665 35.5076 7.0335 35.1611 7.13419 34.8217L5.21678 34.2529C5.09976 34.6473 4.99941 35.048 4.91539 35.4528L6.87364 35.8593ZM7.12023 34.8651C7.361 34.1712 7.47331 33.4329 7.45242 32.6936L5.45322 32.7501C5.46737 33.2508 5.391 33.7476 5.23074 34.2095L7.12023 34.8651ZM7.04872 33.5249C7.43584 33.2376 7.84726 32.9997 8.27549 32.8141L7.48009 30.979C6.90834 31.2269 6.36426 31.5423 5.85692 31.9188L7.04872 33.5249ZM8.2899 32.8077C9.30938 32.3466 10.306 32.0377 11.4556 31.597L10.7397 29.7295C9.7482 30.1096 8.547 30.4963 7.46568 30.9854L8.2899 32.8077ZM11.4555 31.597C12.5997 31.1585 13.7639 30.7807 14.9534 30.4142L14.3645 28.5029C13.1595 28.8741 11.9459 29.2672 10.7398 29.7294L11.4555 31.597ZM14.9534 30.4142C17.294 29.6929 19.6311 29.0886 22.0279 28.405L21.4794 26.4817C19.1508 27.1458 16.7261 27.7751 14.3644 28.5029L14.9534 30.4142ZM22.0278 28.405C24.3939 27.7304 26.7477 27.0016 29.0894 26.2185L28.4551 24.3218C26.1418 25.0953 23.8165 25.8153 21.4794 26.4817L22.0278 28.405ZM29.0899 26.2183C31.7505 25.327 34.401 24.3482 37.0032 23.185L36.187 21.3591C33.6635 22.4872 31.0782 23.443 28.4546 24.3219L29.0899 26.2183ZM37.0031 23.185C37.8791 22.7935 37.8813 21.8774 37.6962 21.4072C37.5946 21.1493 37.3978 20.8667 37.0759 20.6883C36.7179 20.4899 36.2856 20.4691 35.8924 20.6523L36.7366 22.4653C36.5499 22.5523 36.308 22.5494 36.1063 22.4376C35.9408 22.3458 35.8663 22.2188 35.8352 22.1399C35.8032 22.0586 35.7799 21.9351 35.8222 21.7846C35.8721 21.6067 36.0039 21.4409 36.1871 21.3591L37.0031 23.185Z" fill="#FFEDE4" mask="url(#path-2-inside-1_170_976)"/>
<mask id="path-4-inside-2_170_976" fill="white">
<path d="M46.512 10.6731C43.9245 12.4692 40.9511 13.4403 37.9104 13.4823C36.5006 13.184 35.0718 13.0134 33.6377 12.9724C32.3991 13.1261 31.2266 13.6798 30.2619 14.5666C29.7151 15.0649 29.2474 15.6637 28.8785 16.3376C28.663 16.7328 28.4847 17.1643 28.2918 17.5836C26.7536 18.7433 25.4293 20.2641 23.8298 21.3195C23.031 21.8237 22.1832 22.2225 21.3031 22.5082C20.3924 22.8249 19.4589 23.1153 18.5258 23.3357C17.5839 23.558 16.6342 23.6198 15.6807 23.7422C14.7611 23.8689 13.8614 24.1378 13.0072 24.5411C12.1464 24.9576 11.3053 25.4234 10.487 25.9368C9.60104 26.4686 8.71167 26.9928 7.82732 27.5277C6.85492 28.1161 5.90454 28.7554 4.92468 29.3274C4.45241 29.5974 3.93004 29.7379 3.40022 29.7376C2.90516 29.7437 2.41442 29.8419 1.94786 30.0281L1.91046 30.073L1.90739 30.1344L1.94007 30.1837L1.99327 30.1979C2.48454 30.1376 2.98085 30.1533 3.46834 30.2444C3.90278 30.2729 4.33782 30.2014 4.74684 30.0344C5.16654 29.8335 5.57462 29.6032 5.96867 29.3449L7.32535 28.5401C9.07862 27.5086 10.8267 26.4589 12.6294 25.5381C13.4719 25.0905 14.3603 24.7614 15.2744 24.5583C16.2537 24.3566 17.2482 24.3049 18.2223 24.0604C19.1529 23.8265 20.0758 23.5459 20.9956 23.2637C21.8908 23.0093 22.7632 22.6625 23.6017 22.2278C24.5292 21.6769 25.4059 21.0241 26.219 20.2791C26.9514 19.6555 27.7048 19.0446 28.4074 18.3748C28.3841 18.4903 28.3861 18.6103 28.4133 18.7247C28.4404 18.8391 28.492 18.9443 28.5634 19.0313L28.6538 19.0278C28.8085 18.9086 28.8164 18.6833 28.8648 18.4933C28.9282 18.2437 28.9877 17.9895 29.0688 17.7461C29.1895 17.4158 29.3285 17.0943 29.4848 16.7835C29.7266 16.361 30.0081 15.969 30.3246 15.6142C31.2124 14.6436 32.3479 14.0093 33.5722 13.7998C34.5557 13.7184 35.5446 13.8111 36.5026 14.0746C36.6209 14.2335 36.7226 14.4071 36.8059 14.5919C36.9321 14.8266 37.0478 15.0682 37.1526 15.3159C37.3641 15.8131 37.553 16.3221 37.7185 16.841C38.0771 17.9504 38.4318 19.0611 38.8278 20.1538L38.8847 20.2156L38.9636 20.2214L39.0271 20.1683L39.045 20.0817C38.8053 18.7639 38.5017 17.4617 38.1357 16.1811C37.9626 15.5828 37.7415 15.0033 37.4753 14.4499L37.3559 14.2003L37.8442 14.2268C39.2906 14.2041 40.7252 13.9289 42.0965 13.4112C43.6931 12.8247 45.2276 12.043 46.6725 11.0802C46.889 10.9391 46.7407 10.5392 46.512 10.6731Z"/>
</mask>
<path d="M46.512 10.6731C43.9245 12.4692 40.9511 13.4403 37.9104 13.4823C36.5006 13.184 35.0718 13.0134 33.6377 12.9724C32.3991 13.1261 31.2266 13.6798 30.2619 14.5666C29.7151 15.0649 29.2474 15.6637 28.8785 16.3376C28.663 16.7328 28.4847 17.1643 28.2918 17.5836C26.7536 18.7433 25.4293 20.2641 23.8298 21.3195C23.031 21.8237 22.1832 22.2225 21.3031 22.5082C20.3924 22.8249 19.4589 23.1153 18.5258 23.3357C17.5839 23.558 16.6342 23.6198 15.6807 23.7422C14.7611 23.8689 13.8614 24.1378 13.0072 24.5411C12.1464 24.9576 11.3053 25.4234 10.487 25.9368C9.60104 26.4686 8.71167 26.9928 7.82732 27.5277C6.85492 28.1161 5.90454 28.7554 4.92468 29.3274C4.45241 29.5974 3.93004 29.7379 3.40022 29.7376C2.90516 29.7437 2.41442 29.8419 1.94786 30.0281L1.91046 30.073L1.90739 30.1344L1.94007 30.1837L1.99327 30.1979C2.48454 30.1376 2.98085 30.1533 3.46834 30.2444C3.90278 30.2729 4.33782 30.2014 4.74684 30.0344C5.16654 29.8335 5.57462 29.6032 5.96867 29.3449L7.32535 28.5401C9.07862 27.5086 10.8267 26.4589 12.6294 25.5381C13.4719 25.0905 14.3603 24.7614 15.2744 24.5583C16.2537 24.3566 17.2482 24.3049 18.2223 24.0604C19.1529 23.8265 20.0758 23.5459 20.9956 23.2637C21.8908 23.0093 22.7632 22.6625 23.6017 22.2278C24.5292 21.6769 25.4059 21.0241 26.219 20.2791C26.9514 19.6555 27.7048 19.0446 28.4074 18.3748C28.3841 18.4903 28.3861 18.6103 28.4133 18.7247C28.4404 18.8391 28.492 18.9443 28.5634 19.0313L28.6538 19.0278C28.8085 18.9086 28.8164 18.6833 28.8648 18.4933C28.9282 18.2437 28.9877 17.9895 29.0688 17.7461C29.1895 17.4158 29.3285 17.0943 29.4848 16.7835C29.7266 16.361 30.0081 15.969 30.3246 15.6142C31.2124 14.6436 32.3479 14.0093 33.5722 13.7998C34.5557 13.7184 35.5446 13.8111 36.5026 14.0746C36.6209 14.2335 36.7226 14.4071 36.8059 14.5919C36.9321 14.8266 37.0478 15.0682 37.1526 15.3159C37.3641 15.8131 37.553 16.3221 37.7185 16.841C38.0771 17.9504 38.4318 19.0611 38.8278 20.1538L38.8847 20.2156L38.9636 20.2214L39.0271 20.1683L39.045 20.0817C38.8053 18.7639 38.5017 17.4617 38.1357 16.1811C37.9626 15.5828 37.7415 15.0033 37.4753 14.4499L37.3559 14.2003L37.8442 14.2268C39.2906 14.2041 40.7252 13.9289 42.0965 13.4112C43.6931 12.8247 45.2276 12.043 46.6725 11.0802C46.889 10.9391 46.7407 10.5392 46.512 10.6731Z" fill="#FFEDE4"/>
<path d="M46.512 10.6731L46.0067 9.81014L45.9735 9.82961L45.9418 9.85159L46.512 10.6731ZM37.9104 13.4823L37.7033 14.4607L37.8125 14.4838L37.9242 14.4823L37.9104 13.4823ZM33.6377 12.9724L33.6663 11.9728L33.5901 11.9706L33.5145 11.98L33.6377 12.9724ZM30.2619 14.5666L30.9355 15.3057L30.9386 15.3028L30.2619 14.5666ZM28.8785 16.3376L28.0013 15.8574L28.0005 15.8589L28.8785 16.3376ZM28.2918 17.5836L28.8938 18.3821L29.0949 18.2304L29.2002 18.0015L28.2918 17.5836ZM23.8298 21.3195L24.3636 22.1651L24.3721 22.1597L24.3806 22.1542L23.8298 21.3195ZM21.3031 22.5082L20.9944 21.5571L20.9845 21.5603L20.9747 21.5637L21.3031 22.5082ZM18.5258 23.3357L18.7556 24.3089L18.7557 24.3089L18.5258 23.3357ZM15.6807 23.7422L15.5534 22.7502L15.5442 22.7515L15.6807 23.7422ZM13.0072 24.5411L12.5802 23.6368L12.5717 23.6409L13.0072 24.5411ZM10.487 25.9368L11.0016 26.7942L11.0101 26.7891L11.0184 26.7839L10.487 25.9368ZM7.82732 27.5277L7.30976 26.6721L7.30968 26.6721L7.82732 27.5277ZM4.92468 29.3274L5.42101 30.1956L5.4288 30.191L4.92468 29.3274ZM3.40022 29.7376L3.40087 28.7375L3.38779 28.7377L3.40022 29.7376ZM1.94786 30.0281L1.57715 29.0994L1.34197 29.1933L1.1798 29.3877L1.94786 30.0281ZM1.91046 30.073L1.14241 29.4326L0.928422 29.6892L0.911711 30.023L1.91046 30.073ZM1.90739 30.1344L0.908637 30.0844L0.892186 30.4129L1.07398 30.687L1.90739 30.1344ZM1.94007 30.1837L1.10667 30.7363L1.31601 31.052L1.68197 31.1498L1.94007 30.1837ZM1.99327 30.1979L1.73517 31.164L1.92256 31.214L2.11507 31.1904L1.99327 30.1979ZM3.46834 30.2444L3.28447 31.2274L3.34326 31.2384L3.40294 31.2423L3.46834 30.2444ZM4.74684 30.0344L5.12496 30.9601L5.15211 30.949L5.17856 30.9364L4.74684 30.0344ZM5.96867 29.3449L5.45846 28.4849L5.43919 28.4963L5.42044 28.5086L5.96867 29.3449ZM7.32535 28.5401L6.81828 27.6782L6.81514 27.68L7.32535 28.5401ZM12.6294 25.5381L13.0842 26.4286L13.0914 26.425L13.0985 26.4212L12.6294 25.5381ZM15.2744 24.5583L15.0727 23.5788L15.0651 23.5804L15.0575 23.5821L15.2744 24.5583ZM18.2223 24.0604L18.4658 25.0303L18.466 25.0302L18.2223 24.0604ZM20.9956 23.2637L20.7222 22.3019L20.7122 22.3047L20.7024 22.3077L20.9956 23.2637ZM23.6017 22.2278L24.0619 23.1156L24.0876 23.1023L24.1124 23.0876L23.6017 22.2278ZM26.219 20.2791L25.5707 19.5177L25.5569 19.5295L25.5435 19.5418L26.219 20.2791ZM28.4074 18.3748L29.3876 18.5726L30.0158 15.4597L27.7173 17.651L28.4074 18.3748ZM28.4133 18.7247L29.3862 18.4935L28.4133 18.7247ZM28.5634 19.0313L27.7904 19.6657L28.1056 20.0498L28.6021 20.0306L28.5634 19.0313ZM28.6538 19.0278L28.6926 20.0271L29.0117 20.0147L29.2646 19.8196L28.6538 19.0278ZM28.8648 18.4933L29.8339 18.7399L29.834 18.7396L28.8648 18.4933ZM29.0688 17.7461L28.1296 17.4029L28.1246 17.4163L28.1201 17.43L29.0688 17.7461ZM29.4848 16.7835L28.6169 16.2868L28.6035 16.3101L28.5914 16.3342L29.4848 16.7835ZM30.3246 15.6142L29.5867 14.9392L29.5784 14.9485L30.3246 15.6142ZM33.5722 13.7998L33.4897 12.8032L33.4464 12.8068L33.4035 12.8141L33.5722 13.7998ZM36.5026 14.0746L37.3047 13.4774L37.0993 13.2016L36.7677 13.1104L36.5026 14.0746ZM36.8059 14.5919L35.8941 15.0026L35.9086 15.0347L35.9253 15.0657L36.8059 14.5919ZM37.1526 15.3159L36.2315 15.7053L36.2324 15.7074L37.1526 15.3159ZM37.7185 16.841L36.7658 17.1449L36.767 17.1486L37.7185 16.841ZM38.8278 20.1538L37.8877 20.4946L37.956 20.683L38.0917 20.8306L38.8278 20.1538ZM38.8847 20.2156L38.1485 20.8925L38.4167 21.1841L38.8119 21.213L38.8847 20.2156ZM38.9636 20.2214L38.8908 21.2187L39.2943 21.2482L39.6048 20.9888L38.9636 20.2214ZM39.0271 20.1683L39.6683 20.9357L39.9361 20.712L40.0066 20.3702L39.0271 20.1683ZM39.045 20.0817L40.0244 20.2835L40.0636 20.0936L40.0289 19.9027L39.045 20.0817ZM38.1357 16.1811L39.0972 15.9063L39.0963 15.9032L38.1357 16.1811ZM37.4753 14.4499L36.5732 14.8815L36.5741 14.8834L37.4753 14.4499ZM37.3559 14.2003L37.4101 13.2017L35.7259 13.1103L36.4538 14.6318L37.3559 14.2003ZM37.8442 14.2268L37.79 15.2253L37.8249 15.2272L37.8598 15.2266L37.8442 14.2268ZM42.0965 13.4112L41.7517 12.4725L41.7433 12.4757L42.0965 13.4112ZM46.6725 11.0802L46.1265 10.2423L46.118 10.248L46.6725 11.0802ZM45.9418 9.85159C43.5116 11.5385 40.7308 12.4432 37.8965 12.4824L37.9242 14.4823C41.1715 14.4373 44.3373 13.3999 47.0823 11.4946L45.9418 9.85159ZM38.1174 12.504C36.6492 12.1933 35.1607 12.0156 33.6663 11.9728L33.6091 13.972C34.9829 14.0113 36.352 14.1747 37.7033 14.4607L38.1174 12.504ZM33.5145 11.98C32.0585 12.1607 30.6951 12.8101 29.5851 13.8304L30.9386 15.3028C31.7581 14.5495 32.7397 14.0915 33.7609 13.9648L33.5145 11.98ZM29.5882 13.8275C28.9567 14.4032 28.4212 15.0904 28.0013 15.8574L29.7557 16.8178C30.0735 16.2371 30.4736 15.7267 30.9355 15.3057L29.5882 13.8275ZM28.0005 15.8589C27.7634 16.2938 27.5535 16.7956 27.3833 17.1657L29.2002 18.0015C29.4158 17.533 29.5626 17.1719 29.7565 16.8163L28.0005 15.8589ZM27.6897 16.7851C26.8746 17.3997 26.1166 18.1098 25.4114 18.7505C24.6886 19.4071 24.0079 20.0039 23.2791 20.4848L24.3806 22.1542C25.2512 21.5797 26.0324 20.8884 26.7562 20.2308C27.4975 19.5574 28.1708 18.9272 28.8938 18.3821L27.6897 16.7851ZM23.296 20.4739C22.5661 20.9346 21.7937 21.2976 20.9944 21.5571L21.6119 23.4594C22.5727 23.1475 23.4959 22.7128 24.3636 22.1651L23.296 20.4739ZM20.9747 21.5637C20.0836 21.8736 19.1847 22.1525 18.2959 22.3624L18.7557 24.3089C19.733 24.078 20.7013 23.7762 21.6316 23.4528L20.9747 21.5637ZM18.2961 22.3624C17.4215 22.5689 16.589 22.6174 15.5534 22.7503L15.808 24.734C16.6794 24.6222 17.7463 24.5472 18.7556 24.3089L18.2961 22.3624ZM15.5442 22.7515C14.5221 22.8924 13.5247 23.1909 12.5802 23.6369L13.4342 25.4454C14.1982 25.0846 15.0001 24.8454 15.8172 24.7328L15.5442 22.7515ZM12.5717 23.6409C11.6777 24.0735 10.8045 24.5571 9.9555 25.0897L11.0184 26.7839C11.806 26.2897 12.6152 25.8417 13.4427 25.4413L12.5717 23.6409ZM9.97227 25.0794C9.09898 25.6037 8.19261 26.1381 7.30976 26.6721L8.34489 28.3834C9.23074 27.8475 10.1031 27.3336 11.0016 26.7942L9.97227 25.0794ZM7.30968 26.6721C6.25244 27.3118 5.42132 27.8796 4.42057 28.4637L5.4288 30.191C6.38775 29.6313 7.45741 28.9203 8.34497 28.3833L7.30968 26.6721ZM4.42838 28.4592C4.10321 28.6451 3.75156 28.7378 3.40087 28.7376L3.39957 30.7376C4.10851 30.738 4.80162 30.5496 5.42099 30.1955L4.42838 28.4592ZM3.38779 28.7377C2.76812 28.7454 2.15605 28.8683 1.57715 29.0994L2.31856 30.9569C2.67279 30.8155 3.04219 30.7421 3.41265 30.7375L3.38779 28.7377ZM1.1798 29.3877L1.14241 29.4326L2.67851 30.7134L2.71591 30.6685L1.1798 29.3877ZM0.911711 30.023L0.908637 30.0844L2.90613 30.1844L2.90921 30.123L0.911711 30.023ZM1.07398 30.687L1.10667 30.7363L2.77347 29.631L2.74079 29.5817L1.07398 30.687ZM1.68197 31.1498L1.73517 31.164L2.25137 29.2317L2.19817 29.2175L1.68197 31.1498ZM2.11507 31.1904C2.50435 31.1427 2.89756 31.155 3.28447 31.2274L3.65221 29.2615C3.06413 29.1515 2.46473 29.1325 1.87147 29.2053L2.11507 31.1904ZM3.40294 31.2423C3.99109 31.2808 4.57764 31.1837 5.12496 30.9601L4.36873 29.1086C4.098 29.2192 3.81447 29.265 3.53373 29.2466L3.40294 31.2423ZM5.17856 30.9364C5.63902 30.716 6.08599 30.4637 6.5169 30.1812L5.42044 28.5086C5.06324 28.7427 4.69406 28.951 4.31512 29.1324L5.17856 30.9364ZM6.47888 30.205L7.83556 29.4001L6.81514 27.68L5.45846 28.4849L6.47888 30.205ZM7.83242 29.402C9.59832 28.3631 11.3148 27.3324 13.0842 26.4286L12.1745 24.6475C10.3386 25.5853 8.55892 26.6542 6.81829 27.6782L7.83242 29.402ZM13.0985 26.4212C13.863 26.0151 14.6667 25.7177 15.4914 25.5345L15.0575 23.5821C14.0538 23.8051 13.0807 24.166 12.1602 24.655L13.0985 26.4212ZM15.4761 25.5377C15.926 25.4451 16.379 25.3868 16.8884 25.3158C17.3829 25.2469 17.9219 25.1668 18.4658 25.0303L17.9788 23.0905C17.5486 23.1985 17.1033 23.2665 16.6122 23.335C16.136 23.4014 15.6022 23.4698 15.0727 23.5788L15.4761 25.5377ZM18.466 25.0302C19.4249 24.7893 20.3709 24.5014 21.2889 24.2198L20.7024 22.3077C19.7806 22.5905 18.8809 22.8638 17.9786 23.0905L18.466 25.0302ZM21.2691 24.2256C22.2298 23.9525 23.1647 23.5807 24.0619 23.1156L23.1415 21.34C22.3617 21.7442 21.5518 22.066 20.7222 22.3019L21.2691 24.2256ZM24.1124 23.0876C25.1002 22.5008 26.032 21.8068 26.8946 21.0164L25.5435 19.5418C24.7798 20.2415 23.9582 20.853 23.091 21.368L24.1124 23.0876ZM26.8673 21.0405C27.5752 20.4377 28.3678 19.7941 29.0974 19.0986L27.7173 17.651C27.0418 18.295 26.3276 18.8733 25.5707 19.5177L26.8673 21.0405ZM27.4271 18.177C27.3753 18.434 27.3797 18.7005 27.4404 18.9559L29.3862 18.4935C29.3925 18.5202 29.3929 18.5465 29.3876 18.5726L27.4271 18.177ZM27.4404 18.9559C27.5011 19.2114 27.6182 19.456 27.7904 19.6657L29.3364 18.3969C29.3657 18.4326 29.3798 18.4668 29.3862 18.4935L27.4404 18.9559ZM28.6021 20.0306L28.6926 20.0271L28.6151 18.0286L28.5246 18.0321L28.6021 20.0306ZM29.2646 19.8196C29.5883 19.5699 29.7086 19.2427 29.7601 19.0639C29.7864 18.9725 29.8037 18.8863 29.8137 18.8368C29.8262 18.7742 29.8298 18.7561 29.8339 18.7399L27.8957 18.2466C27.8848 18.2893 27.8762 18.3288 27.8694 18.3609C27.8631 18.3911 27.8566 18.4239 27.8527 18.4436C27.848 18.4669 27.8449 18.482 27.8421 18.4943C27.8394 18.5061 27.8382 18.5106 27.8383 18.5102C27.8384 18.5098 27.8408 18.5015 27.8462 18.4878C27.8517 18.474 27.8611 18.4525 27.8761 18.4262C27.9074 18.3711 27.9605 18.2997 28.0431 18.236L29.2646 19.8196ZM29.834 18.7396C29.9042 18.4634 29.9513 18.2609 30.0175 18.0623L28.1201 17.43C28.024 17.7182 27.9523 18.0239 27.8956 18.247L29.834 18.7396ZM30.008 18.0894C30.1157 17.7949 30.2393 17.5088 30.3782 17.2328L28.5914 16.3342C28.4176 16.6798 28.2634 17.0368 28.1296 17.4029L30.008 18.0894ZM30.3527 17.2802C30.5608 16.9166 30.8018 16.5815 31.0708 16.28L29.5784 14.9485C29.2145 15.3564 28.8924 15.8053 28.6169 16.2868L30.3527 17.2802ZM31.0625 16.2892C31.8098 15.4722 32.749 14.9552 33.7408 14.7855L33.4035 12.8141C31.9468 13.0634 30.6151 13.8151 29.5867 14.9393L31.0625 16.2892ZM33.6547 14.7964C34.5205 14.7247 35.3917 14.8062 36.2374 15.0388L36.7677 13.1104C35.6974 12.816 34.5909 12.7121 33.4897 12.8032L33.6547 14.7964ZM35.7004 14.6717C35.7745 14.7712 35.8398 14.8821 35.8941 15.0026L37.7177 14.1813C37.6054 13.932 37.4672 13.6957 37.3047 13.4774L35.7004 14.6717ZM35.9253 15.0657C36.0366 15.2727 36.1388 15.4861 36.2315 15.7053L38.0736 14.9265C37.9568 14.6503 37.8277 14.3805 37.6865 14.1182L35.9253 15.0657ZM36.2324 15.7074C36.4316 16.1757 36.6097 16.6555 36.7658 17.1449L38.6712 16.537C38.4963 15.9888 38.2966 15.4505 38.0727 14.9244L36.2324 15.7074ZM36.767 17.1486C37.1235 18.2516 37.4843 19.3816 37.8877 20.4946L39.768 19.813C39.3792 18.7406 39.0307 17.6492 38.67 16.5334L36.767 17.1486ZM38.0917 20.8306L38.1485 20.8925L39.6208 19.5388L39.564 19.477L38.0917 20.8306ZM38.8119 21.213L38.8908 21.2187L39.0365 19.2241L38.9575 19.2183L38.8119 21.213ZM39.6048 20.9888L39.6683 20.9357L38.386 19.401L38.3225 19.454L39.6048 20.9888ZM40.0066 20.3702L40.0244 20.2835L38.0656 19.8798L38.0477 19.9665L40.0066 20.3702ZM40.0289 19.9027C39.7833 18.5528 39.4723 17.2187 39.0972 15.9063L37.1742 16.4559C37.5311 17.7048 37.8273 18.9749 38.0612 20.2607L40.0289 19.9027ZM39.0963 15.9032C38.9079 15.2522 38.6671 14.6207 38.3765 14.0164L36.5741 14.8834C36.8159 15.386 37.0172 15.9134 37.1751 16.4591L39.0963 15.9032ZM38.3774 14.0183L38.2579 13.7687L36.4538 14.6318L36.5732 14.8815L38.3774 14.0183ZM37.3017 15.1988L37.79 15.2253L37.8984 13.2282L37.4101 13.2017L37.3017 15.1988ZM37.8598 15.2266C39.4232 15.2021 40.9719 14.9047 42.4497 14.3468L41.7433 12.4757C40.4785 12.9532 39.158 13.206 37.8285 13.2269L37.8598 15.2266ZM42.4414 14.3499C44.1133 13.7357 45.7181 12.9179 47.2271 11.9123L46.118 10.248C44.7372 11.1681 43.2729 11.9137 41.7517 12.4726L42.4414 14.3499ZM47.2185 11.918C47.8349 11.5163 47.8465 10.8168 47.6931 10.416C47.6099 10.1987 47.4324 9.9229 47.1032 9.76199C46.7262 9.57763 46.3192 9.62716 46.0067 9.81014L47.0173 11.536C46.8192 11.6521 46.5165 11.7014 46.2248 11.5587C45.981 11.4396 45.8699 11.2475 45.8253 11.131C45.7491 10.9319 45.7267 10.503 46.1266 10.2424L47.2185 11.918Z" fill="#FFEDE4" mask="url(#path-4-inside-2_170_976)"/>
<path d="M6.64901 36.8605L6.65711 36.8918L6.64901 36.8605ZM6.64901 36.8605L6.65238 36.8593L6.64901 36.8605ZM6.64901 36.8605L6.64796 36.8564L6.64901 36.8605ZM6.64901 36.8605L6.62709 36.8681M6.64901 36.8605L6.62709 36.8681M6.62709 36.8681L6.63794 36.8498M6.62709 36.8681L6.63794 36.8498M6.63794 36.8498L6.64374 36.84L6.63794 36.8498Z" fill="#FFEDE4" stroke="#FFEDE4"/>
<mask id="path-7-inside-3_170_976" fill="white">
<path d="M55.1517 7.3493C54.5725 7.78916 53.9627 8.17575 53.3283 8.50528C52.6097 8.71636 51.8629 8.77856 51.1245 8.68885C50.4288 8.64133 49.7308 8.71736 49.0561 8.91412C48.7269 9.02966 48.4123 9.19235 48.1201 9.39818L47.7235 9.6979C47.5644 9.82846 47.4347 9.99585 47.2756 10.1212C47.1749 10.2005 47.2793 10.3903 47.389 10.3285C47.701 10.1531 48.0612 10.0331 48.3856 9.8838C48.7217 9.71667 49.0696 9.58129 49.4256 9.47906C49.691 9.41432 49.961 9.37688 50.2323 9.3672C51.5843 9.67354 53.1029 10.0761 53.5288 11.7074L53.5722 11.7819L53.6494 11.8019L53.7174 11.7561L53.7382 11.6702C53.6974 11.1997 53.5539 10.7477 53.3204 10.3545C53.0869 9.96129 52.7707 9.63896 52.3999 9.41611L52.2612 9.33037C53.4152 9.16823 54.5039 8.63815 55.3985 7.80277C55.6026 7.61842 55.3914 7.19574 55.1517 7.3493Z"/>
</mask>
<path d="M55.1517 7.3493C54.5725 7.78916 53.9627 8.17575 53.3283 8.50528C52.6097 8.71636 51.8629 8.77856 51.1245 8.68885C50.4288 8.64133 49.7308 8.71736 49.0561 8.91412C48.7269 9.02966 48.4123 9.19235 48.1201 9.39818L47.7235 9.6979C47.5644 9.82846 47.4347 9.99585 47.2756 10.1212C47.1749 10.2005 47.2793 10.3903 47.389 10.3285C47.701 10.1531 48.0612 10.0331 48.3856 9.8838C48.7217 9.71667 49.0696 9.58129 49.4256 9.47906C49.691 9.41432 49.961 9.37688 50.2323 9.3672C51.5843 9.67354 53.1029 10.0761 53.5288 11.7074L53.5722 11.7819L53.6494 11.8019L53.7174 11.7561L53.7382 11.6702C53.6974 11.1997 53.5539 10.7477 53.3204 10.3545C53.0869 9.96129 52.7707 9.63896 52.3999 9.41611L52.2612 9.33037C53.4152 9.16823 54.5039 8.63815 55.3985 7.80277C55.6026 7.61842 55.3914 7.19574 55.1517 7.3493Z" fill="#FFEDE4"/>
<path d="M55.1517 7.3493L54.6123 6.50725L54.5787 6.52879L54.5469 6.55294L55.1517 7.3493ZM53.3283 8.50528L53.6101 9.46474L53.7031 9.43742L53.7892 9.39273L53.3283 8.50528ZM51.1245 8.68885L51.2451 7.69615L51.2189 7.69297L51.1926 7.69117L51.1245 8.68885ZM49.0561 8.91412L48.7761 7.95412L48.7503 7.96165L48.7249 7.97055L49.0561 8.91412ZM48.1201 9.39818L47.5443 8.58063L47.5306 8.59028L47.5172 8.60038L48.1201 9.39818ZM47.7235 9.6979L47.1206 8.9001L47.1046 8.91215L47.0892 8.92483L47.7235 9.6979ZM47.2756 10.1212L46.6569 9.33551L46.6569 9.33555L47.2756 10.1212ZM47.389 10.3285L46.899 9.45679L46.8984 9.45712L47.389 10.3285ZM48.3856 9.8838L48.8036 10.7923L48.8174 10.7859L48.8309 10.7792L48.3856 9.8838ZM49.4256 9.47906L49.1886 8.50756L49.169 8.51233L49.1497 8.51789L49.4256 9.47906ZM50.2323 9.3672L50.4533 8.39192L50.3266 8.3632L50.1967 8.36783L50.2323 9.3672ZM53.5288 11.7074L52.5612 11.96L52.5958 12.0924L52.6647 12.2107L53.5288 11.7074ZM53.5722 11.7819L52.7081 12.2852L52.9181 12.6458L53.3222 12.7502L53.5722 11.7819ZM53.6494 11.8019L53.3994 12.7701L53.8347 12.8825L54.2078 12.6315L53.6494 11.8019ZM53.7174 11.7561L54.2757 12.5857L54.5977 12.369L54.6892 11.9917L53.7174 11.7561ZM53.7382 11.6702L54.71 11.9058L54.7486 11.7468L54.7344 11.5838L53.7382 11.6702ZM52.3999 9.41611L51.8739 10.2667L51.8848 10.2733L52.3999 9.41611ZM52.2612 9.33037L52.1221 8.34009L49.3811 8.72521L51.7353 10.1809L52.2612 9.33037ZM55.3985 7.80277L54.7281 7.06081L54.722 7.06628L54.7161 7.07186L55.3985 7.80277ZM54.5469 6.55294C54.0122 6.959 53.4505 7.31496 52.8673 7.61783L53.7892 9.39273C54.475 9.03653 55.1329 8.61933 55.7565 8.14566L54.5469 6.55294ZM53.0464 7.54582C52.4574 7.71884 51.8475 7.76934 51.2451 7.69615L51.0039 9.68155C51.8783 9.78778 52.7619 9.71388 53.6101 9.46474L53.0464 7.54582ZM51.1926 7.69117C50.3786 7.63558 49.5628 7.72468 48.7761 7.95412L49.3361 9.87413C49.8987 9.71003 50.4789 9.64709 51.0563 9.68652L51.1926 7.69117ZM48.7249 7.97055C48.3066 8.11736 47.91 8.32303 47.5443 8.58063L48.6959 10.2157C48.9147 10.0617 49.1472 9.94195 49.3873 9.85769L48.7249 7.97055ZM47.5172 8.60038L47.1206 8.9001L48.3264 10.4957L48.723 10.196L47.5172 8.60038ZM47.0892 8.92483C46.959 9.03163 46.847 9.14855 46.7846 9.21238C46.7073 9.29141 46.678 9.31891 46.6569 9.33551L47.8943 10.9068C48.0323 10.7981 48.1475 10.6793 48.2146 10.6106C48.2965 10.5268 48.3289 10.4947 48.3578 10.471L47.0892 8.92483ZM46.6569 9.33555C46.0864 9.78489 46.209 10.4528 46.3765 10.7584C46.4722 10.933 46.6422 11.1323 46.9098 11.2494C47.2115 11.3815 47.5694 11.3745 47.8796 11.1999L46.8984 9.45712C47.1537 9.31338 47.4574 9.30586 47.7118 9.41723C47.9321 9.51366 48.0618 9.67212 48.1303 9.79706C48.2434 10.0034 48.3642 10.5367 47.8943 10.9068L46.6569 9.33555ZM47.879 11.2002C47.9814 11.1427 48.1045 11.0872 48.2669 11.0196C48.4116 10.9594 48.6191 10.8772 48.8036 10.7923L47.9677 8.97533C47.8277 9.03973 47.6929 9.09218 47.4984 9.17313C47.3216 9.24673 47.1086 9.33895 46.899 9.45679L47.879 11.2002ZM48.8309 10.7792C49.1134 10.6387 49.4046 10.5255 49.7016 10.4402L49.1497 8.51789C48.7345 8.63709 48.33 8.79462 47.9404 8.98842L48.8309 10.7792ZM49.6627 10.4506C49.8624 10.4018 50.0649 10.3738 50.268 10.3666L50.1967 8.36783C49.857 8.37995 49.5195 8.42681 49.1886 8.50756L49.6627 10.4506ZM50.0114 10.3425C51.4562 10.6698 52.3074 10.9876 52.5612 11.96L54.4964 11.4548C53.8985 9.16464 51.7125 8.67723 50.4533 8.39192L50.0114 10.3425ZM52.6647 12.2107L52.7081 12.2852L54.4363 11.2786L54.3929 11.2041L52.6647 12.2107ZM53.3222 12.7502L53.3994 12.7701L53.8994 10.8336L53.8222 10.8137L53.3222 12.7502ZM54.2078 12.6315L54.2757 12.5857L53.159 10.9265L53.091 10.9723L54.2078 12.6315ZM54.6892 11.9917L54.71 11.9058L52.7663 11.4346L52.7455 11.5205L54.6892 11.9917ZM54.7344 11.5838C54.6811 10.9685 54.4931 10.3708 54.1803 9.84398L52.4605 10.865C52.6147 11.1246 52.7137 11.4308 52.7419 11.7566L54.7344 11.5838ZM54.1803 9.84398C53.8673 9.31683 53.4358 8.8719 52.9149 8.55895L51.8848 10.2733C52.1057 10.406 52.3066 10.6057 52.4605 10.865L54.1803 9.84398ZM52.9258 8.56557L52.7871 8.47983L51.7353 10.1809L51.874 10.2666L52.9258 8.56557ZM52.4003 10.3206C53.7684 10.1284 55.0442 9.50179 56.081 8.53367L54.7161 7.07186C53.9635 7.77452 53.062 8.20803 52.1221 8.34009L52.4003 10.3206ZM56.069 8.54473C56.6214 8.04552 56.5168 7.34779 56.3278 6.98609C56.2216 6.78297 56.0249 6.53944 55.7039 6.40603C55.3375 6.25374 54.9354 6.30028 54.6123 6.50725L55.6911 8.19135C55.4879 8.32154 55.2021 8.36334 54.9363 8.25287C54.7159 8.16128 54.6042 8.00615 54.5553 7.91255C54.4807 7.76988 54.3797 7.37566 54.7281 7.06081L56.069 8.54473Z" fill="#FFEDE4" mask="url(#path-7-inside-3_170_976)"/>
<mask id="path-9-inside-4_170_976" fill="white">
<path d="M56.3018 11.8457C55.542 11.9753 54.8148 12.282 54.1666 12.746C53.8451 13.0114 53.5821 13.3563 53.3979 13.7541C53.3343 13.3074 53.2504 12.8645 53.1658 12.4128L53.1182 12.3286L53.0318 12.3058L52.9559 12.3575L52.9337 12.4541C53.0062 13.344 53.0178 14.2388 52.9684 15.1307C52.9523 15.9594 52.8906 16.7886 52.819 17.6135C52.6713 19.3173 52.4711 21.0164 52.299 22.7172C52.1952 23.5496 52.1338 24.388 52.1151 25.2283C52.1151 26.0795 52.166 26.9237 52.1074 27.7741C51.9901 29.4771 51.7656 31.1762 51.5874 32.8724C51.4859 33.8354 51.3609 34.7995 51.2862 35.7654C51.2296 36.131 51.2877 36.5074 51.4505 36.8302C51.5256 36.9731 51.6398 37.0848 51.7761 37.1486C51.9123 37.2125 52.0633 37.225 52.2064 37.1845C52.2596 37.1734 52.3075 37.1413 52.3415 37.094C52.3755 37.0466 52.3933 36.9872 52.3917 36.9264C52.3901 36.8656 52.3693 36.8074 52.3329 36.7624C52.2965 36.7174 52.2469 36.6885 52.1932 36.6809C51.8214 36.6264 51.8292 36.1472 51.8594 35.8297C51.8981 35.4156 51.9485 35.0023 51.9915 34.5886L52.2459 32.1441C52.4122 30.5462 52.6456 28.9362 52.7042 27.3277C52.7328 26.5398 52.6657 25.7531 52.6881 24.9653C52.7108 24.1682 52.8105 23.3757 52.8977 22.5853C53.0731 20.9951 53.2584 19.4052 53.3965 17.8109C53.4801 16.8972 53.5173 15.9789 53.508 15.0605L53.5038 14.8962C53.7154 14.2179 54.1021 13.626 54.6145 13.1962C55.1634 12.7645 55.7532 12.4028 56.3732 12.1177C56.5018 12.054 56.4456 11.8087 56.3018 11.8457Z"/>
</mask>
<path d="M56.3018 11.8457C55.542 11.9753 54.8148 12.282 54.1666 12.746C53.8451 13.0114 53.5821 13.3563 53.3979 13.7541C53.3343 13.3074 53.2504 12.8645 53.1658 12.4128L53.1182 12.3286L53.0318 12.3058L52.9559 12.3575L52.9337 12.4541C53.0062 13.344 53.0178 14.2388 52.9684 15.1307C52.9523 15.9594 52.8906 16.7886 52.819 17.6135C52.6713 19.3173 52.4711 21.0164 52.299 22.7172C52.1952 23.5496 52.1338 24.388 52.1151 25.2283C52.1151 26.0795 52.166 26.9237 52.1074 27.7741C51.9901 29.4771 51.7656 31.1762 51.5874 32.8724C51.4859 33.8354 51.3609 34.7995 51.2862 35.7654C51.2296 36.131 51.2877 36.5074 51.4505 36.8302C51.5256 36.9731 51.6398 37.0848 51.7761 37.1486C51.9123 37.2125 52.0633 37.225 52.2064 37.1845C52.2596 37.1734 52.3075 37.1413 52.3415 37.094C52.3755 37.0466 52.3933 36.9872 52.3917 36.9264C52.3901 36.8656 52.3693 36.8074 52.3329 36.7624C52.2965 36.7174 52.2469 36.6885 52.1932 36.6809C51.8214 36.6264 51.8292 36.1472 51.8594 35.8297C51.8981 35.4156 51.9485 35.0023 51.9915 34.5886L52.2459 32.1441C52.4122 30.5462 52.6456 28.9362 52.7042 27.3277C52.7328 26.5398 52.6657 25.7531 52.6881 24.9653C52.7108 24.1682 52.8105 23.3757 52.8977 22.5853C53.0731 20.9951 53.2584 19.4052 53.3965 17.8109C53.4801 16.8972 53.5173 15.9789 53.508 15.0605L53.5038 14.8962C53.7154 14.2179 54.1021 13.626 54.6145 13.1962C55.1634 12.7645 55.7532 12.4028 56.3732 12.1177C56.5018 12.054 56.4456 11.8087 56.3018 11.8457Z" fill="#FFEDE4"/>
<path d="M56.3018 11.8457L56.4699 12.8315L56.5108 12.8245L56.551 12.8141L56.3018 11.8457ZM54.1666 12.746L53.5845 11.9329L53.5565 11.9529L53.53 11.9748L54.1666 12.746ZM53.3979 13.7541L52.4079 13.8951L52.8846 17.2422L54.3053 14.1743L53.3979 13.7541ZM53.1658 12.4128L54.1487 12.2287L54.1181 12.0654L54.0364 11.9208L53.1658 12.4128ZM53.1182 12.3286L53.9888 11.8365L53.7811 11.4691L53.373 11.3616L53.1182 12.3286ZM53.0318 12.3058L53.2866 11.3388L52.846 11.2227L52.4692 11.479L53.0318 12.3058ZM52.9559 12.3575L52.3933 11.5307L52.0687 11.7516L51.9811 12.1342L52.9559 12.3575ZM52.9337 12.4541L51.959 12.2308L51.9245 12.3814L51.937 12.5353L52.9337 12.4541ZM52.9684 15.1307L51.9699 15.0753L51.9689 15.0933L51.9686 15.1112L52.9684 15.1307ZM52.819 17.6135L51.8227 17.5271L51.8227 17.5272L52.819 17.6135ZM52.299 22.7172L53.2913 22.8409L53.2927 22.8294L53.2939 22.8179L52.299 22.7172ZM52.1151 25.2283L51.1153 25.206L51.1151 25.2172V25.2283H52.1151ZM52.1074 27.7741L53.1051 27.8429L53.1051 27.8429L52.1074 27.7741ZM51.5874 32.8724L52.5819 32.9773L52.582 32.9768L51.5874 32.8724ZM51.2862 35.7654L52.2744 35.9185L52.2803 35.8807L52.2832 35.8425L51.2862 35.7654ZM51.4505 36.8302L50.5577 37.2806L50.5615 37.2882L50.5654 37.2957L51.4505 36.8302ZM52.2064 37.1845L52.0025 36.2055L51.9678 36.2127L51.9338 36.2224L52.2064 37.1845ZM52.1932 36.6809L52.048 37.6704L52.054 37.6712L52.1932 36.6809ZM51.8594 35.8297L52.8549 35.9243L52.8551 35.9227L51.8594 35.8297ZM51.9915 34.5886L50.9969 34.4851L50.9968 34.4853L51.9915 34.5886ZM52.2459 32.1441L53.2406 32.2477L53.2406 32.2476L52.2459 32.1441ZM52.7042 27.3277L53.7036 27.3641L53.7036 27.364L52.7042 27.3277ZM52.6881 24.9653L51.6885 24.9368L51.6885 24.9369L52.6881 24.9653ZM52.8977 22.5853L51.9037 22.4756L51.9037 22.4756L52.8977 22.5853ZM53.3965 17.8109L52.4007 17.7199L52.4003 17.7246L53.3965 17.8109ZM53.508 15.0605L54.5079 15.0504L54.5078 15.0428L54.5077 15.0352L53.508 15.0605ZM53.5038 14.8962L52.5492 14.5985L52.5 14.7563L52.5041 14.9215L53.5038 14.8962ZM54.6145 13.1962L53.9964 12.4101L53.984 12.4199L53.9719 12.43L54.6145 13.1962ZM56.3732 12.1177L56.791 13.0263L56.8041 13.0202L56.8171 13.0138L56.3732 12.1177ZM56.1336 10.8599C55.2194 11.0159 54.3514 11.3838 53.5845 11.9329L54.7488 13.5591C55.2781 13.1801 55.8647 12.9347 56.4699 12.8315L56.1336 10.8599ZM53.53 11.9748C53.0872 12.3404 52.7343 12.8075 52.4905 13.3339L54.3053 14.1743C54.43 13.9052 54.6031 13.6825 54.8032 13.5172L53.53 11.9748ZM54.3879 13.6131C54.3206 13.1406 54.2322 12.6747 54.1487 12.2287L52.1829 12.5968C52.2686 13.0543 52.348 13.4743 52.4079 13.8951L54.3879 13.6131ZM54.0364 11.9208L53.9888 11.8365L52.2476 12.8206L52.2952 12.9048L54.0364 11.9208ZM53.373 11.3616L53.2866 11.3388L52.777 13.2728L52.8634 13.2955L53.373 11.3616ZM52.4692 11.479L52.3933 11.5307L53.5184 13.1842L53.5944 13.1325L52.4692 11.479ZM51.9811 12.1342L51.959 12.2308L53.9085 12.6773L53.9306 12.5807L51.9811 12.1342ZM51.937 12.5353C52.0058 13.3797 52.0168 14.2289 51.9699 15.0753L53.9669 15.186C54.0188 14.2486 54.0066 13.3082 53.9304 12.3729L51.937 12.5353ZM51.9686 15.1112C51.9531 15.9057 51.8938 16.7081 51.8227 17.5271L53.8152 17.7C53.8873 16.8692 53.9514 16.0132 53.9682 15.1501L51.9686 15.1112ZM51.8227 17.5272C51.6757 19.2233 51.4786 20.8919 51.3041 22.6165L53.2939 22.8179C53.4636 21.1408 53.6669 19.4112 53.8152 17.6999L51.8227 17.5272ZM51.3067 22.5935C51.1987 23.4597 51.1348 24.3319 51.1153 25.206L53.1148 25.2506C53.1328 24.4442 53.1917 23.6396 53.2913 22.8409L51.3067 22.5935ZM51.1151 25.2283C51.1151 26.1627 51.1655 26.8976 51.1098 27.7054L53.1051 27.8429C53.1666 26.9498 53.1151 25.9964 53.1151 25.2283H51.1151ZM51.1098 27.7054C50.9941 29.3852 50.7749 31.0355 50.5929 32.7679L52.582 32.9768C52.7563 31.3169 52.9861 29.569 53.1051 27.8429L51.1098 27.7054ZM50.593 32.7675C50.4949 33.6977 50.3652 34.705 50.2892 35.6883L52.2832 35.8425C52.3566 34.8939 52.4769 33.9732 52.5819 32.9773L50.593 32.7675ZM50.298 35.6124C50.2102 36.1791 50.2985 36.767 50.5577 37.2806L52.3433 36.3798C52.2768 36.2479 52.2489 36.083 52.2744 35.9185L50.298 35.6124ZM50.5654 37.2957C50.7342 37.6166 51.0033 37.8908 51.3517 38.0541L52.2005 36.2431C52.2764 36.2787 52.3171 36.3295 52.3356 36.3647L50.5654 37.2957ZM51.3517 38.0541C51.7032 38.2188 52.1014 38.2536 52.479 38.1466L51.9338 36.2224C52.0251 36.1965 52.1215 36.2061 52.2005 36.2431L51.3517 38.0541ZM52.4103 38.1635C52.7275 38.0974 52.9853 37.9119 53.1539 37.6772L51.5292 36.5108C51.6297 36.3707 51.7918 36.2494 52.0025 36.2055L52.4103 38.1635ZM53.1539 37.6772C53.3209 37.4445 53.3984 37.1689 53.3914 36.9002L51.3921 36.9525C51.3882 36.8054 51.4301 36.6488 51.5292 36.5108L53.1539 37.6772ZM53.3914 36.9002C53.3844 36.6315 53.2924 36.3586 53.1104 36.1336L51.5553 37.3912C51.4461 37.2562 51.3959 37.0996 51.3921 36.9525L53.3914 36.9002ZM53.1104 36.1336C52.9265 35.9062 52.6551 35.736 52.3325 35.6907L52.054 37.6712C51.8388 37.6409 51.6664 37.5286 51.5553 37.3912L53.1104 36.1336ZM52.3384 35.6915C52.398 35.7003 52.4695 35.7208 52.5437 35.7605C52.618 35.8004 52.6798 35.8516 52.7279 35.9058C52.8195 36.009 52.8432 36.1012 52.8468 36.1159C52.8511 36.1333 52.8469 36.125 52.8465 36.0797C52.8461 36.0378 52.849 35.9864 52.8549 35.9243L50.8639 35.7352C50.8479 35.9038 50.8203 36.2492 50.9043 36.592C50.9487 36.773 51.0383 37.015 51.2321 37.2333C51.4421 37.4701 51.7262 37.6231 52.048 37.6703L52.3384 35.6915ZM52.8551 35.9227C52.8936 35.5104 52.9401 35.1345 52.9861 34.692L50.9968 34.4853C50.9568 34.8701 50.9026 35.3209 50.8637 35.7368L52.8551 35.9227ZM52.9861 34.6921L53.2406 32.2477L51.2513 32.0406L50.9969 34.4851L52.9861 34.6921ZM53.2406 32.2476C53.4011 30.704 53.6434 29.0171 53.7036 27.3641L51.7049 27.2913C51.6479 28.8552 51.4232 30.3884 51.2513 32.0407L53.2406 32.2476ZM53.7036 27.364C53.7192 26.9342 53.7085 26.5104 53.6982 26.1201C53.6876 25.7199 53.6774 25.355 53.6877 24.9936L51.6885 24.9369C51.6764 25.3634 51.6886 25.7858 51.6989 26.1729C51.7093 26.5698 51.7179 26.9333 51.7049 27.2914L53.7036 27.364ZM53.6877 24.9937C53.7089 24.2483 53.8019 23.5082 53.8916 22.6949L51.9037 22.4756C51.819 23.2431 51.7127 24.0881 51.6885 24.9368L53.6877 24.9937ZM53.8916 22.6949C54.0661 21.1134 54.2533 19.5066 54.3928 17.8973L52.4003 17.7246C52.2634 19.3037 52.0801 20.8769 51.9037 22.4756L53.8916 22.6949ZM54.3924 17.902C54.479 16.9546 54.5176 16.0026 54.5079 15.0504L52.508 15.0706C52.517 15.9553 52.4812 16.8399 52.4007 17.7199L54.3924 17.902ZM54.5077 15.0352L54.5035 14.8709L52.5041 14.9215L52.5083 15.0858L54.5077 15.0352ZM54.4585 15.1939C54.6167 14.6865 54.9007 14.2613 55.2572 13.9623L53.9719 12.43C53.3034 12.9907 52.814 13.7493 52.5492 14.5985L54.4585 15.1939ZM55.2327 13.9822C55.7213 13.598 56.244 13.2778 56.791 13.0263L55.9554 11.2092C55.2624 11.5279 54.6055 11.9311 53.9964 12.4101L55.2327 13.9822ZM56.8171 13.0138C57.4576 12.6965 57.4909 12.0305 57.4106 11.7045C57.3631 11.5119 57.2502 11.2698 57.0164 11.0828C56.7517 10.871 56.3984 10.7882 56.0525 10.8773L56.551 12.8141C56.277 12.8847 55.9848 12.8187 55.767 12.6445C55.5802 12.495 55.5003 12.3113 55.4687 12.1834C55.4202 11.9867 55.4174 11.4753 55.9292 11.2217L56.8171 13.0138Z" fill="#FFEDE4" mask="url(#path-9-inside-4_170_976)"/>
<mask id="path-11-inside-5_170_976" fill="white">
<path d="M54.8158 12.598L54.7688 12.6565C54.6395 12.7954 54.4978 12.9189 54.3459 13.025L54.3236 13.9467C54.3074 14.7755 54.2457 15.6047 54.1741 16.4296C54.0266 18.1334 53.8263 19.8324 53.6541 21.5333C53.5504 22.3657 53.489 23.2041 53.4702 24.0444C53.4702 24.8956 53.5212 25.7398 53.4626 26.5902C53.3453 28.2932 53.1208 29.9923 52.9426 31.6884C52.841 32.6515 52.7161 33.6155 52.6414 34.5815C52.5847 34.9471 52.6428 35.3235 52.8057 35.6463C52.9776 35.9318 53.6723 35.8671 53.9776 35.7724C54.215 35.6985 53.8186 35.5368 53.5489 35.4972C53.1771 35.4426 53.1849 34.9635 53.2151 34.646C53.2537 34.2319 53.3042 33.8186 53.3472 33.4049L53.6016 30.9604C53.7678 29.3624 54.0013 27.7524 54.0599 26.1439C54.0885 25.3561 54.0214 24.5694 54.044 23.7815C54.0665 22.9845 54.1663 22.1919 54.2535 21.4015C54.4289 19.8114 54.6142 18.2214 54.7524 16.6272C54.8706 15.2883 54.8918 13.9408 54.8158 12.598Z"/>
</mask>
<path d="M54.8158 12.598L54.7688 12.6565C54.6395 12.7954 54.4978 12.9189 54.3459 13.025L54.3236 13.9467C54.3074 14.7755 54.2457 15.6047 54.1741 16.4296C54.0266 18.1334 53.8263 19.8324 53.6541 21.5333C53.5504 22.3657 53.489 23.2041 53.4702 24.0444C53.4702 24.8956 53.5212 25.7398 53.4626 26.5902C53.3453 28.2932 53.1208 29.9923 52.9426 31.6884C52.841 32.6515 52.7161 33.6155 52.6414 34.5815C52.5847 34.9471 52.6428 35.3235 52.8057 35.6463C52.9776 35.9318 53.6723 35.8671 53.9776 35.7724C54.215 35.6985 53.8186 35.5368 53.5489 35.4972C53.1771 35.4426 53.1849 34.9635 53.2151 34.646C53.2537 34.2319 53.3042 33.8186 53.3472 33.4049L53.6016 30.9604C53.7678 29.3624 54.0013 27.7524 54.0599 26.1439C54.0885 25.3561 54.0214 24.5694 54.044 23.7815C54.0665 22.9845 54.1663 22.1919 54.2535 21.4015C54.4289 19.8114 54.6142 18.2214 54.7524 16.6272C54.8706 15.2883 54.8918 13.9408 54.8158 12.598Z" fill="#FFEDE4"/>
<path d="M54.8158 12.598L55.8142 12.5415L55.6671 9.9422L54.0363 11.9716L54.8158 12.598ZM54.7688 12.6565L55.5007 13.3379L55.5255 13.3113L55.5484 13.2829L54.7688 12.6565ZM54.3459 13.025L53.7732 12.2052L53.3585 12.495L53.3462 13.0007L54.3459 13.025ZM54.3236 13.9467L53.3238 13.9225L53.3237 13.9273L54.3236 13.9467ZM54.1741 16.4296L53.1779 16.3431L53.1779 16.3433L54.1741 16.4296ZM53.6541 21.5333L54.6465 21.657L54.6479 21.6455L54.6491 21.634L53.6541 21.5333ZM53.4702 24.0444L52.4705 24.0221L52.4702 24.0332V24.0444H53.4702ZM53.4626 26.5902L54.4602 26.6589L54.4602 26.6589L53.4626 26.5902ZM52.9426 31.6884L53.9371 31.7933L53.9371 31.7929L52.9426 31.6884ZM52.6414 34.5815L53.6296 34.7345L53.6354 34.6967L53.6384 34.6586L52.6414 34.5815ZM52.8057 35.6463L51.9129 36.0967L51.9297 36.1301L51.949 36.1622L52.8057 35.6463ZM53.9776 35.7724L54.2739 36.7275L54.2746 36.7273L53.9776 35.7724ZM53.5489 35.4972L53.4037 36.4866L53.4038 36.4866L53.5489 35.4972ZM53.2151 34.646L54.2106 34.7406L54.2108 34.7389L53.2151 34.646ZM53.3472 33.4049L52.3525 33.3013L52.3525 33.3015L53.3472 33.4049ZM53.6016 30.9604L54.5962 31.0639L54.5963 31.0639L53.6016 30.9604ZM54.0599 26.1439L55.0593 26.1803L55.0593 26.1802L54.0599 26.1439ZM54.044 23.7815L55.0436 23.8101L55.0436 23.8098L54.044 23.7815ZM54.2535 21.4015L53.2596 21.2919L53.2596 21.2919L54.2535 21.4015ZM54.7524 16.6272L53.7563 16.5392L53.7561 16.5409L54.7524 16.6272ZM54.0363 11.9716L53.9893 12.0301L55.5484 13.2829L55.5953 13.2244L54.0363 11.9716ZM54.0369 11.9751C53.9545 12.0636 53.8659 12.1405 53.7732 12.2052L54.9186 13.8447C55.1297 13.6973 55.3246 13.5271 55.5007 13.3379L54.0369 11.9751ZM53.3462 13.0007L53.3238 13.9225L55.3233 13.971L55.3456 13.0492L53.3462 13.0007ZM53.3237 13.9273C53.3083 14.7217 53.249 15.5241 53.1779 16.3431L55.1704 16.516C55.2425 15.6853 55.3066 14.8293 55.3234 13.9662L53.3237 13.9273ZM53.1779 16.3433C53.031 18.0395 52.8338 19.7078 52.6592 21.4326L54.6491 21.634C54.8188 19.957 55.0222 18.2273 55.1704 16.5158L53.1779 16.3433ZM52.6618 21.4096C52.5539 22.2757 52.49 23.148 52.4705 24.0221L54.47 24.0667C54.488 23.2602 54.5469 22.4557 54.6465 21.657L52.6618 21.4096ZM52.4702 24.0444C52.4702 24.9787 52.5206 25.7137 52.465 26.5215L54.4602 26.6589C54.5218 25.7659 54.4702 24.8125 54.4702 24.0444H52.4702ZM52.465 26.5215C52.3492 28.2013 52.1301 29.8516 51.9481 31.584L53.9371 31.7929C54.1115 30.133 54.3413 28.3851 54.4602 26.6589L52.465 26.5215ZM51.9481 31.5836C51.85 32.5137 51.7204 33.5211 51.6443 34.5044L53.6384 34.6586C53.7117 33.71 53.832 32.7893 53.9371 31.7933L51.9481 31.5836ZM51.6531 34.4285C51.5654 34.9951 51.6537 35.5831 51.9129 36.0967L53.6985 35.1959C53.6319 35.0639 53.6041 34.8991 53.6296 34.7345L51.6531 34.4285ZM51.949 36.1622C52.1578 36.5088 52.4752 36.6698 52.691 36.7446C52.913 36.8216 53.1341 36.8456 53.3088 36.8514C53.6535 36.8627 54.0147 36.8079 54.2739 36.7275L53.6812 34.8173C53.6688 34.8212 53.6242 34.8326 53.5563 34.8417C53.4906 34.8506 53.4262 34.8541 53.3745 34.8524C53.3159 34.8505 53.3119 34.8431 53.3458 34.8549C53.3734 34.8644 53.5395 34.9265 53.6623 35.1303L51.949 36.1622ZM54.2746 36.7273C54.3615 36.7002 54.5685 36.6283 54.7519 36.4416C54.8547 36.3369 54.9613 36.184 55.0156 35.9805C55.0709 35.773 55.055 35.5753 55.0052 35.4119C54.9172 35.1237 54.7307 34.9566 54.6613 34.8982C54.5713 34.8224 54.4826 34.7706 54.4214 34.7382C54.1961 34.6189 53.9151 34.5402 53.694 34.5078L53.4038 36.4866C53.4525 36.4938 53.5045 36.5157 53.4855 36.5057C53.4759 36.5006 53.4308 36.4766 53.3735 36.4284C53.3369 36.3976 53.1722 36.2577 53.0922 35.9956C53.0464 35.8453 53.0311 35.6605 53.083 35.4654C53.134 35.2743 53.2335 35.1334 53.3249 35.0403C53.4855 34.8767 53.6531 34.8261 53.6806 34.8175L54.2746 36.7273ZM53.6941 34.5078C53.7537 34.5166 53.8252 34.537 53.8994 34.5768C53.9737 34.6167 54.0355 34.6678 54.0836 34.722C54.1752 34.8253 54.1989 34.9175 54.2025 34.9322C54.2068 34.9496 54.2026 34.9412 54.2022 34.896C54.2018 34.8541 54.2047 34.8027 54.2106 34.7406L52.2196 34.5514C52.2036 34.72 52.176 35.0655 52.26 35.4082C52.3044 35.5892 52.394 35.8313 52.5877 36.0496C52.7978 36.2863 53.0819 36.4394 53.4037 36.4866L53.6941 34.5078ZM54.2108 34.7389C54.2492 34.3267 54.2958 33.9508 54.3418 33.5082L52.3525 33.3015C52.3125 33.6864 52.2582 34.1371 52.2194 34.5531L54.2108 34.7389ZM54.3418 33.5084L54.5962 31.0639L52.607 30.8569L52.3525 33.3013L54.3418 33.5084ZM54.5963 31.0639C54.7568 29.5203 54.999 27.8334 55.0593 26.1803L53.0606 26.1075C53.0036 27.6715 52.7789 29.2046 52.607 30.8569L54.5963 31.0639ZM55.0593 26.1802C55.0749 25.7504 55.0642 25.3267 55.0539 24.9364C55.0433 24.5362 55.0332 24.1714 55.0436 23.8101L53.0444 23.7529C53.0322 24.1795 53.0444 24.602 53.0546 24.9891C53.065 25.386 53.0736 25.7496 53.0606 26.1077L55.0593 26.1802ZM55.0436 23.8098C55.0646 23.0645 55.1578 22.3248 55.2475 21.5112L53.2596 21.2919C53.1749 22.0591 53.0684 22.9044 53.0444 23.7533L55.0436 23.8098ZM55.2475 21.5112C55.422 19.9296 55.6092 18.3229 55.7486 16.7135L53.7561 16.5409C53.6193 18.12 53.4359 19.6932 53.2596 21.2919L55.2475 21.5112ZM55.7485 16.7151C55.871 15.3282 55.8929 13.9324 55.8142 12.5415L53.8174 12.6545C53.8907 13.9492 53.8702 15.2484 53.7563 16.5392L55.7485 16.7151Z" fill="#FFEDE4" mask="url(#path-11-inside-5_170_976)"/>
<path d="M50.1975 20.9543L50.1971 20.9832C50.1812 22.0724 50.1518 23.1622 50.1002 24.2539L50.0998 24.2614L50.0992 24.2688C49.9717 25.9202 49.9025 27.5761 49.8915 29.2324L49.9706 29.2342L48.0939 19.8812L47.9533 19.5492L47.8667 19.3447M50.1975 20.9543L50.201 20.9553L50.2054 20.2957L50.2096 19.6768L50.2122 19.2863L50.2122 19.2843C50.2128 19.0555 50.2141 18.8265 50.2157 18.5973C50.1887 17.8288 50.1418 17.0635 50.0857 16.2981L49.7346 16.1442C49.7327 16.643 49.7282 17.1418 49.7236 17.6405C49.7207 17.9618 49.7178 18.283 49.7156 18.6041C49.7236 18.8302 49.7299 19.0564 49.7341 19.283C49.7341 19.283 49.7341 19.283 49.7341 19.2831C49.7366 19.4154 49.7384 19.5479 49.7395 19.6805V19.6806C49.7398 19.714 49.74 19.7474 49.7402 19.7808M50.1975 20.9543L50.2036 20.5302L49.7534 20.4791C49.7492 20.4787 49.745 20.4782 49.7409 20.4777M50.1975 20.9543L49.7409 20.4777M49.7402 19.7808C49.7298 19.7775 49.7193 19.7742 49.7089 19.7709L49.7054 20.2923M49.7402 19.7808C49.741 19.9096 49.7415 20.0384 49.7415 20.167M49.7402 19.7808C49.7746 19.7915 49.8091 19.8019 49.8437 19.8119L49.7415 20.167M49.7054 20.2923C49.5368 20.2438 49.3703 20.1867 49.2066 20.1212L49.2054 20.289L49.7054 20.2923ZM49.7054 20.2923L49.7415 20.167M49.7415 20.167C49.7415 20.2089 49.7415 20.2507 49.7414 20.2926C49.7413 20.3543 49.7411 20.416 49.7409 20.4777M49.7409 20.4777C49.7123 20.4743 49.6838 20.4705 49.6554 20.4662C49.1603 20.3917 48.684 20.1799 48.2699 19.8432M48.2699 19.8432L48.352 19.6882L48.2605 19.8355M48.2699 19.8432C48.2668 19.8407 48.2636 19.8381 48.2605 19.8355M48.2699 19.8432L48.1179 20.13C48.1127 20.1273 48.1074 20.1245 48.1022 20.1216L48.2605 19.8355M48.2605 19.8355C48.2556 19.8315 48.2507 19.8275 48.2458 19.8234C48.1517 19.7359 48.0656 19.6358 47.9896 19.5245L47.8667 19.3447M47.8667 19.3447L47.8617 19.3327C47.8586 19.3298 47.8556 19.3269 47.8526 19.324L47.8667 19.3447ZM47.2772 18.8483C47.2894 18.8454 47.3009 18.842 47.3117 18.8384C47.3514 18.8248 47.3917 18.8027 47.4285 18.7731C47.5125 18.9216 47.6101 19.0593 47.7194 19.1841C47.7423 19.2102 47.7657 19.2357 47.7896 19.2607L47.489 19.3143C47.4427 19.3225 47.3976 19.3308 47.3534 19.339C47.3444 19.3407 47.3354 19.3424 47.3265 19.3441L47.346 18.8509C47.323 18.85 47.3001 18.8491 47.2772 18.8483ZM47.2772 18.8483C47.2361 18.8469 47.195 18.8455 47.1539 18.8444C47.1552 18.8491 47.1565 18.8539 47.1577 18.8587C47.2014 18.8614 47.2419 18.8568 47.2772 18.8483ZM44.9089 14.4177C44.9755 14.566 45.04 14.7155 45.1024 14.8661C45.2209 15.1898 45.3303 15.5176 45.4303 15.8491L45.4329 15.8578L45.4328 15.8579C45.4456 15.9032 45.4583 15.9486 45.4708 15.9941C45.4708 15.9942 45.4708 15.9943 45.4709 15.9943C45.7696 17.0792 45.9926 18.1885 46.1377 19.312L46.1429 19.3524L46.1684 19.55L39.865 20.5021C39.7644 20.5386 39.6644 20.5769 39.5643 20.6152C39.402 20.6774 39.2396 20.7395 39.0749 20.7941M44.9089 14.4177L44.8265 14.2357L44.8071 14.1926L44.5725 13.6745C44.5169 13.5462 44.4705 13.4133 44.4242 13.2805C44.3883 13.1776 44.3524 13.0748 44.3123 12.9742L44.2422 12.9446L44.38 13.1777L44.3174 13.2147L44.1611 12.9501L44.1065 13.2519L44.0438 13.2406C44.0625 13.4492 44.1017 13.6545 44.1606 13.853C44.1613 13.8553 44.162 13.8577 44.1627 13.86C44.2204 14.0528 44.2966 14.2389 44.3907 14.415C44.4179 14.4813 44.4448 14.5477 44.4712 14.6144L44.9089 14.4177ZM44.9089 14.4177L44.4717 14.6156C44.5285 14.7588 44.5834 14.9029 44.6364 15.0479C44.7633 15.3537 44.8819 15.6652 44.9933 15.9809C44.9934 15.9811 44.9935 15.9814 44.9936 15.9816C45.0121 16.0341 45.0304 16.0866 45.0485 16.1393L45.0485 16.1393L45.0493 16.1416C45.4098 17.1739 45.6422 18.2582 45.7394 19.3634C45.7401 19.3713 45.7408 19.3792 45.7415 19.387L45.7591 19.5914C45.7288 19.594 45.6982 19.5967 45.6674 19.5993C45.6659 19.5995 45.6643 19.5996 45.6628 19.5997C45.527 19.6115 45.3858 19.6237 45.2326 19.64M45.2326 19.64L45.2088 19.432M45.2326 19.64L45.2638 19.9136C45.2621 19.9137 45.2604 19.9139 45.2587 19.9141M45.2326 19.64C45.2311 19.6402 45.2295 19.6404 45.228 19.6405M45.2088 19.432L45.6418 19.3761M45.2088 19.432L45.2085 19.432M45.2088 19.432L45.2071 19.4168M45.6418 19.3761L45.5952 18.8782L45.5725 18.8804C45.5973 19.0452 45.6204 19.2105 45.6418 19.3761ZM45.6418 19.3761L45.2071 19.4168M45.2071 19.4168C45.186 19.4192 45.1649 19.4216 45.1438 19.424C45.1445 19.4294 45.1452 19.4347 45.1459 19.4401L45.2085 19.432M45.2071 19.4168L45.2085 19.432M45.2085 19.432L45.228 19.6405M45.228 19.6405C45.1981 19.6437 45.1677 19.6471 45.1368 19.6506L45.1366 19.6506C44.3278 19.7437 43.5253 19.8665 42.7295 19.9964C42.7295 19.9964 42.7295 19.9964 42.7295 19.9964C42.7226 19.9975 42.7157 19.9987 42.7088 19.9998M45.228 19.6405L45.2537 19.9146L45.2587 19.9141M42.7088 19.9998C41.8845 20.1345 41.0625 20.2861 40.2464 20.4411L40.294 20.6916L40.2942 20.6925L40.3286 20.8737M42.7088 19.9998C42.7088 19.9998 42.7088 19.9998 42.7088 19.9998L42.7555 20.2855M42.7088 19.9998L42.7555 20.2855M40.3286 20.8737C40.2167 20.9074 40.1043 20.9466 39.9875 20.9897C39.9278 20.9983 39.868 21.0066 39.8083 21.0148C39.599 21.0437 39.3898 21.0727 39.1818 21.1162L39.0749 20.7941M40.3286 20.8737L40.3397 20.9323L40.3286 20.8737M40.3286 20.8737C40.3286 20.8737 40.3286 20.8737 40.3286 20.8737M39.0749 20.7941L39.1817 21.1163C39.1687 21.119 39.1557 21.1218 39.1427 21.1246C39.0271 21.15 38.9118 21.1759 38.7965 21.2018C38.6193 21.2416 38.4422 21.2814 38.2645 21.319L37.9771 21.2938L38.2574 21.0957L38.2494 21.0843C38.5203 20.9804 38.7939 20.8875 39.0706 20.7956C39.0706 20.7956 39.0706 20.7956 39.0706 20.7955C39.0721 20.7951 39.0735 20.7946 39.0749 20.7941ZM37.9044 21.3668L37.924 21.3874C37.9242 21.3874 37.9244 21.3874 37.9246 21.3873L37.9072 21.3475L37.9044 21.3668ZM37.9044 21.3668L37.9007 21.3918L37.894 21.356M37.9044 21.3668L37.894 21.356M37.8688 21.25L37.8705 21.2385C37.871 21.2383 37.8715 21.238 37.8719 21.2378L37.8755 21.257L37.8688 21.25ZM37.8688 21.25L37.8616 21.2423L37.8678 21.2568M37.8688 21.25L37.8678 21.2568M37.8678 21.2568L37.8638 21.2839M37.8678 21.2568L37.8802 21.2853L37.8638 21.2839M37.8638 21.2839L37.8218 21.2802L37.8529 21.3128M37.8638 21.2839L37.8604 21.3076L37.8529 21.3128M37.8529 21.3128L37.8167 21.3384L37.8553 21.3418M37.8529 21.3128L37.8587 21.3189L37.8553 21.3418M37.8553 21.3418L37.8491 21.3842L37.892 21.3539M37.8553 21.3418L37.8828 21.3442L37.892 21.3539M37.892 21.3539L37.894 21.356M37.892 21.3539L37.8935 21.3529L37.894 21.356M40.3286 20.8737C40.3345 20.8719 40.3404 20.8702 40.3462 20.8684L40.3464 20.8684C41.141 20.6329 41.9419 20.4423 42.7555 20.2855M40.3286 20.8737L42.7555 20.2855M42.7555 20.2855C42.7649 20.2837 42.7744 20.2819 42.7839 20.28L42.7839 20.28C43.5701 20.1292 44.3661 20.0176 45.1681 19.9246C45.1681 19.9246 45.1682 19.9246 45.1682 19.9246C45.1984 19.9211 45.2285 19.9176 45.2587 19.9141M42.7555 20.2855L45.6884 19.8739L45.2587 19.9141M44.0668 12.8704L44.0316 12.9006C44.0316 12.9061 44.0315 12.9116 44.0314 12.917L44.1004 12.8847L44.0668 12.8704ZM44.0668 12.8704L44.0327 12.856L44.0818 12.8576M44.0668 12.8704L44.0818 12.8576M44.1953 12.8402L44.1837 12.8456L44.1808 12.8407L44.182 12.8345M44.1953 12.8402L44.2103 12.8465M44.1953 12.8402L44.2446 12.8171L44.2103 12.8465M44.1953 12.8402L44.182 12.8345M44.2103 12.8465L44.1933 12.8611L44.2491 12.8629M44.2103 12.8465L44.2491 12.8629M44.2491 12.8629L44.2693 12.8714C44.2681 12.8687 44.2669 12.8661 44.2657 12.8634L44.2491 12.8629ZM44.182 12.8345L44.1954 12.7599L44.1541 12.7954M44.182 12.8345L44.1756 12.8318L44.1541 12.7954M44.1541 12.7954L44.1257 12.7473L44.115 12.8062M44.1541 12.7954L44.1328 12.8137L44.115 12.8062M44.115 12.8062L44.0631 12.7843L44.0981 12.8435M44.115 12.8062L44.1101 12.8332L44.0981 12.8435M44.0981 12.8435L44.0818 12.8576M44.0981 12.8435L44.1059 12.8567L44.1056 12.8583L44.0818 12.8576M48.769 15.0952C48.8814 15.1634 48.9964 15.225 49.1136 15.28C49.1533 15.3035 49.1933 15.3265 49.2335 15.3489L49.2354 15.6025L49.5308 15.6002C49.5407 15.7251 49.5505 15.8499 49.56 15.9746C49.3273 15.9116 49.0997 15.8273 48.8795 15.7224C48.7562 15.6502 48.635 15.5737 48.516 15.4929M48.769 15.0952C48.7682 15.0946 48.7673 15.0941 48.7665 15.0935M48.769 15.0952C48.7681 15.0946 48.7673 15.0941 48.7664 15.0936L48.7665 15.0935M48.769 15.0952C48.7717 15.097 48.7745 15.0988 48.7772 15.1007L48.516 15.4929M48.7665 15.0935L48.7821 15.0692L48.7658 15.093M48.7665 15.0935C48.7663 15.0933 48.766 15.0932 48.7658 15.093M48.7658 15.093C48.4189 14.8605 48.0983 14.5776 47.8126 14.2507M48.7658 15.093L48.7657 15.0932C48.764 15.0921 48.7623 15.0911 48.7606 15.0901L48.6998 15.1897L48.5001 15.4821C48.5021 15.4835 48.5041 15.4848 48.5061 15.4862M47.8126 14.2507C47.7996 14.2357 47.7867 14.2207 47.7739 14.2055M47.8126 14.2507C47.8127 14.2508 47.8128 14.2509 47.8129 14.251L47.4377 14.5773M47.8126 14.2507C47.8125 14.2505 47.8123 14.2503 47.8122 14.2502L47.4377 14.5773M47.7739 14.2055L47.775 14.2045L47.7739 14.2055M47.7739 14.2055L47.4044 14.5401C47.4038 14.5395 47.4032 14.5389 47.4027 14.5383M47.7739 14.2055C47.7739 14.2055 47.7739 14.2055 47.7739 14.2055M47.7739 14.2055C47.7651 14.195 47.7563 14.1845 47.7475 14.174C47.2476 13.6139 46.8495 12.9512 46.5743 12.2229C46.5428 12.246 46.5093 12.2634 46.4767 12.2743C46.4292 12.2903 46.3668 12.2999 46.2976 12.2895C46.4814 13.1154 46.8494 13.8766 47.3685 14.5002C47.3798 14.5129 47.3912 14.5256 47.4027 14.5383M47.7739 14.2055L47.401 14.5364C47.4016 14.537 47.4021 14.5377 47.4027 14.5383M47.4027 14.5383C47.4143 14.5514 47.426 14.5644 47.4377 14.5773M47.4377 14.5773C47.7562 14.9292 48.1151 15.2349 48.5061 15.4862M48.5061 15.4862C48.5091 15.4882 48.5121 15.4903 48.515 15.4923M48.5061 15.4862C48.5082 15.4876 48.5103 15.4889 48.5124 15.4902L48.5955 15.3605L48.515 15.4923M48.515 15.4923L48.5001 15.5168L48.516 15.4929M48.515 15.4923C48.5154 15.4925 48.5157 15.4927 48.516 15.4929M47.2074 19.3462C47.2119 19.3522 47.2164 19.3582 47.221 19.3642L46.8236 19.442C46.8101 19.4074 46.797 19.3727 46.7844 19.3378C46.9249 19.3387 47.0658 19.3416 47.2074 19.3462ZM37.9655 21.3515L38.0645 21.3601C38.039 21.3652 38.0136 21.3702 37.9881 21.3752L37.9655 21.3515ZM37.9192 21.266L37.9268 21.2143C37.9793 21.192 38.032 21.1702 38.0848 21.149L37.9192 21.266ZM44.0889 12.9508L44.0415 13.2128C44.0358 13.1422 44.0324 13.0713 44.0315 13.0002L44.0889 12.9508ZM49.7729 15.5131L49.9361 15.1407C49.8673 15.1105 49.7989 15.0788 49.7312 15.0456L49.7288 14.7355C49.7653 14.745 49.8014 14.7486 49.8352 14.7478C49.8742 14.7468 49.9174 14.7396 49.961 14.7235C49.9845 15.0062 50.0076 15.2886 50.0301 15.5709L49.8434 15.5295C49.8198 15.5243 49.7964 15.5188 49.7729 15.5131ZM49.726 14.3593L49.8626 14.3479L49.882 14.3463L49.9294 14.3423L49.8817 14.3463L49.8622 14.3479L49.726 14.3593Z" fill="#FFEDE4" stroke="#FFEDE4"/>
<path d="M51.346 38.8388L51.3606 38.6617L51.3606 38.6614L51.367 38.5828C51.3582 38.5859 51.3491 38.5889 51.3398 38.5917C51.2257 38.6256 51.2113 38.8277 51.346 38.8388ZM51.346 38.8388L51.3606 38.6618L51.3606 38.6615L51.3671 38.5828C51.4142 38.566 51.4549 38.5447 51.4954 38.5236C51.5403 38.5001 51.5849 38.4768 51.6376 38.46C51.6497 38.4724 51.6612 38.4857 51.6719 38.4999C51.68 38.5108 51.6874 38.5217 51.694 38.5326L51.7063 38.6025L51.716 38.8728C51.7108 38.8842 51.7049 38.8957 51.6982 38.907C51.6275 38.9051 51.5719 38.8894 51.5149 38.8734C51.4835 38.8645 51.4516 38.8555 51.4166 38.8487C51.4164 38.8487 51.4163 38.8486 51.4161 38.8486C51.3942 38.8443 51.3711 38.8409 51.346 38.8388ZM52.0217 38.8963L52.1014 38.8934M52.0217 38.8963L57.147 38.6439C56.7402 38.7023 56.3275 38.6929 55.9223 38.6155C55.4175 38.6033 54.9125 38.6293 54.4107 38.6935M52.0217 38.8963L52.1006 38.8824L52.1014 38.8934M52.0217 38.8963L54.401 38.5968L54.4107 38.6935M52.1014 38.8934L52.8136 38.8441M52.1014 38.8934L52.101 38.8824L52.1084 38.8811L52.8086 38.7825L52.8136 38.8441M52.8136 38.8441C53.2899 38.8058 53.7654 38.7581 54.2412 38.7104C54.2977 38.7048 54.3542 38.6991 54.4107 38.6935M52.8136 38.8441L52.8093 38.7824L52.8615 38.775C53.2523 38.7242 53.6425 38.6811 54.0383 38.6374C54.1528 38.6248 54.2678 38.6121 54.3833 38.5991L54.3834 38.5992L54.3943 38.5977C54.3957 38.5976 54.3971 38.5974 54.3984 38.5972L54.4107 38.6935M52.0303 38.3871L52.0318 38.3956L52.0751 38.394L52.7763 38.3455C52.7851 38.3448 52.7939 38.3441 52.8027 38.3433L52.7944 38.2795M52.0303 38.3871L52.7944 38.2795M52.0303 38.3871L52.0315 38.3956L51.9693 38.3978L52.0303 38.3871ZM52.7944 38.2795L52.8033 38.3433C53.2644 38.3058 53.7251 38.2596 54.1915 38.2129C54.2404 38.208 54.2894 38.2031 54.3384 38.1982C54.3391 38.1981 54.3398 38.198 54.3406 38.198C54.3451 38.1975 54.3497 38.1971 54.3542 38.1966C54.8787 38.1299 55.4066 38.1029 55.9344 38.1157L55.9757 38.1166L56.0162 38.1244C56.3912 38.196 56.7735 38.2004 57.1493 38.1376C56.2144 37.9879 55.2658 37.976 54.3277 38.1022C54.2139 38.115 54.1001 38.1275 53.9863 38.1401C53.5888 38.184 53.1914 38.2279 52.7944 38.2795ZM57.3633 38.6063C57.3148 38.6162 57.2663 38.6251 57.2177 38.6331L57.2702 38.335L57.3633 38.6063ZM57.3633 38.6063C57.5792 38.5323 57.4796 38.1979 57.3005 38.163M57.3633 38.6063L57.2877 38.236L57.3005 38.163M57.3005 38.163C57.2909 38.1613 57.2813 38.1596 57.2717 38.158L57.287 38.2326L57.3005 38.163ZM51.701 38.5445C51.7022 38.5466 51.7033 38.5487 51.7044 38.5507L51.7048 38.5612L51.701 38.5445ZM51.7149 38.6056L51.7146 38.571C51.7431 38.6324 51.7503 38.6904 51.7495 38.7329C51.7494 38.7393 51.749 38.7462 51.7484 38.7534L51.7149 38.6056ZM51.717 38.8707L51.7152 38.6535L51.7409 38.7996C51.7357 38.8221 51.728 38.8463 51.717 38.8707ZM57.2057 38.1468C57.1966 38.1453 57.1875 38.1438 57.1783 38.1423C57.1078 38.1734 57.0445 38.2341 57.0106 38.3129C56.9789 38.3864 56.985 38.4455 56.9906 38.4722C56.9965 38.5004 57.0087 38.5286 57.032 38.5565C57.0508 38.5791 57.092 38.6186 57.1604 38.642C57.1765 38.6396 57.1926 38.6371 57.2087 38.6345L57.2682 38.329L57.2057 38.1468Z" fill="#FFEDE4" stroke="#FFEDE4"/>
<mask id="path-15-inside-6_170_976" fill="white">
<path d="M57.1725 37.4792C56.8292 37.2952 56.4771 37.1326 56.1179 36.9921C55.79 36.7946 55.4465 36.6315 55.092 36.5049C54.7134 36.4603 54.3309 36.4886 53.9608 36.5887C53.5662 36.6395 53.1759 36.7261 52.7937 36.8477C52.7055 36.8777 52.7374 37.0326 52.8211 37.04C53.5954 36.9356 54.3795 36.9665 55.1454 37.1316C55.7398 37.5303 56.4033 37.7816 57.0912 37.8684C57.1281 37.8605 57.1623 37.8407 57.1894 37.8114C57.2166 37.7821 57.2356 37.7446 57.2442 37.7035C57.2528 37.6623 57.2506 37.6192 57.2379 37.5794C57.2251 37.5396 57.2024 37.5048 57.1725 37.4792Z"/>
</mask>
<path d="M57.1725 37.4792C56.8292 37.2952 56.4771 37.1326 56.1179 36.9921C55.79 36.7946 55.4465 36.6315 55.092 36.5049C54.7134 36.4603 54.3309 36.4886 53.9608 36.5887C53.5662 36.6395 53.1759 36.7261 52.7937 36.8477C52.7055 36.8777 52.7374 37.0326 52.8211 37.04C53.5954 36.9356 54.3795 36.9665 55.1454 37.1316C55.7398 37.5303 56.4033 37.7816 57.0912 37.8684C57.1281 37.8605 57.1623 37.8407 57.1894 37.8114C57.2166 37.7821 57.2356 37.7446 57.2442 37.7035C57.2528 37.6623 57.2506 37.6192 57.2379 37.5794C57.2251 37.5396 57.2024 37.5048 57.1725 37.4792Z" fill="#FFEDE4"/>
<path d="M57.1725 37.4792L57.8223 36.7191L57.7401 36.6489L57.6449 36.5979L57.1725 37.4792ZM56.1179 36.9921L55.6021 37.8487L55.6747 37.8925L55.7536 37.9233L56.1179 36.9921ZM55.092 36.5049L55.4283 35.5631L55.3216 35.525L55.209 35.5118L55.092 36.5049ZM53.9608 36.5887L54.0885 37.5805L54.1561 37.5718L54.2219 37.554L53.9608 36.5887ZM52.7937 36.8477L52.4906 35.8947L52.4812 35.8977L52.4717 35.9009L52.7937 36.8477ZM52.8211 37.04L52.733 38.0361L52.8442 38.0459L52.9548 38.031L52.8211 37.04ZM55.1454 37.1316L55.7024 36.3011L55.5434 36.1944L55.3561 36.154L55.1454 37.1316ZM57.0912 37.8684L56.966 38.8605L57.1348 38.8818L57.3012 38.8461L57.0912 37.8684ZM57.6449 36.5979C57.267 36.3953 56.8788 36.2159 56.4823 36.0608L55.7536 37.9233C56.0755 38.0492 56.3914 38.1952 56.7001 38.3606L57.6449 36.5979ZM56.6338 36.1354C56.2499 35.9042 55.8464 35.7124 55.4283 35.5631L54.7557 37.4466C55.0467 37.5505 55.3301 37.6849 55.6021 37.8487L56.6338 36.1354ZM55.209 35.5118C54.7031 35.4521 54.1922 35.4902 53.6998 35.6233L54.2219 37.554C54.4695 37.487 54.7238 37.4684 54.9749 37.498L55.209 35.5118ZM53.8331 35.5969C53.3785 35.6554 52.9295 35.7551 52.4906 35.8947L53.0969 37.8006C53.4223 37.6971 53.7539 37.6236 54.0885 37.5805L53.8331 35.5969ZM52.4717 35.9009C51.7627 36.1421 51.7086 36.8357 51.7572 37.1206C51.8012 37.378 52.0393 37.9747 52.733 38.0361L52.9092 36.0439C53.5193 36.0978 53.6996 36.6134 53.7287 36.784C53.7625 36.9821 53.7366 37.5832 53.1158 37.7944L52.4717 35.9009ZM52.9548 38.031C53.6141 37.9421 54.2815 37.9683 54.9346 38.1091L55.3561 36.154C54.4774 35.9646 53.5768 35.929 52.6875 36.049L52.9548 38.031ZM54.5883 37.9621C55.3078 38.4447 56.1184 38.7535 56.966 38.8605L57.2164 36.8763C56.6882 36.8096 56.1718 36.616 55.7024 36.3011L54.5883 37.9621ZM57.3012 38.8461C57.5507 38.7925 57.7641 38.6623 57.9226 38.4915L56.4562 37.1313C56.5604 37.019 56.7056 36.9284 56.8812 36.8907L57.3012 38.8461ZM57.9226 38.4915C58.08 38.3217 58.1794 38.1171 58.2231 37.908L56.2653 37.499C56.2918 37.3722 56.3531 37.2426 56.4562 37.1313L57.9226 38.4915ZM58.2231 37.908C58.2667 37.6989 58.2561 37.4804 58.1904 37.2749L56.2854 37.8839C56.2451 37.758 56.2388 37.6257 56.2653 37.499L58.2231 37.908ZM58.1904 37.2749C58.1246 37.0693 58.0022 36.8729 57.8223 36.7191L56.5227 38.2394C56.4027 38.1368 56.3257 38.01 56.2854 37.8839L58.1904 37.2749Z" fill="#FFEDE4" mask="url(#path-15-inside-6_170_976)"/>
<mask id="path-17-inside-7_170_976" fill="white">
<path d="M57.7077 36.191C57.3644 36.0076 57.0124 35.8456 56.6533 35.7056C56.3254 35.5081 55.9819 35.3451 55.6274 35.2184C55.2488 35.1738 54.8663 35.2022 54.4962 35.3022C54.1016 35.353 53.7113 35.4397 53.3292 35.5612C53.2409 35.5912 53.2728 35.7461 53.3565 35.7536C54.1308 35.6491 54.9149 35.68 55.6808 35.8451C56.2752 36.2439 56.9387 36.4951 57.6266 36.582C57.6639 36.5743 57.6984 36.5545 57.7259 36.5251C57.7533 36.4957 57.7726 36.4579 57.7812 36.4164C57.7898 36.3749 57.7874 36.3314 57.7744 36.2914C57.7613 36.2514 57.7382 36.2165 57.7077 36.191Z"/>
</mask>
<path d="M57.7077 36.191C57.3644 36.0076 57.0124 35.8456 56.6533 35.7056C56.3254 35.5081 55.9819 35.3451 55.6274 35.2184C55.2488 35.1738 54.8663 35.2022 54.4962 35.3022C54.1016 35.353 53.7113 35.4397 53.3292 35.5612C53.2409 35.5912 53.2728 35.7461 53.3565 35.7536C54.1308 35.6491 54.9149 35.68 55.6808 35.8451C56.2752 36.2439 56.9387 36.4951 57.6266 36.582C57.6639 36.5743 57.6984 36.5545 57.7259 36.5251C57.7533 36.4957 57.7726 36.4579 57.7812 36.4164C57.7898 36.3749 57.7874 36.3314 57.7744 36.2914C57.7613 36.2514 57.7382 36.2165 57.7077 36.191Z" fill="#FFEDE4"/>
<path d="M57.7077 36.191L58.3489 35.4237L58.2699 35.3576L58.179 35.309L57.7077 36.191ZM56.6533 35.7056L56.1375 36.5623L56.2106 36.6063L56.2902 36.6374L56.6533 35.7056ZM55.6274 35.2184L55.9637 34.2767L55.857 34.2386L55.7444 34.2253L55.6274 35.2184ZM54.4962 35.3022L54.6239 36.294L54.6915 36.2853L54.7573 36.2676L54.4962 35.3022ZM53.3292 35.5612L53.026 34.6083L53.0166 34.6113L53.0071 34.6145L53.3292 35.5612ZM53.3565 35.7536L53.2684 36.7497L53.3796 36.7595L53.4902 36.7446L53.3565 35.7536ZM55.6808 35.8451L56.2378 35.0147L56.0788 34.908L55.8915 34.8676L55.6808 35.8451ZM57.6266 36.582L57.5014 37.5741L57.6657 37.5948L57.8279 37.5615L57.6266 36.582ZM58.179 35.309C57.801 35.1071 57.4129 34.9284 57.0165 34.7739L56.2902 36.6374C56.612 36.7628 56.9279 36.9082 57.2365 37.073L58.179 35.309ZM57.1692 34.8489C56.7853 34.6178 56.3818 34.426 55.9637 34.2767L55.2911 36.1602C55.5821 36.2641 55.8655 36.3985 56.1375 36.5623L57.1692 34.8489ZM55.7444 34.2253C55.2385 34.1657 54.7276 34.2037 54.2352 34.3369L54.7573 36.2676C55.0049 36.2006 55.2592 36.182 55.5103 36.2116L55.7444 34.2253ZM54.3685 34.3104C53.9139 34.369 53.4649 34.4687 53.026 34.6083L53.6323 36.5142C53.9577 36.4107 54.2893 36.3371 54.6239 36.294L54.3685 34.3104ZM53.0071 34.6145C52.2981 34.8557 52.244 35.5492 52.2926 35.8341C52.3366 36.0916 52.5747 36.6883 53.2684 36.7497L53.4446 34.7574C54.0547 34.8114 54.235 35.327 54.2641 35.4976C54.2979 35.6957 54.272 36.2968 53.6512 36.5079L53.0071 34.6145ZM53.4902 36.7446C54.1494 36.6557 54.8169 36.6819 55.47 36.8227L55.8915 34.8676C55.0128 34.6782 54.1122 34.6426 53.2229 34.7625L53.4902 36.7446ZM55.1237 36.6756C55.8432 37.1583 56.6538 37.4671 57.5014 37.5741L57.7518 35.5898C57.2236 35.5232 56.7072 35.3296 56.2378 35.0147L55.1237 36.6756ZM57.8279 37.5615C58.0801 37.5097 58.2964 37.3794 58.4568 37.2076L56.9949 35.8427C57.1005 35.7296 57.2477 35.6389 57.4253 35.6024L57.8279 37.5615ZM58.4568 37.2076C58.6162 37.0368 58.7165 36.8305 58.7603 36.6196L56.802 36.2132C56.8286 36.0854 56.8904 35.9546 56.9949 35.8427L58.4568 37.2076ZM58.7603 36.6196C58.804 36.4088 58.7926 36.1885 58.7252 35.9815L56.8236 36.6013C56.7823 36.4744 56.7755 36.341 56.802 36.2132L58.7603 36.6196ZM58.7252 35.9815C58.6577 35.7744 58.5325 35.577 58.3489 35.4237L57.0665 36.9584C56.9439 36.8559 56.865 36.7283 56.8236 36.6013L58.7252 35.9815Z" fill="#FFEDE4" mask="url(#path-17-inside-7_170_976)"/>
<path d="M54.7626 5.86015C54.7626 5.86023 54.7626 5.86031 54.7627 5.86039L54.8798 5.83371L54.6302 6.18057C54.3492 5.90001 54.1651 5.51717 54.1102 5.09922C54.0246 4.7039 54.0064 4.29396 54.0564 3.89102C54.1048 3.46672 54.2295 3.05793 54.4229 2.68959C54.6164 2.32126 54.8746 2.00108 55.1817 1.7486L54.7626 5.86015ZM54.7626 5.86015C54.7405 5.76323 54.701 5.66833 54.6396 5.52972C54.6362 5.5219 54.6326 5.5139 54.629 5.50572C54.5758 5.38595 54.5062 5.22912 54.4583 5.05347C54.4563 5.04632 54.4544 5.03914 54.4525 5.03193L54.4511 5.02652L54.4512 5.02652C54.4511 5.02618 54.451 5.02583 54.4509 5.02549C54.3623 4.66806 54.3388 4.29622 54.3803 3.93123C54.3804 3.93014 54.3805 3.92904 54.3806 3.92795C54.3969 3.78618 54.4229 3.64546 54.4588 3.50703C54.5189 3.2748 54.6059 3.05203 54.7174 2.84427C54.8433 2.60994 55.0004 2.39472 55.1857 2.20658C55.2521 2.13632 55.3217 2.06975 55.3942 2.00713C55.397 2.00473 55.3998 2.00234 55.4026 1.99996C55.6177 1.81559 55.8582 1.66588 56.1172 1.55749C56.1882 1.52778 56.2602 1.50134 56.333 1.4782C56.6213 1.38663 56.9226 1.34695 57.2249 1.36205L57.2521 1.36341L57.2789 1.3677C57.3154 1.37353 57.3516 1.3803 57.3875 1.388L54.7626 5.86015ZM55.5455 2.55381L55.2979 2.32073L55.1116 5.36082C55.1042 5.34401 55.0968 5.32721 55.0893 5.31041C55.0316 5.18019 54.9737 5.04957 54.9364 4.90611C54.833 4.48915 54.8352 4.04799 54.9428 3.63237C55.0504 3.21674 55.2592 2.84319 55.5455 2.55381ZM55.5455 2.55381C55.766 2.31964 56.026 2.13767 56.3102 2.01873C56.5944 1.89979 56.897 1.8463 57.2 1.86143L55.3038 2.31464L55.5455 2.55381Z" fill="#FFEDE4" stroke="#FFEDE4"/>
<mask id="path-20-inside-8_170_976" fill="white">
<path d="M62.3626 8.86872C61.6231 9.53713 60.432 9.04645 59.7093 8.6832C58.9011 8.2769 58.0008 7.7827 57.1565 8.46631C57.1242 8.49487 57.101 8.53453 57.0906 8.57924C57.0801 8.62396 57.083 8.67128 57.0987 8.714C57.1144 8.75673 57.1421 8.79251 57.1776 8.8159C57.213 8.83929 57.2543 8.84902 57.2952 8.84358C57.5233 8.79815 57.7574 8.80838 57.9817 8.87359C57.8665 9.11635 57.8255 9.39499 57.8651 9.66653C57.91 9.95085 57.992 10.3055 58.2837 10.3421L58.3497 10.3254L58.3978 10.2719L58.4134 10.1979L58.3917 10.1258C58.3306 10.0435 58.2877 9.94603 58.2666 9.84146C58.2455 9.73689 58.2468 9.62819 58.2703 9.52427C58.303 9.35356 58.3584 9.18933 58.4345 9.03709L58.6856 9.14973C59.1407 9.38535 59.6091 9.58716 60.0877 9.75383C60.5297 9.89587 60.9965 9.91028 61.4448 9.79573C61.8484 9.6627 62.2175 9.42203 62.5206 9.09419C62.6468 8.97045 62.4952 8.74888 62.3626 8.86872Z"/>
</mask>
<path d="M62.3626 8.86872C61.6231 9.53713 60.432 9.04645 59.7093 8.6832C58.9011 8.2769 58.0008 7.7827 57.1565 8.46631C57.1242 8.49487 57.101 8.53453 57.0906 8.57924C57.0801 8.62396 57.083 8.67128 57.0987 8.714C57.1144 8.75673 57.1421 8.79251 57.1776 8.8159C57.213 8.83929 57.2543 8.84902 57.2952 8.84358C57.5233 8.79815 57.7574 8.80838 57.9817 8.87359C57.8665 9.11635 57.8255 9.39499 57.8651 9.66653C57.91 9.95085 57.992 10.3055 58.2837 10.3421L58.3497 10.3254L58.3978 10.2719L58.4134 10.1979L58.3917 10.1258C58.3306 10.0435 58.2877 9.94603 58.2666 9.84146C58.2455 9.73689 58.2468 9.62819 58.2703 9.52427C58.303 9.35356 58.3584 9.18933 58.4345 9.03709L58.6856 9.14973C59.1407 9.38535 59.6091 9.58716 60.0877 9.75383C60.5297 9.89587 60.9965 9.91028 61.4448 9.79573C61.8484 9.6627 62.2175 9.42203 62.5206 9.09419C62.6468 8.97045 62.4952 8.74888 62.3626 8.86872Z" fill="#FFEDE4"/>
<path d="M62.3626 8.86872L61.692 8.12684L61.692 8.12688L62.3626 8.86872ZM59.7093 8.6832L59.2602 9.57667L59.2602 9.57668L59.7093 8.6832ZM57.1565 8.46631L56.5272 7.68912L56.5106 7.70262L56.4945 7.71682L57.1565 8.46631ZM57.2952 8.84358L57.427 9.83485L57.4589 9.83061L57.4905 9.82432L57.2952 8.84358ZM57.9817 8.87359L58.8851 9.30238L59.3888 8.24127L58.2609 7.91335L57.9817 8.87359ZM57.8651 9.66653L56.8755 9.81071L56.8773 9.82249L57.8651 9.66653ZM58.2837 10.3421L58.1591 11.3344L58.3462 11.3578L58.529 11.3116L58.2837 10.3421ZM58.3497 10.3254L58.595 11.2949L58.8899 11.2203L59.0933 10.994L58.3497 10.3254ZM58.3978 10.2719L59.1414 10.9405L59.3211 10.7407L59.3764 10.4777L58.3978 10.2719ZM58.4134 10.1979L59.392 10.4037L59.4445 10.1539L59.3709 9.9095L58.4134 10.1979ZM58.3917 10.1258L59.3492 9.83744L59.2988 9.67027L59.1948 9.53005L58.3917 10.1258ZM58.2703 9.52427L59.2457 9.74501L59.2493 9.7288L59.2525 9.71248L58.2703 9.52427ZM58.4345 9.03709L58.8437 8.12465L57.9687 7.73226L57.54 8.58998L58.4345 9.03709ZM58.6856 9.14973L59.1454 8.26169L59.1205 8.24878L59.0948 8.23728L58.6856 9.14973ZM60.0877 9.75383L59.7589 10.6982L59.7703 10.7022L59.7818 10.7059L60.0877 9.75383ZM61.4448 9.79573L61.6923 10.7646L61.7254 10.7561L61.7578 10.7455L61.4448 9.79573ZM62.5206 9.09419L61.8205 8.38021L61.803 8.39733L61.7864 8.41528L62.5206 9.09419ZM61.692 8.12688C61.6462 8.16823 61.5337 8.23615 61.2029 8.17795C60.8714 8.11965 60.4997 7.96128 60.1585 7.78973L59.2602 9.57668C59.6416 9.76837 60.2268 10.037 60.8564 10.1477C61.4866 10.2586 62.3394 10.2376 63.0331 9.61056L61.692 8.12688ZM60.1585 7.78974C59.8 7.60952 59.2387 7.30821 58.6481 7.18659C57.9834 7.04972 57.226 7.12331 56.5272 7.68912L57.7858 9.2435C57.9312 9.1257 58.0461 9.10459 58.2447 9.14549C58.5174 9.20164 58.8105 9.35058 59.2602 9.57667L60.1585 7.78974ZM56.4945 7.71682C56.2962 7.89196 56.1711 8.11887 56.1167 8.35205L58.0644 8.80643C58.0309 8.95019 57.9521 9.09778 57.8185 9.2158L56.4945 7.71682ZM56.1167 8.35205C56.0624 8.58508 56.0764 8.83137 56.1601 9.05899L58.0373 8.36902C58.0896 8.51119 58.0979 8.66283 58.0644 8.80643L56.1167 8.35205ZM56.1601 9.05899C56.2439 9.28701 56.4001 9.50102 56.6269 9.65066L57.7282 7.98114C57.8841 8.08399 57.9849 8.22644 58.0373 8.36902L56.1601 9.05899ZM56.6269 9.65066C56.8567 9.80222 57.1392 9.87314 57.427 9.83485L57.1633 7.85232C57.3694 7.82489 57.5693 7.87637 57.7282 7.98114L56.6269 9.65066ZM57.4905 9.82432C57.5604 9.81039 57.6318 9.81326 57.7025 9.83383L58.2609 7.91335C57.8831 7.8035 57.4862 7.7859 57.0998 7.86285L57.4905 9.82432ZM57.0783 8.4448C56.8766 8.86984 56.8082 9.34825 56.8755 9.8107L58.8546 9.52236C58.8429 9.44172 58.8564 9.36286 58.8851 9.30238L57.0783 8.4448ZM56.8773 9.82249C56.9006 9.96976 56.9491 10.26 57.0824 10.5342C57.2262 10.8302 57.5504 11.2579 58.1591 11.3344L58.4083 9.34994C58.5417 9.36669 58.6643 9.4255 58.7566 9.50558C58.8385 9.57656 58.8731 9.64329 58.8813 9.6602C58.8899 9.67796 58.8866 9.67648 58.8782 9.64304C58.8702 9.61129 58.8621 9.56931 58.8528 9.51056L56.8773 9.82249ZM58.529 11.3116L58.595 11.2949L58.1044 9.35599L58.0384 9.37269L58.529 11.3116ZM59.0933 10.994L59.1414 10.9405L57.6542 9.60336L57.6061 9.65687L59.0933 10.994ZM59.3764 10.4777L59.392 10.4037L57.4348 9.99213L57.4192 10.0662L59.3764 10.4777ZM59.3709 9.9095L59.3492 9.83744L57.4342 10.4142L57.4559 10.4863L59.3709 9.9095ZM59.1948 9.53005C59.2249 9.57056 59.2401 9.61019 59.2469 9.64375L57.2864 10.0392C57.3353 10.2819 57.4363 10.5164 57.5885 10.7216L59.1948 9.53005ZM59.2469 9.64375C59.2537 9.67726 59.2533 9.71116 59.2457 9.74501L57.295 9.30353C57.2403 9.54521 57.2374 9.79652 57.2864 10.0392L59.2469 9.64375ZM59.2525 9.71248C59.2683 9.62976 59.2946 9.55284 59.329 9.48421L57.54 8.58998C57.4221 8.82582 57.3378 9.07735 57.2882 9.33606L59.2525 9.71248ZM58.0253 9.94953L58.2764 10.0622L59.0948 8.23728L58.8437 8.12465L58.0253 9.94953ZM58.2259 10.0378C58.7227 10.295 59.2348 10.5157 59.7589 10.6982L60.4166 8.80946C59.9834 8.6586 59.5587 8.47569 59.1454 8.26169L58.2259 10.0378ZM59.7818 10.7059C60.4024 10.9053 61.061 10.9259 61.6923 10.7646L61.1972 8.82686C60.932 8.89463 60.6571 8.88643 60.3937 8.80178L59.7818 10.7059ZM61.7578 10.7455C62.3308 10.5566 62.8426 10.219 63.2549 9.7731L61.7864 8.41528C61.5924 8.62511 61.366 8.76876 61.1318 8.84597L61.7578 10.7455ZM63.2208 9.80817C63.6974 9.34078 63.6208 8.69613 63.3606 8.32058C63.2262 8.12661 62.9898 7.9184 62.6471 7.85346C62.2686 7.78177 61.9253 7.91598 61.692 8.12684L63.0331 9.61061C62.8661 9.76154 62.5915 9.8785 62.2748 9.81852C61.9938 9.76529 61.8124 9.59773 61.7167 9.45964C61.5339 9.19585 61.47 8.72385 61.8205 8.38021L63.2208 9.80817Z" fill="#FFEDE4" mask="url(#path-20-inside-8_170_976)"/>
<path d="M58.9645 13.5194L58.9559 13.5226L58.9529 13.5219L58.9559 13.5226L58.9542 13.5232L58.9559 13.5226L58.9689 13.5256M58.9645 13.5194L58.9559 13.5226L58.9689 13.5256M58.9645 13.5194L58.9757 13.5153L58.9645 13.5194ZM58.9689 13.5256L58.9703 13.5259L58.9689 13.5256Z" fill="#FFEDE4" stroke="#FFEDE4"/>
<mask id="path-23-inside-9_170_976" fill="white">
<path d="M60.1538 12.6036L59.8014 12.4654L59.4667 12.3828L59.3929 12.5305L59.5515 12.7254L59.5712 12.818L59.5822 12.8569L59.6323 13.0007L59.711 13.0695L59.8139 13.0501L59.8746 12.9472L60.0044 13.0119C60.2301 13.1192 60.3844 12.6854 60.1538 12.6036Z"/>
</mask>
<path d="M60.1538 12.6036L59.8014 12.4654L59.4667 12.3828L59.3929 12.5305L59.5515 12.7254L59.5712 12.818L59.5822 12.8569L59.6323 13.0007L59.711 13.0695L59.8139 13.0501L59.8746 12.9472L60.0044 13.0119C60.2301 13.1192 60.3844 12.6854 60.1538 12.6036Z" fill="#FFEDE4"/>
<path d="M60.1538 12.6036L59.7888 13.5346L59.8039 13.5405L59.8192 13.546L60.1538 12.6036ZM59.8014 12.4654L60.1665 11.5344L60.1051 11.5104L60.0411 11.4946L59.8014 12.4654ZM59.4667 12.3828L59.7064 11.412L58.9299 11.2203L58.5723 11.9357L59.4667 12.3828ZM59.3929 12.5305L58.4984 12.0834L58.2097 12.661L58.6173 13.1618L59.3929 12.5305ZM59.5515 12.7254L60.5294 12.5166L60.4791 12.281L60.3271 12.0942L59.5515 12.7254ZM59.5712 12.818L58.5933 13.0268L58.5998 13.0575L58.6083 13.0877L59.5712 12.818ZM59.5822 12.8569L58.6192 13.1267L58.6276 13.1566L58.6378 13.1859L59.5822 12.8569ZM59.6323 13.0007L58.6879 13.3297L58.7749 13.5795L58.9741 13.7536L59.6323 13.0007ZM59.711 13.0695L59.0528 13.8224L59.419 14.1425L59.8969 14.0521L59.711 13.0695ZM59.8139 13.0501L59.9999 14.0326L60.4452 13.9483L60.6753 13.558L59.8139 13.0501ZM59.8746 12.9472L60.3206 12.0521L59.4865 11.6365L59.0132 12.4393L59.8746 12.9472ZM60.0044 13.0119L59.5584 13.9069L59.5666 13.9109L59.5748 13.9149L60.0044 13.0119ZM60.5188 11.6726L60.1665 11.5344L59.4364 13.3964L59.7888 13.5346L60.5188 11.6726ZM60.0411 11.4946L59.7064 11.412L59.2271 13.3537L59.5618 13.4363L60.0411 11.4946ZM58.5723 11.9357L58.4984 12.0834L60.2873 12.9777L60.3612 12.83L58.5723 11.9357ZM58.6173 13.1618L58.7759 13.3566L60.3271 12.0942L60.1685 11.8993L58.6173 13.1618ZM58.5735 12.9342L58.5933 13.0268L60.5492 12.6092L60.5294 12.5166L58.5735 12.9342ZM58.6083 13.0877L58.6192 13.1267L60.5451 12.5872L60.5342 12.5482L58.6083 13.0877ZM58.6378 13.1859L58.6879 13.3297L60.5766 12.6718L60.5265 12.528L58.6378 13.1859ZM58.9741 13.7536L59.0528 13.8224L60.3691 12.3166L60.2904 12.2479L58.9741 13.7536ZM59.8969 14.0521L59.9999 14.0326L59.628 12.0675L59.525 12.087L59.8969 14.0521ZM60.6753 13.558L60.736 13.4551L59.0132 12.4393L58.9525 12.5422L60.6753 13.558ZM59.4286 13.8422L59.5584 13.9069L60.4504 12.1168L60.3206 12.0521L59.4286 13.8422ZM59.5748 13.9149C59.9537 14.0951 60.3684 14.0527 60.6886 13.8509C60.9644 13.677 61.1165 13.4243 61.1909 13.2179C61.2664 13.0087 61.3039 12.7326 61.221 12.4423C61.1283 12.1178 60.885 11.802 60.4884 11.6612L59.8192 13.546C59.5379 13.4461 59.3618 13.2152 59.298 12.9918C59.2439 12.8025 59.272 12.6435 59.3095 12.5394C59.346 12.4383 59.4315 12.279 59.6222 12.1589C59.8572 12.0108 60.168 11.9823 60.434 12.1089L59.5748 13.9149Z" fill="#FFEDE4" mask="url(#path-23-inside-9_170_976)"/>
<mask id="path-25-inside-10_170_976" fill="white">
<path d="M61.3501 11.7806C61.3436 11.613 61.3451 11.4452 61.3546 11.2778L61.5626 11.3329L61.6287 11.312L61.6678 11.2486L61.6623 11.1717L61.6146 11.1163L61.4023 10.9993C61.436 10.8711 61.5023 10.7567 61.593 10.6702L61.6257 10.6106L61.6153 10.5415L61.567 10.4973L61.5047 10.4999C61.365 10.5583 61.2472 10.6687 61.1711 10.8128C61.0699 10.6939 60.9745 10.5688 60.8854 10.4381C60.7641 10.2851 60.4828 10.4437 60.5859 10.6493C60.7039 10.8706 60.8777 11.0475 61.0853 11.1576C61.0919 11.4505 61.0609 11.7429 60.9934 12.0259C60.9121 12.0505 60.8469 12.1672 60.9132 12.25L60.9445 12.289L61.026 12.3448L61.121 12.3356C61.3467 12.2561 61.3534 12.008 61.3501 11.7806Z"/>
</mask>
<path d="M61.3501 11.7806C61.3436 11.613 61.3451 11.4452 61.3546 11.2778L61.5626 11.3329L61.6287 11.312L61.6678 11.2486L61.6623 11.1717L61.6146 11.1163L61.4023 10.9993C61.436 10.8711 61.5023 10.7567 61.593 10.6702L61.6257 10.6106L61.6153 10.5415L61.567 10.4973L61.5047 10.4999C61.365 10.5583 61.2472 10.6687 61.1711 10.8128C61.0699 10.6939 60.9745 10.5688 60.8854 10.4381C60.7641 10.2851 60.4828 10.4437 60.5859 10.6493C60.7039 10.8706 60.8777 11.0475 61.0853 11.1576C61.0919 11.4505 61.0609 11.7429 60.9934 12.0259C60.9121 12.0505 60.8469 12.1672 60.9132 12.25L60.9445 12.289L61.026 12.3448L61.121 12.3356C61.3467 12.2561 61.3534 12.008 61.3501 11.7806Z" fill="#FFEDE4"/>
<path d="M61.3501 11.7806L62.35 11.7661L62.3498 11.7537L62.3494 11.7414L61.3501 11.7806ZM61.3546 11.2778L61.6109 10.3112L60.4262 9.99709L60.3563 11.2207L61.3546 11.2778ZM61.5626 11.3329L61.3063 12.2995L61.5879 12.3742L61.8654 12.286L61.5626 11.3329ZM61.6287 11.312L61.9314 12.265L62.2844 12.1529L62.4792 11.8379L61.6287 11.312ZM61.6678 11.2486L62.5184 11.7745L62.6884 11.4996L62.6653 11.1771L61.6678 11.2486ZM61.6623 11.1717L62.6598 11.1002L62.6361 10.7705L62.4206 10.5198L61.6623 11.1717ZM61.6146 11.1163L62.3729 10.4643L62.2552 10.3274L62.097 10.2403L61.6146 11.1163ZM61.4023 10.9993L60.4352 10.7448L60.2367 11.4991L60.9199 11.8753L61.4023 10.9993ZM61.593 10.6702L62.2835 11.3935L62.3951 11.2869L62.4694 11.1517L61.593 10.6702ZM61.6257 10.6106L62.5022 11.0921L62.6647 10.7961L62.6146 10.4622L61.6257 10.6106ZM61.6153 10.5415L62.6043 10.3931L62.5517 10.0429L62.2904 9.80376L61.6153 10.5415ZM61.567 10.4973L62.2421 9.75953L61.9376 9.48085L61.5251 9.49814L61.567 10.4973ZM61.5047 10.4999L61.4628 9.50075L61.2842 9.50824L61.1191 9.5772L61.5047 10.4999ZM61.1711 10.8128L60.4094 11.4608L61.3657 12.5848L62.0552 11.2801L61.1711 10.8128ZM60.8854 10.4381L61.7117 9.87484L61.6913 9.84499L61.6689 9.81667L60.8854 10.4381ZM60.5859 10.6493L59.6921 11.0977L59.6976 11.1088L59.7034 11.1197L60.5859 10.6493ZM61.0853 11.1576L62.085 11.135L62.0718 10.5487L61.5536 10.274L61.0853 11.1576ZM60.9934 12.0259L61.2825 12.9832L61.8327 12.817L61.9661 12.258L60.9934 12.0259ZM60.9132 12.25L60.1321 12.8745L60.1341 12.877L60.9132 12.25ZM60.9445 12.289L60.1655 12.9159L60.2578 13.0306L60.3792 13.1139L60.9445 12.289ZM61.026 12.3448L60.4607 13.1697L60.7607 13.3753L61.1227 13.3401L61.026 12.3448ZM61.121 12.3356L61.2177 13.3309L61.3387 13.3191L61.4533 13.2787L61.121 12.3356ZM62.3494 11.7414C62.344 11.6059 62.3453 11.4702 62.353 11.3349L60.3563 11.2207C60.3449 11.4202 60.3431 11.6201 60.3509 11.8197L62.3494 11.7414ZM61.0983 12.2444L61.3063 12.2995L61.8189 10.3663L61.6109 10.3112L61.0983 12.2444ZM61.8654 12.286L61.9314 12.265L61.3259 10.3589L61.2599 10.3799L61.8654 12.286ZM62.4792 11.8379L62.5184 11.7745L60.8173 10.7227L60.7781 10.7861L62.4792 11.8379ZM62.6653 11.1771L62.6598 11.1002L60.6649 11.2432L60.6704 11.3201L62.6653 11.1771ZM62.4206 10.5198L62.3729 10.4643L60.8563 11.7682L60.904 11.8237L62.4206 10.5198ZM62.097 10.2403L61.8847 10.1234L60.9199 11.8753L61.1323 11.9922L62.097 10.2403ZM62.3694 11.2539C62.3589 11.2937 62.3344 11.3449 62.2835 11.3935L60.9024 9.94688C60.6702 10.1686 60.5132 10.4485 60.4352 10.7448L62.3694 11.2539ZM62.4694 11.1517L62.5022 11.0921L60.7493 10.1291L60.7165 10.1887L62.4694 11.1517ZM62.6146 10.4622L62.6043 10.3931L60.6264 10.6899L60.6368 10.7589L62.6146 10.4622ZM62.2904 9.80376L62.2421 9.75953L60.8919 11.235L60.9403 11.2792L62.2904 9.80376ZM61.5251 9.49814L61.4628 9.50075L61.5466 11.499L61.6089 11.4964L61.5251 9.49814ZM61.1191 9.5772C60.7486 9.73207 60.4626 10.0132 60.2869 10.3456L62.0552 11.2801C62.0319 11.3242 61.9814 11.3845 61.8903 11.4225L61.1191 9.5772ZM61.9327 10.1648C61.8548 10.0733 61.781 9.9765 61.7117 9.87484L60.0591 11.0014C60.168 11.161 60.2849 11.3145 60.4094 11.4608L61.9327 10.1648ZM61.6689 9.81667C61.1998 9.2253 60.4848 9.32989 60.1144 9.56575C59.9112 9.69509 59.719 9.90447 59.6232 10.1925C59.5213 10.4989 59.5536 10.8218 59.6921 11.0977L61.4797 10.2009C61.5666 10.3741 61.5954 10.6 61.521 10.8237C61.4528 11.0289 61.3191 11.1697 61.1886 11.2528C60.9634 11.3962 60.4497 11.4979 60.1019 11.0595L61.6689 9.81667ZM59.7034 11.1197C59.9085 11.5045 60.2211 11.8314 60.617 12.0411L61.5536 10.274C61.5342 10.2637 61.4992 10.2368 61.4683 10.1789L59.7034 11.1197ZM60.0855 11.1801C60.0902 11.3879 60.0682 11.5948 60.0207 11.7938L61.9661 12.258C62.0537 11.8911 62.0935 11.513 62.085 11.135L60.0855 11.1801ZM60.7043 11.0686C60.3397 11.1787 60.0949 11.4501 59.9782 11.7237C59.8484 12.0279 59.8211 12.4855 60.1321 12.8745L61.6942 11.6256C61.939 11.9317 61.9112 12.2895 61.8177 12.5085C61.7374 12.697 61.5658 12.8977 61.2825 12.9832L60.7043 11.0686ZM60.1341 12.877L60.1655 12.9159L61.7236 11.662L61.6922 11.6231L60.1341 12.877ZM60.3792 13.1139L60.4607 13.1697L61.5913 11.5199L61.5098 11.4641L60.3792 13.1139ZM61.1227 13.3401L61.2177 13.3309L61.0242 11.3403L60.9292 11.3495L61.1227 13.3401ZM61.4533 13.2787C61.9415 13.1067 62.1848 12.7225 62.2809 12.3954C62.3591 12.1291 62.3514 11.8634 62.35 11.7661L60.3502 11.795C60.351 11.8484 60.3505 11.8727 60.3496 11.8867C60.3486 11.9012 60.3487 11.8768 60.362 11.8317C60.376 11.7839 60.4104 11.6938 60.4908 11.5993C60.5768 11.4983 60.684 11.4293 60.7887 11.3924L61.4533 13.2787Z" fill="#FFEDE4" mask="url(#path-25-inside-10_170_976)"/>
</svg>
