<svg width="26" height="32" viewBox="0 0 26 32" fill="none" xmlns="http://www.w3.org/2000/svg">
<path d="M11.7478 19.509C11.7048 19.4817 11.6531 19.4693 11.6007 19.4753C11.5008 19.4868 11.3996 19.4758 11.3044 19.443L11.2307 19.6569L11.3044 19.443C11.2093 19.4102 11.1227 19.3565 11.051 19.2859C10.9793 19.2152 10.9244 19.1294 10.8903 19.0347C10.8564 18.9407 10.8439 18.8402 10.8537 18.7406C10.8809 18.5104 10.967 18.2911 11.1037 18.1039C11.2408 17.9162 11.4241 17.7672 11.6357 17.6712L11.6359 17.6716L11.6478 17.6653C11.9977 17.4808 12.6605 17.3099 13.2595 17.3363C13.5573 17.3494 13.8194 17.4106 14.0149 17.5257C14.2006 17.635 14.3319 17.7953 14.3828 18.0347C14.4076 18.2683 14.3622 18.504 14.2522 18.7116C14.1406 18.9222 13.9679 19.094 13.7567 19.2044C13.7501 19.2078 13.7437 19.2116 13.7375 19.2157C13.5553 19.3353 13.3424 19.4097 13.1037 19.4917L13.0846 19.4983C12.8312 19.5853 12.5375 19.6861 12.3098 19.8787C12.2576 19.923 12.2113 19.9726 12.1702 20.0264C12.1641 19.9047 12.1239 19.7755 12.035 19.6724C11.9614 19.5871 11.8627 19.5298 11.7478 19.509ZM11.6199 20.6572C11.7413 20.6558 11.8469 20.618 11.9319 20.5564C11.9183 20.6111 11.9069 20.6662 11.8975 20.7208C11.8422 21.0393 11.843 21.3863 11.8648 21.6844L11.8649 21.6848L12.033 23.9263C12.0356 24.1024 12.1111 24.2472 12.2289 24.3444C12.3434 24.4389 12.4871 24.4805 12.6211 24.4805C12.7549 24.4805 12.8996 24.439 13.0126 24.3406C13.132 24.2366 13.1991 24.0832 13.1878 23.9028L13.1878 23.9028L13.1876 23.9L13.0195 21.6588C13.0186 21.5677 13.0042 21.4601 12.9914 21.3645L12.99 21.3545C12.9735 21.2313 12.9583 21.1152 12.9572 21.0108C12.9561 20.9019 12.9715 20.8414 12.9884 20.8128C13.0034 20.7872 13.0394 20.7544 13.1226 20.7216C13.2053 20.6889 13.3031 20.6678 13.4131 20.6448L13.4206 20.6433C13.487 20.6294 13.5639 20.6133 13.6299 20.5921C14.2072 20.4423 14.7174 20.1027 15.0784 19.6279C15.441 19.151 15.6317 18.5656 15.6199 17.9667C15.6198 17.9593 15.6193 17.952 15.6184 17.9447C15.5381 17.2623 15.1504 16.8158 14.6477 16.5545C14.1579 16.3 13.5607 16.22 13.0194 16.2407C12.415 16.2118 11.8142 16.3508 11.2838 16.6425C10.7504 16.9359 10.3094 17.372 10.01 17.9021L10.01 17.902L10.0085 17.9048C9.85129 18.1924 9.76887 18.5149 9.76887 18.8426C9.76887 19.1704 9.85129 19.4929 10.0085 19.7805L10.0085 19.7805L10.0109 19.7847C10.1724 20.0658 10.4091 20.2963 10.6944 20.4504C10.9779 20.6035 11.2982 20.6751 11.6199 20.6572ZM16.8288 11.4537C16.8283 11.4564 16.8279 11.4591 16.8276 11.4618H5.97404C6.03795 11.3779 6.08085 11.2707 6.08901 11.1401C6.09271 11.0809 6.073 11.0228 6.03437 10.9781C6.06237 8.78113 6.60145 6.62017 7.60985 4.66663C8.0663 3.80457 8.74243 3.07839 9.56975 2.56161C10.394 2.04672 11.3393 1.75792 12.3105 1.72413C13.1969 1.79023 14.0457 2.10971 14.7558 2.64465C15.4681 3.18124 16.0105 3.91182 16.3181 4.74881C17.0328 6.90864 17.2082 9.21056 16.8288 11.4537ZM4.9341 11.126C4.9341 11.2553 4.9714 11.3699 5.03773 11.4618H1.44995C1.29673 11.4618 1.14983 11.5227 1.0415 11.631C0.9332 11.7393 0.872281 11.8862 0.872281 12.0395C0.872281 12.1554 0.907111 12.2676 0.970919 12.3623C0.970814 12.3648 0.970723 12.3672 0.970646 12.3697L0.9706 12.3697L0.97055 12.3743L0.773743 30.085H0.773729V30.0875C0.773729 30.2407 0.834648 30.3877 0.942948 30.496L0.942955 30.496C1.05128 30.6043 1.19819 30.6652 1.3514 30.6652C1.44639 30.6652 1.53897 30.6418 1.62146 30.5982C9.24502 31.3989 16.9146 31.6749 24.5761 31.4244C24.7941 31.4231 24.9599 31.3122 25.0518 31.1562C25.1344 31.016 25.1545 30.846 25.1186 30.6945L23.7163 11.9741C23.7127 11.7324 23.5688 11.5638 23.3948 11.4836C23.246 11.4151 23.0661 11.4053 22.9095 11.4618H17.9841C18.1227 9.74395 18.2225 7.78929 17.8732 5.98932C17.5194 4.16683 16.7011 2.48306 14.9826 1.36417C13.259 0.241985 11.4856 0.286301 9.95417 0.987899C8.43214 1.68519 7.15094 3.02872 6.36599 4.51221C6.36361 4.51669 6.36139 4.52126 6.35933 4.52589C5.43308 6.60327 4.94778 8.85019 4.9341 11.1247V11.126ZM22.6078 12.6172L23.9316 30.2887C16.5898 30.5011 9.24198 30.2286 1.93592 29.4731L2.12323 12.6172H22.6078Z" fill="#FFEDE4" stroke="#FFEDE4" stroke-width="0.452541" stroke-linejoin="round"/>
</svg>
