<svg width="33" height="33" viewBox="0 0 33 33" fill="none" xmlns="http://www.w3.org/2000/svg">
<path d="M11.2698 1.33471C11.2697 1.33464 11.2696 1.33457 11.2695 1.3345C11.2178 1.29151 11.1496 1.27376 11.0835 1.28606C4.90583 2.4354 1.40813 8.31175 0.640573 14.1222C0.0323963 17.1956 0.433499 20.3833 1.78426 23.2103C1.78855 23.2193 1.79344 23.228 1.79889 23.2364C3.51001 25.8604 5.83116 28.031 8.56382 29.5625C11.0905 31.1405 14.0262 31.9389 17.0041 31.8577C19.9838 31.7765 22.8734 30.8183 25.3112 29.103L25.3113 29.1031L25.3152 29.1002C27.6496 27.3815 29.5217 25.1111 30.7642 22.492C32.0064 19.8734 32.5805 16.9878 32.4352 14.0932C32.3166 10.7498 30.925 7.57811 28.5449 5.22704L28.545 5.22687L28.5374 5.21999C26.1614 3.07684 23.3287 1.50258 20.254 0.616468L11.2698 1.33471ZM11.2698 1.33471C11.5303 1.36558 11.7085 1.57238 11.7662 1.77758C11.8022 1.90558 11.8004 2.05586 11.7313 2.19016C11.6585 2.33162 11.524 2.42908 11.3493 2.46184L11.3491 2.46189C4.78956 3.68322 1.74978 10.4654 1.59615 16.6385L1.5958 16.6525L1.59537 16.6525C1.46796 18.1185 1.64693 19.595 2.12079 20.9882C2.59452 22.3809 3.35262 23.6599 4.34706 24.744C6.25271 26.7757 8.52671 28.4272 11.0483 29.6108C13.5961 30.6841 16.4036 30.9838 19.1207 30.4723C21.8392 29.9606 24.3468 28.6596 26.3305 26.7316L26.3309 26.7313C28.2702 24.8538 29.7144 22.5253 30.5345 19.9537C31.3543 17.3831 31.525 14.6496 31.0315 11.997M11.2698 1.33471L31.0315 11.997M31.0315 11.997C29.8333 6.49544 25.0549 3.37336 19.9395 1.7381L19.9389 1.73792C19.5808 1.62241 19.4849 1.27859 19.5544 1.01947C19.5892 0.889563 19.6679 0.762625 19.7921 0.679951C19.9216 0.593776 20.0839 0.56721 20.2538 0.616406L31.0315 11.997ZM9.36753 12.0761C9.38754 12.2346 9.47887 12.3864 9.65862 12.477C11.0358 13.1944 12.2311 14.2129 13.1571 15.4545L9.73173 18.7887C9.73149 18.7889 9.73126 18.7891 9.73103 18.7893C9.6078 18.9076 9.5523 19.0543 9.55853 19.2006C9.54542 19.2499 9.53862 19.301 9.53862 19.3528C9.53862 19.4978 9.59188 19.6375 9.6879 19.7457L11.9591 22.5496C12.0083 22.614 12.0705 22.6675 12.1418 22.7064C12.2145 22.746 12.2948 22.7695 12.3773 22.7754C12.4599 22.7813 12.5428 22.7693 12.6203 22.7404C12.6979 22.7114 12.7683 22.6662 12.8268 22.6076C12.8815 22.5529 12.9246 22.4878 12.9536 22.4162C14.1221 21.3681 15.374 20.4173 16.697 19.5732C17.722 20.5343 18.6323 21.6111 19.4097 22.7824C19.4173 22.8083 19.4268 22.8337 19.4382 22.8583C19.4703 22.928 19.5168 22.9903 19.5746 23.041C19.682 23.1435 19.8248 23.2007 19.9734 23.2007C20.1224 23.2007 20.2655 23.1432 20.3729 23.0403L22.9834 20.7385C22.9876 20.7349 22.9915 20.7311 22.9954 20.7272C23.0837 20.637 23.1396 20.521 23.1557 20.3971C23.1885 20.3501 23.2144 20.2981 23.2321 20.2427L23.0166 20.1737L23.2321 20.2427C23.2757 20.1066 23.2673 19.959 23.2084 19.8287C23.2012 19.8127 23.1922 19.7977 23.1815 19.7838L23.0982 19.6757L23.0953 19.6718C22.1307 18.419 21.1048 17.0865 20.0318 15.889C21.1486 14.7288 22.3249 13.6273 23.5559 12.5888C23.5614 12.5842 23.5666 12.5794 23.5716 12.5743C23.635 12.5096 23.6817 12.4315 23.709 12.3469C23.7379 12.3096 23.762 12.2688 23.7809 12.2254L23.5732 12.1355L23.7809 12.2253C23.8114 12.1548 23.8273 12.0786 23.8273 12.0014C23.8273 11.9243 23.8114 11.8481 23.7809 11.7775C23.7502 11.7068 23.7054 11.6431 23.6493 11.5905L23.6494 11.5903L23.6426 11.5844L21.0179 9.31066C20.9083 9.20774 20.7635 9.15035 20.613 9.15035C20.4603 9.15035 20.3135 9.2094 20.2033 9.31509L20.2033 9.31501L20.1984 9.32C20.1884 9.33012 20.1789 9.34058 20.1698 9.35134C18.901 10.3253 17.556 11.1954 16.1478 11.9534C14.8438 10.8946 13.4676 9.92775 12.0292 9.05983C12.0291 9.05979 12.029 9.05976 12.029 9.05972L11.9121 9.25345C11.8798 9.23393 11.8449 9.2199 11.8088 9.21156M9.36753 12.0761L11.6662 8.95502C11.5191 8.95502 11.3777 9.01112 11.2707 9.11157M9.36753 12.0761C9.28625 12.0019 9.22717 11.9054 9.19856 11.7974C9.15962 11.6502 9.18031 11.4937 9.2561 11.3618L9.26152 11.3524L9.26174 11.3525C9.80619 10.5021 10.4846 9.74531 11.2707 9.11157M9.36753 12.0761L9.4523 11.4745C9.98531 10.6419 10.6499 9.90139 11.4202 9.28174M11.8088 9.21156L11.9007 9.00479C11.8941 9.00185 11.8875 8.99904 11.8808 8.99636C11.8738 8.99448 11.8668 8.99272 11.8598 8.9911L11.8088 9.21156ZM11.8088 9.21156C11.7643 9.19178 11.7158 9.18129 11.6662 9.18129C11.5742 9.18129 11.4859 9.21735 11.4202 9.28174M11.4202 9.28174L11.2784 9.10544C11.2758 9.10748 11.2733 9.10953 11.2707 9.11157M11.4202 9.28174L11.2618 9.12015C11.2648 9.11726 11.2677 9.1144 11.2707 9.11157M10.4771 11.6113C12.0521 12.4926 13.4015 13.7293 14.4171 15.2244C14.5184 15.3669 14.5409 15.5283 14.4938 15.6756C14.4538 15.8011 14.3689 15.901 14.2713 15.9698C14.2596 15.9831 14.2472 15.996 14.2342 16.0085C14.2339 16.0087 14.2337 16.0089 14.2335 16.0091L10.8298 19.3219L12.441 21.3235C13.6826 20.2318 15.0117 19.2432 16.4149 18.3678C16.5602 18.2737 16.7188 18.2576 16.8607 18.3023C16.9697 18.3167 17.0752 18.3642 17.1661 18.4469C17.1664 18.4472 17.1668 18.4474 17.1671 18.4477L17.0145 18.6148L10.4771 11.6113ZM10.4771 11.6113C10.5319 11.5352 10.5878 11.4603 10.6437 11.3875L10.6439 11.3876L10.6485 11.3811L10.7114 11.2931L10.8294 11.162C10.8353 11.1554 10.8409 11.1484 10.846 11.1411C10.9059 11.0564 10.9728 10.9769 11.0461 10.9035L11.0464 10.9038L11.0554 10.8936C11.2642 10.6579 11.4883 10.4365 11.7263 10.2308C13.0905 11.0652 14.3914 11.9993 15.6183 13.0254L15.6182 13.0254L15.6221 13.0285C15.6689 13.066 15.7189 13.0956 15.7712 13.1174C15.9243 13.2232 16.1418 13.2702 16.3515 13.148C17.8372 12.3742 19.2559 11.4783 20.593 10.4698L22.4218 12.0457C21.1893 13.0929 20.0145 14.2062 18.9024 15.3808L18.8999 15.3834C18.7691 15.5262 18.7249 15.6969 18.7484 15.8565C18.7132 16.0209 18.7466 16.2051 18.8821 16.36C18.9162 16.3989 18.9614 16.424 19.0099 16.4333C20.0504 17.6061 21.0361 18.8234 21.9771 20.0853L20.0993 21.75L10.4771 11.6113ZM15.8331 1.00146L15.9928 1.16123L15.8331 1.00146C15.7248 1.10976 15.6638 1.25668 15.6638 1.40993C15.6638 1.56318 15.7248 1.71011 15.8331 1.81842L15.9931 1.65842L15.8331 1.81842C15.9414 1.92675 16.0883 1.98761 16.2415 1.98761C16.3947 1.98761 16.5416 1.92675 16.65 1.81842C16.7583 1.71011 16.8192 1.56318 16.8192 1.40993C16.8192 1.25668 16.7583 1.10976 16.65 1.00146C16.5416 0.893147 16.3947 0.832261 16.2415 0.832261C16.0883 0.832261 15.9414 0.893147 15.8331 1.00146Z" fill="#FFEDE4" stroke="#FFEDE4" stroke-width="0.452541" stroke-linejoin="round"/>
</svg>
