<svg width="32" height="30" viewBox="0 0 32 30" fill="none" xmlns="http://www.w3.org/2000/svg">
<path d="M16.5501 3.41261C15.7575 2.54278 14.799 1.82793 13.7238 1.31203C12.1352 0.439221 10.3441 -0.0111829 8.52608 0.0049515C7.68753 -0.0379946 6.8588 0.199407 6.17381 0.678804C5.48881 1.1582 4.98756 1.85159 4.75105 2.64692C4.60817 3.56918 4.69229 4.51184 4.99631 5.39524C5.27761 6.21262 5.73951 6.95704 6.34754 7.57507C4.57616 7.60383 2.80447 7.63901 1.03248 7.68062C0.885703 7.68062 0.78672 7.75582 0.735533 7.85676C0.668222 7.91234 0.626956 7.99732 0.637819 8.11171C0.799951 9.82101 0.757383 11.5432 0.511029 13.2427C0.488537 13.3311 0.500714 13.4247 0.545118 13.5046C0.589522 13.5845 0.662873 13.6449 0.750488 13.6738C0.840148 13.6996 0.936535 13.6892 1.01843 13.6448C1.07045 13.6167 1.11393 13.5763 1.14543 13.5279C1.20241 13.5878 1.28665 13.6247 1.39873 13.618C6.05674 13.3728 10.7148 13.2176 15.3728 13.1523C15.3707 13.172 15.3702 13.1929 15.3716 13.2148L15.5177 16.8714C11.5744 16.8599 7.6311 16.9259 3.6878 17.0692C3.70499 15.9975 3.73543 14.9259 3.77914 13.8546C3.77914 13.4096 3.08893 13.4096 3.07484 13.8546C2.86109 19.0936 2.96457 24.3405 3.38474 29.5674C3.38474 29.6215 3.39578 29.6692 3.41509 29.7105C3.43217 29.8728 3.54409 30.0174 3.75084 29.9983C12.4252 29.2082 21.1512 29.1338 29.8381 29.7758C30.2225 29.7758 30.2791 29.2903 30.0077 29.1302C29.093 24.0125 28.4767 18.8472 28.1619 13.6598C28.1619 13.2148 27.4294 13.2148 27.4576 13.6598C27.5259 14.8255 27.6095 15.99 27.7081 17.1532C23.8795 16.9873 20.0508 16.8943 16.2221 16.8742L16.0759 13.2148C16.0759 13.1895 16.0735 13.1656 16.069 13.1432C21.0391 13.0832 26.0092 13.1256 30.9793 13.2704C31.1302 13.2704 31.2306 13.194 31.2805 13.0919C31.3236 13.0746 31.3633 13.0488 31.3969 13.0156C31.4629 12.9504 31.5 12.862 31.5 12.7698L30.939 8.06242C30.9561 8.02107 30.9652 7.97645 30.9652 7.93091C30.9652 7.83871 30.9281 7.75029 30.862 7.6851C30.796 7.61991 30.7064 7.58328 30.613 7.58328C28.7956 7.5525 26.9778 7.5285 25.1597 7.51128C26.5641 5.46586 28.4187 0.226372 24.3587 0.11619C22.6449 0.15878 20.9636 0.586797 19.4427 1.36765C18.3481 1.85796 17.3664 2.55417 16.5501 3.41261ZM5.65981 5.03987C5.92393 5.85373 6.397 6.58624 7.03297 7.16609L7.00479 7.23561C7.09641 7.33897 7.111 7.45834 7.07871 7.56356C12.8797 7.47516 18.6775 7.45567 24.472 7.50509C24.4394 7.42166 24.4455 7.32269 24.5137 7.22171C25.4873 5.85159 26.0444 4.2355 26.1194 2.56349C26.1335 0.463821 23.9361 0.714113 22.5275 1.04784C21.0497 1.38268 19.6463 1.98114 18.3863 2.81378C17.8883 3.14805 17.4283 3.53364 17.0139 3.96376C17.2018 4.20583 17.3778 4.45776 17.5411 4.71879C18.0764 5.71996 17.8932 7.48591 16.3015 7.40248C14.7098 7.31905 15.0479 5.40014 15.6395 4.53802C15.7936 4.31286 15.9575 4.09527 16.1306 3.88579C15.4113 3.15767 14.5087 2.53684 14.076 2.27148C12.7281 1.40386 11.1949 0.856502 9.59662 0.672397C7.99082 0.49163 6.10328 0.811445 5.52576 2.52178C5.3495 3.35849 5.39569 4.226 5.65981 5.03987ZM15.5455 17.5667C11.5898 17.5549 7.63417 17.6209 3.67851 17.7648C3.6375 21.6046 3.76668 25.4449 4.06584 29.2747C8.086 28.9166 12.117 28.7122 16.1498 28.6615C16.0506 28.6102 15.9773 28.5135 15.9773 28.3713L15.5455 17.5667ZM16.2499 17.5696C20.0897 17.5901 23.9294 17.6839 27.7692 17.8512C28.1068 21.5983 28.6017 25.3306 29.2529 29.0384C25.0159 28.741 20.7701 28.614 16.5261 28.6572C16.6196 28.6049 16.6859 28.5096 16.6816 28.3713L16.2499 17.5696ZM16.6028 4.4188C16.3628 4.69725 16.1575 5.00339 15.9916 5.33061C15.838 5.60594 15.7834 5.92454 15.8367 6.23445C16.1935 6.76284 16.5457 6.83236 16.8931 6.44302C17.4069 5.85326 17.1454 5.11593 16.6028 4.4188ZM1.39873 12.9228C1.34489 12.9228 1.29728 12.9331 1.25598 12.9512C1.45357 11.4317 1.49005 9.89582 1.36472 8.36844C10.9875 8.15529 20.6191 8.12347 30.2598 8.27298L30.7718 12.5692C20.9715 12.2894 11.1805 12.4073 1.39873 12.9228Z" fill="#FFEDE4"/>
<path d="M16.5501 3.41261C15.7575 2.54278 14.799 1.82793 13.7238 1.31203C12.1352 0.439221 10.3441 -0.0111829 8.52608 0.0049515C7.68753 -0.0379946 6.8588 0.199407 6.17381 0.678804C5.48881 1.1582 4.98756 1.85159 4.75105 2.64692C4.60817 3.56918 4.69229 4.51184 4.99631 5.39524C5.27761 6.21262 5.73951 6.95704 6.34754 7.57507C4.57616 7.60383 2.80447 7.63901 1.03248 7.68062C0.885703 7.68062 0.78672 7.75582 0.735533 7.85676C0.668222 7.91234 0.626956 7.99732 0.637819 8.11171C0.799951 9.82101 0.757383 11.5432 0.511029 13.2427C0.488537 13.3311 0.500714 13.4247 0.545118 13.5046C0.589522 13.5845 0.662873 13.6449 0.750488 13.6738C0.840148 13.6996 0.936535 13.6892 1.01843 13.6448C1.07045 13.6167 1.11393 13.5763 1.14543 13.5279C1.20241 13.5878 1.28665 13.6247 1.39873 13.618C6.05674 13.3728 10.7148 13.2176 15.3728 13.1523C15.3707 13.172 15.3702 13.1929 15.3716 13.2148L15.5177 16.8714C11.5744 16.8599 7.6311 16.9259 3.6878 17.0692C3.70499 15.9975 3.73543 14.9259 3.77914 13.8546C3.77914 13.4096 3.08893 13.4096 3.07484 13.8546C2.86109 19.0936 2.96457 24.3405 3.38474 29.5674C3.38474 29.6215 3.39578 29.6692 3.41509 29.7105C3.43217 29.8728 3.54409 30.0174 3.75084 29.9983C12.4252 29.2082 21.1512 29.1338 29.8381 29.7758C30.2225 29.7758 30.2791 29.2903 30.0077 29.1302C29.093 24.0125 28.4767 18.8472 28.1619 13.6598C28.1619 13.2148 27.4294 13.2148 27.4576 13.6598C27.5259 14.8255 27.6095 15.99 27.7081 17.1532C23.8795 16.9873 20.0508 16.8943 16.2221 16.8742L16.0759 13.2148C16.0759 13.1895 16.0735 13.1656 16.069 13.1432C21.0391 13.0832 26.0092 13.1256 30.9793 13.2704C31.1302 13.2704 31.2306 13.194 31.2805 13.0919C31.3236 13.0746 31.3633 13.0488 31.3969 13.0156C31.4629 12.9504 31.5 12.862 31.5 12.7698L30.939 8.06242C30.9561 8.02107 30.9652 7.97645 30.9652 7.93091C30.9652 7.83871 30.9281 7.75029 30.862 7.6851C30.796 7.61991 30.7064 7.58328 30.613 7.58328C28.7956 7.5525 26.9778 7.5285 25.1597 7.51128C26.5641 5.46586 28.4187 0.226372 24.3587 0.11619C22.6449 0.15878 20.9636 0.586797 19.4427 1.36765C18.3481 1.85796 17.3664 2.55417 16.5501 3.41261ZM5.65981 5.03987C5.92393 5.85373 6.397 6.58624 7.03297 7.16609L7.00479 7.23561C7.09641 7.33897 7.111 7.45834 7.07871 7.56356C12.8797 7.47516 18.6775 7.45567 24.472 7.50509C24.4394 7.42166 24.4455 7.32269 24.5137 7.22171C25.4873 5.85159 26.0444 4.2355 26.1194 2.56349C26.1335 0.463821 23.9361 0.714113 22.5275 1.04784C21.0497 1.38268 19.6463 1.98114 18.3863 2.81378C17.8883 3.14805 17.4283 3.53364 17.0139 3.96376C17.2018 4.20583 17.3778 4.45776 17.5411 4.71879C18.0764 5.71996 17.8932 7.48591 16.3015 7.40248C14.7098 7.31905 15.0479 5.40014 15.6395 4.53802C15.7936 4.31286 15.9575 4.09527 16.1306 3.88579C15.4113 3.15767 14.5087 2.53684 14.076 2.27148C12.7281 1.40386 11.1949 0.856502 9.59662 0.672397C7.99082 0.49163 6.10328 0.811445 5.52576 2.52178C5.3495 3.35849 5.39569 4.226 5.65981 5.03987ZM15.5455 17.5667C11.5898 17.5549 7.63417 17.6209 3.67851 17.7648C3.6375 21.6046 3.76668 25.4449 4.06584 29.2747C8.086 28.9166 12.117 28.7122 16.1498 28.6615C16.0506 28.6102 15.9773 28.5135 15.9773 28.3713L15.5455 17.5667ZM16.2499 17.5696C20.0897 17.5901 23.9294 17.6839 27.7692 17.8512C28.1068 21.5983 28.6017 25.3306 29.2529 29.0384C25.0159 28.741 20.7701 28.614 16.5261 28.6572C16.6196 28.6049 16.6859 28.5096 16.6816 28.3713L16.2499 17.5696ZM16.6028 4.4188C16.3628 4.69725 16.1575 5.00339 15.9916 5.33061C15.838 5.60594 15.7834 5.92454 15.8367 6.23445C16.1935 6.76284 16.5457 6.83236 16.8931 6.44302C17.4069 5.85326 17.1454 5.11593 16.6028 4.4188ZM1.39873 12.9228C1.34489 12.9228 1.29728 12.9331 1.25598 12.9512C1.45357 11.4317 1.49005 9.89582 1.36472 8.36844C10.9875 8.15529 20.6191 8.12347 30.2598 8.27298L30.7718 12.5692C20.9715 12.2894 11.1805 12.4073 1.39873 12.9228Z" stroke="#FFEDE4"/>
</svg>
