<svg width="28" height="24" viewBox="0 0 28 24" fill="none" xmlns="http://www.w3.org/2000/svg">
<path d="M21.2769 0.949642L21.2767 0.949834L9.71529 12.0357L5.91776 8.80723C5.7957 8.6761 5.64538 8.57439 5.47814 8.50984C5.30609 8.44344 5.12089 8.41821 4.93734 8.43618C4.9286 8.43703 4.91991 8.4384 4.91132 8.44027C4.54004 8.52098 4.32956 8.82204 4.18178 9.03341C4.17656 9.04088 4.17141 9.04824 4.16634 9.05547C4.14401 9.08731 4.12285 9.11749 4.10166 9.14685C4.10154 9.14702 4.10141 9.14719 4.10129 9.14736L3.78729 9.5767C2.52313 10.5716 1.4872 11.8295 0.752752 13.2656C0.598053 13.557 0.720294 13.8354 0.908449 13.9853C3.4946 17.2295 6.39327 20.2117 9.5628 22.8889C9.73137 23.0355 9.92597 23.0592 10.0939 23.0141C10.1622 23.0896 10.2486 23.1485 10.3446 23.1817C10.5171 23.2414 10.7145 23.2144 10.8714 23.0715C10.8939 23.0594 10.9144 23.0435 10.932 23.0242C16.0794 17.3593 21.3955 11.8539 26.8803 6.50818C27.1123 6.49445 27.282 6.31429 27.3507 6.13786C27.437 5.91616 27.4056 5.61747 27.147 5.42849L27.1455 5.4274C25.3552 4.14152 23.6997 2.67773 22.2042 1.0584C22.1575 1.00754 22.1049 0.965991 22.0472 0.935215C21.9562 0.856891 21.8386 0.800746 21.7078 0.790343C21.5566 0.778315 21.4029 0.829064 21.2769 0.949642ZM4.39715 10.7065L4.39715 10.7065L4.39835 10.7049L4.63786 10.3708C4.70265 10.3217 4.76808 10.2733 4.83415 10.2257C4.95599 10.1457 5.04408 10.0235 5.08142 9.88248C5.09678 9.82445 5.1031 9.76493 5.1006 9.70593C5.11725 9.68579 5.1345 9.66614 5.15234 9.64699C5.17044 9.65354 5.19153 9.65996 5.21547 9.66498L6.56838 10.8285L6.56887 10.8289L9.07198 12.9941L8.01377 14.142C7.90963 14.2497 7.85133 14.3937 7.85133 14.5436C7.85133 14.6948 7.91064 14.84 8.01648 14.948L8.0164 14.948L8.02142 14.9528C8.1316 15.0586 8.27837 15.1176 8.43107 15.1176C8.58376 15.1176 8.73054 15.0586 8.84072 14.9528L8.84097 14.9531L8.84983 14.9436L10.5074 13.1596C10.6122 13.0496 10.6707 12.9035 10.6707 12.7514C10.6707 12.7381 10.6702 12.7248 10.6694 12.7115L21.6608 2.17219C22.947 3.52713 24.3443 4.77182 25.8378 5.8933C20.4961 11.1083 15.3145 16.4791 10.2929 22.0056C7.24801 19.4278 4.45553 16.5662 1.95319 13.4595C2.47672 12.5214 3.14752 11.6754 3.93852 10.9531C4.10482 10.9471 4.27546 10.873 4.39715 10.7065Z" fill="#FFEDE4" stroke="#FFEDE4" stroke-width="0.452541" stroke-linejoin="round"/>
</svg>
